<svg xmlns="http://www.w3.org/2000/svg" viewBox="0 0 1000.01 385.44"><defs><style>.cls-1{fill:#11baa1;}.cls-2{fill:#fff;}.cls-3{fill:#f7ce5b;}.cls-4{fill:#f6921e;}</style></defs><title>logo-teal-full</title><g id="options"><rect class="cls-1" x="-6.93" y="-1.97" width="1013.88" height="389.39"/><path class="cls-2" d="M184.74,209.33v48.53H148.13l-.28-4.95a7.5,7.5,0,0,1,2.73-6.2c5.31-4.4,9.65-13.05,9.65-20.64,0-21.23-8-35.94-17.95-35.94s-17.95,15.21-17.95,35.94c0,7.53,4.28,16.17,9.52,20.57a7.65,7.65,0,0,1,2.59,6.31l-.28,4.91H100v-88h26.06v12h.36a21.86,21.86,0,0,1,3.62-5.08,26.78,26.78,0,0,1,5.62-4.53,32.31,32.31,0,0,1,7.42-3.25,31.08,31.08,0,0,1,9.06-1.26q10.31,0,16.66,3.17a24,24,0,0,1,9.87,8.78,35.93,35.93,0,0,1,4.8,13.21A101,101,0,0,1,184.74,209.33Z"/><path class="cls-3" d="M160.23,226.05c0,7.59-4.33,16.24-9.65,20.64a7.5,7.5,0,0,0-2.73,6.2l.28,4.95h-12l.28-4.91a7.65,7.65,0,0,0-2.59-6.31c-5.24-4.4-9.52-13-9.52-20.57,0-20.72,8-35.94,17.95-35.94S160.23,204.83,160.23,226.05Z"/><path class="cls-2" d="M289.3,257.36H263.23v-12h-.36a30.12,30.12,0,0,1-3.71,5.07,24.35,24.35,0,0,1-5.52,4.53,32.08,32.08,0,0,1-7.42,3.26,31,31,0,0,1-9.05,1.27q-10.32,0-16.75-3.17a23.93,23.93,0,0,1-10-8.78,34.4,34.4,0,0,1-4.71-13.22,107.68,107.68,0,0,1-1.18-16.48V169.36h27.16v43.09q0,3.8.27,7.88a24.85,24.85,0,0,0,1.63,7.51,13,13,0,0,0,4.16,5.61q2.81,2.17,8.06,2.17a16.76,16.76,0,0,0,8.51-1.9,13,13,0,0,0,5-5.07,20.72,20.72,0,0,0,2.26-7.15,61.6,61.6,0,0,0,.54-8.33V169.36H289.3Z"/><path class="cls-2" d="M368.42,191.09h-23.9v29.33a54.83,54.83,0,0,0,.36,6.61,13.29,13.29,0,0,0,1.63,5.16,8.21,8.21,0,0,0,3.89,3.35,17.21,17.21,0,0,0,7,1.18,46.8,46.8,0,0,0,5.7-.45,9.66,9.66,0,0,0,5.34-2.08v22.63A41.18,41.18,0,0,1,359,259a87,87,0,0,1-9.6.54,52.28,52.28,0,0,1-12.67-1.45,28.87,28.87,0,0,1-10.14-4.62,21.61,21.61,0,0,1-6.79-8.24,28.16,28.16,0,0,1-2.44-12.31V191.09H300V169.36h17.38V143.29h27.16v26.07h23.9Z"/><path class="cls-2" d="M382.18,169.36h27.16v14.12h.36q4.35-8.15,10.32-12.22t15-4.07q2.35,0,4.71.18a23.4,23.4,0,0,1,4.35.72v24.8a41.39,41.39,0,0,0-5.7-1.36,37.18,37.18,0,0,0-5.88-.45q-7.79,0-12.31,2.17a16.34,16.34,0,0,0-7,6.06,23,23,0,0,0-3.17,9.33,90.68,90.68,0,0,0-.72,11.95v36.76H382.18Z"/><path class="cls-2" d="M454.06,141.66a15.76,15.76,0,1,1,4.62,11.13A15.17,15.17,0,0,1,454.06,141.66Zm2.17,27.7h27.16v88H456.24Z"/><path class="cls-2" d="M562.88,191.09H539v29.33a54.83,54.83,0,0,0,.36,6.61,13.29,13.29,0,0,0,1.63,5.16,8.21,8.21,0,0,0,3.89,3.35,17.21,17.21,0,0,0,7,1.18,46.8,46.8,0,0,0,5.7-.45,9.66,9.66,0,0,0,5.34-2.08v22.63a41.18,41.18,0,0,1-9.42,2.17,87,87,0,0,1-9.6.54,52.28,52.28,0,0,1-12.67-1.45,28.87,28.87,0,0,1-10.14-4.62,21.61,21.61,0,0,1-6.79-8.24,28.16,28.16,0,0,1-2.44-12.31V191.09H494.44V169.36h17.38V143.29H539v26.07h23.9Z"/><path class="cls-2" d="M574.83,141.66a15.76,15.76,0,1,1,4.62,11.13A15.17,15.17,0,0,1,574.83,141.66Zm2.17,27.7h27.16v88H577Z"/><path class="cls-2" d="M620.45,213.36a46.12,46.12,0,0,1,3.8-19,43.77,43.77,0,0,1,10.41-14.58,46,46,0,0,1,15.57-9.32,57.61,57.61,0,0,1,38.2,0A46,46,0,0,1,704,179.77a43.79,43.79,0,0,1,10.41,14.58,49.43,49.43,0,0,1,0,38A43.72,43.72,0,0,1,704,246.95a45.93,45.93,0,0,1-15.57,9.32,57.59,57.59,0,0,1-38.2,0,45.91,45.91,0,0,1-15.57-9.32,43.7,43.7,0,0,1-10.41-14.58A46.1,46.1,0,0,1,620.45,213.36Zm27.16,0q0,10,5.7,16.11t16,6.16q10.32,0,16-6.16t5.7-16.11q0-10-5.7-16.11t-16-6.16q-10.32,0-16,6.16T647.61,213.36Z"/><path class="cls-2" d="M734.16,169.36h26.07v12h.36a22,22,0,0,1,3.62-5.07,26.36,26.36,0,0,1,5.61-4.53,32.16,32.16,0,0,1,7.42-3.26,31.05,31.05,0,0,1,9.05-1.27q10.32,0,16.66,3.17a24.11,24.11,0,0,1,9.87,8.78,35.55,35.55,0,0,1,4.8,13.22,100.57,100.57,0,0,1,1.27,16.48v48.52H791.73V214.27q0-3.8-.27-7.88a24.84,24.84,0,0,0-1.63-7.51,13,13,0,0,0-4.16-5.61q-2.81-2.17-8.06-2.17a16.77,16.77,0,0,0-8.51,1.9,13,13,0,0,0-5,5.07,20.68,20.68,0,0,0-2.26,7.15,61.52,61.52,0,0,0-.54,8.33v43.82H734.16Z"/><path class="cls-2" d="M838.08,169.36h27.16v14.12h.36q4.35-8.15,10.32-12.22t15-4.07q2.35,0,4.71.18a23.4,23.4,0,0,1,4.35.72v24.8a41.35,41.35,0,0,0-5.7-1.36,37.16,37.16,0,0,0-5.88-.45q-7.79,0-12.31,2.17a16.34,16.34,0,0,0-7,6.06,23,23,0,0,0-3.17,9.33,90.45,90.45,0,0,0-.72,11.95v36.76H838.08Z"/><path class="cls-4" d="M131.16,229.37l.12.4a8.93,8.93,0,0,0,.36,1.1,13,13,0,0,0,1.88,3.3,13.29,13.29,0,0,0,1.65,1.75,11.71,11.71,0,0,0,2.08,1.51,10.83,10.83,0,0,0,2.42,1,9.1,9.1,0,0,0,1.29.27,3.33,3.33,0,0,0,.65.07h.56a10.16,10.16,0,0,0,1.46-.12,9.39,9.39,0,0,0,1.23-.26,10.87,10.87,0,0,0,2.42-1,11.68,11.68,0,0,0,2.08-1.51,13.38,13.38,0,0,0,1.65-1.75,12.85,12.85,0,0,0,1.88-3.31,9.62,9.62,0,0,0,.36-1.08l.13-.4.08.41a6.14,6.14,0,0,1,.13,1.2,8.82,8.82,0,0,1-.13,1.91,10.6,10.6,0,0,1-.7,2.41,12.11,12.11,0,0,1-3.78,5,11.1,11.1,0,0,1-3.1,1.73,9.53,9.53,0,0,1-1.83.48,12.66,12.66,0,0,1-1.69.17h-.56l-.46,0a5.64,5.64,0,0,1-.92-.12,9.8,9.8,0,0,1-1.77-.47,11.12,11.12,0,0,1-3.1-1.73,12.12,12.12,0,0,1-3.78-5,10.64,10.64,0,0,1-.7-2.41,9,9,0,0,1-.13-1.92,5.86,5.86,0,0,1,.13-1.19Z"/></g></svg>