<?xml version="1.0" encoding="UTF-8"?>
<svg width="161px" height="159px" viewBox="0 0 161 159" version="1.1" xmlns="http://www.w3.org/2000/svg" xmlns:xlink="http://www.w3.org/1999/xlink">
    <!-- Generator: Sketch 46.2 (44496) - http://www.bohemiancoding.com/sketch -->
    <title>blog-img1</title>
    <desc>Created with Sketch.</desc>
    <defs></defs>
    <g id="Page-1" stroke="none" stroke-width="1" fill="none" fill-rule="evenodd">
        <g id="blog" transform="translate(-42.000000, -133.000000)" fill="#231F20">
            <g id="blog-img1" transform="translate(122.432062, 212.564374) rotate(-330.000000) translate(-122.432062, -212.564374) translate(60.432062, 131.564374)">
                <path d="M11,25.146 C11,25.12 11.001,25.085 11.001,25.051 L11.001,25 C11,25.069 11,25.103 11,25.146" id="Fill-1"></path>
                <path d="M11.0026383,25 C10.9986383,25.162 10.9996383,25.177 11.0026383,25" id="Fill-3"></path>
                <g id="Group-7">
                    <path d="M114.890495,129.565972 C109.65692,130.500767 104.321045,130.65424 99.08437,131.611513 C94.585495,132.43314 90.04322,133.723714 85.629595,134.888719 C85.46142,134.825934 85.287045,134.794929 85.10957,134.79958 C85.020445,133.988805 84.93442,133.17803 84.849945,132.368805 C88.819495,131.052652 93.39277,130.669743 97.443695,129.655111 C100.54757,128.876891 103.668495,128.353685 106.78322,127.649877 C108.143345,127.342929 110.20562,127.244489 111.32627,126.264738 C114.26972,123.689015 112.63912,117.570221 113.02972,114.179848 C113.948095,106.182939 113.60787,98.2914459 113.27462,90.2666325 C112.64377,75.0324316 112.18342,59.619178 112.069495,44.3749005 C112.022995,38.0243455 112.30587,31.6606134 111.97107,25.3170344 C112.67167,25.3247856 113.369945,25.3674172 114.06667,25.430977 C114.220895,25.6170057 114.36582,25.8169866 114.50377,26.0301445 C115.68797,37.4313789 115.068745,48.6737139 114.995895,60.1268813 C114.921495,72.0683742 115.093545,84.0656756 115.56242,95.997867 C115.792595,101.841494 116.18552,107.681245 116.331995,113.528747 C116.40097,116.292824 117.80372,129.046642 114.890495,129.565972 M83.81997,124.450183 C88.622645,123.151857 93.435395,121.728738 98.35742,121.016403 C101.64962,120.539704 106.432145,120.820298 107.376095,116.848585 C107.958895,114.388355 107.510945,111.429723 107.526445,108.925312 C107.548145,105.325656 107.599295,101.726776 107.642695,98.1278957 C107.73957,90.140288 107.772895,82.1689579 107.453595,74.1852258 C106.841345,58.8208048 106.785545,43.503666 106.754545,28.1283933 C106.748345,24.9891589 106.737495,21.8530249 106.653795,18.7161158 C106.962245,18.7261923 107.27302,18.6866612 107.59697,18.6262019 C109.68637,21.387178 108.833095,28.5082019 108.85092,31.340489 C108.893545,37.5988048 108.71607,43.853245 108.899745,50.1107856 C109.25392,62.2189292 109.63832,74.3100201 109.880895,86.4235895 C110.122695,98.4953024 110.077745,110.334479 109.62282,122.368211 C109.535245,124.718374 104.491545,124.935408 102.93457,125.236154 C100.26392,125.751609 97.64597,126.37403 95.00632,127.052259 C91.673045,127.911092 87.824395,128.245944 84.522895,129.396221 C84.32992,127.735915 84.113695,126.084135 83.81997,124.450183 M81.718945,116.938499 C87.93212,115.376633 94.21117,114.079857 100.13992,111.590173 C100.881595,111.2778 101.50547,110.717389 101.476795,109.832977 C100.897095,91.6145656 99.76637,73.6441923 100.14922,55.3955512 C100.32902,46.8413311 100.137595,38.3444699 99.60517,29.8073024 C99.261845,24.2845751 99.49512,18.4293215 99.16032,12.7600967 C101.327995,12.0392354 102.91752,11.4594459 103.336795,15.1265368 C103.63672,17.7549675 103.54062,20.4779627 103.55767,23.1195703 C103.59487,29.0352833 103.54682,34.9525464 103.54682,40.8682593 C103.54682,52.6260488 103.849845,64.3218287 104.314845,76.0687665 C104.77132,87.6149483 104.352045,99.1828335 104.269895,110.732891 C104.25362,113.015618 105.15417,116.568767 102.296745,117.160183 C99.658645,117.705092 96.947695,117.92135 94.292545,118.380996 C90.574095,119.025896 86.832395,120.373829 83.19687,121.489226 C82.81247,119.950613 82.334295,118.432154 81.718945,116.938499 M81.174895,153.511743 C79.79927,151.2887 77.85092,149.44624 75.39727,149.227656 C72.98702,149.012173 70.961945,151.797953 69.289495,154.555054 C69.11047,149.3478 68.59277,144.157599 68.308345,138.94802 C68.11382,135.386345 67.373695,131.813044 66.984645,128.273073 C66.71882,125.864776 66.83972,123.389819 66.14687,121.072211 C70.23732,119.965341 74.326995,118.85847 78.426745,117.788805 C81.125295,123.826211 81.250845,130.574403 81.98012,137.058278 C82.60167,142.57713 82.342045,148.121561 81.174895,153.511743 M58.881245,119.186345 C51.599345,121.072987 44.38022,123.201465 37.18357,125.388853 C31.224595,127.201082 24.761095,128.538939 18.90287,130.779034 C18.99897,112.555972 17.311795,94.3832928 16.584845,76.1881349 C16.20897,66.7456278 16.206645,57.2721158 15.535495,47.8443359 C15.19372,43.0533215 14.782195,38.267733 14.45592,33.4751684 C14.191645,29.5848431 14.335795,25.4991876 13.60652,21.6538191 C13.706495,21.6344411 13.802595,21.6080871 13.90412,21.5902593 C13.926595,21.5863837 13.938995,21.5739818 13.960695,21.568556 C16.728995,20.5849292 29.381645,18.1657809 33.32407,17.3418287 C40.93767,15.7505081 48.39317,13.760001 55.928495,11.848556 C63.75677,9.86347464 71.650145,8.1589866 79.56677,6.57386699 C83.21702,5.84292919 86.875795,5.15694833 90.535345,4.47716842 C92.508495,4.11131196 94.05772,2.92537895 94.704845,5.49024976 C95.30392,7.86986699 95.24812,10.4564411 95.279895,12.8941923 C95.47442,28.3407761 96.867095,43.6245847 96.49742,59.100623 C96.101395,75.6905081 97.256145,92.0618096 97.79012,108.614489 C92.054345,110.824355 86.03337,112.041293 80.083695,113.561302 C72.99942,115.371207 65.96087,117.353963 58.881245,119.186345 M20.797745,134.350011 C20.94422,134.229867 21.058145,134.081044 21.13642,133.912843 C33.81697,129.688441 46.97337,126.18335 59.867045,122.759647 C60.98692,122.462001 62.108345,122.159704 63.225895,121.858958 C63.60952,123.706843 63.60022,125.594259 63.70872,127.482451 C58.205445,127.966125 52.538645,129.354365 47.039245,130.023293 C38.354595,131.080556 29.349095,132.387408 20.797745,134.350011 M21.57507,137.0389 C24.877345,137.217953 28.304395,136.318814 31.477245,135.648336 C37.25177,134.426747 43.01312,133.581867 48.872895,132.879609 C52.41387,132.456393 55.940895,131.899857 59.47567,131.43246 C60.81797,131.254958 62.621395,131.213877 63.99082,130.604633 C64.09777,131.539427 64.222545,132.472671 64.344995,133.405915 C56.222995,135.48091 47.91267,136.128135 39.605445,137.068355 C35.66147,137.514049 31.72292,137.97292 27.769645,138.351178 C27.00782,138.424039 26.228945,138.468221 25.44232,138.510078 C23.62262,138.26824 20.693895,138.868183 18.885045,139.265044 C19.052445,138.666652 19.215195,138.064384 19.35857,137.462116 C20.09792,137.32647 20.83727,137.184623 21.57507,137.0389 M64.96732,138.780594 C61.971945,139.380537 59.194345,140.066518 56.102095,140.309905 C51.204095,140.69514 46.32547,141.047819 41.434445,141.534594 C33.39537,142.333743 25.478745,143.28869 17.40557,143.752211 C17.589245,143.263111 17.76052,142.752307 17.936445,142.246154 C18.87652,142.126786 19.810395,141.973312 20.740395,141.798135 C23.073145,141.884948 25.50587,141.445456 27.769645,141.24935 C32.290995,140.85714 36.79297,140.298278 41.30347,139.796001 C49.148795,138.921666 57.05302,138.368231 64.70382,136.338192 C64.80767,137.149743 64.912295,137.962068 64.999095,138.775168 C64.98592,138.777494 64.978945,138.778269 64.96732,138.780594 M15.83542,139.740192 C15.41072,141.188116 15.011595,142.645341 14.27147,143.96847 C13.863045,144.697082 12.765645,144.829628 11.694595,144.818001 C12.63777,142.677121 13.29032,140.401369 14.31332,138.292269 C14.89457,137.093934 15.597495,136.194795 16.53602,135.645235 C16.70652,135.701044 16.883995,135.728173 17.063795,135.731274 C16.538345,137.079207 16.180295,138.568211 15.83542,139.740192 M123.344195,99.8688144 C123.28452,82.6045751 123.489895,65.2860775 122.817195,48.03269 C122.646695,43.6935703 122.397145,39.3575512 122.150695,35.0223072 C121.969345,31.8179627 122.30802,28.4818478 121.645395,25.3201349 C120.35347,19.1447569 117.62082,19.734623 112.18962,19.7501254 C111.988895,19.7509005 111.79902,19.7927569 111.61922,19.8594172 C111.38517,17.2875703 110.758195,15.7970153 107.283095,14.5320201 C107.01572,14.434355 106.770045,14.4118766 106.548395,14.4390057 C106.458495,13.391044 106.267845,12.380288 105.841595,11.6043933 C104.290045,8.77210622 101.54577,8.91007751 98.93402,9.93633589 C98.80227,8.62483349 98.64262,7.32263254 98.41012,6.04756077 C97.59172,1.54489091 96.05102,-0.227807656 91.420395,0.716288038 C82.293995,2.57502488 73.14047,4.21440287 64.05592,6.28319713 C55.72932,8.17913971 47.57787,10.7285081 39.259795,12.6353024 C35.273195,13.5491684 31.26257,14.3669196 27.270545,15.2567569 C22.61977,16.2946421 12.847795,18.2804986 9.33007,20.1004794 C3.299795,23.2203359 1.631995,27.9935225 0.460195,33.7154555 C-0.72788,39.5040488 0.695795,45.7429866 1.24372,51.5277043 C1.90712,58.517733 1.67617,65.6170536 1.99237,72.6287856 C2.628645,86.8103742 3.39047,100.97336 4.20112,115.143322 C4.555295,121.346604 5.18072,127.51113 5.82707,133.688058 C6.303695,138.224058 5.92472,142.429857 7.994745,146.569771 C8.281495,147.144135 8.87127,147.392173 9.45562,147.361944 C9.543195,147.382872 9.63542,147.396049 9.733845,147.399924 C11.482245,147.462709 13.080295,147.501465 14.407095,147.038719 C14.51017,147.01314 14.610145,146.989111 14.71322,146.961982 C14.930995,146.906948 15.14257,146.840288 15.357245,146.776728 C22.91117,148.172719 30.954895,147.294508 38.534395,146.610078 C47.257795,145.823331 56.125345,144.932719 64.884395,144.804049 C65.11767,144.800948 65.32382,144.737389 65.51602,144.64825 C65.91127,149.860929 66.11432,155.132518 65.94382,160.299465 C65.896545,161.717159 67.85962,162.616298 68.82837,161.4947 C70.41402,159.662317 71.58892,157.499733 72.93897,155.495274 C74.102245,153.769857 75.238395,151.894068 77.11002,153.814039 C78.42287,155.162747 79.455945,157.324556 79.911645,159.132135 C80.337895,160.821121 82.67452,160.668422 83.17207,159.132135 C85.07392,153.26603 85.756695,147.289082 85.584645,141.233073 C86.29532,141.167963 87.07807,140.956355 87.599645,140.846288 C91.367695,140.05024 95.360495,140.20914 99.19132,140.042489 C105.81912,139.752594 113.18782,138.718585 119.55677,136.891628 C124.50127,135.473159 123.485245,128.252144 123.748745,124.448633 C124.31372,116.2967 123.373645,108.046326 123.344195,99.8688144" id="Fill-5"></path>
                </g>
                <path d="M72.4227419,24.2839641 C69.7690476,25.9635121 66.4008068,26.2706639 63.3600664,26.9414292 C58.8463573,27.9359083 54.3224628,29.1208517 49.8667322,30.3328967 C45.7024614,31.4643896 41.7152603,32.9783167 37.4977119,33.933649 C35.6862737,34.3439375 32.2522193,34.9386677 31.1945024,36.6694077 C30.9351659,37.0932471 30.9351659,37.6367852 31.1945024,38.0613774 L31.2775528,38.1976384 C31.76802,38.998642 32.7990982,39.2079268 33.6272514,38.7893572 C36.9476991,37.1135733 40.768016,36.8320175 44.2718013,35.6252422 C48.0999532,34.3062964 51.996269,33.2523442 55.9286255,32.2593707 C61.6261941,30.8192204 69.198664,30.3592455 74.1950054,27.1958834 C76.0753911,26.0049174 74.319581,23.0832114 72.4227419,24.2839641" id="Fill-8"></path>
                <path d="M73.3342558,33.0087085 C71.2627933,32.8893824 68.9118417,34.0270572 66.9422924,34.5391961 C62.7677126,35.6242488 58.6000815,36.7100427 54.4587007,37.9055276 C50.4501158,39.0624725 46.4368986,40.1823595 42.4290858,41.3430101 C38.8605806,42.3784054 35.0635428,42.8112406 31.722026,44.3810095 C30.2249832,45.0843667 31.2804022,47.4019622 32.8469313,46.9394807 C40.2402688,44.7552933 47.9370296,43.2663105 55.3905886,41.1473449 C59.0571466,40.1045381 62.7360578,39.1254707 66.4296383,38.1716027 C67.8533344,37.8039892 69.2785747,37.4400815 70.6999547,37.0613507 C71.4233838,36.8686501 74.9162262,35.9362756 74.9864845,34.808977 C74.9903449,34.7415318 74.9942052,34.6740865 74.9972935,34.6059002 C75.0544267,33.698725 74.1974295,33.058366 73.3342558,33.0087085" id="Fill-10"></path>
                <path d="M73.8184377,44.8257462 C73.8030862,44.4918726 73.7892699,44.1527353 73.7792914,43.8038224 C73.7731508,43.5413857 73.71328,43.3120356 73.6150305,43.1157721 C73.6142629,43.1075004 73.6142629,43.0992288 73.6127278,43.0909571 C73.4876132,42.353277 72.4774853,41.8456989 71.7283327,42.0427144 C64.4471222,43.9609836 58.8031478,46.0228785 52.1974027,47.4433452 C49.0165745,48.1276357 45.9393689,49.2006933 42.7907788,50.0030427 C39.7603952,50.7745614 36.8205853,51.013687 33.9828629,52.4085868 C33.823975,52.4867914 33.6965576,52.6168818 33.5898648,52.7642675 C33.3288895,52.9259405 33.127785,53.2071763 33.0886387,53.5327783 C32.8606691,55.4826301 33.1485095,57.522718 33.1139687,59.4958808 C33.0955469,60.488478 34.1079775,61.1968314 35.06284,60.950938 C44.7012714,58.4671892 54.2621778,55.7044605 63.9044471,53.2319913 C65.0535059,52.93722 66.8342785,52.7123817 68.5290827,52.3078232 C69.9805658,52.0844888 71.4274435,51.8370915 72.8658779,51.5378084 C73.5029646,51.4054621 74.0364288,50.7166599 73.9980501,50.0804953 C73.8928924,48.2975803 73.9512281,46.5710629 73.8184377,44.8257462" id="Fill-12"></path>
            </g>
        </g>
    </g>
</svg>