<?xml version="1.0" encoding="UTF-8"?>
<svg width="175px" height="284px" viewBox="0 0 175 284" version="1.1" xmlns="http://www.w3.org/2000/svg" xmlns:xlink="http://www.w3.org/1999/xlink">
    <!-- Generator: Sketch 46.2 (44496) - http://www.bohemiancoding.com/sketch -->
    <title>pricing-img2</title>
    <desc>Created with Sketch.</desc>
    <defs></defs>
    <g id="Page-1" stroke="none" stroke-width="1" fill="none" fill-rule="evenodd">
        <g id="pricing" transform="translate(-849.000000, -172.000000)">
            <g id="pricing-img2" transform="translate(849.000000, 152.000000)">
                <path d="M144.484348,79.9356818 L144.484348,79.9356818 C144.073924,80.5557865 145.100335,79.5225149 144.484348,79.9356818 L144.484348,79.9356818 Z M126.208868,84.0701859 L126.208868,84.0701859 C127.646407,83.5528413 127.133201,80.2453798 126.208868,79.6259838 C125.798444,80.8654846 126.004008,82.6230386 126.208868,84.0701859 L126.208868,84.0701859 Z M149.822674,76.3185223 L149.822674,76.3185223 C149.206687,77.1455648 150.849086,76.6282203 149.822674,76.3185223 L149.822674,76.3185223 Z M79.8028057,76.0088242 L79.8028057,76.0088242 L80.2125256,76.0088242 L80.2125256,75.6984175 L79.8028057,75.6984175 L79.8028057,76.0088242 Z M80.5208715,75.8018864 L80.5208715,75.8018864 L81.7521433,75.8018864 L81.7521433,75.4914797 L80.5208715,75.4914797 L80.5208715,75.8018864 Z M78.1589981,76.0088242 L78.1589981,76.0088242 C78.467344,75.9053553 79.4937558,76.3185223 79.2888958,75.6984175 C79.1868178,75.3880108 78.0576241,75.5942399 78.1589981,76.0088242 L78.1589981,76.0088242 Z M152.080358,75.6984175 L152.080358,75.6984175 C152.080358,75.5942399 152.080358,75.4914797 152.184548,75.4914797 C152.184548,75.2852506 152.184548,75.0783128 151.876202,75.181073 C151.876202,75.3880108 151.876202,75.5942399 152.080358,75.6984175 L152.080358,75.6984175 Z M99.5151214,75.2852506 L99.5151214,75.2852506 C99.5151214,75.181073 99.2067755,75.0783128 99.2067755,75.2852506 C99.4123394,75.2852506 99.4123394,75.5942399 99.5151214,75.2852506 L99.5151214,75.2852506 Z M85.3459925,75.4914797 L85.3459925,75.4914797 C88.1189939,76.4219912 93.1496788,76.2157621 95.4080663,75.181073 C91.7114351,74.9741352 88.4266358,75.4914797 85.3459925,75.4914797 L85.3459925,75.4914797 Z M100.541533,75.181073 L100.541533,75.181073 C100.541533,75.8018864 102.492279,75.5942399 102.595061,75.181073 C101.979073,74.871375 101.054739,75.0783128 100.541533,75.181073 L100.541533,75.181073 Z M103.621473,75.181073 L103.621473,75.181073 C105.674296,75.4914797 108.344515,75.8018864 110.500825,74.9741352 C108.447297,74.871375 105.263872,74.4582081 103.621473,75.181073 L103.621473,75.181073 Z M121.280965,74.9741352 L121.280965,74.9741352 C121.383043,74.3554478 120.562195,74.7679061 120.253849,74.6651459 C120.048285,75.2852506 120.869837,74.871375 121.280965,74.9741352 L121.280965,74.9741352 Z M111.013327,75.181073 L111.013327,75.181073 C112.450867,75.181073 114.196752,75.5942399 115.428728,74.7679061 C114.094674,74.6651459 112.040443,74.3554478 111.013327,75.181073 L111.013327,75.181073 Z M153.210256,74.7679061 L153.210256,74.7679061 L153.62068,74.7679061 L153.62068,74.4582081 L153.210256,74.4582081 L153.210256,74.7679061 Z M122.615018,74.7679061 L122.615018,74.7679061 L122.923364,74.7679061 L122.923364,74.4582081 L122.615018,74.4582081 L122.615018,74.7679061 Z M73.1290171,73.7346344 L73.1290171,73.7346344 C75.6950466,73.7346344 78.8784719,73.7346344 81.5479873,73.2179986 C81.5479873,72.7006541 81.2389374,72.2874871 81.3417194,71.5639135 C82.984823,69.4973701 84.8327866,67.5321696 85.6543384,64.6400011 C88.0162119,61.1248931 90.4801634,57.5077336 92.122563,53.2697606 C92.430205,53.2697606 92.225345,52.9600626 92.020485,52.9600626 C85.6543384,59.7819234 78.1589981,65.5698039 73.1290171,73.7346344 L73.1290171,73.7346344 Z M68.9184761,48.1026936 L68.9184761,48.1026936 C68.6115381,48.9290275 69.329604,48.9290275 69.227526,49.6533098 C67.5844224,51.2032173 66.2496647,52.8565937 65.1197669,54.8203768 C64.2996231,56.3702843 63.4780712,57.4042647 63.2725073,58.7479431 C66.8656525,55.0280233 71.1775676,52.1330201 74.3602889,47.8950471 C73.1290171,47.37912 70.4595017,47.8950471 68.9184761,48.1026936 L68.9184761,48.1026936 Z M79.1868178,47.2749424 L79.1868178,47.2749424 C79.0833319,47.4825889 78.9805499,47.5853491 78.6736119,47.5853491 C76.8249443,50.1692369 75.1818407,53.0635315 73.1290171,55.5439505 C72.3074653,58.6444742 69.6379499,60.0923302 68.7136161,63.0893849 C70.4595017,62.4692802 71.5886955,59.8846837 73.5394411,58.9548809 C76.5165984,54.7176166 81.0340774,51.9267909 83.3959509,47.0687133 C81.8556293,46.965953 80.7257315,47.2749424 79.1868178,47.2749424 L79.1868178,47.2749424 Z M86.3731083,47.2749424 L86.3731083,47.2749424 C86.2703263,47.8950471 86.6814542,48.1026936 86.4758902,48.8262673 C82.882041,53.0635315 80.9319994,59.0583498 77.9541381,63.9157188 C83.4980289,59.2652876 88.4266358,53.7871052 93.8677446,48.9290275 C93.7656667,48.1026936 94.5872185,48.3096314 94.3809505,47.37912 C94.6892965,46.8617754 95.6136303,47.0687133 95.7157082,46.3458483 C92.9434109,46.7590152 89.3502656,46.6555463 86.3731083,47.2749424 L86.3731083,47.2749424 Z M97.4608899,46.3458483 L97.4608899,46.3458483 C97.4608899,47.5853491 97.6671578,48.6193294 97.2567339,50.1692369 C95.4080663,51.5129153 94.3809505,53.4759898 93.6621807,56.0605863 C92.5336909,57.093858 91.6086531,58.2305986 90.9933693,59.7819234 C94.6892965,56.9910978 97.5643758,53.2697606 100.746393,49.9630078 C101.979073,48.7220897 103.724958,47.688818 104.340242,45.8285038 C102.595061,45.621566 99.7199814,46.2423794 97.4608899,46.3458483 L97.4608899,46.3458483 Z M107.52226,45.7257436 L107.52226,45.7257436 C107.52226,46.2423794 108.036874,46.0354416 107.932684,46.7590152 C104.443024,52.0295512 101.157521,57.5077336 98.2824417,63.399083 C99.4123394,63.1921452 99.8227633,61.8477581 100.746393,61.0221329 C102.184637,59.4715167 104.134678,58.128547 105.367358,56.3702843 C107.52226,55.2335438 108.549375,52.9600626 110.602903,51.7205618 C111.526533,50.3754661 112.348789,49.1352566 113.682842,48.3096314 C113.990484,47.7922869 113.990484,47.0687133 114.401612,46.7590152 C115.223868,46.1382018 117.071128,46.6555463 117.276692,47.7922869 C114.81274,51.5129153 112.143225,55.0280233 110.602903,59.7819234 C112.143225,58.8507033 113.888406,56.78416 115.120382,55.0280233 C117.789897,52.6496559 120.356631,50.1692369 122.307376,47.0687133 C123.334492,46.3458483 124.258122,45.5188057 124.874814,44.2778876 C119.740643,44.4855341 112.964776,45.621566 107.52226,45.7257436 L107.52226,45.7257436 Z M112.656431,60.7117262 L112.656431,60.7117262 C111.424455,62.1588735 110.500825,63.9157188 109.473709,65.3628661 C109.166067,65.6718554 108.242437,66.1899086 107.729232,67.0162425 C107.009758,68.1529831 106.906976,69.2904323 105.87986,69.2904323 C104.545102,69.2904323 104.23746,68.3599209 104.134678,66.9134823 C106.804194,63.5032606 108.857721,58.541714 110.500825,54.613439 C104.956934,58.9548809 100.746393,64.4323546 95.9212722,69.4973701 C95.7157082,71.4611533 93.2524608,73.6311655 92.122563,71.5639135 C91.4037932,69.9105371 93.1496788,69.0834945 94.0733086,67.7398161 C95.6136303,65.3628661 96.0247582,63.5032606 97.2567339,61.0221329 C98.8984296,58.0236607 101.054739,54.2009808 102.081855,51.7205618 C100.131109,52.9600626 98.3859276,54.8203768 96.742824,56.6813997 C93.5593987,60.4020282 89.6586116,63.5032606 87.502302,67.9460453 C85.8591984,69.0834945 84.5251447,71.5639135 84.1140168,73.4242277 C94.3809505,73.3214675 103.929818,73.0110608 114.607176,72.7006541 C116.249576,72.7006541 118.097539,72.804123 119.842721,72.7006541 C123.847698,72.5978938 129.802013,70.3244127 130.829129,73.9415722 C130.418001,74.3554478 129.597153,74.2512702 129.288807,74.7679061 C129.493667,75.4914797 129.186025,77.3517939 128.775601,78.3850656 C129.802013,80.8654846 128.365177,84.4833528 130.623565,86.343667 C131.65068,85.5173331 132.881952,85.1027488 134.113928,84.276415 C136.475801,82.7257988 139.247395,80.6592554 141.301626,79.1086393 C142.63568,78.0753676 144.689208,77.1455648 145.921183,76.3185223 C146.639249,75.8018864 147.255941,75.2852506 147.974711,74.7679061 C149.822674,73.5276966 152.184548,73.1145297 153.92973,71.6673824 C156.906887,71.3569757 157.831221,68.9800256 160.91116,68.7737965 C163.682753,67.3259405 166.146705,65.5698039 169.53499,64.6400011 C172.923275,61.7449979 178.262306,60.7117262 181.958233,58.128547 C183.601337,58.0236607 183.806197,56.6813997 185.552083,56.6813997 C188.01533,54.5099701 192.327245,54.2009808 194.484259,51.7205618 C189.761216,49.6533098 183.395069,49.9630078 178.878294,47.37912 C174.565675,46.4478998 171.280172,44.3813565 166.455051,43.9681896 C165.941141,44.3813565 165.633499,45.0007525 165.428639,45.7257436 C163.169548,47.5853491 161.732008,50.3754661 160.294468,53.0635315 C159.165274,55.1307835 157.934003,57.1973269 157.522875,59.2652876 C159.67848,57.093858 162.75842,54.0960945 165.017511,51.4094464 C166.146705,50.1692369 167.378681,47.5853491 169.33013,48.9290275 C170.048196,51.2032173 167.892591,51.8226134 167.584949,53.580876 C169.637772,52.9600626 171.074608,50.2727059 172.717711,48.6193294 C173.026761,49.2387255 174.155955,48.9290275 174.463597,49.4470807 C174.976803,50.7893417 173.333699,51.3066862 174.155955,51.7205618 C175.285149,50.7893417 176.824767,47.4825889 178.775512,49.4470807 C178.775512,50.0664767 178.46787,50.2727059 178.364384,50.8935193 C179.494282,49.9630078 181.23876,48.1026936 182.472143,49.8588302 C181.855452,51.7205618 182.881863,51.8226134 182.985349,53.580876 C181.0339,54.613439 180.417912,56.8869202 177.851178,57.4042647 C177.133113,57.4042647 177.337972,56.3702843 176.721985,56.1640552 C175.901137,58.3347761 173.436481,58.128547 172.41007,56.3702843 C171.17739,57.4042647 170.45862,60.8159038 168.610656,60.5040797 C165.941141,60.0923302 169.432208,56.4751706 169.637772,55.0280233 C168.610656,56.0605863 165.735577,58.128547 164.401523,60.7117262 C163.580675,62.1588735 163.580675,63.399083 162.451482,64.1219479 C161.423662,64.8462303 160.39725,64.0191877 160.294468,63.0893849 C160.089608,61.8477581 162.040354,60.2978506 162.655638,58.9548809 C163.169548,57.9216092 163.271626,56.9910978 163.477893,56.0605863 C161.11602,58.0236607 157.934003,61.641529 155.674911,64.6400011 C154.853359,65.6718554 153.92973,67.6370559 153.108178,67.7398161 C151.567856,67.9460453 151.055354,66.7065445 151.157432,65.3628661 C152.49219,64.2254168 153.518602,62.7782695 153.92973,60.8159038 C155.572129,58.4382451 157.009669,55.8543572 158.241645,52.9600626 C152.28733,58.0236607 148.180275,65.0524594 142.841948,70.633402 C141.71205,74.0443324 139.043239,75.8018864 138.016123,79.3155771 C137.297353,79.3155771 136.989007,79.6259838 136.168159,79.419046 C134.319492,77.6622007 136.373019,76.938627 137.194571,75.8018864 C137.604995,75.2852506 137.913341,74.2512702 138.324469,73.4242277 C139.247395,71.8743202 140.172433,70.5306418 140.890498,69.2904323 C142.328038,67.0162425 143.252372,64.4323546 144.484348,62.7782695 C143.457232,63.0893849 142.944026,64.3295944 142.122474,65.3628661 C140.582856,67.1197114 139.043239,69.0834945 137.502917,70.633402 C136.989007,72.7006541 135.345904,73.5276966 134.113928,75.8018864 C133.498644,76.938627 133.29308,78.696181 132.677092,79.1086393 C131.033989,80.3488487 129.904795,78.696181 129.597153,77.3517939 C130.109655,76.3185223 130.726347,75.4914797 131.856244,75.181073 C133.395862,71.5639135 135.141044,67.9460453 136.989007,64.8462303 C137.297353,64.2254168 138.016123,63.7094897 138.324469,63.0893849 C138.529329,62.8824471 138.324469,62.3658113 138.529329,62.0561133 C140.787716,58.4382451 143.86836,55.4411903 145.407977,51.2032173 C145.921183,50.7893417 146.639249,49.6533098 146.434389,48.9290275 C141.301626,56.0605863 135.038262,61.9526444 130.829129,70.0132973 C129.288807,70.633402 128.467959,69.4973701 128.467959,68.4633898 C128.467959,67.2231803 129.904795,66.1899086 130.623565,65.156637 C131.445116,64.1219479 132.061104,62.5720404 132.881952,61.2290707 C134.833402,58.0236607 136.784147,54.2009808 138.220983,51.5129153 C132.677092,57.3015045 127.851971,63.7094897 123.642134,70.8403398 C122.615018,70.9438087 121.794171,70.7375796 121.383043,70.1167662 L121.383043,68.5668587 C127.029715,62.2623424 130.520783,53.7871052 135.243826,46.5520774 C132.677092,48.4123916 130.213141,51.9267909 127.440843,54.0960945 C126.106086,56.6813997 123.74562,58.128547 122.101813,60.2978506 C120.151771,62.9844987 119.124655,66.0871484 116.763486,68.4633898 C116.45514,71.5639135 112.861995,72.804123 112.861995,68.9800256 C114.915522,67.4301181 115.73637,64.7427613 117.482255,62.8824471 C120.869837,56.2675241 125.387316,50.7893417 128.570037,43.9681896 C128.878383,43.9681896 128.672819,43.6577828 128.467959,43.6577828 C123.95048,48.8262673 117.687115,54.9238457 112.656431,60.7117262 L112.656431,60.7117262 Z M148.796263,37.4574441 L148.796263,37.4574441 C148.693481,36.9400996 147.974711,36.8373394 147.769147,36.4234638 C146.537171,36.6296929 146.332311,35.803359 145.407977,35.9061193 C140.377293,41.1773639 136.578583,47.7922869 132.881952,54.5099701 C134.52576,53.4759898 135.447982,51.6163842 136.784147,50.1692369 C139.658523,47.0687133 142.841948,43.9681896 144.997554,40.660728 C145.716323,39.6267477 145.819105,38.1796004 147.769147,38.593476 C148.385839,39.2135808 147.974711,40.0406233 148.282353,40.8669572 C143.971142,44.6917632 141.71205,50.5831126 138.220983,55.1307835 C138.632111,56.3702843 136.989007,56.5779308 137.809855,57.093858 C142.020396,52.1330201 146.023261,47.0687133 150.336584,42.2113442 C150.233098,41.5912395 150.644226,41.4870619 150.541444,40.8669572 C151.567856,39.5239875 153.416524,39.5239875 153.724166,41.5912395 C153.62068,42.0044064 153.108178,42.0044064 153.210256,42.7279801 C151.876202,43.2446159 152.080358,45.2091077 150.644226,45.7257436 C147.051081,53.2697606 142.020396,59.3680478 138.324469,66.9134823 C144.79199,59.3680478 151.77342,52.3406666 156.701323,43.2446159 C158.447209,43.141147 159.062492,44.1744187 159.371542,45.5188057 C154.237372,50.0664767 150.438662,56.1640552 147.051081,62.5720404 C150.951164,58.128547 155.059627,53.7871052 158.857633,49.3429031 C160.500032,47.37912 162.55356,45.3118679 163.169548,42.7279801 C158.036785,40.9718435 153.92973,39.1101119 148.796263,37.4574441 L148.796263,37.4574441 Z M128.981165,40.3503213 L128.981165,40.3503213 C130.213141,38.283778 132.881952,36.6296929 134.422978,34.4603894 C134.729916,34.1499826 134.627838,33.6326381 134.936184,33.3236488 C135.859814,32.2889597 137.194571,32.4958975 137.502917,33.8388672 C138.016123,36.0095882 135.551468,36.9400996 134.627838,38.283778 C133.29308,40.0406233 132.163886,42.2113442 131.033989,43.9681896 C130.315923,45.0007525 130.213141,45.7257436 129.597153,46.8617754 C129.186025,47.688818 128.467959,48.4123916 128.056831,49.1352566 C126.824855,51.3066862 125.387316,53.1670004 124.463686,55.0280233 C127.646407,52.3406666 130.109655,48.9290275 133.08822,46.0354416 C136.681365,42.5210423 140.480074,39.0073516 142.63568,34.1499826 C139.145317,32.2889597 135.757032,30.4286455 131.65068,29.188436 C129.597153,27.6378198 127.646407,25.9844434 125.387316,24.640765 C126.413728,30.4286455 126.106086,36.526224 128.981165,40.3503213 L128.981165,40.3503213 Z M71.7942594,54.0960945 C68.4066782,56.6813997 64.4017011,60.0923302 61.8349676,63.9157188 C61.4245437,63.9157188 61.2189797,64.0191877 61.0141198,64.1219479 C61.0141198,64.3295944 61.0141198,64.4323546 60.8085558,64.4323546 C60.5009139,64.8462303 60.8085558,65.9829708 60.2953499,66.1899086 C59.4730941,66.4996067 58.0369624,66.2933775 57.2154106,65.9829708 C57.5237565,65.3628661 57.0091427,64.6400011 57.1126286,63.9157188 C57.4202706,62.2623424 59.987004,60.1950904 61.0141198,58.128547 C61.4245437,57.3015045 61.3224657,56.4751706 61.7321856,55.8543572 C62.5537375,54.303741 63.7850092,53.0635315 64.2996231,51.4094464 C59.6786581,50.1692369 56.0855129,53.0635315 51.7735978,51.7205618 C50.1311981,50.5831126 51.3624699,48.7220897 51.5680338,47.2749424 C61.3224657,45.8285038 69.12404,45.3118679 78.7749859,43.7605431 C79.2888958,43.7605431 79.4937558,44.1744187 79.8028057,44.2778876 C85.2439145,43.4515537 91.7114351,43.5550226 97.9747997,43.141147 C99.7199814,43.0376781 101.465867,42.5210423 103.313127,42.4189907 C110.397339,42.2113442 117.995461,42.1071666 123.95048,40.5572591 C123.43657,34.2527428 122.205298,29.8085408 120.869837,24.640765 C120.972619,23.9164827 121.383043,23.6074934 121.280965,22.5742217 C122.615018,21.9534083 122.615018,19.8854476 123.847698,18.9563535 C124.976892,19.2660515 125.694958,19.6792184 126.722073,19.1625826 C126.51651,20.196563 127.646407,20.7139075 127.749893,21.9534083 C128.981165,22.7797421 129.597153,24.1234205 131.547898,24.331067 C132.061104,26.1906726 134.21671,26.3976104 135.447982,27.6378198 C138.118201,27.9489352 138.939753,30.1182388 141.814832,30.3251766 C143.148886,31.9792617 145.202413,32.4958975 147.051081,33.3236488 C150.541444,34.8721389 154.032512,37.2505063 158.241645,37.9733713 C160.807674,39.6267477 164.093881,40.660728 167.789809,41.1773639 C170.562106,42.831449 174.669161,43.141147 177.543536,44.6917632 C178.056742,44.7945234 178.15882,44.4855341 178.569244,44.4855341 C180.315834,45.9319727 182.779785,45.8285038 185.243033,46.5520774 C189.042446,47.5853491 193.456439,49.4470807 197.255148,49.4470807 C199.30938,49.5491322 201.362203,48.8262673 202.901821,50.4796437 C203.005307,51.6163842 202.800447,51.9267909 202.901821,52.7538335 C202.390023,53.580876 201.157343,53.4759898 200.437869,54.0960945 C199.822586,54.303741 199.617022,53.8905741 199.103112,53.994043 C194.996761,55.4411903 191.198051,56.9910978 187.297264,58.9548809 C186.064585,59.5749856 184.524263,60.0923302 182.985349,60.8159038 C181.649888,61.5387687 180.417912,62.676218 179.083858,63.2963228 C178.15882,63.7094897 177.029627,63.8129586 176.208779,64.3295944 C172.307288,66.2933775 168.918298,68.7737965 165.428639,71.0472776 C162.861202,71.9777891 160.602814,73.1145297 158.857633,74.7679061 C157.522875,75.2852506 156.085335,75.8018864 154.750577,76.5254601 C150.438662,78.9024101 145.921183,82.5195697 141.404408,84.9999886 C139.043239,86.343667 136.784147,87.6873454 134.422978,89.2379616 C134.113928,90.6851089 132.77917,91.2017447 132.061104,92.2350164 C131.342334,92.3377766 131.547898,91.8218494 131.033989,91.8218494 C129.083947,93.1655278 128.056831,95.2334885 125.694958,95.9563535 C122.923364,95.025842 123.231006,92.2350164 123.334492,89.4441907 C123.128224,88.9275549 123.847698,89.2379616 123.95048,88.9275549 C122.51294,87.2748871 124.566468,83.4500811 123.43657,80.8654846 C123.74562,79.7280353 124.052558,78.5912947 124.3602,77.3517939 C123.026146,76.1115845 120.253849,77.248325 118.201025,77.248325 C107.3174,77.1455648 96.1268361,77.8684298 85.3459925,77.7649609 C84.9362726,77.7649609 84.5251447,77.8684298 84.1140168,77.8684298 C76.7221624,78.4892432 69.6379499,77.6622007 62.7600054,78.9024101 C61.1161978,78.2823054 60.9106338,76.2157621 58.9605922,75.8018864 C58.8578103,75.0783128 59.884222,75.4914797 59.6786581,74.6651459 C62.2453915,73.4242277 68.2011142,75.2852506 70.4595017,72.5978938 C70.8699256,71.9777891 71.2803496,70.9438087 71.7942594,70.1167662 C72.3074653,69.3939012 73.1290171,68.7737965 73.5394411,68.0502229 C73.949865,67.4301181 73.949865,66.4996067 74.3602889,65.8787932 C74.6693388,65.3628661 75.2853267,64.9496992 75.5929686,64.4323546 C77.6464962,60.7117262 78.9805499,56.6813997 80.8285135,54.0960945 C79.9048837,54.2009808 79.2888958,55.3377214 78.6736119,56.0605863 C76.7221624,58.128547 74.3602889,60.4020282 72.5123253,62.7782695 C71.8963374,62.7782695 71.8963374,63.399083 71.2803496,63.399083 C68.9184761,66.1899086 66.4552286,68.6696189 64.2996231,71.5639135 C64.1961371,72.081258 64.4017011,72.7006541 64.0947631,72.9068832 C63.2725073,73.2179986 61.5266217,73.3214675 61.2189797,72.5978938 C60.6029919,71.2535068 61.8349676,70.5306418 62.5537375,69.5994217 C62.9648654,69.0834945 63.2725073,67.7398161 63.8884952,66.9134823 C64.503779,66.0871484 65.9413187,64.7427613 65.9413187,63.0893849 C68.3024882,60.5040797 70.1504518,57.5077336 71.5886955,54.0960945 L71.7942594,54.0960945 Z" id="Fill-1" fill="#11BAA1" transform="translate(126.931919, 57.456353) rotate(-165.000000) translate(-126.931919, -57.456353) "></path>
                <g id="Page-1" transform="translate(0.000000, 97.000000)" fill="#231F20">
                    <path d="M57.8512308,188.067739 C37.6711959,190.44609 20.8430248,172.356496 20.8336358,153.318701 C20.8273765,141.766038 25.5985401,135.348416 33.2302112,129.105049 C45.8442979,118.791013 66.8787294,123.984138 78.6305953,136.106663 C96.039318,154.075377 80.8964677,185.353437 57.8512308,188.067739 M92.0505689,162.891759 C95.3773953,151.243334 89.5718797,137.079981 80.7039937,129.305992 C70.0725454,119.996672 50.8564452,112.455024 31.5151586,123.456662 C17.4989852,131.426885 13.8513687,146.125563 15.2925763,160.293626 C17.7634413,184.662695 46.0931057,199.585864 68.182232,192.026948 C79.6618176,188.102276 88.8927439,173.932644 92.0505689,162.891759" id="Fill-1"></path>
                    <g id="Group-5">
                        <path d="M190.822063,28.0650916 C190.254406,29.3497557 189.523214,30.5870153 188.530995,31.5840916 C188.532567,31.3123053 188.549864,31.0010153 188.564016,30.8050763 C188.678806,29.3102519 189.395846,27.6337099 190.114458,26.341145 C190.145907,26.2826794 190.196226,26.2194733 190.237109,26.1578473 C190.399072,26.0851603 190.561035,26.0187939 190.721426,25.9761298 C191.730942,25.6869618 190.988743,27.6874351 190.822063,28.0650916 M185.219403,39.0108092 C184.942651,40.3760611 184.434748,41.659145 183.703556,42.8395191 C183.444101,43.2566794 183.12332,43.4858015 182.577678,43.7955115 C182.544656,43.7196641 182.513207,43.6422366 182.486475,43.5363664 C182.381121,43.0923435 182.373258,42.6040763 182.403135,42.1094885 C182.665735,41.3020305 182.865437,40.4819313 183.118602,39.9193969 C183.535303,38.9871069 184.439465,37.2995038 185.364069,37.0672214 C185.419105,37.7198244 185.351489,38.3708473 185.219403,39.0108092 M174.926108,56.6674351 C174.825471,56.7211603 174.553436,56.779626 174.361596,56.8365115 C174.135163,56.0511756 174.201206,55.1583893 174.334865,54.3651527 C174.457516,53.6477634 174.672943,52.9761985 174.921391,52.3141145 C175.268903,51.8305878 175.605409,51.3391603 175.948204,50.8793359 C176.165203,50.5933282 178.055295,48.1598931 178.470423,49.2012137 C179.330556,51.3644427 176.775316,55.621374 174.926108,56.6674351 M170.059357,63.1855649 C169.711845,64.6709084 168.686604,65.9476718 167.615761,66.9826718 C166.464724,68.0871985 164.766471,68.7129389 165.052658,66.5670916 C165.082535,66.353771 165.159585,66.187855 165.203614,65.991916 C166.66757,64.3896412 167.441219,61.6433359 169.562461,61.0175954 C170.290508,60.805855 170.126973,62.8853359 170.059357,63.1855649 M159.520759,74.0238321 C159.055312,75.482313 158.088252,76.8649466 157.053576,77.9678931 C156.857019,78.1812137 156.279928,78.6536794 156.262631,78.66 C156.128972,78.7074046 155.995313,78.7405878 155.861655,78.7848321 C155.907256,78.525687 155.970154,78.266542 156.039342,78.0026565 C156.202878,77.3611145 156.457615,76.7527557 156.743802,76.1586183 C157.031562,75.7809618 157.305169,75.3906641 157.544182,75.0288092 C158.085107,74.2023893 158.833596,72.6601603 159.806946,72.2698626 C159.795939,72.2730229 159.814808,72.315687 159.827388,72.3378092 C159.962619,72.8576794 159.670142,73.5513664 159.520759,74.0238321 M149.854874,85.1591679 C148.706981,86.6018473 147.032316,87.7869618 145.200405,88.0034427 C145.055739,88.0208244 144.970826,88.0303053 144.907928,88.0397863 C144.903211,87.8959924 144.892203,87.7237557 144.889059,87.6084046 C144.906356,87.6526489 145.022717,87.0395496 145.043159,86.9637023 C145.128072,86.6413511 145.246006,86.3284809 145.365513,86.0171908 C145.551062,85.5336641 146.014937,84.8020534 146.351442,84.2569008 C146.4395,84.1083664 146.538565,83.9550916 146.634484,83.8049771 C147.810681,82.7920992 149.196015,81.9546183 150.713435,82.7952595 C151.392735,83.1665954 150.126909,84.817855 149.854874,85.1591679 M138.075608,91.6330534 C137.500089,93.6524885 133.597254,95.0841069 131.762198,94.9655954 C131.730749,94.9655954 131.700872,94.9466336 131.670996,94.9434733 C132.194623,93.957458 133.001293,93.1357786 133.796956,92.3757252 C134.105157,92.0849771 134.669669,91.6614962 135.281354,91.173229 C135.815989,91.1242443 136.353769,91.0120534 136.913563,90.8398168 C137.71866,90.5885725 138.357077,90.6407176 138.075608,91.6330534 M124.566641,96.4335573 C123.602725,96.9518473 122.03027,96.9581679 121.198441,96.7922519 C120.220373,96.6010534 119.320928,96.2233969 118.45765,95.7351298 C118.151021,95.5597328 117.899428,95.3590534 117.655698,95.1378321 C117.84282,94.9987786 118.069254,94.8802672 118.317702,94.7712366 C118.452933,94.7617557 118.586592,94.7680763 118.718678,94.7301527 C120.819479,94.1344351 122.953301,94.1518168 124.659416,95.7130076 C124.816661,95.8599618 124.922016,96.0290382 124.994349,96.1570305 C124.840248,96.2565802 124.653126,96.3845725 124.566641,96.4335573 M110.109483,93.8547481 C109.810716,93.8989924 109.453769,93.8610687 109.293378,93.8263053 C108.266565,93.6129847 107.485054,93.1041756 106.462958,92.4436718 C105.668868,91.9348626 104.678221,91.1653282 104.203339,90.5143053 C104.137296,90.4242366 104.093267,90.3325878 104.053956,90.2535802 C104.286679,90.210916 104.533555,90.1808931 104.822887,90.1777328 C105.981786,90.1682519 107.157983,90.4669008 108.247695,90.8872214 C108.702135,91.0641985 109.334262,91.7657863 109.747818,92.4942366 C109.889339,92.7454809 110.013563,93.1262977 110.12049,93.6098244 C110.096903,93.5576794 110.10162,93.7046336 110.109483,93.8547481 M96.7184498,87.5056947 C96.4149658,87.7016336 96.160228,87.8122443 95.8771859,87.8991527 C95.1349868,88.1314351 94.0468475,87.5862824 93.3392424,87.1770229 C92.0891401,86.4564733 91.2337242,85.5068015 91.0120079,84.3580305 C91.0481744,84.3090458 91.0890583,84.2569008 91.1220798,84.2015954 C91.1598188,84.1415496 91.3264991,83.9250687 91.3673829,83.8587023 C91.4428608,83.7796947 91.5183387,83.6991069 91.5890992,83.6200992 C91.6284106,83.6042977 91.6661495,83.5900763 91.702316,83.5774351 L91.7604968,83.5774351 C91.8233951,83.5742748 91.9900754,83.586916 92.0954299,83.5932366 C92.4885439,83.6675038 92.872223,83.782855 93.2464675,83.9219084 C93.1521202,83.9013664 93.7763851,84.187374 93.8612977,84.2300382 C94.2339697,84.4338779 94.5861998,84.6709008 94.9337125,84.9126641 C94.9620167,84.9300458 94.9572993,84.9268855 94.9793137,84.9458473 C95.1742982,85.1038626 95.359848,85.2713588 95.5453978,85.438855 C95.8032805,85.6695573 96.0375764,85.9287023 96.267155,86.1878473 C96.2891693,86.2384122 96.5879359,86.6208092 96.6366821,86.6950763 C96.7105875,86.8214885 96.781348,86.9494809 96.8458187,87.0774733 C96.8458187,87.0806336 96.8458187,87.0806336 96.8473911,87.0806336 C96.8552534,87.1106565 96.8599708,87.1390992 96.8804127,87.1959847 C96.8914199,87.2260076 96.8992822,87.2386489 96.905572,87.2686718 C96.8143696,87.3271374 96.6351096,87.5341374 96.7184498,87.5056947 M80.7029882,79.3141832 C80.3649102,79.1830305 80.0111076,78.9254656 79.6997614,78.7295267 C79.5975518,78.6631603 79.1383947,78.2080763 79.3585385,78.5098855 C79.2673361,78.3850534 79.1619815,78.1970153 79.0707791,78.0152977 C79.6415805,77.8493817 80.1935125,77.7119084 80.6998432,77.677145 C82.1166259,77.583916 83.514539,77.7308702 84.7473443,78.4751221 C85.1640451,78.7263664 85.2756894,79.2715191 85.381044,79.6918397 C85.4062032,79.7819084 85.4046308,79.8356336 85.4062032,79.8925191 C84.7284748,80.429771 81.9735324,79.7945496 80.7029882,79.3141832 M41.8696215,87.6589695 C42.2045545,87.1612214 42.9105872,87.6084046 45.0098156,88.0002824 C45.2865678,88.0524275 45.5523128,88.0713893 45.8243476,88.1187939 C45.8133404,89.123771 45.846362,90.1319084 45.7881811,91.1432061 C45.7205655,92.2461527 45.5696098,93.4265267 45.5947691,94.5816183 C44.817976,94.5879389 44.0474726,94.5942595 43.2580999,94.6558855 C40.6698377,94.8613053 41.7862813,95.4838855 41.8774837,93.097855 C41.9466718,91.2901603 41.9623964,89.4682443 41.8696215,87.6589695 M68.6642671,99.835626 C66.1294685,102.77629 62.1543004,103.858695 58.2703347,104.721458 C58.3017838,104.023031 58.35053,103.319863 58.3961312,102.616695 C58.457457,101.763412 58.5470869,100.924351 58.3756893,100.072649 C58.3631096,100.007863 58.3363779,99.8846107 58.3033563,99.7408168 C61.5394702,99.6159847 66.2332505,99.7376565 66.6939801,95.613458 C67.0933838,92.0280916 68.0211327,87.5341374 65.613703,84.5397481 C63.4531488,81.8503282 55.6081672,83.4889466 52.8862463,83.6042977 C49.1610987,83.7638931 45.649805,83.0259618 41.9608239,82.7225725 C40.5393239,82.6103817 38.8127675,83.255084 37.9888007,84.4338779 C36.6412062,86.3521832 36.5971774,89.5535725 37.2214423,92.3504427 C37.2182974,92.6143282 37.2151525,92.8734733 37.2010004,93.097855 C37.0075883,95.6592824 36.7135391,99.4816718 40.2987382,99.6065038 C42.2297138,99.6728702 44.1779865,99.4879924 46.1183968,99.3821221 C45.9815932,100.584618 45.898253,101.787115 45.8164853,102.991191 C45.7787464,103.539504 45.7457248,104.133641 45.7520147,104.730939 C44.9437724,104.800466 44.1386751,104.887374 43.3367227,104.985344 C36.043673,103.855534 29.3434391,97.9378626 28.7930796,90.1714122 C28.0791847,80.0900382 42.0598886,73.330145 49.9441816,72.7723511 C57.4463679,72.2414198 68.3167544,75.7446183 72.8532892,81.8819313 C76.9133699,87.3666412 72.1928578,95.747771 68.6642671,99.835626 M57.0375294,88.4032214 C58.0423286,88.3589771 59.0502728,88.3257939 60.0472097,88.2562672 C63.3462218,88.0303053 62.0410836,92.135542 61.8932727,94.4678473 C61.1164796,94.557916 60.3396865,94.6432443 59.5566035,94.7064504 C58.809687,94.7712366 58.064343,94.8186412 57.318999,94.8502443 C57.5627296,92.9493206 57.6209105,90.3768321 57.0375294,88.4032214 M48.8198758,88.4727481 C49.5746545,88.5217328 50.3262884,88.575458 51.1156612,88.5659771 C51.7918171,88.5596565 52.471118,88.5375344 53.1457015,88.5248931 C53.2054548,89.2422824 53.3202441,89.9644122 53.3296788,90.5854122 C53.3501207,92.0091298 53.0607889,93.4360076 52.9821661,94.8534046 C51.6424338,94.8028397 50.3089914,94.7301527 48.9786938,94.6622061 C48.6783548,92.6253893 49.0132878,90.5301069 48.8198758,88.4727481 M94.0578547,178.086366 C79.3491038,205.65687 33.9161404,205.24445 16.2810494,182.05255 C2.82869061,164.369061 4.46876194,137.686603 18.9636589,121.943542 C28.0005619,112.121313 41.1588715,110.217229 52.9302751,110.792405 C53.1881578,110.887214 53.4601926,110.952 53.7731113,110.952 C54.1426384,110.952 54.5011583,110.921977 54.8628232,110.906176 C60.0519271,111.280672 64.9060979,112.084969 68.9221498,112.854504 C98.0471749,118.440344 107.384417,153.104153 94.0578547,178.086366 M205.29809,5.0880916 C201.459726,4.34858015 198.122975,2.61673282 194.536203,1.23567939 C193.254652,0.184877863 191.282792,0.576755725 190.551601,2.4571374 C190.510717,2.55352672 190.47455,2.65307634 190.443101,2.75262595 C190.155342,3.59010687 190.458826,4.75309924 191.120829,5.33459542 C192.193244,6.27952672 193.404035,7.10752672 194.682442,7.85493893 C194.169821,10.2946947 192.53604,12.5511527 191.490357,14.7396641 C190.488702,16.839687 189.69933,19.1388092 189.469751,21.4742748 C189.159977,21.5501221 188.850203,21.6149084 188.557727,21.7523817 C187.383102,22.3085954 186.356289,23.6090611 186.368868,24.912687 C185.911284,25.5368473 185.519742,26.2099924 185.22412,26.889458 C184.503936,28.5470382 183.974018,30.4827252 184.117112,32.2556565 C180.690731,33.2163893 178.646538,37.207855 178.405952,40.6589084 C178.05844,41.7397328 177.87918,42.9074656 177.94994,44.1557863 C177.951513,44.1700076 177.95623,44.1826489 177.957803,44.2016107 C174.786159,44.4259924 171.531176,47.6495038 170.903766,50.9046183 C170.218175,52.4689695 169.88796,54.3003664 169.788895,55.9026412 C169.777888,56.0843588 169.788895,56.2550153 169.790468,56.4288321 C167.906666,56.3498244 166.068465,57.5491603 164.794776,58.9507557 C164.766471,58.9807786 164.735022,59.0218626 164.706718,59.056626 C162.085434,60.4613817 160.487819,65.0438244 160.465805,67.3808702 C160.465805,67.4677786 160.48153,67.554687 160.483102,67.6431756 C157.853956,67.295542 155.886814,69.3212977 154.481039,71.3154504 C154.267185,71.6204198 154.081635,71.9490916 153.91181,72.2904046 C152.683722,74.0238321 151.855037,76.3592977 151.477648,78.1211679 C148.228955,77.1477939 144.598154,79.0581985 142.549244,81.8124046 C141.975298,82.5850992 141.027107,84.0988855 141.055412,85.3345649 C140.880869,85.8259924 140.739348,86.3126794 140.633993,86.8120076 C139.827324,86.2794962 138.864981,85.9603053 137.775269,85.925542 C136.570768,85.8828779 135.231035,86.2415725 134.19636,86.9494809 C133.438436,87.3271374 132.718251,87.8122443 132.169464,88.140916 C130.593864,89.0811069 129.268283,90.4510992 128.148695,91.9064198 C125.390608,89.3228702 120.487691,88.0713893 117.460713,90.2014351 C117.383663,90.2172366 117.292461,90.2267176 117.223272,90.2393588 C116.490508,90.3705115 115.72944,90.6960229 115.028124,91.1400458 C114.215165,89.0969084 112.70089,87.2228473 111.213347,86.225771 C109.444334,85.0374962 106.884376,84.7056641 104.822887,84.6582595 C103.854254,84.6377176 102.810143,84.8557786 101.915416,85.2808397 C101.423237,83.855542 100.467184,82.5534962 99.4498054,81.5153359 C97.492098,79.5164427 93.7952546,77.7119084 90.7792845,78.059542 C90.1518746,75.9721603 88.5919986,74.0870382 86.6107043,73.1974122 C84.1340866,72.0897252 81.4341801,72.0992061 78.8097515,72.5495496 C77.1838322,72.8292366 76.0076354,73.4296947 74.8691774,74.2213511 C67.4346067,68.0461145 54.3218984,66.1562519 46.7206474,66.695084 C34.2510735,67.5768092 21.9639044,79.8988397 23.0378916,92.6143282 C23.5033385,98.1211603 27.8873451,103.795489 33.3013102,106.976336 C30.3891222,107.802756 27.5602743,108.825115 24.871375,110.079756 C14.5655002,114.88658 8.54299473,122.281695 5.36820661,131.293305 C4.34453794,133.429672 3.44823817,135.591321 2.69974924,137.711885 C-2.90762789,153.573458 0.592658564,172.178176 9.75221319,185.88916 C28.5807981,214.074344 78.2861237,213.842061 97.9622622,186.361626 C117.419829,159.18458 106.551015,118.367656 74.4477593,107.959191 C72.8312748,107.43458 71.1660442,106.988977 69.485089,106.581298 C76.0705336,102.316466 80.2611281,95.1093893 80.4403881,85.698 C80.4419605,85.6284733 80.4340982,85.563687 80.4340982,85.4941603 C82.4468416,86.0171908 84.6734389,86.1878473 86.6201391,85.6316336 C86.833993,86.6571527 87.2113824,87.6400076 87.7224305,88.4142824 C89.6502613,91.3470458 93.3706915,93.5371374 96.922869,92.9382595 C97.8270311,92.7849847 98.6808745,92.4405115 99.445088,91.9648855 C99.9545637,93.3174962 100.978232,94.5215725 101.976742,95.4617634 C104.881067,98.1970076 109.788702,100.620962 113.428937,98.1021985 C115.180652,100.451885 118.861771,101.678084 121.453178,101.981473 C124.13107,102.299084 127.395489,101.199298 129.117328,99.2193664 C130.582856,99.8846107 132.430492,99.9146336 133.903883,99.701313 C137.490654,99.1719618 142.349543,96.1475496 142.948648,92.1971679 C143.480138,92.4247099 144.063519,92.5685038 144.673632,92.6143282 C147.853138,92.8418702 151.13957,90.759229 153.138161,88.4601069 C154.271902,87.1549008 155.180781,85.4230534 155.386773,83.7054275 C157.423103,83.6517023 159.291181,82.5124122 160.665507,81.0223282 C162.484838,79.0471374 164.033707,76.3450763 164.404807,73.6603969 C164.45198,73.3143435 164.467705,72.9635496 164.461415,72.6127557 C166.719461,73.1041832 168.79982,72.0407405 170.568833,70.6091221 C173.100487,68.5596641 175.064484,64.7530763 174.69024,61.4869008 C175.976508,61.4458168 177.3414,60.9338473 178.553763,59.8514427 C181.269394,57.4306489 183.974018,52.4278855 183.12332,48.4933053 C184.293227,48.3495115 185.486721,47.8960076 186.521396,47.082229 C188.887942,45.2208092 190.866092,39.8830534 190.260696,36.090687 C191.90234,35.1315344 193.295536,33.254313 194.10535,31.8906412 C195.792595,29.0495267 196.85872,25.4278168 194.341219,22.9201145 C195.698248,20.5088015 196.528505,17.667687 197.899686,15.2532137 C198.805421,13.6588397 199.599511,12.0723664 200.160877,10.3974046 C201.296191,10.8082443 202.436221,11.1621985 203.54952,11.457687 C207.691368,12.5574733 209.417924,5.87816794 205.29809,5.0880916" id="Fill-3"></path>
                    </g>
                    <path d="M71.5509798,170.054612 C69.1080395,166.333975 65.5443849,163.645085 62.620917,160.349845 C61.3482939,158.911749 59.8757094,157.608574 58.6247875,156.145081 C58.8666014,155.519684 59.01696,154.846668 59.0262606,154.140318 C59.0293608,153.735556 58.9751076,153.337143 58.8929529,152.949841 C60.6228523,150.213332 62.1636407,147.343489 63.7369811,144.516503 C65.2994708,141.703804 67.6323548,138.260945 68.0679298,135.008562 C68.350046,132.949831 65.98151,130.832369 64.2903629,132.754592 C61.5482554,135.875229 59.0417615,139.18158 56.6158722,142.562534 C55.2781453,144.427614 53.3808364,146.294282 52.1702169,148.405394 C48.481005,149.056188 45.5141346,152.960952 47.802066,156.803811 C49.1537436,159.073654 52.0043573,160.530798 54.4581482,159.554607 C54.6674103,159.516511 54.8735721,159.472067 55.0642331,159.416511 C55.0859343,159.410162 55.1060855,159.397464 55.1246865,159.391114 C56.40506,160.95302 57.6885338,162.513338 59.0200602,164.038736 C61.5916579,166.970483 64.9088484,169.460961 67.0216197,172.767312 C68.8708759,175.65779 73.4405383,172.932391 71.5509798,170.054612" id="Fill-6"></path>
                    <path d="M55.6481606,129.239021 C55.4070586,127.917707 55.0106158,126.519409 53.9442654,125.598732 C52.5057442,124.357545 49.945856,125.122682 50.0008725,127.187136 C50.0219083,128.132951 50.343917,129.011208 50.4636589,129.920888 C50.6319448,131.221777 50.3827522,132.645213 51.1206214,133.795274 C52.1076832,135.338116 54.5640107,135.463806 55.5219461,133.795274 C56.3342495,132.387549 55.9248615,130.755154 55.6481606,129.239021" id="Fill-8"></path>
                    <path d="M56.8698994,176.176043 C55.8596052,174.329436 52.7051726,174.76036 52.2109729,176.750609 C51.7636909,178.536502 52.1593635,180.528232 52.2062811,182.346703 C52.290733,185.878506 58.0850675,185.890353 57.9990518,182.346703 C57.9505701,180.335722 57.8598626,177.988591 56.8698994,176.176043" id="Fill-10"></path>
                    <path d="M84.2542065,149.048676 C83.3737993,147.874851 81.8517668,147.963476 80.6139986,148.03944 C79.546789,148.100934 78.1092237,148.02497 77.2076996,148.712264 C75.7571393,149.822786 75.4452607,152.461631 77.2076996,153.496189 C78.2245538,154.089432 79.2966364,153.957399 80.4012064,153.975486 C81.8647617,154.004424 83.0018191,154.161778 84.2542065,153.074769 C85.4237513,152.060107 85.0566442,150.126642 84.2542065,149.048676" id="Fill-12"></path>
                    <path d="M30.3169812,150.165101 C29.3931681,149.888747 28.5183799,150.005018 27.5915027,150.181952 C26.8653213,150.321814 26.1360758,150.321814 25.4083623,150.417864 C22.2125511,150.849246 22.1819106,155.515247 25.4083623,155.912927 C27.6910846,156.192651 30.1898228,155.879225 31.6529099,153.771184 C32.5445504,152.487149 31.5809046,150.54256 30.3169812,150.165101" id="Fill-14"></path>
                    <path d="M30.4025123,139.842939 C30.0542144,139.730271 29.926084,139.733634 29.6860652,139.597422 C29.7979537,139.807625 29.6608001,139.730271 29.2764091,139.343497 C29.0544368,139.247645 28.8306599,139.160201 28.5996644,139.091254 C27.5078496,138.731387 26.5315325,139.493162 26.1669927,140.374332 C25.3151967,142.436002 27.9048731,143.989821 29.7997584,143.999911 C32.4688395,144.02009 32.7575839,140.611441 30.4025123,139.842939" id="Fill-16"></path>
                    <path d="M34.7309228,135.913067 C34.0836141,134.696425 32.5245248,133.573963 31.1392842,134.16018 C30.2496971,134.540741 29.8964515,135.21345 30.0259132,136.197526 C30.1664717,137.279626 31.105994,138.279079 32.0011295,138.753819 C33.769207,139.687923 35.7259287,137.794729 34.7309228,135.913067" id="Fill-18"></path>
                    <path d="M39.7233757,132.136843 C39.4959687,131.793146 39.212125,131.502087 38.9266213,131.201738 C38.8154077,131.088721 38.705854,130.975703 38.5896606,130.865782 C38.7025342,130.978799 38.7025342,130.972607 38.5913205,130.841011 C37.5986974,129.585431 35.7014261,129.743346 35.1187995,131.263666 C34.6092087,132.584269 35.8358784,134.055047 36.9579741,134.720767 C38.6826153,135.747215 40.7574964,133.729927 39.7233757,132.136843" id="Fill-20"></path>
                    <path d="M45.9370001,129.864564 C45.6127216,128.684674 44.4777469,127.473237 43.1014486,127.064692 C42.2587016,126.810732 41.3707065,127.342313 41.1274976,128.000086 C40.6938694,129.165779 41.4197253,130.773142 42.4981398,131.541332 C44.0573161,132.651817 46.4158765,131.610738 45.9370001,129.864564" id="Fill-22"></path>
                    <path d="M60.3298442,127.475761 C59.42514,128.238791 58.8923912,129.193739 59.0183136,130.264767 C59.2701585,132.344914 62.458902,132.618862 63.4255988,130.738372 C63.7704325,130.074397 63.896355,129.399587 63.9893438,128.686084 C64.1888825,127.16931 61.534825,126.458903 60.3298442,127.475761" id="Fill-24"></path>
                    <path d="M72.0648654,136.075119 C71.0544577,136.445943 70.2197004,136.940958 69.4685861,137.759569 C68.1185878,139.220126 69.9503699,141.954078 71.6131931,140.663191 C72.6135636,139.888309 73.5353097,139.351314 73.938469,138.035938 C74.2780597,136.919968 73.1505518,135.679807 72.0648654,136.075119" id="Fill-26"></path>
                    <path d="M79.4469358,141.644996 C78.0419626,140.1856 74.9142245,141.441769 74.2017024,143.041983 C73.6413857,144.306153 74.2535526,146.07439 75.9746448,145.99758 C77.8161633,145.912769 81.3670659,143.637263 79.4469358,141.644996" id="Fill-28"></path>
                    <path d="M82.4257197,158.253607 C81.6021795,157.502319 80.4973479,157.259201 79.4467412,157.038019 C78.179235,156.767482 76.5507945,157.975758 77.115072,159.549626 C77.8132171,161.485427 80.285532,162.722951 82.0342839,161.532954 C83.0171096,160.867579 83.4187125,159.154788 82.4257197,158.253607" id="Fill-30"></path>
                    <path d="M75.3199638,164.03681 C75.3149114,164.050093 75.3064909,164.056735 75.3014385,164.066698 C74.9427229,164.727567 74.8585173,165.61426 75.3014385,166.271808 C76.611677,168.197959 80.7276445,169.074689 80.9937341,165.876615 C81.1941433,163.502137 76.5291555,161.818416 75.3199638,164.03681" id="Fill-32"></path>
                    <path d="M67.7143789,179.450389 C67.1533979,178.32709 66.3831212,177.518242 65.2525815,177.08928 C64.3313374,176.736658 63.4838615,177.485524 63.1802112,178.337996 C62.653541,179.812099 63.3672049,181.169874 64.2129653,182.313167 C64.8202658,183.132921 66.1257904,183.169274 66.9132225,182.683965 C67.9940116,182.011439 68.2839376,180.586412 67.7143789,179.450389" id="Fill-34"></path>
                    <path d="M30.1519838,160.404293 C28.4652197,159.371465 26.2999409,160.459134 25.2779703,162.069615 C24.4662044,163.356538 25.5667881,164.928631 26.8485238,164.994439 C28.5438328,165.080356 30.3331358,164.168177 30.9244432,162.429734 C31.1773723,161.689388 30.763799,160.780865 30.1519838,160.404293" id="Fill-36"></path>
                    <path d="M31.3211352,166.031667 C29.8826512,166.29461 27.1354846,167.977444 28.266357,169.819858 C29.6070454,172.005004 32.4804572,170.79184 33.6468917,169.114446 C34.7955452,167.453372 32.9089797,165.74515 31.3211352,166.031667" id="Fill-38"></path>
                    <path d="M38.9169455,174.369698 C38.9184923,174.376616 38.9200392,174.386992 38.9231329,174.39391 C38.9664449,173.71252 38.3770923,173.076094 37.7815523,173.083012 C37.6284134,173.036318 37.4721808,173 37.3082139,173 C36.8812813,173 36.5518007,173.191965 36.2037578,173.44619 C35.6097647,173.876814 34.9291475,174.418122 34.4372469,174.992288 C33.5075856,176.074903 34.1448908,178.025685 35.5525309,177.999744 C36.721955,177.975532 37.7784585,177.190377 38.488466,176.189045 C38.8303215,175.69962 39.1582552,175.0165 38.9169455,174.369698" id="Fill-40"></path>
                    <path d="M45.9271902,177.272216 C45.7228653,176.379015 44.5591861,175.796727 43.632913,176.066305 C41.9282592,176.571314 40.5427415,178.979542 41.1420947,180.591617 C41.7784209,182.295348 43.9539951,182.455298 45.0573498,181.060682 C45.7695681,180.160292 46.1743261,178.332555 45.9271902,177.272216" id="Fill-42"></path>
                    <path d="M47.7870244,181.853001 C47.4596904,181.106969 46.7462703,180.763794 46.1629445,181.177842 C45.5110743,181.638517 45.2257063,182.686691 45.0508484,183.583795 C44.5780327,186.03824 47.5506165,187.026732 47.8457766,184.611454 C47.9562868,183.719946 48.1563242,182.694152 47.7870244,181.853001" id="Fill-44"></path>
                </g>
            </g>
        </g>
    </g>
</svg>