<?xml version="1.0" encoding="UTF-8"?>
<svg width="239px" height="314px" viewBox="0 0 239 314" version="1.1" xmlns="http://www.w3.org/2000/svg" xmlns:xlink="http://www.w3.org/1999/xlink">
    <!-- Generator: Sketch 52.2 (67145) - http://www.bohemiancoding.com/sketch -->
    <title>homme-performance</title>
    <desc>Created with Sketch.</desc>
    <g id="website-2.1" stroke="none" stroke-width="1" fill="none" fill-rule="evenodd">
        <g id="nutr-perf-vs-mieux" transform="translate(-649.000000, -190.000000)" fill-rule="nonzero">
            <g id="home-jumbotron">
                <g id="homme-performance" transform="translate(649.000000, 190.000000)">
                    <ellipse id="Oval" fill="#252526" cx="119.4" cy="307.9" rx="119.4" ry="5.99"></ellipse>
                    <path d="M141.9,54.72 C141.523796,54.7285373 141.155806,54.8317121 140.83,55.02 C140.670304,55.1244624 140.51672,55.2379815 140.37,55.36 C140.25,55.51 140.14,55.66 140.03,55.82 C139.908519,56.0328653 139.817626,56.2617805 139.76,56.5 C139.730821,56.5951615 139.707445,56.6920062 139.69,56.79 C139.69,56.95 139.62,57.11 139.58,57.27 L139.43,57.77 C139.367278,57.9988639 139.327087,58.2333129 139.31,58.47 C139.295259,58.609612 139.295259,58.750388 139.31,58.89 C139.26046,59.1038349 139.26046,59.3261651 139.31,59.54 C139.37809,59.7859817 139.509052,60.0099966 139.69,60.19 C140.171162,60.6670151 140.91115,60.7651351 141.5,60.43 C141.962778,60.1887205 142.347662,59.8211739 142.61,59.37 C142.733124,59.1579287 142.824114,58.9287688 142.88,58.69 C143.22,58.69 143.56,58.69 143.88,58.69 C144.63,58.69 145.39,58.69 146.15,58.69 L148.21,58.57 L148.61,58.57 L148.61,58.83 L148.49,60.95 C148.42,62.44 148.36,63.95 148.28,65.41 C148.2,66.87 148.04,68.16 147.88,69.52 C147.72,70.88 147.53,72.41 147.38,73.86 C147.23,75.31 147.12,76.86 147.01,78.37 C146.92,79.66 146.88,80.95 146.77,82.24 C146.66,83.53 146.53,85.06 146.37,86.47 C146.18,88.03 146,89.58 145.81,91.14 C145.12,97.02 144.81,102.93 144.45,108.84 C144.11,114.57 143.59,120.27 143.05,125.98 C142.94,127.15 142.85,128.32 142.76,129.49 C142.67,130.66 142.61,131.49 142.53,132.57 C142.53,133.01 142.46,133.45 142.44,133.89 C142.39,135.46 142.34,137.03 142.28,138.6 C142.28,139.22 142.28,139.85 142.28,140.47 L142.28,143.31 C142.28,144.61 142.28,145.91 142.28,147.21 C142.28,147.7 142.28,148.21 142.28,148.68 L142.28,150 L141.35,150 L139.35,150.05 L135.11,150.15 C132.11,150.24 129.11,150.33 126.11,150.44 C123.46,150.53 120.82,150.53 118.17,150.44 C116.97,150.44 115.77,150.44 114.58,150.3 C113.88,150.25 113.18,150.22 112.49,150.14 L110.67,149.91 C109.23,149.67 107.8,149.41 106.35,149.22 C105.63,149.13 104.92,149.02 104.21,148.96 C103.5,148.9 102.62,148.81 101.82,148.75 C101.02,148.69 100.52,148.65 99.82,148.65 C99.0911465,148.651814 98.3630983,148.698569 97.64,148.79 C97.04,148.87 96.45,148.97 95.85,149.09 C95.76,148.16 95.64,147.23 95.51,146.31 C94.8928446,145.515254 94.5428238,144.545696 94.51,143.54 C94.45,142.44 94.4,141.34 94.35,140.25 C94.1528394,139.377901 94.0754606,138.482998 94.12,137.59 C94.12,136.99 94.12,136.4 94.12,135.8 C94.1230316,135.535261 94.146434,135.271148 94.19,135.01 C94.13,134.3 94.06,133.59 94,132.87 C93.74,130.02 93.52,127.16 93.3,124.3 C92.84,118.5 92.45,112.69 92.09,106.88 C91.92,104.16 91.68,101.44 91.48,98.72 C91.25,95.66 91.07,92.6 90.9,89.54 C90.7466667,86.7933333 90.5566667,84.05 90.33,81.31 C90.08,78.41 89.79,75.52 89.52,72.62 C89.35,70.77 89.2,68.92 89.09,67.07 C89.0366667,66.27 89.0066667,65.47 89,64.67 L89,61.47 C88.9984449,61.3311482 88.9567711,61.1957084 88.88,61.08 C88.8409144,60.9862632 88.7790433,60.9037685 88.7,60.84 C88.6102224,60.7657049 88.4964829,60.7266069 88.38,60.73 C88.2882914,60.7268784 88.1977449,60.7512563 88.12,60.8 C87.9441991,60.8438236 87.7952105,60.9601074 87.71,61.12 C87.5223004,61.5965561 87.4437105,62.1090989 87.48,62.62 C87.48,62.96 87.48,63.29 87.48,63.62 C87.48,64.41 87.48,65.2 87.48,65.99 C87.48,67.39 87.55,68.78 87.63,70.17 C87.8,73.11 88.05,76.04 88.25,78.97 C88.66,84.73 88.86,90.49 89.14,96.25 C89.27,99 89.5,101.73 89.66,104.47 C89.83,107.47 89.98,110.54 90.14,113.58 C90.28,116.27 90.47,118.96 90.65,121.66 C90.84,124.56 91.04,127.46 91.27,130.36 C91.5,133.26 91.76,136.31 92.01,139.29 C92.08,140.04 92.19,140.8 92.28,141.55 C92.37,142.3 92.49,143.13 92.6,143.91 C92.8,145.27 93,146.63 93.19,147.99 C93.28,148.59 93.38,149.2 93.47,149.8 C93.2090057,149.947502 92.9916587,150.161399 92.84,150.42 C92.7147466,150.645724 92.6558165,150.902243 92.67,151.16 C92.6724281,151.51137 92.8041388,151.849546 93.04,152.11 C93.2654379,152.362369 93.5369598,152.569404 93.84,152.72 C94.2373407,152.929796 94.7126593,152.929796 95.11,152.72 C95.2478714,152.650967 95.3757103,152.563498 95.49,152.46 C95.6508085,152.266407 95.7699575,152.041726 95.84,151.8 L96.16,151.75 L97.3,151.57 C97.91,151.57 98.51,151.48 99.12,151.47 C99.728429,151.466476 100.336424,151.503223 100.94,151.58 C102.07,151.69 103.19,151.82 104.31,151.96 C104.91,152.05 105.51,152.13 106.11,152.24 L108.22,152.65 C109.74,152.93 111.22,153.22 112.82,153.38 C114.42,153.54 115.76,153.67 117.25,153.73 C118.74,153.79 120.33,153.85 121.88,153.88 C124.73,153.95 127.59,153.88 130.44,153.82 C133.29,153.76 136.21,153.82 139.1,153.82 C140.46,153.82 141.82,153.82 143.18,153.88 C143.781443,153.931516 144.385707,153.821022 144.93,153.56 C145.151142,153.43238 145.353139,153.274149 145.53,153.09 C145.804827,152.787782 146.003656,152.424407 146.11,152.03 C146.18342,151.718677 146.220335,151.399863 146.22,151.08 C146.234986,150.860255 146.234986,150.639745 146.22,150.42 L146.22,150 C146.22,149.22 146.22,148.43 146.22,147.65 C146.22,146.27 146.22,144.88 146.22,143.49 C146.22,141.87 146.22,140.24 146.27,138.61 C146.27,138.1 146.27,137.61 146.32,137.1 C146.32,136.1 146.39,135.1 146.43,134.16 C146.48,132.82 146.62,131.47 146.72,130.16 C146.82,128.97 146.91,127.77 147.03,126.59 L147.53,121.59 C147.81,118.85 148.06,116.12 148.27,113.38 C148.52,110.19 148.74,107.01 148.95,103.82 C149.03,102.58 149.13,101.35 149.23,100.13 C149.33,98.91 149.42,97.49 149.55,96.13 C149.7,94.66 149.83,93.19 150.01,91.73 C150.19,90.27 150.39,88.73 150.57,87.16 C150.65,86.52 150.74,85.87 150.8,85.23 C150.88,84.32 150.96,83.42 151.03,82.51 C151.15,81.2 151.19,79.88 151.28,78.51 C151.37,77.14 151.45,75.78 151.57,74.42 C151.73,72.82 151.89,71.22 152.07,69.62 C152.319523,67.2681039 152.44969,64.9050731 152.46,62.54 C152.46,61.34 152.46,60.15 152.46,58.95 C152.446814,58.2032435 152.383337,57.4582234 152.27,56.72 C152.150463,55.943946 151.611776,55.2975216 150.87,55.04 C150.47352,54.9348461 150.05648,54.9348461 149.66,55.04 C148.660865,55.0988052 147.659135,55.0988052 146.66,55.04 C145.73,55.04 144.81,54.95 143.89,54.84 C143.42,54.76 142.95,54.66 142.47,54.61 L141.93,54.61 L141.9,54.72 Z" id="Shape" fill="#11BAA1"></path>
                    <path d="M97.9,55.34 C97.6951511,55.4025245 97.4974076,55.4863142 97.31,55.59 C97.017552,55.7489238 96.7803821,55.9930693 96.63,56.29 L96.07,56.52 L96.22,56.46 L92.78,57.87 C91.67,58.32 90.55,58.74 89.47,59.26 C88.8522858,59.5417053 88.2600811,59.8762842 87.7,60.26 C87.1232529,60.6928822 86.6430449,61.2412047 86.29,61.87 C86.055279,62.2731679 86.1918321,62.790279 86.595,63.025 C86.9981679,63.259721 87.515279,63.1231679 87.75,62.72 C87.87,62.53 88,62.35 88.13,62.17 C88.2737218,61.9947247 88.4308626,61.830897 88.6,61.68 C89.3895379,61.1727237 90.2268696,60.7440098 91.1,60.4 C92.53,59.81 93.99,59.26 95.44,58.72 L96.76,58.23 L96.96,58.64 C97.27,59.3 97.56,59.96 97.84,60.64 C98.36,62 98.84,63.36 99.33,64.73 C99.82,66.1 100.33,67.73 100.96,69.14 C101.59,70.55 102.25,72.14 102.96,73.63 C103.32,74.35 103.67,75.08 104.03,75.8 C104.23,76.2 104.43,76.6 104.64,77 C105.147838,77.9592322 105.722593,78.8815132 106.36,79.76 C106.968286,80.6163358 107.636635,81.4283795 108.36,82.19 C109.157071,82.991245 110.042775,83.6991369 111,84.3 C111.943272,84.8796689 112.949831,85.3493964 114,85.7 C115.138291,86.0876978 116.328053,86.3034054 117.53,86.34 C118.663459,86.3771644 119.796806,86.2628207 120.9,86 C122.068505,85.7139872 123.204485,85.3085194 124.29,84.79 C126.329168,83.8624716 128.230464,82.6577566 129.94,81.21 C131.58498,79.7757621 132.959991,78.0586919 134,76.14 C135.092925,74.1823689 136.000215,72.1267367 136.71,70 C137.03,69.08 137.29,68.14 137.57,67.21 C137.77,66.53 137.95,65.85 138.13,65.21 C138.42,64.06 138.68,62.91 138.93,61.75 C139.03,61.26 139.12,60.75 139.2,60.25 C139.2,60.08 139.25,59.91 139.27,59.73 C140.428082,59.553628 141.603129,59.5166979 142.77,59.62 C143.08931,59.6226003 143.403504,59.5397361 143.68,59.38 C144.298786,59.0125642 144.639245,58.3118733 144.5457,57.5983229 C144.452155,56.8847725 143.942588,56.295518 143.25,56.1 C142.76362,55.9753547 142.269062,55.8851313 141.77,55.83 C141.224065,55.789994 140.675935,55.789994 140.13,55.83 C139.69,55.83 139.25,55.91 138.82,55.97 L138.99,55.97 L138,56 C137.249565,56.0074915 136.523663,56.2682525 135.94,56.74 C135.548785,57.1307578 135.323159,57.6572185 135.31,58.21 C135.31,58.36 135.31,58.51 135.31,58.65 C135.31355,59.0647296 135.286812,59.4791648 135.23,59.89 C134.96,61.57 134.61,63.22 134.23,64.89 C134.03,65.73 133.78,66.55 133.54,67.38 C133.111848,68.9241766 132.597712,70.4432129 132,71.93 C131.333311,73.5104126 130.494944,75.0127653 129.5,76.41 C128.655825,77.4324826 127.707367,78.3641838 126.67,79.19 C125.122167,80.3484043 123.444088,81.3216905 121.67,82.09 C120.738475,82.4627796 119.769575,82.7343397 118.78,82.9 C117.978915,82.9850023 117.171085,82.9850023 116.37,82.9 C115.534824,82.760638 114.716873,82.5326847 113.93,82.22 C113.115028,81.8536129 112.337972,81.4081455 111.61,80.89 C110.612036,80.0292632 109.71315,79.0599422 108.93,78 C107.542715,76.0105966 106.321908,73.9101403 105.28,71.72 C104.56,70.33 103.91,68.92 103.28,67.5 C102.58,65.76 101.91,64.01 101.28,62.26 C101.15,61.91 101.02,61.56 100.87,61.26 C100.64,60.7 100.43,60.13 100.18,59.58 C99.93,59.03 99.75,58.67 99.54,58.22 C99.42,57.96 99.29,57.7 99.15,57.44 C99.5790065,57.15076 99.767091,56.6140845 99.6124998,56.1203155 C99.4579085,55.6265464 98.9973554,55.2929492 98.48,55.3 C98.2946442,55.3029513 98.1101858,55.3264278 97.93,55.37 L97.9,55.34 Z M137.84,56.02 L137.68,56.02 L137.84,56.02 Z M98.84,56.72 L98.84,56.83 C98.84,56.83 98.84,56.76 98.84,56.72 Z M129.43,76.55 L129.35,76.65 L129.43,76.55 Z M138.5,55.94 L138.84,55.94 L138.5,55.94 Z" id="Shape" fill="#11BAA1"></path>
                    <path d="M110.13,54.73 C108.830198,54.7846412 107.534675,54.9148612 106.25,55.12 C105.66,55.22 105.08,55.35 104.5,55.5 C103.89954,55.6444273 103.311125,55.8349935 102.74,56.07 C102.389036,56.2070866 102.053786,56.3814168 101.74,56.59 C101.398521,56.8331936 101.080476,57.1077166 100.79,57.41 C100.611367,57.5886328 100.541603,57.8489958 100.606987,58.0930127 C100.672371,58.3370297 100.86297,58.5276286 101.106987,58.5930128 C101.351004,58.6583969 101.611367,58.5886328 101.79,58.41 C101.99,58.21 102.2,58.03 102.41,57.85 C102.673116,57.66767 102.954662,57.5134903 103.25,57.39 C103.827126,57.1675467 104.418436,56.9838061 105.02,56.84 C105.70266,56.6711466 106.393578,56.5376357 107.09,56.44 C109.997963,56.0650417 112.942037,56.0650417 115.85,56.44 C117.79,56.71 119.71,57.12 121.63,57.51 C123.17976,57.8377006 124.756433,58.0218132 126.34,58.06 L127.66,58.06 C128.229075,58.036441 128.796522,57.9830342 129.36,57.9 C129.745381,57.7920814 130.011335,57.4402042 130.01,57.04 C130.010358,56.8038204 129.916825,56.5771833 129.75,56.41 C129.583448,56.24223 129.356398,56.148527 129.12,56.15 C128.42,56.21 127.72,56.24 127.02,56.25 C126.61,56.25 126.19,56.25 125.77,56.25 C124.896901,56.2330871 124.025482,56.1663117 123.16,56.05 L123,56 L123.13,56 C122.13,55.87 121.13,55.68 120.13,55.51 L117.38,55.06 C116.94,54.99 116.49,54.94 116.05,54.89 C115.39,54.81 114.72,54.75 114.05,54.71 C113.38,54.67 112.56,54.64 111.82,54.64 C111.26,54.64 110.69,54.64 110.13,54.64 L110.13,54.73 Z" id="Shape" fill="#11BAA1"></path>
                    <path d="M108.44,46.64 C107.66,49.79 106.86,52.94 106.06,56.09 C105.930414,56.6073315 106.229609,57.1353224 106.74,57.29 C107.163436,57.3996958 107.609026,57.2214595 107.84,56.85 C107.96876,56.9086689 108.108505,56.9393446 108.25,56.94 C108.741533,56.94 109.14,56.5415334 109.14,56.05 C109.110018,55.6472239 109.110018,55.2427761 109.14,54.84 C109.14,54.7 109.14,54.56 109.14,54.42 C109.14,54.1 109.21,53.78 109.25,53.42 C109.31,52.89 109.38,52.42 109.45,51.85 L109.78,49.67 C109.78,49.31 109.92,48.95 109.99,48.6 C110.06,48.25 110.18,47.6 110.29,47.11 C110.425715,46.5894158 110.125245,46.0547552 109.61,45.9 C109.523612,45.8901714 109.436388,45.8901714 109.35,45.9 C108.890829,45.8817245 108.478306,46.1787409 108.35,46.62 L108.44,46.64 Z" id="Shape" fill="#11BAA1"></path>
                    <path d="M120.3,43.26 C120.004877,44.2606074 119.794139,45.2841901 119.67,46.32 L119.53,47.56 C119.53,47.91 119.47,48.26 119.45,48.56 C119.43,48.86 119.45,49.13 119.45,49.41 C119.453445,49.6780344 119.476843,49.9454404 119.52,50.21 C119.569323,50.4633481 119.660576,50.7066899 119.79,50.93 C119.863536,51.0672122 119.989992,51.1683776 120.14,51.21 C120.292548,51.2526652 120.455845,51.2321979 120.593145,51.1532036 C120.730444,51.0742093 120.830213,50.943324 120.87,50.79 C120.90566,50.6377078 120.884317,50.4776287 120.81,50.34 L120.72,50.15 C120.690528,50.0623694 120.670416,49.9718651 120.66,49.88 C120.625192,49.4239966 120.625192,48.9660034 120.66,48.51 C120.66,48.24 120.66,47.97 120.66,47.71 C120.66,47.06 120.76,46.41 120.84,45.76 C120.84,45.39 120.95,45.02 121.03,44.66 C121.11,44.3 121.22,43.87 121.33,43.48 C121.366667,43.3486925 121.349235,43.2081706 121.281596,43.0898023 C121.213957,42.9714339 121.101742,42.8850739 120.97,42.85 C120.927123,42.8411052 120.882877,42.8411052 120.84,42.85 C120.60586,42.8468619 120.399667,43.0035687 120.34,43.23 L120.3,43.26 Z" id="Shape" fill="#11BAA1"></path>
                    <path d="M114.44,16.72 C113.304776,17.1109998 112.225611,17.6489015 111.23,18.32 C110.239391,19.0124253 109.318398,19.7994557 108.48,20.67 C107.66,21.5 106.88,22.39 106.13,23.29 C105.310057,24.2566122 104.567749,25.2864818 103.91,26.37 C103.263898,27.4714275 102.743952,28.6421451 102.36,29.86 C101.977353,31.0762373 101.752185,32.3365069 101.69,33.61 C101.645039,34.1891287 101.645039,34.7708713 101.69,35.35 C101.74436,36.0268285 101.864936,36.6966983 102.05,37.35 C102.253766,38.0477487 102.539068,38.7190469 102.9,39.35 C103.12009,39.6996953 103.364,40.033819 103.63,40.35 C103.839026,40.6038693 104.077349,40.8321218 104.34,41.03 C104.65249,41.2888324 104.987109,41.5197194 105.34,41.72 C105.641831,41.8893228 105.952249,42.0428628 106.27,42.18 L107.42,42.65 C107.782556,42.7809735 108.153362,42.8878726 108.53,42.97 C109.813501,43.2544827 111.112317,43.4648308 112.42,43.6 L113.23,43.69 C113.62,43.69 114,43.69 114.39,43.69 C115.055999,43.684563 115.594563,43.1459995 115.6,42.48 C115.589458,41.8144981 115.055393,41.2760194 114.39,41.26 C114.02,41.26 113.66,41.26 113.29,41.18 L111.41,40.88 C110.73,40.77 110.04,40.62 109.41,40.47 C108.822864,40.3287436 108.247755,40.1414988 107.69,39.91 C107.130315,39.67532 106.594512,39.3873261 106.09,39.05 C105.863631,38.8603434 105.656011,38.6493739 105.47,38.42 C105.199466,38.0340937 104.968309,37.6220324 104.78,37.19 C104.554867,36.616177 104.393888,36.0192148 104.3,35.41 C104.213295,34.663194 104.196556,33.9099204 104.25,33.16 C104.401228,33.658802 104.578131,34.1494563 104.78,34.63 C105.234295,35.6730379 105.859559,36.6329019 106.63,37.47 C106.992578,37.8658615 107.390936,38.2273964 107.82,38.55 C108.273433,38.8872498 108.771529,39.1598566 109.3,39.36 C110.356772,39.7628411 111.479068,39.9662784 112.61,39.96 C113.814462,39.9358088 115.005542,39.7023301 116.13,39.27 C117.250595,38.8763353 118.321223,38.3527681 119.32,37.71 C120.311693,37.0571778 121.251184,36.3283195 122.13,35.53 C123.02045,34.7357004 123.794707,33.8200578 124.43,32.81 C125.085043,31.775765 125.574289,30.645438 125.88,29.46 C126.187656,28.2756148 126.322384,27.052957 126.28,25.83 C126.237155,24.6294013 126.011218,23.4423857 125.61,22.31 C125.237865,21.2269756 124.694283,20.210713 124,19.3 C123.316503,18.3295526 122.406968,17.5401446 121.35,17 C120.258157,16.500768 119.07957,16.2188582 117.88,16.17 L117.44,16.17 C116.417106,16.1837771 115.403494,16.3662273 114.44,16.71 L114.44,16.72 Z M118.7,18.43 C119.274307,18.5152688 119.837626,18.6628046 120.38,18.87 C120.702928,19.0207398 121.010953,19.201537 121.3,19.41 C121.748734,19.7871215 122.157546,20.2093371 122.52,20.67 C122.99269,21.290266 123.395149,21.9610307 123.72,22.67 C124.058804,23.5338156 124.300294,24.4326956 124.44,25.35 C124.550047,26.2834344 124.550047,27.2265656 124.44,28.16 C124.312307,29.0776499 124.066955,29.9750321 123.71,30.83 C123.346635,31.6755665 122.883338,32.4745863 122.33,33.21 C121.460778,34.2501768 120.47423,35.1863903 119.39,36 C118.88255,36.3904296 118.355174,36.7542526 117.81,37.09 C117.247495,37.4137452 116.666499,37.7042433 116.07,37.96 C115.191537,38.3319353 114.271634,38.5971629 113.33,38.75 C112.638997,38.8303878 111.941003,38.8303878 111.25,38.75 C110.564194,38.6610725 109.89227,38.4863724 109.25,38.23 C108.848394,38.0516917 108.469128,37.8268169 108.12,37.56 C107.571451,37.0984599 107.078168,36.5749763 106.65,36 C106.140554,35.3324398 105.717222,34.6033681 105.39,33.83 C105.021026,32.9235972 104.759251,31.9771773 104.61,31.01 C104.69,30.72 104.77,30.43 104.87,30.14 C104.854846,30.2753294 104.939252,30.4019386 105.07,30.44 C105.226974,30.4783842 105.386145,30.3855343 105.43,30.23 C105.57,29.45 105.7,28.67 105.84,27.89 C106.32194,27.0096083 106.87019,26.1671752 107.48,25.37 C108.17,24.48 108.91,23.63 109.66,22.8 C110.384495,22.0005191 111.166588,21.2551909 112,20.57 C112.824217,19.9474224 113.716629,19.4206979 114.66,19 C115.3412,18.7167924 116.052455,18.5121387 116.78,18.39 C117.418084,18.3199728 118.061916,18.3199728 118.7,18.39 L118.7,18.43 Z M122.41,20.51 L122.41,20.58 L122.41,20.51 Z M122.28,33.26 L122.28,33.31 L122.28,33.26 Z" id="Shape" fill="#11BAA1"></path>
                    <path d="M117.49,17.84 C116.823918,17.9801043 116.173881,18.1878482 115.55,18.46 C114.933046,18.7135289 114.331954,19.0040569 113.75,19.33 C113.218496,19.6475853 112.707488,19.9982772 112.22,20.38 C111.22,21.18 110.22,22.04 109.22,22.91 C108.17217,23.305343 107.190859,23.8583845 106.31,24.55 C105.831003,24.9124467 105.391871,25.324761 105,25.78 C104.564668,26.2946339 104.185832,26.8545071 103.87,27.45 C103.573903,28.0004481 103.335952,28.5802437 103.16,29.18 C102.976799,29.8321475 102.869423,30.5032481 102.84,31.18 C102.53,31.72 102.23,32.26 101.94,32.81 C101.619981,33.3772166 101.81081,34.0961535 102.37,34.43 C102.604328,34.5599594 102.874923,34.6091586 103.14,34.57 C103.193333,34.8033333 103.253333,35.0333333 103.32,35.26 C103.721647,36.536515 104.304241,37.7488497 105.05,38.86 C105.702097,39.9145048 106.542778,40.8399319 107.53,41.59 C108.017023,41.8974792 108.545781,42.1332314 109.1,42.29 C109.751289,42.4836463 110.422065,42.6043859 111.1,42.65 C112.370203,42.7598397 113.649475,42.6101377 114.86,42.21 C116.16311,41.774204 117.406207,41.1761736 118.56,40.43 C120.847054,38.9843627 122.800308,37.0686059 124.29,34.81 C125.052759,33.6608084 125.629825,32.3986883 126,31.07 C126.178932,30.4138137 126.309284,29.7453384 126.39,29.07 C126.464807,28.3753415 126.464807,27.6746585 126.39,26.98 C126.242856,25.5809204 125.828706,24.2230531 125.17,22.98 C124.584421,21.7835427 123.796112,20.6975036 122.84,19.77 C122.368006,19.3267457 121.855799,18.9283625 121.31,18.58 C120.760741,18.2133955 120.146334,17.9554123 119.5,17.82 C119.246196,17.7718572 118.988325,17.7484144 118.73,17.75 C118.290552,17.7581121 117.852471,17.8015858 117.42,17.88 L117.49,17.84 Z M119.14,20.04 C119.333856,20.0828256 119.524355,20.139641 119.71,20.21 C120.162675,20.4343788 120.594392,20.6987637 121,21 C121.543829,21.4405176 122.036871,21.9402684 122.47,22.49 C123.022339,23.2475286 123.491699,24.0622028 123.87,24.92 C124.140068,25.5619791 124.334704,26.2331372 124.45,26.92 C124.54497,27.7138363 124.54497,28.5161637 124.45,29.31 C124.325078,30.1979572 124.093401,31.0675835 123.76,31.9 C123.264215,33.0206615 122.636442,34.0781411 121.89,35.05 C120.972268,36.2392521 119.914653,37.3136541 118.74,38.25 C117.605431,39.1057038 116.37352,39.8240391 115.07,40.39 C113.667856,41.0248474 112.11475,41.2501864 110.59,41.04 C110.009414,40.9536383 109.439582,40.8061524 108.89,40.6 C108.578604,40.4632735 108.283443,40.2922144 108.01,40.09 C107.537161,39.7004682 107.110992,39.2575213 106.74,38.77 C105.99664,37.8105353 105.375224,36.7625263 104.89,35.65 C104.611941,34.9550555 104.400981,34.2351115 104.26,33.5 C104.57,32.96 104.89,32.44 105.2,31.91 C105.51,31.38 105.76,30.98 106.04,30.51 C106.507135,29.7285197 107.017945,28.9739898 107.57,28.25 C108.485809,27.0918773 109.488725,26.0053848 110.57,25 C111.07,24.52 111.57,24.06 112.12,23.59 L113.5,23.85 C113.704,23.9356633 113.939143,23.8955333 114.103185,23.7470594 C114.267227,23.5985854 114.330527,23.3685944 114.265562,23.157091 C114.200596,22.9455877 114.019103,22.7907872 113.8,22.76 L113.21,22.65 L113.76,22.2 C114.179974,21.8794779 114.617305,21.5823601 115.07,21.31 C115.554704,21.0334683 116.055609,20.786355 116.57,20.57 C117.151649,20.3240128 117.758651,20.1429183 118.38,20.03 C118.623098,20.0148805 118.866902,20.0148805 119.11,20.03 L119.14,20.04 Z M116.76,20.53 L116.67,20.53 L116.76,20.53 Z M122.57,22.53 L122.57,22.58 L122.57,22.53 Z M107.68,28.11 L107.63,28.17 L107.68,28.11 Z" id="Shape" fill="#11BAA1"></path>
                    <path d="M100.91,2.54 C99.5124313,2.5885008 98.1330663,2.87248772 96.83,3.38 C96.5427039,3.49367022 96.262234,3.62388836 95.99,3.77 C95.6587552,3.96707318 95.3443531,4.19116826 95.05,4.44 C94.4998722,4.90856818 94.0594787,5.4923456 93.76,6.15 C93.4544927,6.80295311 93.2456374,7.49689186 93.14,8.21 C93.0134433,8.99660969 92.9665393,9.79397752 93,10.59 C93.0476865,12.1023384 93.3590268,13.5947418 93.92,15 C94.9859984,17.7183788 96.5341783,20.2218907 98.49,22.39 C99.5043639,23.5075259 100.684884,24.462061 101.99,25.22 C103.30267,25.9760293 104.795354,26.3630215 106.31,26.34 C106.981232,26.2809586 107.496092,25.7188233 107.496092,25.045 C107.496092,24.3711767 106.981232,23.8090414 106.31,23.75 C105.57436,23.7588942 104.842991,23.6369994 104.15,23.39 C103.384963,23.0061519 102.66404,22.5400667 102,22 C101.065946,21.2259971 100.220763,20.350629 99.48,19.39 C98.9213388,18.6594134 98.4038682,17.8982309 97.93,17.11 C97.4591569,16.2982317 97.0351311,15.4601963 96.66,14.6 C96.2646691,13.6343957 95.9762831,12.628398 95.8,11.6 C95.699582,10.7462761 95.699582,9.88372393 95.8,9.03 C95.8763867,8.54109567 95.99346,8.05942261 96.15,7.59 C96.2705078,7.33914777 96.4109589,7.09837443 96.57,6.87 C96.6957924,6.73248365 96.8293436,6.60227121 96.97,6.48 C97.2130081,6.29906525 97.470551,6.13851906 97.74,6 C98.4488325,5.73862328 99.1827063,5.55096604 99.93,5.44 C100.973784,5.3301472 102.026216,5.3301472 103.07,5.44 C103.809152,5.56811503 104.533024,5.77254188 105.23,6.05 C105.851213,6.3247869 106.444039,6.65971692 107,7.05 L107.07,7.05 C106.57,7.45 106.07,7.87 105.64,8.31 C105.204255,8.73197259 104.809181,9.19400883 104.46,9.69 C104.081457,10.2290496 103.772355,10.8136554 103.54,11.43 C103.440727,11.7345217 103.38025,12.0503463 103.36,12.37 C103.310606,12.6813867 103.310606,12.9986133 103.36,13.31 C103.523938,14.0029287 103.941326,14.6093896 104.53,15.01 C104.981774,15.3243522 105.48651,15.5547013 106.02,15.69 C106.800977,15.8644577 107.61526,15.8159471 108.37,15.55 C108.964598,15.3400162 109.516682,15.0250229 110,14.62 C110.432627,14.2621176 110.815959,13.8485228 111.14,13.39 C111.482292,12.9073004 111.739344,12.3695194 111.9,11.8 C111.996918,11.4918715 112.054048,11.1726171 112.07,10.85 C112.101925,10.438716 112.07838,10.0250065 112,9.62 C111.904062,9.06186788 111.73948,8.51773975 111.51,8 C111.927621,7.7595924 112.358285,7.54259083 112.8,7.35 C113.693727,7.00127112 114.622417,6.74982089 115.57,6.6 C116.115286,6.54506131 116.664714,6.54506131 117.21,6.6 C117.47,6.66 117.72,6.73 117.97,6.81 L118.39,7.05 C118.543334,7.18654789 118.687013,7.3335674 118.82,7.49 C119.017806,7.77355697 119.194931,8.0709932 119.35,8.38 C119.48374,8.74506158 119.59069,9.11938688 119.67,9.5 C119.573147,9.6886038 119.486358,9.88220872 119.41,10.08 C119.270943,10.4509281 119.199809,10.8438631 119.2,11.24 C119.193986,11.7104612 119.382082,12.1626147 119.72,12.49 C120.054848,12.8341096 120.520258,13.0195466 121,13 C121.230041,12.9886263 121.458106,12.9517334 121.68,12.89 C122.099527,12.7483727 122.454342,12.4609721 122.68,12.08 C122.903958,11.6979632 123.04056,11.2710825 123.08,10.83 L123.44,10.49 C123.786503,10.2636458 124.147253,10.059889 124.52,9.88 C124.895748,9.74243387 125.279855,9.62887194 125.67,9.54 C126.002602,9.50877903 126.337398,9.50877903 126.67,9.54 C127.335134,9.66003938 127.987865,9.8407956 128.62,10.08 C129.45693,10.4682424 130.254031,10.9371253 131,11.48 C131.289495,11.7261781 131.560245,11.9935851 131.81,12.28 C131.961555,12.4924303 132.101751,12.7127389 132.23,12.94 C132.32,13.2 132.39,13.46 132.46,13.72 C132.53,13.98 132.46,13.96 132.46,14.07 C132.46,14.18 132.46,14.21 132.46,14.27 L132.26,14.46 L131.74,14.83 C131.202424,15.1138791 130.734517,15.5134784 130.37,16 C130.197239,16.3048058 130.10758,16.6496472 130.11,17 C130.10758,17.3503528 130.197239,17.6951942 130.37,18 C130.559059,18.3156948 130.819321,18.582806 131.13,18.78 L131.42,18.91 L131.68,19.02 L131.41,18.91 L131.71,19.04 C131.926072,19.1352672 132.13351,19.2490235 132.33,19.38 C132.578088,19.5980972 132.811903,19.8319123 133.03,20.08 C133.101837,20.2890123 133.158648,20.5028902 133.2,20.72 C133.209979,20.8931897 133.209979,21.0668103 133.2,21.24 C133.129778,21.5804401 133.03281,21.9148105 132.91,22.24 C132.633681,22.8699477 132.298882,23.4725873 131.91,24.04 C131.188712,24.9428527 130.377915,25.7704013 129.49,26.51 C129.12,26.79 128.74,27.05 128.35,27.31 C127.830842,27.6460597 127.285792,27.9403198 126.72,28.19 L126.07,28.42 C125.854724,28.3436573 125.62839,28.3031199 125.4,28.3 C124.577623,28.2906913 123.833384,28.7857647 123.524137,29.5478383 C123.21489,30.3099118 123.403686,31.1836082 124,31.75 C124.386211,32.1501391 124.878992,32.4312326 125.42,32.56 L125.97,32.63 C126.248679,32.6054289 126.525774,32.5653669 126.8,32.51 C126.984172,32.4719189 127.16481,32.4183965 127.34,32.35 C127.93,32.13 128.5,31.87 129.07,31.61 C129.773383,31.2513196 130.442791,30.8295926 131.07,30.35 C131.927529,29.7335726 132.727463,29.0407424 133.46,28.28 C134.371889,27.360516 135.167806,26.3328753 135.83,25.22 C136.153648,24.6226666 136.437596,24.0046619 136.68,23.37 C136.952343,22.6701504 137.107749,21.9302799 137.14,21.18 C137.131822,20.8441461 137.095022,20.509601 137.03,20.18 C136.992105,19.9005794 136.93869,19.6234842 136.87,19.35 C136.773648,19.0299339 136.649856,18.7187796 136.5,18.42 C136.28132,18.0318905 136.019675,17.6696126 135.72,17.34 C135.607884,17.2060903 135.487658,17.0791853 135.36,16.96 C135.590401,16.7222786 135.785703,16.452897 135.94,16.16 C136.510077,14.9289787 136.564088,13.5210788 136.09,12.25 C135.908032,11.6461244 135.623919,11.0779 135.25,10.57 C134.878889,10.0554449 134.456746,9.57969622 133.99,9.15 C133.437261,8.67540595 132.841331,8.25356766 132.21,7.89 C131.7,7.6 131.16,7.36 130.63,7.12 C130.025876,6.83825503 129.400635,6.60420755 128.76,6.42 C128.104142,6.24621968 127.43529,6.12582635 126.76,6.06 C125.980339,5.98422887 125.193383,6.05546197 124.44,6.27 C123.80418,6.45231319 123.18787,6.6968276 122.6,7 L122.52,7 L122.41,6.76 C122.141268,6.21366543 121.805333,5.70304454 121.41,5.24 C121.012242,4.77304887 120.534856,4.38030594 120,4.08 C119.705496,3.90794934 119.393799,3.76718309 119.07,3.66 C118.796012,3.5602848 118.515311,3.48008447 118.23,3.42 C117.496394,3.2722689 116.745223,3.23184716 116,3.3 C114.771866,3.412921 113.562567,3.67829498 112.4,4.09 C111.432961,4.44347753 110.502036,4.8888481 109.62,5.42 C109.163976,5.00833369 108.675752,4.63380588 108.16,4.3 C107.140037,3.65888836 106.026804,3.17986074 104.86,2.88 C103.881106,2.62275144 102.872064,2.49830299 101.86,2.51 C101.56,2.51 101.27,2.51 100.97,2.51 L100.91,2.54 Z M108.91,9.79 C108.914669,9.86659557 108.914669,9.94340443 108.91,10.02 C108.919979,10.1931897 108.919979,10.3668103 108.91,10.54 C108.91,10.71 108.82,10.88 108.77,11.04 C108.72,11.2 108.55,11.43 108.43,11.61 L107.97,12.07 C107.81,12.18 107.64,12.28 107.46,12.38 L107,12.51 L106.75,12.45 C106.75,12.45 106.75,12.35 106.75,12.3 C106.914828,11.9752577 107.105439,11.6642604 107.32,11.37 C107.800707,10.799296 108.329296,10.2707069 108.9,9.79 L108.91,9.79 Z M122.73,11.36 L122.73,11.5 C122.73,11.45 122.73,11.41 122.73,11.37 L122.73,11.36 Z M106.68,12.86 L106.68,12.94 C106.675111,12.9135574 106.675111,12.8864426 106.68,12.86 Z M131.68,19 L132.12,19.18 L131.79,19.05 L131.71,19.05 L131.68,19 Z M132.86,19.82 L132.92,19.9 L132.86,19.82 Z" id="Shape" fill="#11BAA1"></path>
                    <path d="M168.31,39.84 C167.441393,40.06773 166.604841,40.4036945 165.82,40.84 C165,41.24 164.21,41.68 163.43,42.16 C162.605613,42.6890901 161.81107,43.2632975 161.05,43.88 C160.364953,44.4482985 159.726266,45.0702657 159.14,45.74 C158.53,46.39 157.97,47.09 157.38,47.74 C156.79,48.39 156.25,49.01 155.71,49.66 C154.57,51.02 153.46,52.43 152.45,53.9 C151.3,55.58 150.19,57.29 149.07,59 C148.8617,59.5371243 149.071705,60.1461437 149.566795,60.4407226 C150.061886,60.7353014 150.697317,60.6293165 151.07,60.19 C152.28,58.34 153.49,56.51 154.79,54.72 C155.79467,53.4420423 156.887326,52.235777 158.06,51.11 C159.34,49.9 160.62,48.7 161.98,47.58 C162.663883,47.0618174 163.382207,46.5907311 164.13,46.17 C164.95,45.72 165.78,45.32 166.62,44.94 C167.531607,44.5505484 168.479575,44.2524241 169.45,44.05 C169.802696,44.0199833 170.157304,44.0199833 170.51,44.05 C171.041808,44.155539 171.563686,44.3060806 172.07,44.5 C172.670323,44.7785407 173.242885,45.1133723 173.78,45.5 C174.594129,46.1730562 175.337932,46.9269099 176,47.75 C176.444847,48.3363902 176.84593,48.9547273 177.2,49.6 L177.85,50.81 C178.18,51.43 178.47,52.08 178.76,52.72 C179.42,54.35 179.93,56.03 180.47,57.72 C180.74,58.58 181.04,59.42 181.38,60.25 C181.61,60.8 181.84,61.33 182.11,61.85 C182.425177,62.4214317 182.826557,62.9408643 183.3,63.39 C183.863431,63.9528969 184.684295,64.1725778 185.453563,63.9663398 C186.222831,63.7601017 186.823714,63.1592552 187.03,62.39 C187.03,62.19 187.03,62 187.11,61.8 C187.112762,61.4032942 187.00917,61.0130956 186.81,60.67 C186.5,59.98 186.14,59.32 185.81,58.67 C185.22,57.19 184.76,55.67 184.28,54.16 C183.665337,52.2237333 182.878876,50.3462669 181.93,48.55 L181.21,47.22 C180.530235,46.0722653 179.739803,44.9937943 178.85,44 C177.130666,41.9307318 174.786838,40.4746111 172.17,39.85 C171.552962,39.7110812 170.922482,39.6406552 170.29,39.64 L170.2,39.64 C169.562723,39.661293 168.929355,39.748423 168.31,39.9 L168.31,39.84 Z" id="Shape" fill="#F7CE5B"></path>
                    <path d="M198.91,27.87 L198.6,28.28 C198.423746,28.5838396 198.330623,28.9287402 198.33,29.28 C198.313549,30.0778084 198.418068,30.8735047 198.64,31.64 C198.75,32.18 198.85,32.73 198.93,33.28 C199.041305,34.6110104 199.041305,35.9489896 198.93,37.28 C198.88,37.97 198.85,38.66 198.79,39.34 C198.64,40.89 198.51,42.44 198.32,43.98 C198.13,45.52 197.97,47.1 197.77,48.65 C197.57,50.2 197.33,51.93 197.12,53.57 C196.91,55.21 196.71,56.87 196.5,58.57 C196.4,59.36 196.36,60.16 196.29,60.95 C196.29,61.47 196.2,61.95 196.16,62.49 C196.16,62.73 196.1,62.96 196.1,63.2 C196.1,64.08 196.04,64.97 196.02,65.85 C196.02,66.47 195.97,67.08 196.02,67.69 C196.02,68.69 196.02,69.62 196.09,70.58 C196.09,71.38 196.2,72.19 196.26,72.99 C196.322141,74.4233669 196.526477,75.8470196 196.87,77.24 L196.95,77.5 C195.063333,77.42 193.173333,77.36 191.28,77.32 C188.01,77.26 184.75,77.21 181.48,77.01 C178.38,76.82 175.27,76.6 172.16,76.51 C171.33,76.51 170.5,76.51 169.66,76.51 C168.82,76.51 168.12,76.51 167.36,76.57 C165.77,76.63 164.2,76.75 162.62,76.89 C161.52,76.99 160.41,77.12 159.31,77.32 C158.60798,77.439701 157.913483,77.5999695 157.23,77.8 C156.971705,77.8860694 156.720871,77.9930919 156.48,78.12 C156.187761,78.2527354 155.940896,78.4683078 155.77,78.74 C155.610471,79.0000212 155.517718,79.2954568 155.5,79.6 C155.504778,79.9372203 155.548399,80.2727668 155.63,80.6 C155.727101,80.9448235 156.084891,81.1460803 156.43,81.05 C156.76985,80.9528247 156.969752,80.601885 156.88,80.26 C156.88,80.14 156.82,80.01 156.8,79.89 L156.8,79.64 L156.8,79.53 L156.87,79.47 C156.929777,79.4275085 156.993386,79.3906824 157.06,79.36 C157.685521,79.1515276 158.327921,78.9976192 158.98,78.9 L160.11,78.74 L159.91,78.74 C162.995085,78.4632808 166.094261,78.3764504 169.19,78.48 C170.78,78.53 172.37,78.67 173.96,78.79 C175.55,78.91 177.25,79.08 178.9,79.21 L183.39,79.61 C184.13,79.67 184.88,79.7 185.63,79.75 L187.63,79.87 C189.22,79.95 190.82,79.99 192.4,80.11 L195.4,80.33 C196.13,80.33 196.86,80.48 197.59,80.56 L197.67,80.56 C198.13,80.62 198.6,80.68 199.07,80.76 L199.25,80.89 C199.512595,81.056681 199.804417,81.1720525 200.11,81.23 C200.47621,81.3048929 200.85379,81.3048929 201.22,81.23 C201.675311,81.1064659 202.063444,80.8081786 202.3,80.4 C202.542669,79.9754626 202.607385,79.4721157 202.48,79 C202.355867,78.5424279 202.058079,78.1513566 201.65,77.91 L201.4,77.76 C201.298438,77.6683558 201.201644,77.571562 201.11,77.47 C201.000358,77.2989677 200.900206,77.1220337 200.81,76.94 C200.559744,76.2257167 200.378908,75.4889778 200.27,74.74 C200.17,73.9 200.12,73.07 200.07,72.23 C200.07,71.66 199.98,71.08 199.97,70.51 C199.97,69.26 199.9,68 199.97,66.74 L200,64 C200,63.59 200,63.19 200.07,62.78 C200.22,61.37 200.36,59.97 200.5,58.56 C200.94,55.4333333 201.383333,52.3066667 201.83,49.18 C202.3,45.92 202.68,42.66 203.04,39.39 C203.09,38.91 203.13,38.39 203.17,37.95 C203.25,37.04 203.33,36.14 203.37,35.23 C203.392033,33.7485452 203.247797,32.2692945 202.94,30.82 C202.88,30.52 202.78,30.23 202.7,29.93 C202.661534,29.7879877 202.607892,29.650529 202.54,29.52 C202.43,29.25 202.31,28.99 202.2,28.73 C202.102092,28.4033569 201.92719,28.104995 201.69,27.86 C200.911106,27.0911566 199.658894,27.0911566 198.88,27.86 L198.91,27.87 Z M156.91,79.29 L156.91,79.38 L156.91,79.29 Z M156.86,79.78 C156.865545,79.8231559 156.865545,79.8668441 156.86,79.91 C156.86,79.91 156.86,79.82 156.86,79.78 Z" id="Shape" fill="#11BAA1"></path>
                    <path d="M191.41,27.9 C191.087597,28.2417498 190.902465,28.6903395 190.89,29.16 C190.82,29.89 190.72,30.62 190.62,31.35 C190.37,33.08 190.09,34.8 189.81,36.52 C189.72,37.05 189.61,37.52 189.5,38.08 L188.73,41.62 C188.42,43.05 188.02,44.46 187.63,45.88 C187,48.16 186.37,50.43 185.69,52.7 C185.4887,53.3130614 185.641096,53.987155 186.086537,54.4540044 C186.531978,54.9208538 187.198181,55.1047021 187.82001,54.9323812 C188.441839,54.7600603 188.918388,54.2595331 189.06,53.63 C189.82,51.09 190.53,48.54 191.24,45.98 C191.46,45.2 191.67,44.43 191.88,43.65 C191.96,43.38 192.01,43.09 192.07,42.82 L192.52,40.82 C192.73,39.87 192.95,38.92 193.16,37.96 C193.37,37 193.51,35.96 193.68,34.96 C193.85,33.96 193.97,33.24 194.11,32.37 C194.296792,31.3054521 194.413709,30.2298198 194.46,29.15 C194.455419,28.429557 194.019362,27.7820769 193.353488,27.5069943 C192.687613,27.2319118 191.921718,27.3828477 191.41,27.89 L191.41,27.9 Z" id="Shape" fill="#11BAA1"></path>
                    <path d="M185.13,0.72 C183.993505,1.12406486 182.911828,1.66826285 181.91,2.34 C180.72964,3.17460763 179.799535,4.31562925 179.22,5.64 C178.724396,6.75756262 178.387792,7.9390435 178.22,9.15 C178.13,9.79 178.07,10.42 178.04,11.07 C178.0319,11.833446 178.088772,12.5961969 178.21,13.35 C178.281283,13.9447864 178.398296,14.5331951 178.56,15.11 C178.767055,15.7685136 179.031399,16.4076231 179.35,17.02 C179.634881,17.5726629 179.969603,18.0981753 180.35,18.59 C180.801143,19.2347684 181.309898,19.8372417 181.87,20.39 C182.548036,21.0518056 183.303504,21.6293186 184.12,22.11 C185.025553,22.6609412 186.015367,23.0595695 187.05,23.29 L187.38,23.35 C188.028498,24.0686868 188.764188,24.7035971 189.57,25.24 C189.991424,25.5333267 190.448419,25.7719047 190.93,25.95 C191.338213,26.0862922 191.761181,26.1735713 192.19,26.21 L192.69,26.27 C193.040229,26.2825386 193.386875,26.1958771 193.69,26.02 C194.119232,25.7698753 194.432014,25.3600234 194.56,24.88 C194.829872,23.8707832 194.243328,22.8310016 193.24,22.54 L192.7,22.37 C193.056191,22.155821 193.391053,21.9080232 193.7,21.63 C194.053226,21.3171712 194.387171,20.9832259 194.7,20.63 C195.087737,20.2083373 195.42347,19.7416675 195.7,19.24 C195.929744,18.7905917 196.110773,18.3179045 196.24,17.83 C196.33126,17.4098364 196.358234,16.978257 196.32,16.55 C196.30114,16.283887 196.261012,16.0197103 196.2,15.76 C196.111668,15.4103821 195.977151,15.0740904 195.8,14.76 C195.673149,14.5343924 195.522272,14.3231644 195.35,14.13 C195.177632,13.9077136 194.983319,13.7033494 194.77,13.52 C194.302797,13.1210202 193.767599,12.8093859 193.19,12.6 C192.767412,12.4481243 192.327205,12.350674 191.88,12.31 C191.338344,12.2750462 190.794451,12.3052625 190.26,12.4 C189.252543,12.5516435 188.28245,12.8908369 187.4,13.4 C186.574791,13.847444 185.915594,14.5487174 185.52,15.4 C185.31118,15.7966109 185.159671,16.220836 185.07,16.66 C185.009721,16.9905858 184.969646,17.3245382 184.95,17.66 C184.561417,17.3014142 184.19727,16.9172222 183.86,16.51 C183.414059,15.8990145 183.028895,15.2459105 182.71,14.56 C182.596947,14.2893339 182.500109,14.0121769 182.42,13.73 C182.30936,13.343525 182.229115,12.9489887 182.18,12.55 C182.072548,11.5528865 182.072548,10.5471135 182.18,9.55 C182.301392,8.70106374 182.509136,7.8667383 182.8,7.06 C183.007718,6.69265265 183.238166,6.33863082 183.49,6 C183.708425,5.76159348 183.942261,5.53777917 184.19,5.33 C184.875073,4.81659348 185.608538,4.37115587 186.38,4 C186.986577,3.74671541 187.616155,3.55248407 188.26,3.42 C189.047695,3.3346471 189.842305,3.3346471 190.63,3.42 C191.469438,3.55982089 192.293307,3.78085901 193.09,4.08 C193.491245,4.26332428 193.875994,4.480791 194.24,4.73 C194.41296,4.87631103 194.576612,5.03328335 194.73,5.2 C195.052325,5.70654746 195.346115,6.23069653 195.61,6.77 C195.92,7.36 196.2,7.97 196.47,8.58 C197.151753,10.2105716 197.736115,11.8801746 198.22,13.58 C198.66697,15.1914538 199.001112,16.8320936 199.22,18.49 C199.449828,20.0930314 199.490105,21.7175488 199.34,23.33 C199.231962,24.1286995 199.037488,24.9133009 198.76,25.67 C198.630081,25.9731758 198.479735,26.2671847 198.31,26.55 C198.150414,26.8187691 198.10501,27.1402204 198.183911,27.4426754 C198.262812,27.7451304 198.459458,28.0034381 198.73,28.16 C199.29236,28.4751912 200.003273,28.2897356 200.34,27.74 C200.901291,26.7888618 201.290578,25.7462516 201.49,24.66 C201.756859,23.3443478 201.864299,22.0013449 201.81,20.66 C201.750385,19.3970453 201.620182,18.1384132 201.42,16.89 C201.22,15.55 200.95,14.22 200.62,12.89 C199.947704,10.3404743 199.071549,7.84911732 198,5.44 C197.77,4.91 197.54,4.38 197.28,3.87 C196.989863,3.35120943 196.610757,2.88748108 196.16,2.5 C195.152506,1.65924793 193.985969,1.03006645 192.73,0.65 C191.568936,0.269204249 190.360872,0.0504739598 189.14,-3.55271368e-15 L188.72,-3.55271368e-15 C187.489937,0.0236688059 186.274063,0.267520973 185.13,0.72 Z M191.64,16.43 L191.92,16.51 L192.12,16.62 L192.31,16.81 C192.31,16.92 192.24,17.03 192.2,17.14 L191.98,17.55 C191.667388,17.9034295 191.33343,18.2373876 190.98,18.55 C190.73152,18.7191368 190.4708,18.869552 190.2,19 L189.81,19.12 C189.71,18.92 189.6,18.71 189.51,18.51 C189.428221,18.2812516 189.361413,18.0474243 189.31,17.81 C189.31,17.68 189.31,17.54 189.31,17.41 C189.330699,17.315064 189.35742,17.2215416 189.39,17.13 C189.387128,17.1101031 189.387128,17.0898969 189.39,17.07 C189.575287,16.943468 189.76908,16.8298651 189.97,16.73 C190.357644,16.5897296 190.755478,16.4794059 191.16,16.4 L191.64,16.43 Z M189.7,16.92 L189.6,17 L189.7,16.92 Z M199.25,18.63 L199.25,18.76 L199.25,18.63 Z" id="Shape" fill="#11BAA1"></path>
                    <path d="M86.8,61.58 C85.66,62.39 84.57,63.25 83.46,64.1 C81.892029,65.3364517 80.4485156,66.7230283 79.15,68.24 C78.4,69.11 77.72,70.03 77.01,70.93 C76.5,71.58 76.01,72.23 75.5,72.93 C73.11,76.19 70.71,79.44 68.36,82.73 C66.21,85.73 64.16,88.79 62.12,91.86 C60.08,94.93 58.24,97.86 56.34,100.86 C54.44,103.86 52.57,106.86 50.6,109.86 C49.6,111.41 48.54,112.95 47.49,114.47 C46.99,115.2 46.49,115.91 45.95,116.62 L45.25,117.62 C45.1084685,117.815726 44.9782555,118.019392 44.86,118.23 C44.7262911,118.48754 44.6126214,118.754998 44.52,119.03 C44.4249995,119.387123 44.4249995,119.762877 44.52,120.12 C44.6995724,120.768555 45.210453,121.272707 45.8613315,121.443666 C46.51221,121.614624 47.2048967,121.426599 47.68,120.95 L47.68,120.89 L47.85,120.96 C48.9615822,121.445161 50.0176732,122.048642 51,122.76 C53.6406414,125.023709 56.0583515,127.535181 58.22,130.26 C59.5,131.76 60.74,133.26 61.98,134.81 L65.58,139.23 C67.8907245,142.265744 70.5413057,145.027046 73.48,147.46 C74.9923974,148.697134 76.6766948,149.707712 78.48,150.46 C79.176177,150.654026 79.9156328,150.354135 80.28,149.73 C80.721585,148.967055 80.4675052,147.990853 79.71,147.54 C79.08,147.19 78.49,146.79 77.89,146.39 C77.04,145.82 76.19,145.25 75.37,144.64 C74.55,144.03 73.58,143.16 72.74,142.36 C71.74,141.36 70.81,140.36 69.88,139.36 C69.15,138.54 68.45,137.7 67.75,136.86 L64.1,132.51 C62.84,131 61.57,129.51 60.26,128.02 L58.26,125.78 C56.5300236,123.804609 54.6145887,121.99968 52.54,120.39 C51.5688061,119.655654 50.5230507,119.02552 49.42,118.51 L49.37,118.51 L49.55,118.24 C50.01,117.55 50.47,116.87 50.92,116.18 C52.01,114.53 53.08,112.86 54.15,111.18 C56.15,108.18 57.95,105.05 59.86,101.98 L63.34,96.37 C64.34,94.7 65.5,93.06 66.58,91.37 C68.58,88.26 70.71,85.21 72.84,82.18 C74.08,80.4333333 75.33,78.69 76.59,76.95 C77.32,75.95 78.03,74.89 78.8,73.95 L81.3,70.7 L81.05,71.03 C82.3306989,69.417716 83.7825255,67.9491247 85.38,66.65 L87.43,65.06 L88.43,64.35 C88.792128,64.1199533 89.0558604,63.7635581 89.17,63.35 C89.2696767,62.9430179 89.2087974,62.5132816 89,62.15 C88.781002,61.7777575 88.420001,61.5106168 88,61.41 C87.8527635,61.3729853 87.7017911,61.3528557 87.55,61.35 C87.272094,61.3412811 86.9987138,61.4218932 86.77,61.58 L86.8,61.58 Z" id="Shape" fill="#11BAA1"></path>
                    <path d="M88.41,83.09 C88.3426047,83.1997114 88.2888729,83.3172497 88.25,83.44 C88.2168712,83.6051479 88.1934974,83.7721037 88.18,83.94 C88.18,84.25 88.18,84.55 88.18,84.86 C88.18,85.17 88.18,85.35 88.18,85.59 C88.18,85.68 88.18,85.76 88.11,85.85 C87.92,86.45 87.7,87.03 87.47,87.61 C86.4755292,89.908096 85.2062805,92.0772354 83.69,94.07 C81.8132947,96.3737846 79.6680957,98.445127 77.3,100.24 C75.6,101.53 73.83,102.7 72.06,103.88 C70.75,104.75 69.45,105.64 68.15,106.53 C66.85,107.42 65.81,108.2 64.63,109.02 L63.76,109.63 C63.357311,109.895789 62.9791445,110.196983 62.63,110.53 C62.4002899,110.77188 62.1833295,111.025557 61.98,111.29 C61.69,111.66 61.39,112.03 61.13,112.42 C60.763787,112.921913 60.4957484,113.488526 60.34,114.09 C60.2009943,115.289286 60.4953804,116.498752 61.17,117.5 C61.7002091,118.432799 62.2984988,119.32522 62.96,120.17 C63.63,121.06 64.34,121.91 65.03,122.77 L67.96,126.46 L70.83,130.39 C71.12,130.8 71.38,131.22 71.66,131.64 L73.26,134.12 C73.98,135.23 74.67,136.36 75.37,137.48 C76.19,138.76 77.04,140.04 77.82,141.35 C78.41,142.35 79.02,143.35 79.52,144.35 C79.6684848,144.861324 79.9241548,145.335166 80.27,145.74 C80.995629,146.445007 82.0990634,146.587517 82.98,146.09 L83.16,145.98 C83.2710415,146.093141 83.3745941,146.213395 83.47,146.34 C83.9993172,147.110381 84.4514984,147.931006 84.82,148.79 C85.12,149.54 85.39,150.3 85.63,151.08 C85.8689258,151.800549 86.0626358,152.535312 86.21,153.28 C86.21,153.43 86.21,153.57 86.21,153.72 C86.21,153.87 86.21,153.9 86.14,153.99 C86.07,154.08 85.93,154.34 85.81,154.52 C85.5733404,154.786674 85.3158634,155.034119 85.04,155.26 C83.9656585,156.007815 82.8160763,156.641259 81.61,157.15 C80.4464814,157.649527 79.2420094,158.047672 78.01,158.34 C78.232609,158.016465 78.3512215,157.632719 78.35,157.24 C78.3427023,156.727138 78.1386439,156.236682 77.78,155.87 C77.4713643,155.512852 77.1371484,155.178636 76.78,154.87 C76.523395,154.652523 76.2528154,154.452093 75.97,154.27 C75.6495252,154.09844 75.3149745,153.954584 74.97,153.84 C74.4544584,153.650905 73.9091127,153.556062 73.36,153.56 L73.16,153.56 L72.38,153.66 C71.6942831,153.815574 71.0666998,154.162305 70.57,154.66 C70.2623873,154.974255 70.0358703,155.358647 69.91,155.78 C69.8270965,156.106612 69.7900744,156.443177 69.8,156.78 C69.8185095,157.119483 69.8789692,157.45537 69.98,157.78 C70.1753052,158.302361 70.4267805,158.801958 70.73,159.27 C71.0656126,159.818537 71.4434208,160.340112 71.86,160.83 C72.6231729,161.683567 73.5898039,162.330281 74.67,162.71 C75.2281043,162.898547 75.8111518,163.003024 76.4,163.02 C77.0909453,163.043808 77.782305,162.986754 78.46,162.85 C79.4871745,162.663585 80.4924604,162.372052 81.46,161.98 C82.63,161.54 83.78,161.05 84.9,160.5 C85.7959013,160.05695 86.6465748,159.52779 87.44,158.92 C87.9116587,158.574597 88.3532349,158.18989 88.76,157.77 C89.1988678,157.289333 89.5751866,156.755095 89.88,156.18 C90.4528101,155.068885 90.6359302,153.797609 90.4,152.57 C90.174399,151.529502 89.8838298,150.50416 89.53,149.5 C89.1729473,148.454825 88.7589958,147.429961 88.29,146.43 C88.09,145.98 87.85,145.54 87.61,145.11 C87.2749358,144.538975 86.8971933,143.994089 86.48,143.48 C85.8077067,142.56842 84.8561558,141.901281 83.77,141.58 C83.4102971,141.492199 83.037931,141.468503 82.67,141.51 L82.46,141.22 C82.04,140.6 81.61,139.97 81.18,139.36 C80.29,138.11 79.42,136.85 78.54,135.59 C77.66,134.33 77.03,133.32 76.27,132.2 L74.55,129.68 C74.29,129.29 74.03,128.91 73.74,128.53 L71.74,125.79 C71.3,125.21 70.88,124.62 70.42,124.06 L68.23,121.37 C67.41,120.37 66.58,119.37 65.79,118.37 C65.0454484,117.436808 64.3955817,116.431859 63.85,115.37 L63.73,114.99 C64.21,114.44 64.73,113.93 65.26,113.41 C65.92,112.74 66.63,112.13 67.34,111.51 C68.68,110.32 70.03,109.14 71.45,108.03 L74.24,105.89 C76.24,104.39 78.15,102.89 79.97,101.24 C81.3461268,99.9959915 82.6357873,98.6595557 83.83,97.24 C85.0202016,95.7954807 86.0715227,94.2419361 86.97,92.6 C87.8851474,90.9651272 88.6355036,89.2433277 89.21,87.46 C89.2814022,87.3647971 89.32,87.2490036 89.32,87.13 C89.5382623,86.4287781 89.6922311,85.7091414 89.78,84.98 C89.8398015,84.6300476 89.8599288,84.2744654 89.84,83.92 C89.819931,83.5945688 89.6683036,83.2913139 89.42,83.08 C89.3095043,82.9677334 89.1574758,82.906198 89,82.91 C88.7951207,82.9066777 88.6042236,83.0135801 88.5,83.19 L88.41,83.09 Z M77.43,100.11 L77.29,100.22 L77.43,100.11 Z M63.64,114.94 C63.6344437,114.986501 63.6344437,115.033499 63.64,115.08 C63.6344437,115.033499 63.6344437,114.986501 63.64,114.94 Z M63.58,115.01 C63.5847886,115.053201 63.5847886,115.096799 63.58,115.14 C63.58,115.14 63.58,115.05 63.58,115.01 Z" id="Shape" fill="#11BAA1"></path>
                    <path d="M94.72,154.74 C94.4079892,154.917165 94.1807953,155.212877 94.09,155.56 C93.95,156.56 93.8,157.56 93.66,158.56 C93.66,158.88 93.57,159.2 93.52,159.56 C93.3647337,160.368946 93.2645037,161.187491 93.22,162.01 C93.2240565,162.620757 93.6319224,163.155061 94.22,163.32 L94.4,163.32 C94.34,164.4 94.2,165.47 94.08,166.53 C93.97,167.44 93.87,168.36 93.75,169.27 C93.52,171.05 93.28,172.83 93.05,174.61 C92.5433333,178.49 92.0366667,182.373333 91.53,186.26 C91.53,186.6 91.44,186.94 91.4,187.26 C91.7503059,186.845574 92.1657387,186.490936 92.63,186.21 C93.3165139,185.811298 94.0961082,185.600876 94.89,185.6 L95,185.6 C95.25,183.12 95.49,180.6 95.74,178.14 C95.99,175.68 96.29,172.89 96.56,170.26 C96.68,169.11 96.78,167.96 96.89,166.81 C96.97,165.96 97.04,165.11 97.09,164.25 C97.1450493,163.387544 97.1450493,162.522456 97.09,161.66 C97.1378898,160.836945 96.8449495,160.030455 96.28,159.43 L96.73,156.3 C96.8184885,155.945996 96.7721514,155.571734 96.6,155.25 C96.418794,154.937385 96.1198294,154.71046 95.77,154.62 C95.650486,154.604727 95.529514,154.604727 95.41,154.62 C95.1668229,154.618061 94.927906,154.683849 94.72,154.81 L94.72,154.74 Z" id="Shape" fill="#11BAA1"></path>
                    <path d="M123.82,175.82 C123.428102,176.039197 123.087245,176.339152 122.82,176.7 C122.66,176.91 122.54,177.13 122.39,177.35 C122.210359,177.587243 122.105871,177.872842 122.09,178.17 C122.07251,178.449135 122.146212,178.726394 122.3,178.96 C121.85,179.87 121.39,180.77 120.94,181.67 C120.11,183.31 119.37,184.99 118.67,186.67 C117.91,188.53 117.17,190.41 116.44,192.29 C116.21,192.88 115.97,193.46 115.77,194.06 L114.69,197.21 C114.18,198.7 113.69,200.21 113.21,201.71 L111.29,208.6 C111.29,208.73 111.22,208.86 111.19,208.99 C112.33,208.99 113.47,208.99 114.61,208.99 L114.85,208.19 L115.96,204.34 C116.21,203.48 116.46,202.63 116.7,201.77 C116.87,201.2 117.1,200.64 117.3,200.08 L118.62,196.35 C118.82,195.77 119.01,195.18 119.24,194.62 L120.97,190.39 C121.58,189.03 122.19,187.68 122.83,186.39 C123.32,185.39 123.83,184.39 124.41,183.39 C125.08,185.23 125.62,187.11 126.19,188.98 C126.45,189.84 126.64,190.72 126.87,191.59 L127.62,194.49 C128.13,196.43 128.62,198.4 129.05,200.35 C129.45,201.95 129.84,203.55 130.24,205.16 C130.52,206.27 130.79,207.38 131.07,208.5 L134.56,208.37 C133.72,205.37 132.92,202.29 132.11,199.24 C131.6,197.36 131.11,195.47 130.6,193.59 C130.3,192.59 129.99,191.51 129.69,190.47 C129.47,189.7 129.28,188.92 129.03,188.16 L127.74,184.33 C127.41,183.33 127.01,182.43 126.6,181.49 C126.43,181.09 126.24,180.69 126.04,180.29 C126.18,180.02 126.32,179.73 126.44,179.45 C126.860272,178.743264 126.996117,177.903173 126.82,177.1 C126.629037,176.42907 126.102292,175.906114 125.43,175.72 C125.23,175.72 125.04,175.65 124.84,175.63 C124.489394,175.644081 124.14694,175.739968 123.84,175.91 L123.82,175.82 Z" id="Shape" fill="#11BAA1"></path>
                    <path d="M145.71,155.73 C145.68482,155.8823 145.68482,156.0377 145.71,156.19 C145.71,156.35 145.8,156.49 145.82,156.65 L145.94,157.38 C146,157.73 146.04,158.09 146.09,158.44 C146.09,158.44 146.09,158.44 146.09,158.44 C146.09,158.61 146.09,158.79 146.16,158.96 C146.23,159.13 146.25,159.17 146.37,159.17 C146.425695,159.17 146.47911,159.147875 146.518492,159.108492 C146.557875,159.06911 146.58,159.015695 146.58,158.96 C146.58,158.58 146.48,158.19 146.44,157.81 C146.44,157.92 146.5,158.03 146.54,158.15 C146.73,158.79 146.89,159.45 147.05,160.15 C147.21,160.85 147.34,161.31 147.48,161.89 C147.74,162.89 148.01,163.99 148.25,165.05 L149.25,169.45 C149.45,170.31 149.65,171.17 149.83,172.04 C150.87,177.033333 151.913333,182.033333 152.96,187.04 C153.96,191.82 155.04,196.58 156.12,201.34 C156.586667,203.42 157.063333,205.493333 157.55,207.56 L160.55,207.46 L159.32,202.96 C158.05,198.31 156.84,193.63 155.65,188.96 C154.51,184.47 153.41,179.96 152.31,175.48 C151.99,174.16 151.66,172.83 151.31,171.48 C151.08,170.53 150.81,169.59 150.57,168.65 C150.2,167.28 149.85,165.91 149.49,164.55 C149.41,164.24 149.31,163.93 149.22,163.63 C148.97,162.81 148.73,161.99 148.49,161.18 C148.36,160.73 148.22,160.28 148.09,159.82 C147.88,159.12 147.63,158.43 147.37,157.74 C147.246617,157.398437 147.10303,157.064515 146.94,156.74 C146.77,156.39 146.56,156.06 146.37,155.74 C146.311693,155.629694 146.19459,155.563336 146.07,155.57 C145.904473,155.563517 145.755888,155.670829 145.71,155.83 L145.71,155.73 Z" id="Shape" fill="#11BAA1"></path>
                    <path d="M100,155.12 C99.8144339,155.298818 99.6857312,155.528396 99.63,155.78 C99.7583141,155.520782 99.9088788,155.273187 100.08,155.04 L100,155.12 Z" id="Shape" fill="#11BAA1"></path>
                    <path d="M91.09,61.94 L90.97,62.08 C91.1,61.96 91.23,61.84 91.36,61.74 C91.2598475,61.7917408 91.1686805,61.8592719 91.09,61.94 Z" id="Shape" fill="#11BAA1"></path>
                    <polygon id="Shape" fill="#11BAA1" points="95.18 121.89 95.18 121.88 95.18 121.88 95.18 121.89 95.18 121.89"></polygon>
                    <path d="M96.53,147.69 C96.53,148.6 96.53,149.53 96.69,150.44 C96.7403257,150.78506 96.8379082,151.121552 96.98,151.44 C97.0494504,151.717632 97.1948897,151.970419 97.4,152.17 C97.7083179,152.476592 98.1251923,152.649092 98.56,152.65 C98.8491625,152.649324 99.1326662,152.569804 99.38,152.42 C99.7618357,152.209642 100.034971,151.845462 100.13,151.42 C100.13,151.22 100.23,151.03 100.27,150.83 C100.31,150.63 100.36,150.23 100.4,149.94 C100.424987,149.5504 100.424987,149.1596 100.4,148.77 C100.4,148.48 100.4,148.19 100.4,147.9 C99.9671773,148.040121 99.5149378,148.110994 99.06,148.11 C98.1330067,148.108721 97.2288218,147.822454 96.47,147.29 C96.47,147.42 96.47,147.55 96.47,147.69 L96.53,147.69 Z" id="Shape" fill="#11BAA1"></path>
                    <path d="M82.67,288.79 C83.0006052,289.124821 83.4863314,289.254857 83.94,289.13 L84.02,289.13 C83.6809757,289.071356 83.3467364,288.987796 83.02,288.88 L82.57,288.71 C82.597893,288.751267 82.6315704,288.788312 82.67,288.82 L82.67,288.79 Z" id="Shape" fill="#11BAA1"></path>
                    <polygon id="Shape" fill="#11BAA1" points="158.32 236.45 158.86 236.31 158.15 236.23 158.32 236.45"></polygon>
                    <path d="M165,290.64 C165,290.69 165,290.74 165,290.78 C165,290.82 165,290.69 165,290.64 Z" id="Shape" fill="#11BAA1"></path>
                    <path d="M85.51,295.43 C84.9974813,295.726542 84.624667,296.215544 84.4744373,296.788295 C84.3242075,297.361046 84.4090127,297.970079 84.71,298.48 C85.0345097,299.031219 85.4239573,299.54153 85.87,300 C85.9472864,300.112137 86.0174256,300.229036 86.08,300.35 L86.01,300.42 L85.89,300.49 L85.77,300.49 C85.37,300.49 84.98,300.49 84.57,300.49 C83.7878388,300.446871 83.0099013,300.630936 82.33,301.02 C82.0454921,301.20198 81.7807281,301.413121 81.54,301.65 L81.21,301.98 L80.69,302.48 L80.61,302.53 L80.53,302.53 C80.07,302.53 79.61,302.53 79.15,302.53 L77.86,302.53 C77.1,302.53 76.33,302.6 75.57,302.64 C73.9,302.73 72.24,302.92 70.57,303.17 C69.11,303.38 67.67,303.65 66.21,303.91 C64.57,304.2 62.93,304.48 61.28,304.74 L58.83,305.11 L59.49,304.87 C60.24,304.61 60.99,304.33 61.75,304.09 L66.66,302.48 C67.4,302.23 68.12,301.95 68.85,301.69 C69.58,301.43 70.02,301.26 70.6,301.02 L73.42,299.88 C74.12,299.59 74.8,299.26 75.48,298.95 C76.16,298.64 76.66,298.45 77.23,298.15 L78.4,297.53 C78.79,297.32 79.19,297.08 79.6,296.89 L79.73,296.89 C79.99,297.26 80.27,297.63 80.55,297.99 C80.7846446,298.180845 81.1256041,298.163342 81.339473,297.949473 C81.5533419,297.735604 81.5708448,297.394645 81.38,297.16 L81.06,296.74 C80.9504741,296.575786 80.8503145,296.405515 80.76,296.23 C80.7268107,296.092325 80.6799098,295.958323 80.62,295.83 C80.5280263,295.687872 80.395707,295.576445 80.24,295.51 C79.8996297,295.328249 79.5031555,295.281815 79.13,295.38 C78.5944604,295.522335 78.0697882,295.702795 77.56,295.92 L75.56,296.69 L72.98,297.69 C72.23,297.98 71.44,298.2 70.67,298.46 C70.08,298.66 69.48,298.86 68.88,299.03 L66.11,299.82 C65.33,300.03 64.53,300.2 63.74,300.39 L61.45,300.95 C59.94,301.32 58.45,301.74 56.95,302.22 C56.25,302.44 55.57,302.74 54.88,303.01 C54.02,303.35 53.18,303.76 52.35,304.16 C52.02,304.32 51.69,304.5 51.35,304.68 C51.0991499,304.824555 50.8644818,304.995528 50.65,305.19 C50.4265911,305.403103 50.2286063,305.641356 50.06,305.9 C49.8599095,306.2677 49.7599066,306.681505 49.77,307.1 C49.7926688,307.688144 50.0188892,308.25016 50.41,308.69 C50.6196095,308.887603 50.8550969,309.055808 51.11,309.19 C51.3856179,309.329955 51.6779837,309.434131 51.98,309.5 C52.5403493,309.609354 53.1091751,309.669582 53.68,309.68 C54.19,309.68 54.68,309.68 55.22,309.6 C55.76,309.52 56.47,309.5 57.09,309.43 C59.43,309.18 61.76,308.81 64.09,308.43 C66.18,308.13 68.26,307.76 70.34,307.43 C71.25,307.32 72.15,307.22 73.06,307.14 C73.97,307.06 75.06,307 76.06,306.98 C77.06,306.96 78.06,306.98 79.12,306.98 L79.8,306.98 C80.5399828,307.040811 81.2848849,306.969707 82,306.77 C82.980971,306.390129 83.8581831,305.783619 84.56,305 L84.97,305 C85.17,305 85.38,305 85.58,305 C86.3937486,304.997042 87.1965854,304.81256 87.93,304.46 C88.4283677,304.213257 88.8868214,303.893014 89.29,303.51 C89.8323833,303.032166 90.2480749,302.427524 90.5,301.75 C90.9083641,300.40143 90.7113425,298.94201 89.96,297.75 C89.6761399,297.277694 89.340755,296.83834 88.96,296.44 C88.72,296.19 88.47,295.98 88.21,295.74 C87.7807632,295.32462 87.2073124,295.091656 86.61,295.09 C86.2234686,295.09253 85.8442963,295.195941 85.51,295.39 L85.51,295.43 Z M81,296.63 L81,296.68 L81,296.63 Z M84.76,305 L84.63,305 L84.76,305 Z" id="Shape" fill="#11BAA1"></path>
                    <path d="M153.56,298.37 C153.257817,299.546411 153.943865,300.750315 155.11,301.09 L155.52,301.22 L155.4,303.68 C155.4,304.1 155.4,304.53 155.4,304.96 C155.362821,305.567936 155.41675,306.178014 155.56,306.77 C155.763124,307.442757 156.457727,307.838417 157.14,307.67 C157.288458,307.642269 157.43072,307.588073 157.56,307.51 C157.70001,307.41546 157.847114,307.331878 158,307.26 C158.140154,307.209376 158.283885,307.169265 158.43,307.14 C158.583166,307.129884 158.736834,307.129884 158.89,307.14 C160.09,307.37 161.25,307.76 162.45,307.97 L165.66,308.52 C167.6,308.84 169.54,309.23 171.48,309.6 C175.29,310.34 179.18,310.6 182.93,311.6 C183.85,311.86 184.75,312.13 185.65,312.41 L187.07,312.86 C187.417038,312.981038 187.771003,313.081217 188.13,313.16 C188.590136,313.270413 189.069864,313.270413 189.53,313.16 C190.037729,313.01042 190.492204,312.719001 190.84,312.32 L191.19,311.86 C191.325943,311.623451 191.423807,311.36698 191.48,311.1 C191.584894,310.622358 191.584894,310.127642 191.48,309.65 C191.353827,309.0272 191.098317,308.437824 190.73,307.92 C189.865825,306.71738 188.808135,305.666448 187.6,304.81 C185.263721,303.072929 182.650087,301.744135 179.87,300.88 C178.024982,300.301321 176.135182,299.876534 174.22,299.61 C173.1,299.43 171.98,299.22 170.85,299.11 L164.35,298.42 L164.12,298.42 C162.96,298.23 161.79,298.05 160.63,297.8 C159.19,297.5 157.75,297.2 156.32,296.85 C156.13589,296.810818 155.948232,296.790711 155.76,296.79 C154.760004,296.770324 153.872585,297.427672 153.6,298.39 L153.56,298.37 Z M158.01,303.68 C158.01,303.09 158.06,302.5 158.09,301.91 L159.2,302.18 C160.47,302.49 161.76,302.71 163.05,302.95 C163.72,303.07 164.41,303.12 165.05,303.19 L167.36,303.45 C168.49,303.58 169.62,303.68 170.75,303.79 L173.7,304.24 C176.097681,304.596283 178.446441,305.227093 180.7,306.12 C181.543899,306.495344 182.365282,306.919391 183.16,307.39 C182.24,307.2 181.31,307.03 180.38,306.91 C179.01,306.73 177.65,306.54 176.28,306.4 C174.91,306.26 173.6,306.1 172.28,305.94 L167.21,305.25 C165.72,305.05 164.21,304.93 162.73,304.77 C162.06,304.68 161.39,304.58 160.73,304.46 C159.88969,304.273724 159.023192,304.236492 158.17,304.35 L158.01,304.35 C158.01,304.12 158.01,303.88 158.01,303.65 L158.01,303.68 Z" id="Shape" fill="#11BAA1"></path>
                    <path d="M124.05,32.24 C123.59774,33.1931553 123.200423,34.1714228 122.86,35.17 C122.749641,35.3376003 122.662198,35.519211 122.6,35.71 C121.857261,37.7871663 121.229642,39.9037134 120.72,42.05 L120.36,43.7 C120.36,43.81 120.36,43.93 120.29,44.04 C119.933133,45.4872241 119.738599,46.9697 119.71,48.46 C119.704253,49.0983025 120.04264,49.6902529 120.595585,50.0091802 C121.148531,50.3281074 121.830365,50.3245996 122.38,50 C122.772026,49.7873896 123.063431,49.4276309 123.19,49 C123.275124,48.4403376 123.325222,47.8759062 123.34,47.31 C123.831307,44.4930725 124.550332,41.7206456 125.49,39.02 C125.77,38.15 126.07,37.28 126.36,36.4 C126.766309,35.3578022 127.002651,34.2571279 127.06,33.14 C127.055762,32.4127564 126.570262,31.7763021 125.87,31.58 C125.735643,31.5479983 125.59811,31.531226 125.46,31.53 C124.880688,31.5148273 124.339557,31.8180143 124.05,32.32 L124.05,32.24 Z" id="Shape" fill="#11BAA1"></path>
                    <path d="M109.17,211.73 C109.069105,211.941985 108.952095,212.145917 108.82,212.34 C109.477668,212.460621 110.125959,212.627707 110.76,212.84 C111.19,213.04 111.6,213.27 112.01,213.49 C112.658212,213.868277 113.480051,213.761438 114.01,213.23 C114.318456,212.922927 114.49129,212.505244 114.49,212.07 C114.49865,211.630409 114.324886,211.206859 114.01,210.9 C113.692215,210.608237 113.35836,210.334476 113.01,210.08 C112.741752,209.927376 112.446173,209.82885 112.14,209.79 C111.73,209.71 111.32,209.67 110.91,209.63 C110.5,209.59 110.17,209.63 109.8,209.57 C109.754786,210.324293 109.550298,211.060452 109.2,211.73 L109.17,211.73 Z" id="Shape" fill="#11BAA1"></path>
                    <path d="M132.74,209 C132.741168,209.604246 132.982148,210.183318 133.41,210.61 C133.841878,211.028772 134.418448,211.26513 135.02,211.27 C137.43,211.41 139.83,211.55 142.24,211.71 C143.78,211.8 145.32,211.88 146.85,212.01 L151.97,212.42 C152.81,212.49 153.66,212.57 154.51,212.62 C155.63,212.69 156.76,212.72 157.87,212.84 C158.222529,212.829675 158.566643,212.729882 158.87,212.55 C159.362817,212.290719 159.725222,211.837713 159.87,211.3 C159.97005,210.936763 159.97005,210.553237 159.87,210.19 C159.722759,209.656024 159.360662,209.207024 158.87,208.95 C158.477115,208.754304 158.064883,208.600136 157.64,208.49 C157.21,208.4 156.76,208.34 156.33,208.29 L154.75,208.12 C153.93,208.03 153.12,207.96 152.3,207.89 C150.56,207.73 148.82,207.6 147.09,207.47 C143.09,207.15 139.01,206.95 134.97,206.72 L134.86,206.72 C133.648462,206.788557 132.698614,207.786555 132.69,209 L132.74,209 Z" id="Shape" fill="#11BAA1"></path>
                    <path d="M110.11,206.68 L109.6,208.21 C109.596545,208.236555 109.596545,208.263445 109.6,208.29 C109.895213,209.452034 109.734185,210.683004 109.15,211.73 C108.8251,212.380691 108.384604,212.96689 107.85,213.46 L107.85,213.53 C108.77,213.72 109.68,213.91 110.6,214.12 C111.22,212.12 111.87,210.12 112.5,208.12 C112.58,207.89 112.64,207.66 112.72,207.43 C112.91235,206.71284 112.493945,205.973956 111.78,205.77 C111.663235,205.735152 111.541843,205.718292 111.42,205.72 C110.815227,205.734924 110.289552,206.139289 110.12,206.72 L110.11,206.68 Z" id="Shape" fill="#11BAA1"></path>
                    <path d="M96.62,161.4 C96.53,161.98 96.43,162.56 96.37,163.14 L96.22,164.69 C96.14,165.4 96.07,166.12 96,166.83 L95.76,169.23 L95.7,169.23 C94.977357,169.037857 94.2341293,169.460651 94.03,170.18 C93.33,173.18 92.74,176.18 92.16,179.18 C91.58,182.18 91.16,185.11 90.7,188.09 C90.51,189.31 90.34,190.52 90.17,191.75 L89.75,194.88 C89.67,195.46 89.58,196.04 89.51,196.63 L88.97,201.63 C88.7584361,203.344915 88.7115555,205.076148 88.83,206.8 C88.8679839,207.964296 89.2780292,209.085787 90,210 C90.2195742,210.236052 90.4643705,210.447314 90.73,210.63 C91.0142063,210.789485 91.312049,210.923347 91.62,211.03 C91.8588246,211.097699 92.1030745,211.144541 92.35,211.17 L93.15,211.27 C94.28,211.38 95.43,211.37 96.57,211.44 C97.12,211.44 97.67,211.44 98.22,211.53 L100.05,211.72 L102.87,212.1 L104.87,212.37 C105.31,212.42 105.76,212.44 106.2,212.47 L107.93,212.6 C108.5,212.6 109.09,212.6 109.66,212.6 C110.66,212.6 111.66,212.6 112.66,212.72 C112.988518,212.80013 113.331482,212.80013 113.66,212.72 C114.197293,212.564553 114.652859,212.20584 114.93,211.72 C115.221931,211.228925 115.29793,210.639033 115.14,210.09 L114.93,209.58 C114.745799,209.265865 114.484135,209.004201 114.17,208.82 C113.881905,208.677359 113.580447,208.563474 113.27,208.48 C112.940163,208.408963 112.606163,208.358862 112.27,208.33 L112.1,208.33 L111.25,208.05 C110.61,207.83 109.98,207.58 109.35,207.34 C108.72,207.1 108.01,206.8 107.35,206.55 C106.92,206.38 106.49,206.22 106.05,206.07 C105.031485,205.74744 103.992488,205.493537 102.94,205.31 C101.240923,204.999053 99.517295,204.841751 97.79,204.84 C96.97,204.84 96.16,204.84 95.35,204.91 C94.69,204.91 94.04,204.98 93.35,205.03 L92.35,205.1 C92.3298791,203.871478 92.3799607,202.642809 92.5,201.42 C92.6,200.74 92.69,200.07 92.78,199.42 C92.98,197.94 93.22,196.47 93.5,195.01 C93.77,193.64 94.06,192.28 94.3,190.91 C94.81,187.91 95.24,184.91 95.55,181.91 C95.86,178.91 96.06,176.01 96.32,173.06 C96.58,170.11 96.8,167.46 97.02,164.66 C97.02,164.17 97.1,163.66 97.13,163.2 C97.13,163.09 97.13,162.97 97.13,162.86 C97.2215778,162.885601 97.3184222,162.885601 97.41,162.86 C97.637266,162.7879 97.7688483,162.551052 97.71,162.32 C97.71,162.19 97.65,162.06 97.63,161.93 C97.6177539,161.701561 97.5527182,161.47907 97.44,161.28 C97.3009255,161.098783 97.0769331,161.003871 96.85,161.03 C96.6581704,161.035835 96.4922526,161.165332 96.44,161.35 L96.62,161.4 Z M99.5,211.65 L99.71,211.65 L99.5,211.65 Z" id="Shape" fill="#11BAA1"></path>
                    <path d="M146.55,151.32 C146.482504,151.594555 146.458879,151.878061 146.48,152.16 C146.48,152.41 146.54,152.67 146.6,152.92 C146.66,153.17 146.75,153.53 146.83,153.84 C147,154.47 147.16,155.09 147.32,155.72 C147.61,156.87 147.86,158.05 148.06,159.22 C148.26,160.39 148.5,161.83 148.74,163.13 C148.98,164.43 149.2,165.51 149.39,166.7 C149.58,167.89 149.81,169.34 150.05,170.7 C150.29,172.06 150.55,173.15 150.83,174.37 C151.11,175.59 151.44,176.77 151.72,177.98 C152,179.19 152.2,180.47 152.39,181.72 L152.39,181.58 L152.39,181.73 C152.71,184.14 153.01,186.55 153.39,188.95 C153.6,190.34 153.82,191.73 154.04,193.12 C154.22,194.24 154.41,195.36 154.63,196.47 C154.96,198.14 155.31,199.8 155.63,201.47 C155.82,202.33 156,203.19 156.19,204.05 C156.47,205.42 156.79,206.8 156.99,208.18 C157.055104,208.67047 157.075188,209.165869 157.05,209.66 C157.027653,209.819677 156.990835,209.976991 156.94,210.13 L156.89,210.18 C156.38,210.18 155.89,210.1 155.36,210.1 C154.83,210.1 154.19,210.1 153.61,210.1 C152.591199,210.172399 151.58436,210.363699 150.61,210.67 C150.195754,210.802426 149.788555,210.95596 149.39,211.13 C148.907097,211.363018 148.451064,211.648039 148.03,211.98 C147.747279,212.149088 147.649885,212.512103 147.81,212.8 C147.979088,213.082721 148.342103,213.180115 148.63,213.02 C149.084114,212.672961 149.573473,212.374653 150.09,212.13 C151.055742,211.7547 152.062888,211.496199 153.09,211.36 L152.92,211.36 C153.972972,211.235043 155.037028,211.235043 156.09,211.36 L156.15,211.36 C156.401554,211.40148 156.655322,211.428193 156.91,211.44 C157.208043,211.429553 157.496535,211.33223 157.74,211.16 C158.276104,210.712272 158.58417,210.048463 158.58,209.35 C158.639312,208.008561 158.531823,206.664948 158.26,205.35 C158.07,204.25 157.89,203.15 157.7,202.05 C157.326667,199.89 156.966667,197.726667 156.62,195.56 L156.62,195.44 L156.62,195.36 L156.62,195.18 C156.62,195.06 156.62,194.94 156.57,194.83 C156.57,194.64 156.51,194.44 156.49,194.24 L156.49,193.98 C156.49,193.86 156.49,193.75 156.49,193.64 L156.49,193.75 L156.49,193.5 L156.49,193.28 C156.19,190.773333 155.9,188.263333 155.62,185.75 C155.48,184.45 155.37,183.16 155.25,181.87 C155.13,180.58 154.95,179.15 154.75,177.8 C154.52,176.29 154.16,174.8 153.87,173.29 C153.58,171.78 153.29,170.13 153.06,168.54 C152.89,167.21 152.73,165.88 152.54,164.54 C152.35,163.2 152.16,162.19 151.99,161 C151.82,159.81 151.58,158.32 151.34,157 C151.1,155.68 150.83,154.62 150.5,153.45 C150.39,153.07 150.28,152.69 150.16,152.31 C150.1,152.13 150.03,151.96 149.97,151.78 C149.892085,151.584507 149.801906,151.394129 149.7,151.21 C149.632054,151.070755 149.548158,150.939878 149.45,150.82 C149.32074,150.60417 149.138253,150.425125 148.92,150.3 C148.690928,150.161143 148.427868,150.088455 148.16,150.09 C147.488882,150.095906 146.902205,150.544062 146.72,151.19 L146.55,151.32 Z M156.29,193.15 L156.29,193.4 L156.29,193.34 L156.29,193.45 L156.29,193.29 C156.29,193.24 156.29,193.19 156.29,193.14 L156.29,193.15 Z M156.44,194.25 C156.435147,194.279804 156.435147,194.310196 156.44,194.34 L156.44,194.25 Z M156.64,195.79 L156.64,195.97 L156.64,195.79 Z M157.06,210.1 L156.97,210.17 L157.06,210.1 Z M156.55,194.93 L156.55,194.79 L156.55,194.93 Z M156.55,194.79 L156.55,194.68 C156.55,194.68 156.55,194.76 156.55,194.79 Z M156.46,194.12 L156.46,194.19 C156.46,194.09 156.46,193.99 156.46,193.89 L156.46,194.12 Z" id="Shape" fill="#11BAA1"></path>
                    <path d="M157.21,210.59 C157.21,211.59 157.13,212.59 157.11,213.59 C157.11,214.39 157.06,215.19 157.04,216 C157.030094,216.166519 157.030094,216.333481 157.04,216.5 C157.04,216.96 157.04,217.43 157.04,217.89 L157.04,218.89 C157.04,219.11 157.04,219.33 157.04,219.54 L157.19,221.45 L157.25,222.02 L157.37,223.18 C157.49,224.35 157.62,225.51 157.77,226.67 C157.770752,226.762935 157.806452,226.852183 157.87,226.92 C158.002682,227.052224 158.217318,227.052224 158.35,226.92 C158.417361,226.854674 158.453726,226.763761 158.45,226.67 C158.29,225.2 158.15,223.72 158.01,222.23 C158.01,221.97 157.95,221.71 157.93,221.45 C157.91,221.19 157.88,220.79 157.86,220.45 L157.77,219.14 C157.77,218.98 157.77,218.83 157.77,218.67 C157.77,217.95 157.77,217.23 157.77,216.51 C157.77,216.36 157.77,216.21 157.77,216.05 C157.77,215.89 157.77,215.65 157.77,215.45 C157.77,214.69 157.82,213.94 157.84,213.18 C157.86,212.42 157.9,211.48 157.93,210.63 C157.93,210.420132 157.759868,210.25 157.55,210.25 C157.338455,210.24993 157.165424,210.418524 157.16,210.63 L157.21,210.59 Z" id="Shape" fill="#11BAA1"></path>
                    <path d="M147.4,155.16 C146.62,155.16 145.84,155.25 145.06,155.29 C143.54,155.39 142.06,155.51 140.5,155.64 L135.24,156.08 C133.51,156.23 131.78,156.33 130.04,156.44 C128.3,156.55 126.79,156.53 125.17,156.57 C124.52,156.57 123.87,156.57 123.23,156.57 L120.62,156.57 C119.74,156.57 118.87,156.5 117.99,156.46 L116.07,156.38 L110.75,156.13 L104.32,155.84 L101.48,155.73 C100.045473,155.683285 98.6114874,155.838128 97.22,156.19 C96.5612511,156.350694 95.9330414,156.617514 95.36,156.98 C94.7598092,157.41278 94.2586898,157.968443 93.89,158.61 C93.5807205,159.140193 93.7598066,159.820721 94.29,160.13 C94.8201934,160.439279 95.5007205,160.260193 95.81,159.73 C95.92,159.57 96.02,159.41 96.14,159.25 L96.45,158.94 C96.6207092,158.821265 96.8013848,158.717544 96.99,158.63 C97.6129073,158.410309 98.2560485,158.252873 98.91,158.16 C100.287169,158.035002 101.672831,158.035002 103.05,158.16 L105.44,158.32 L109.9,158.63 C113.37,158.89 116.84,159.15 120.32,159.38 C121.86,159.49 123.41,159.52 124.95,159.58 C125.49,159.58 126.04,159.58 126.59,159.58 L127.37,159.58 C128.06,159.58 128.76,159.58 129.45,159.58 C131.07,159.52 132.69,159.49 134.31,159.4 L139.73,159.12 C141.4,159.04 143.07,158.98 144.73,158.93 L147.15,158.87 C147.904366,158.86839 148.657177,158.801474 149.4,158.67 C149.834451,158.671804 150.253107,158.507204 150.57,158.21 C150.696145,158.083475 150.806912,157.942499 150.9,157.79 C151.206076,157.268242 151.206076,156.621758 150.9,156.1 C150.727316,155.825725 150.499079,155.590675 150.23,155.41 C149.920375,155.250748 149.578141,155.16519 149.23,155.16 L148.68,155.16 L148.42,155.16 L147.42,155.16 L147.4,155.16 Z" id="Shape" fill="#11BAA1"></path>
                    <path d="M123.86,49.33 C123.58405,49.4870061 123.358574,49.7194204 123.21,50 C122.751709,50.1591253 122.4005,50.5327512 122.27,51 C122.185322,51.3279556 122.185322,51.6720444 122.27,52 C122.372981,52.3492742 122.517338,52.6849884 122.7,53 C123.049802,53.5754222 123.755661,53.8260229 124.39,53.6 L125.17,54.35 C125.34,54.51 125.51,54.68 125.67,54.85 C125.933024,55.1810554 126.220496,55.4919266 126.53,55.78 C126.755341,56.0328457 127.064165,56.196132 127.4,56.24 L127.91,56.83 C129.27,58.39 130.59,59.98 131.91,61.54 C132.284691,61.9196036 132.868692,61.9977445 133.33,61.73 C133.892547,61.4035526 134.08487,60.6834596 133.76,60.12 C132.56,58.46 131.33,56.83 130.12,55.18 L129.12,53.77 C128.898772,53.3923397 128.654997,53.0283473 128.39,52.68 L127.76,51.77 C127.55,51.46 127.33,51.15 127.11,50.85 C126.89,50.55 126.76,50.35 126.56,50.13 L126.33,49.87 C126.207775,49.7344877 126.070181,49.6136736 125.92,49.51 L125.7,49.35 C125.569527,49.2698386 125.428029,49.2091965 125.28,49.17 C125.128087,49.1216743 124.969403,49.0980405 124.81,49.1 C124.497835,49.1036253 124.191665,49.1861881 123.92,49.34 L123.86,49.33 Z" id="Shape" fill="#11BAA1"></path>
                    <path d="M94.45,214.16 C94.01,220.64 93.17,227.05 92.27,233.45 C91.8,236.65 91.27,239.84 90.77,243.02 C90.27,246.2 89.67,249.39 89.01,252.55 C87.7,258.87 85.95,265.11 84.57,271.43 C83.19,277.75 82.09,284.1 81.29,290.52 L79.81,289.58 C82.5048935,287.311749 85.0129803,284.830415 87.31,282.16 C88.45,280.83 89.58,279.5 90.61,278.1 C91.6613032,276.732806 92.6393439,275.310808 93.54,273.84 C95.3598049,271.017886 96.6571286,267.891437 97.37,264.61 C97.6875301,263.009955 97.7516455,261.369951 97.56,259.75 C97.5185318,259.342904 97.4517357,258.938787 97.36,258.54 L97.25,257.93 C97.19,257.69 97.14,257.44 97.09,257.2 C96.9086806,256.210699 96.8282683,255.205545 96.85,254.2 C96.8807819,253.187074 97.0250159,252.180791 97.28,251.2 C97.4053344,250.715647 97.5657583,250.24106 97.76,249.78 C97.84,249.55 97.96,249.32 98.06,249.1 L98.34,248.5 C99.1,246.89 99.82,245.27 100.53,243.63 C101.9,240.34 103.19,237 104.42,233.63 C106.866667,226.903333 109.126667,220.103333 111.2,213.23 C111.213963,213.177885 111.24839,213.133621 111.295465,213.10726 C111.34254,213.080898 111.398269,213.074673 111.45,213.09 C111.549672,213.123404 111.606473,213.228267 111.58,213.33 C109.846667,220.303333 107.926667,227.226667 105.82,234.1 C104.75,237.54 103.63,240.96 102.4,244.35 C101.78,246.05 101.16,247.74 100.48,249.43 L100.23,250.06 C100.16,250.25 100.08,250.43 100.02,250.62 C99.8954781,250.996514 99.7952718,251.380638 99.72,251.77 C99.5603884,252.549261 99.4999091,253.345572 99.54,254.14 C99.5784427,254.940936 99.7024822,255.735459 99.91,256.51 C99.91,256.7 100.02,256.89 100.07,257.08 L100.26,257.78 C100.400573,258.249091 100.510801,258.726746 100.59,259.21 C100.945473,261.14095 100.982631,263.117051 100.7,265.06 C100.10812,268.85236 98.7100339,272.473744 96.6,275.68 C94.5991568,278.805737 92.21011,281.665201 89.49,284.19 C86.8176737,286.69487 83.9521399,288.985291 80.92,291.04 L80.85,291.09 C80.4246382,291.376685 79.8474712,291.264831 79.56,290.84 C79.4247205,290.622317 79.3781849,290.361002 79.43,290.11 C80.95,283.816667 82.1733333,277.483333 83.1,271.11 C84.03,264.71 84.6,258.25 85.61,251.88 C86.1,248.68 86.69,245.51 87.33,242.34 C87.97,239.17 88.61,236.02 89.33,232.86 C90.74,226.55 92.22,220.26 94.1,214.04 C94.1139634,213.987885 94.1483905,213.943621 94.1954653,213.91726 C94.2425402,213.890898 94.2982691,213.884673 94.35,213.9 C94.448132,213.945389 94.4924248,214.06055 94.45,214.16 Z" id="Shape" fill="#11BAA1"></path>
                    <path d="M158.68,213.34 C159.87,220 160.86,226.7 161.84,233.4 C162.82,240.1 163.69,246.81 164.41,253.55 C165.13,260.29 165.59,267.05 166.32,273.79 C167.05,280.53 168.08,287.21 169.32,293.87 C169.366786,294.106225 169.316953,294.351346 169.181644,294.550551 C169.046335,294.749756 168.836838,294.886426 168.6,294.93 C168.34815,294.987513 168.083788,294.928766 167.88,294.77 C161.82,290.23 156.2,284.99 152.18,278.29 C150.072459,274.892558 148.65228,271.114473 148,267.17 C147.690003,265.121662 147.690003,263.038338 148,260.99 C148.162846,259.973955 148.400152,258.971254 148.71,257.99 C148.91865,257.312811 149.026472,256.608595 149.03,255.9 C149.028992,255.220668 148.921003,254.545733 148.71,253.9 C148.656164,253.726611 148.592733,253.556349 148.52,253.39 L148.26,252.72 L147.73,251.4 C147.05,249.64 146.38,247.87 145.79,246.09 C144.6,242.52 143.5,238.94 142.54,235.33 C140.570123,228.118588 138.981257,220.808472 137.78,213.43 C137.761751,213.322543 137.832904,213.22026 137.94,213.2 C138.03845,213.179322 138.136939,213.234989 138.17,213.33 L145.66,234.33 C146.93,237.81 148.19,241.28 149.56,244.7 C150.23,246.42 150.91,248.12 151.63,249.79 L152.18,251.05 L152.45,251.67 C152.53,251.87 152.68,252.19 152.77,252.46 C153.176355,253.564423 153.379627,254.733232 153.37,255.91 C153.368514,257.061296 153.186295,258.205222 152.83,259.3 C152.588254,260.090905 152.394567,260.895708 152.25,261.71 C151.979522,263.34257 151.929073,265.004027 152.1,266.65 C152.569472,270.091609 153.685765,273.413342 155.39,276.44 C157.140236,279.587135 159.171865,282.569312 161.46,285.35 C163.741491,288.207669 166.267717,290.861043 169.01,293.28 L167.51,294.15 C166.91,287.39 166.01,280.68 164.89,274.01 C163.77,267.34 162.35,260.69 161.13,254.01 C159.91,247.33 159,240.64 158,233.93 C157,227.22 156.19,220.52 155.49,213.78 C155.368497,212.910152 155.975152,212.106503 156.845,211.985 C157.714848,211.863497 158.518497,212.470152 158.64,213.34 L158.68,213.34 Z" id="Shape" fill="#11BAA1"></path>
                </g>
            </g>
        </g>
    </g>
</svg>