<?xml version="1.0" encoding="UTF-8"?>
<svg width="207px" height="330px" viewBox="0 0 207 330" version="1.1" xmlns="http://www.w3.org/2000/svg" xmlns:xlink="http://www.w3.org/1999/xlink">
    <!-- Generator: Sketch 52.2 (67145) - http://www.bohemiancoding.com/sketch -->
    <title>femme-mieux</title>
    <desc>Created with Sketch.</desc>
    <g id="website-2.1" stroke="none" stroke-width="1" fill="none" fill-rule="evenodd">
        <g id="nutr-perf-vs-mieux" transform="translate(-143.000000, -184.000000)" fill-rule="nonzero">
            <g id="home-jumbotron">
                <g id="femme-mieux" transform="translate(143.000000, 184.000000)">
                    <ellipse id="Oval" fill="#D1D3D4" cx="103.3" cy="323.14" rx="103.3" ry="5.87"></ellipse>
                    <path d="M13.37,24.33 C12.6510439,24.4961451 11.9556596,24.7514553 11.3,25.09 C10.5986262,25.4669027 9.94975197,25.9342267 9.37,26.48 C8.58594833,27.1782016 7.91169712,27.9906743 7.37,28.89 C6.77960783,29.9674036 6.43791799,31.1633181 6.37,32.39 C6.24,33.39 6.19,34.39 6.14,35.47 C6.06,37.2 5.98,38.92 5.94,40.65 C5.94,42.78 5.86,44.9 5.85,47.03 C5.85907821,47.6715375 6.35975259,48.198334 7,48.24 C7.32444016,48.2374186 7.63425172,48.104649 7.8598815,47.8714982 C8.08551128,47.6383475 8.20805449,47.3243504 8.2,47 C8.2,44.66 8.2,42.3 8.36,40 C8.43,39 8.48,38 8.56,36.94 C8.64,35.88 8.75,34.86 8.87,33.82 C8.93,33.47 8.99,33.12 9.06,32.77 C9.16496542,32.2967953 9.30536114,31.8321523 9.48,31.38 C9.64460304,31.0487715 9.83519983,30.7311102 10.05,30.43 C10.4762419,29.9337739 10.9446587,29.4753946 11.45,29.06 C11.8862248,28.7456 12.3478118,28.4679788 12.83,28.23 C13.2899812,28.0578675 13.7655266,27.9306089 14.25,27.85 C14.6794772,27.8200122 15.1105228,27.8200122 15.54,27.85 C15.8564043,27.9073638 16.16748,27.9909863 16.47,28.1 C17.5132891,28.6993306 18.5155067,29.3674757 19.47,30.1 C20.19306,30.5900197 20.9897683,30.9613668 21.83,31.2 C22.3816944,31.3589719 22.9478005,31.4628138 23.52,31.51 L24.38,31.61 C25.01,31.61 25.63,31.72 26.25,31.79 C26.634592,31.8478009 27.0129153,31.9415448 27.38,32.07 C27.6022362,32.1810338 27.8161302,32.3080333 28.02,32.45 C28.2571412,32.6521636 28.4778364,32.8728588 28.68,33.11 C28.8982784,33.4282276 29.0921652,33.7625151 29.26,34.11 C29.428254,34.5864192 29.561934,35.0743512 29.66,35.57 C29.7149859,36.1921207 29.7149859,36.8178793 29.66,37.44 C29.4839827,38.3166969 29.2227421,39.1741021 28.88,40 C28.2202194,41.4211386 27.401674,42.7630163 26.44,44 C25.44,45.22 24.44,46.39 23.39,47.53 C22.97,47.99 22.52,48.42 22.09,48.88 C21.66,49.34 21,50 20.44,50.53 C19.8129174,51.1435542 19.7443763,52.1293609 20.2805176,52.8237915 C20.8166589,53.5182221 21.7877206,53.7013945 22.54,53.25 C24.0088709,52.27012 25.3668504,51.1334409 26.59,49.86 C26.82,49.62 27.07,49.39 27.28,49.14 L28.28,47.99 C29.383764,46.7129694 30.3867744,45.3522186 31.28,43.92 C31.8776401,42.9148752 32.3894535,41.8611417 32.81,40.77 C33.2495768,39.5977722 33.5189792,38.3686236 33.61,37.12 C33.6806163,36.0309491 33.5793775,34.93757 33.31,33.88 C33.0020946,32.6557225 32.4323326,31.5127869 31.64,30.53 C31.0122634,29.7359664 30.225425,29.0819709 29.33,28.61 C28.3898908,28.1567823 27.3713974,27.888579 26.33,27.82 C25.45,27.73 24.56,27.67 23.68,27.58 C23.2029305,27.5048735 22.7341326,27.3843255 22.28,27.22 C21.4337766,26.7624474 20.6216683,26.2444359 19.85,25.67 C19.0499236,25.0866379 18.152683,24.6498679 17.2,24.38 C16.6726613,24.2482194 16.1331437,24.1711455 15.59,24.15 L15.17,24.15 C14.5519463,24.1533281 13.9356924,24.216963 13.33,24.34 L13.37,24.33 Z" id="Shape" fill="#F7CE5B"></path>
                    <path d="M30.47,13.18 C30.0148903,13.3091389 29.6101362,13.5743226 29.31,13.94 C28.9677107,14.4239142 28.6666534,14.9357117 28.41,15.47 C27.82,16.53 27.14,17.54 26.52,18.58 C26.06,19.36 25.6,20.13 25.17,20.92 C24.3000302,22.5126062 23.589899,24.1874438 23.05,25.92 C22.8487001,26.6425347 22.7510581,27.3900012 22.76,28.14 C22.7653926,28.5740517 23.1159483,28.9246074 23.55,28.93 C23.986305,28.93 24.34,28.576305 24.34,28.14 C24.3248157,27.8435276 24.3248157,27.5464724 24.34,27.25 C24.5197272,26.3476351 24.8015396,25.4686489 25.18,24.63 C25.7381923,23.3766182 26.3830891,22.1636775 27.11,21 C27.4,20.53 27.73,20.07 28.04,19.6 C28.57,18.82 29.16,18.06 29.73,17.3 C30.1097013,16.7955371 30.5348104,16.3269128 31,15.9 C30.9161506,16.240209 30.8092367,16.5743149 30.68,16.9 C30.2090091,17.8500901 29.6882874,18.774705 29.12,19.67 C28.92,20.01 28.71,20.34 28.51,20.67 L28.27,21.05 C28.0889304,21.3420335 27.9508473,21.6586142 27.86,21.99 C27.7500627,22.3994149 27.7500627,22.8305851 27.86,23.24 C27.9483234,23.516617 28.0621455,23.7844337 28.2,24.04 C28.3367815,24.2766561 28.5333439,24.4732185 28.77,24.61 C29.1369214,24.8293822 29.5770813,24.890716 29.99,24.78 C30.382936,24.647723 30.7091831,24.3680826 30.9,24 C31.1205356,23.6332314 31.1785027,23.1912327 31.06,22.78 L31.06,22.68 C31.24,22.35 31.45,22.03 31.64,21.68 L32.08,20.92 C32.7082019,19.8952558 33.2532796,18.8218205 33.71,17.71 C34.0401459,16.9273328 34.1773323,16.0767766 34.11,15.23 C34.0875736,14.6622634 33.8724248,14.1191008 33.5,13.69 C33.3296142,13.5367726 33.1455066,13.3995288 32.95,13.28 C32.601585,13.0964851 32.21379,13.0003943 31.82,13 L31.66,13 C31.2568987,13.0044416 30.8563818,13.0650239 30.47,13.18 Z M31.56,16 L31.61,16 L31.56,16 Z M25.26,24.57 L25.26,24.65 L25.26,24.57 Z M25.21,24.68 L25.21,24.77 L25.21,24.68 Z" id="Shape" fill="#F7CE5B"></path>
                    <path d="M41.82,24.3 C41.39,24.3 40.96,24.37 40.54,24.43 C40.12,24.49 39.77,24.53 39.4,24.61 C38.0495521,24.8706992 36.7142537,25.2045238 35.4,25.61 C34.3999862,25.9450153 33.4271343,26.3562208 32.49,26.84 C32.0691879,27.0588736 31.6677427,27.3131222 31.29,27.6 C31.0940445,27.7452536 30.9070376,27.9022059 30.73,28.07 C30.5078366,28.3014338 30.3070215,28.5524527 30.13,28.82 C30.03384,28.9448743 29.950109,29.0788439 29.88,29.22 C29.573482,29.7446705 29.7503295,30.4184819 30.275,30.725 C30.7996705,31.031518 31.473482,30.8546705 31.78,30.33 C31.8682298,30.1661244 31.9685055,30.0090258 32.08,29.86 C32.2171397,29.694593 32.3676466,29.5407414 32.53,29.4 C33.1598016,28.9671608 33.82951,28.5954727 34.53,28.29 C35.8275444,27.7841981 37.1656811,27.3894478 38.53,27.11 C38.97,27.02 39.41,26.95 39.84,26.88 C40.46,26.83 41.08,26.79 41.7,26.77 C42.2340361,26.760019 42.7682113,26.7800506 43.3,26.83 C42.9519977,27.2532202 42.5671578,27.6447531 42.15,28 C40.9770051,28.8321869 39.7201639,29.5393695 38.4,30.11 L36.62,30.82 C35.6673184,31.1489827 34.7384497,31.5432507 33.84,32 C32.9935102,32.4994679 32.7041689,33.5856105 33.19,34.44 C33.4293289,34.8395308 33.8119839,35.1327805 34.26,35.26 C34.7254486,35.3885968 35.2231098,35.3236845 35.64,35.08 C36.46,34.66 37.33,34.31 38.18,33.95 C39.03,33.59 39.84,33.18 40.64,32.76 C41.5266729,32.2893695 42.3818097,31.7615897 43.2,31.18 C44.1600963,30.5279074 45.0078164,29.7240931 45.71,28.8 C46.0066565,28.3718536 46.2485378,27.9082477 46.43,27.42 C46.5152984,27.1615544 46.562461,26.8920535 46.57,26.62 C46.5631548,26.3583473 46.5364109,26.0975947 46.49,25.84 L46.43,25.69 C46.38291,25.5125074 46.3013616,25.3460127 46.19,25.2 C46.0013794,24.936078 45.7595073,24.7146457 45.48,24.55 C45.2297355,24.4057092 44.9485692,24.3234166 44.66,24.31 C44.45,24.31 44.25,24.25 44.03,24.24 C43.8434715,24.2298436 43.6565285,24.2298436 43.47,24.24 C42.92,24.24 42.36,24.29 41.82,24.33 L41.82,24.3 Z" id="Shape" fill="#F7CE5B"></path>
                    <path d="M5.41,40.31 C4.64,40.45 4.18,41.14 3.76,41.72 C3.6,41.94 3.46,42.16 3.31,42.39 C2.89496776,43.0324434 2.52089106,43.7004375 2.19,44.39 C1.78202805,45.1774793 1.48904824,46.0193753 1.32,46.89 C1.12716977,47.8475299 1.08332001,48.82909 1.19,49.8 C1.28640079,50.7089917 1.47059362,51.6065132 1.74,52.48 C2.04482655,53.4195987 2.42610124,54.3326512 2.88,55.21 C3.69437749,56.8032164 4.74641534,58.2632562 6,59.54 C6.61151544,60.1595746 7.28127318,60.7188223 8,61.21 C8.79464787,61.7390131 9.65100306,62.1688698 10.55,62.49 C12.98,63.43 15.68,63.21 18.12,64.13 C18.6031357,64.3467562 19.065116,64.6078755 19.5,64.91 C19.6305814,65.0223182 19.754147,65.1425442 19.87,65.27 L20.06,65.62 C20.37,66.44 20.56,67.31 20.8,68.15 C20.8,68.25 20.86,68.35 20.9,68.45 L21.07,68.45 C21.8388695,68.447787 22.595761,68.6404503 23.27,69.01 C23.2,68.74 23.12,68.48 23.06,68.22 C22.81,67.22 22.6,66.22 22.38,65.22 C22.2635202,64.7203283 22.0640891,64.2437217 21.79,63.81 C21.4562036,63.3392881 21.0434432,62.929911 20.57,62.6 C19.5089885,61.8242462 18.3063732,61.2637051 17.03,60.95 C16.5,60.81 15.95,60.72 15.41,60.6 C14.1862909,60.3903472 12.98214,60.0792749 11.81,59.67 C11.1061441,59.3394619 10.436291,58.9408993 9.81,58.48 C9.07418991,57.8862613 8.40373869,57.2158101 7.81,56.48 C7.02436233,55.4245472 6.35388134,54.2880819 5.81,53.09 C5.43590998,52.0901341 5.16451269,51.0548037 5,50 C4.93749939,49.3347982 4.93749939,48.6652018 5,48 C5.06948316,47.6103197 5.16639074,47.2260311 5.29,46.85 C5.63098937,47.4164244 6.01195653,47.9577988 6.43,48.47 C6.91551785,49.1503728 7.4756724,49.7742575 8.1,50.33 C8.73975789,50.8698261 9.43341829,51.3423195 10.17,51.74 C10.9410857,52.1239876 11.7360583,52.4580097 12.55,52.74 C13.3599854,53.0320159 14.1843992,53.2823439 15.02,53.49 C15.73,53.69 16.46,53.85 17.19,53.98 L20.86,54.61 L22.53,54.88 L23.41,55.03 C23.9911379,55.1334222 24.5605899,55.2942086 25.11,55.51 C25.657533,55.7579017 26.1827918,56.0523142 26.68,56.39 C27.041275,56.6941687 27.3758313,57.028725 27.68,57.39 C28.3355774,58.290962 28.8984365,59.2558632 29.36,60.27 C29.45,60.52 29.54,60.76 29.61,61.02 C29.6236494,61.3193345 29.7094158,61.6109404 29.86,61.87 C30.1104109,62.2985622 30.5209317,62.6099864 31.0011164,62.7356598 C31.4813011,62.8613331 31.9917497,62.7909438 32.42,62.54 C32.8378532,62.2887058 33.1451042,61.888565 33.28,61.42 C33.5529405,60.2555483 33.3667069,59.0307041 32.76,58 C32.2920647,57.0164582 31.7222824,56.0846965 31.06,55.22 C30.6282834,54.626775 30.1318957,54.0834317 29.58,53.6 C29.0374291,53.1360106 28.4475102,52.7304413 27.82,52.39 C27.2076153,52.0732872 26.5725316,51.8025411 25.92,51.58 C25.1145081,51.3252986 24.282356,51.164237 23.44,51.1 L22.1,50.93 L19.86,50.64 C19.12,50.53 18.38,50.42 17.64,50.29 C15.9054517,49.9932236 14.2063616,49.5173443 12.57,48.87 C11.8644263,48.5586992 11.1939845,48.1731951 10.57,47.72 C10.0267242,47.2534407 9.53097313,46.7342419 9.09,46.17 C8.64902534,45.5878643 8.27028909,44.9611061 7.96,44.3 C7.83845766,43.9752165 7.74478609,43.6406752 7.68,43.3 C7.66501926,43.0735809 7.66501926,42.8464191 7.68,42.62 C7.6750374,42.5601026 7.6750374,42.4998974 7.68,42.44 C7.69314813,42.144401 7.66623733,41.8483821 7.6,41.56 C7.48916064,41.1039559 7.1915416,40.7155994 6.78,40.49 C6.51691184,40.3342056 6.21570882,40.2545772 5.91,40.26 C5.73888509,40.2620903 5.56826279,40.278818 5.4,40.31 L5.41,40.31 Z" id="Shape" fill="#11BAA1"></path>
                    <polygon id="Shape" fill="#11BAA1" points="92.84 20.74 92.93 20.74 92.78 20.74 92.84 20.81"></polygon>
                    <path d="M87,42.34 L87.55,42.34 C87.4374351,42.2794294 87.3303633,42.2091636 87.23,42.13 L87.12,42 C87.0794041,42.109221 87.0326628,42.2160583 86.98,42.32 L87,42.34 Z" id="Shape" fill="#11BAA1"></path>
                    <path d="M84.45,45.26 C84.26,45.88 84.09,46.49 83.91,47.11 C83.85,47.32 83.8,47.53 83.74,47.74 C83.7192464,47.8447697 83.6925364,47.948271 83.66,48.05 C83.5701998,48.410131 83.5199031,48.7789739 83.51,49.15 C83.5136845,49.4166734 83.6929516,49.6489058 83.95,49.72 C84.0998914,49.7627664 84.2606878,49.7434006 84.3961391,49.6662687 C84.5315904,49.5891367 84.6302947,49.4607312 84.67,49.31 C84.8081564,48.6872656 84.9817725,48.0729316 85.19,47.47 C85.38,46.85 85.57,46.23 85.75,45.62 C85.7989907,45.4475777 85.7768493,45.2627144 85.6885256,45.1067385 C85.6002019,44.9507626 85.4530618,44.8366818 85.28,44.79 L85.1,44.79 C84.7959048,44.7925717 84.5304878,44.9967386 84.45,45.29 L84.45,45.26 Z" id="Shape" fill="#11BAA1"></path>
                    <path d="M92.14,42.71 C92.0086713,42.7832772 91.9116231,42.905486 91.87,43.05 C91.75,43.79 91.63,44.53 91.53,45.27 C91.43,46.01 91.31,46.85 91.26,47.65 C91.2614703,47.8672713 91.393017,48.0624995 91.5938372,48.1454469 C91.7946573,48.2283943 92.0256315,48.1829031 92.18,48.03 C92.277834,47.9278644 92.3316926,47.7914225 92.33,47.65 C92.33,47.49 92.33,47.34 92.33,47.19 C92.51,45.91 92.73,44.64 92.95,43.36 C92.9829785,43.2097535 92.957976,43.0525946 92.88,42.92 C92.8094316,42.7863964 92.6861161,42.6884694 92.54,42.65 C92.490471,42.640294 92.439529,42.640294 92.39,42.65 C92.2841865,42.6454936 92.1795197,42.6734048 92.09,42.73 L92.14,42.71 Z M92.38,47.2 C92.38,47.2 92.38,47.26 92.38,47.29 L92.38,47.2 Z" id="Shape" fill="#11BAA1"></path>
                    <path d="M84.26,44.69 C83.7266667,46.69 83.2033333,48.69 82.69,50.69 C82.46,51.55 82.24,52.41 82.01,53.28 C81.6501682,54.4408476 81.3990868,55.6326471 81.26,56.84 C81.2854259,57.1711561 81.4736103,57.4680798 81.7622268,57.6324309 C82.0508434,57.796782 82.4022269,57.8071122 82.7,57.66 C82.9166054,57.538342 83.0725029,57.3316871 83.13,57.09 C83.32,55.98 83.7,54.91 83.99,53.82 C84.23,52.9666667 84.47,52.1066667 84.71,51.24 C85.31,48.95 85.92,46.65 86.52,44.35 C86.6193785,44.0008763 86.5367255,43.6251808 86.3,43.35 C85.7643747,43.9688647 85.0742711,44.4346847 84.3,44.7 L84.26,44.69 Z" id="Shape" fill="#11BAA1"></path>
                    <path d="M91.87,42.34 C91.7,43.34 91.53,44.25 91.37,45.21 C91.24,46 91.08,46.8 91,47.6 C90.92,48.4 90.85,49 90.78,49.7 C90.6999986,50.5013416 90.6999986,51.3086584 90.78,52.11 C90.83281,52.6248588 90.9678585,53.1279147 91.18,53.6 C91.3473231,53.9724925 91.5811449,54.3113646 91.87,54.6 C92.3609376,55.0901715 93.120239,55.1886755 93.72,54.84 C94.062957,54.6370579 94.3165608,54.3120164 94.43,53.93 C94.5250749,53.5457113 94.4752341,53.1398648 94.29,52.79 C94.2574851,52.6848812 94.2307781,52.5780531 94.21,52.47 C94.1495675,51.4685033 94.1897688,50.4634701 94.33,49.47 L94.51,47.81 C94.76,46.26 95.01,44.7 95.29,43.15 C95.4058708,42.69468 95.3451365,42.2123783 95.12,41.8 C94.8997148,41.4165663 94.5424369,41.130744 94.12,41 C93.4548974,41.5474674 92.713835,41.9954733 91.92,42.33 L91.87,42.34 Z" id="Shape" fill="#11BAA1"></path>
                    <path d="M80.59,56.12 C79.15,58.25 77.79,60.42 76.42,62.59 C76.28,62.79 76.15,63 76.02,63.21 C76.4398239,62.9841618 76.8822638,62.8031636 77.34,62.67 C77.8474148,62.5291511 78.3659858,62.4321281 78.89,62.38 L80,60.5 C80.71,59.35 81.47,58.22 82.23,57.1 C82.4850889,56.6340724 82.3313888,56.0500124 81.88,55.77 C81.7364613,55.6885463 81.5749939,55.6438851 81.41,55.64 C81.0625136,55.6414496 80.7406915,55.8231844 80.56,56.12 L80.59,56.12 Z" id="Shape" fill="#11BAA1"></path>
                    <path d="M66,107.69 C65.9503031,109.483673 65.8000673,111.273149 65.55,113.05 C64.97,116.67 64.3,120.26 63.48,123.83 C63.09,125.57 62.59,127.29 62.07,129 C61.51,130.87 60.9,132.73 60.31,134.6 C59.21,138.05 58.2,141.54 57.15,145.01 C56.1,148.48 55.03,152.18 54.09,155.8 C53.6,157.71 53.09,159.62 52.71,161.55 C52.33,163.48 52.01,165.27 51.71,167.15 C51.13,170.89 50.71,174.67 50.36,178.45 C50.01,182.23 49.67,185.87 49.59,189.6 C49.5,193.49 49.49,197.37 49.48,201.26 C49.48,202.08 49.48,202.91 49.48,203.73 C49.48,204.1 49.48,204.46 49.48,204.83 C49.4890191,205.299219 49.5324692,205.767143 49.61,206.23 C49.797773,207.115645 50.4532284,207.828596 51.32,208.09 C52.2072611,208.279504 53.1274514,208.248602 54,208 L55.28,207.76 L57.87,207.3 L59.19,207.14 C59.5,207.14 59.82,207.14 60.13,207.08 L61.35,207 C61.99,207 62.64,207 63.28,207 C63.92,207 64.54,207 65.17,207.09 C67.61,207.25 70.04,207.61 72.46,207.94 C76.0666667,208.426667 79.6733333,208.95 83.28,209.51 C84.16,209.64 85.02,209.81 85.89,209.96 C86.76,210.11 87.61,210.31 88.47,210.5 C89.33,210.69 90.07,210.91 90.88,211.14 C91.33,211.26 91.77,211.44 92.21,211.59 C92.65,211.74 92.96,211.9 93.33,212.05 L92.85,211.85 L93.67,212.22 C94.1661413,212.488103 94.6847849,212.712291 95.22,212.89 L95.39,212.89 C94.8398064,212.614485 94.3368726,212.253317 93.9,211.82 C93.6739664,211.791977 93.4501117,211.748543 93.23,211.69 C92.4739422,211.467665 91.7860994,211.058399 91.23,210.5 C90.3549694,209.642425 89.8674416,208.465135 89.88,207.24 C89.88,206.86 89.93,206.48 89.98,206.1 C89.39,205.96 88.79,205.84 88.2,205.72 C87.27,205.52 86.33,205.39 85.39,205.24 C83.6,204.95 81.8,204.71 79.99,204.47 L73.71,203.65 C72.18,203.45 70.64,203.24 69.09,203.08 L66.15,202.77 C65.67,202.72 65.15,202.71 64.71,202.68 C64.27,202.65 64.01,202.63 63.65,202.63 C62.8,202.63 61.95,202.63 61.1,202.63 C60.25,202.63 59.19,202.74 58.23,202.85 C56.97,202.99 55.71,203.18 54.45,203.37 C54.45,202.18 54.45,200.98 54.45,199.79 C54.45,198.02 54.45,196.26 54.45,194.49 C54.45,190.75 54.51,187 54.83,183.27 C55.05,180.81 55.2833333,178.356667 55.53,175.91 C55.77,173.59 56.05,171.29 56.35,168.98 C56.61,167.25 56.86,165.5 57.21,163.79 C57.56,162.08 57.98,160.15 58.44,158.35 C59.36,154.71 60.36,151.083333 61.44,147.47 C62.52,143.75 63.57,140.03 64.65,136.31 C65.13,134.65 65.65,133.01 66.12,131.31 C66.64,129.45 67.12,127.58 67.56,125.7 C68.4,121.96 68.96,118.15 69.46,114.35 C69.7162313,112.547198 69.8631663,110.730547 69.9,108.91 C69.9,107.76 69.9,106.62 69.8,105.48 C69.2667191,105.683682 68.7008531,105.788723 68.13,105.79 C67.4111929,105.790642 66.7022385,105.622822 66.06,105.3 C66.06,106.08 66.06,106.86 66.06,107.65 L66,107.69 Z" id="Shape" fill="#11BAA1"></path>
                    <path d="M104.16,109.76 C103.63894,109.903539 103.194211,110.244258 102.92,110.71 C102.648893,111.197161 102.573789,111.769379 102.71,112.31 C103.100099,114.340578 103.617792,116.34455 104.26,118.31 C104.54,119.1 104.82,119.88 105.16,120.65 C105.602242,121.619962 106.15958,122.533191 106.82,123.37 C107.46,124.23 108.14,125.05 108.82,125.89 C109.5,126.73 110.17,127.74 110.82,128.66 C111.63,129.74 112.47,130.81 113.31,131.87 C113.887583,132.613105 114.418599,133.391261 114.9,134.2 L115.07,134.2 C115.88922,134.196412 116.694212,134.414071 117.4,134.83 C117.83,135.14 118.25,135.47 118.66,135.83 C119.221895,136.383366 119.631735,137.072173 119.85,137.83 C119.924968,138.01152 119.985163,138.198795 120.03,138.39 C120.317831,138.40988 120.60275,138.46016 120.88,138.54 C121.467967,138.692953 122.016742,138.969044 122.49,139.35 C122.49,139.2 122.4,139.05 122.35,138.91 C122.018335,137.869989 121.631112,136.848521 121.19,135.85 C120.464756,134.115355 119.598522,132.443087 118.6,130.85 C117.6,129.4 116.52,128.06 115.44,126.69 C114.73,125.69 114.04,124.75 113.33,123.8 C112.62,122.85 111.74,121.8 110.93,120.8 C110.75,120.57 110.58,120.33 110.42,120.09 C109.953516,119.426603 109.558013,118.716037 109.24,117.97 C108.81,116.97 108.38,115.89 107.97,114.85 C107.56,113.81 107.09,112.47 106.69,111.27 C106.523268,110.746261 106.166528,110.303903 105.69,110.03 C105.204505,109.753891 104.630303,109.678526 104.09,109.82 L104.16,109.76 Z" id="Shape" fill="#11BAA1"></path>
                    <path d="M93.49,54.73 C92.7491513,55.4814357 92.7491513,56.6885643 93.49,57.44 C94.33,58.24 95.17,59.05 95.94,59.92 C96.71,60.79 97.4,61.63 98.13,62.49 C99.64,64.25 101.28,65.88 102.9,67.49 C106.21,70.84 109.51,74.19 112.96,77.4 C114.613333,78.9266667 116.303333,80.41 118.03,81.85 C118.94,82.61 119.84,83.37 120.78,84.09 L124.07,86.61 C125.07,87.34 126.07,88 127,88.7 C127.82,89.28 128.64,89.86 129.5,90.38 C129.96,90.66 130.42,90.97 130.91,91.22 L132.8,92.22 C133.29,92.47 133.8,92.67 134.32,92.9 C134.84,93.13 135.61,93.45 136.32,93.71 C137.03,93.97 137.73,94.27 138.45,94.54 C138.413562,94.5808539 138.38014,94.6243016 138.35,94.67 C136.56,96.92 134.57,99.01 132.64,101.13 C130.993333,102.95 129.346667,104.773333 127.7,106.6 C124.49,110.18 121.4,113.86 118.26,117.51 C117.46,118.44 116.66,119.38 115.83,120.28 C114.83,121.39 113.74,122.45 112.61,123.46 C112.016333,124.089917 111.895261,125.030245 112.31,125.79 C112.569957,126.216681 112.980204,126.530609 113.46,126.67 C113.959786,126.810548 114.495445,126.738162 114.94,126.47 C115.54,126.04 116.14,125.59 116.72,125.12 C117.156697,124.808263 117.577241,124.474498 117.98,124.12 C118.41,123.73 118.86,123.34 119.27,122.92 L120.74,121.39 C122.28,119.78 123.74,118.11 125.2,116.39 C128.36,112.75 131.59,109.18 134.85,105.61 L137.19,103.05 C138.64,101.46 140.19,99.91 141.48,98.23 C142.040715,97.5249829 142.548756,96.7796343 143,96 C143.05,95.89 143.11,95.78 143.17,95.67 L143.55,94.77 C143.737672,94.1602944 143.761811,93.5119736 143.62,92.89 C143.500161,92.4015617 143.25945,91.9510891 142.92,91.58 C142.602944,91.2660263 142.234233,91.008943 141.83,90.82 C141.33,90.59 140.83,90.42 140.31,90.23 C139.11,89.79 137.91,89.35 136.72,88.89 L135.18,88.23 C134.49,87.93 133.82,87.55 133.13,87.23 C132.44,86.91 131.92,86.53 131.32,86.23 C130.72,85.93 130.06,85.4 129.43,84.99 C127.16,83.5 125,81.86 122.82,80.24 C120.98,78.74 119.14,77.24 117.33,75.7 C115.52,74.16 113.97,72.7 112.33,71.15 C110.69,69.6 109.09,68 107.46,66.44 C105.68,64.72 103.91,63.01 102.19,61.23 C101.24,60.23 100.35,59.23 99.46,58.23 C98.46,57.03 97.31,55.91 96.16,54.82 C95.789245,54.4626386 95.2949391,54.2620507 94.78,54.26 C94.2763541,54.2596401 93.7936237,54.4613782 93.44,54.82 L93.49,54.73 Z" id="Shape" fill="#11BAA1"></path>
                    <path d="M92.78,70.14 C92.4584773,70.4604067 92.2784432,70.8960893 92.28,71.35 C92.2917489,71.8011917 92.4698211,72.2321265 92.78,72.56 C94.56,74.65 96.36,76.72 98.24,78.73 C100.12,80.74 102.1,82.55 104.13,84.34 C106,85.99 107.91,87.57 109.81,89.17 C110.46,89.71 111.15,90.17 111.81,90.72 C112.47,91.27 113.19,91.78 113.9,92.28 C115.48,93.38 117.07,94.46 118.66,95.56 C119.45,96.11 120.24,96.67 121.01,97.25 C121.215237,97.4167752 121.409009,97.5971834 121.59,97.79 C121.549311,97.9724577 121.499245,98.1526969 121.44,98.33 C120.737423,99.6455158 119.920969,100.896965 119,102.07 C118.45,102.84 117.88,103.6 117.31,104.37 C116.31,105.74 115.31,107.11 114.25,108.48 C113.09,110.04 111.9,111.59 110.78,113.18 C110.22,113.98 109.66,114.78 109.11,115.59 C108.52803,116.391186 107.993771,117.225966 107.51,118.09 C107.363041,118.370708 107.23606,118.661429 107.13,118.96 C107.046317,119.242521 107.00256,119.535357 107,119.83 C107.014645,120.198946 107.11752,120.559007 107.3,120.88 C107.354892,120.992298 107.429395,121.093892 107.52,121.18 C107.52,121.34 107.58,121.5 107.6,121.66 C107.66,122.1 107.71,122.55 107.8,122.99 C107.955773,123.732521 108.214967,124.449512 108.57,125.12 C108.953402,125.785299 109.391585,126.417487 109.88,127.01 C110.35,127.62 110.88,128.23 111.34,128.81 C112.431386,130.045499 113.663025,131.149611 115.01,132.1 C115.668243,132.544114 116.37228,132.916248 117.11,133.21 C117.967419,133.580291 118.85809,133.868253 119.77,134.07 C122.822406,134.677498 125.971681,134.598937 128.99,133.84 C129.61,133.7 130.22,133.57 130.83,133.42 L132.05,133.09 C132.438758,133.002621 132.817438,132.875278 133.18,132.71 C133.606919,132.449556 133.953117,132.075662 134.18,131.63 C134.413073,131.21682 134.477559,130.729587 134.36,130.27 C134.212355,129.853816 133.926452,129.50085 133.55,129.27 L132.93,128.83 C132.640074,128.663594 132.33119,128.532654 132.01,128.44 C131.358229,128.248384 130.687678,128.127685 130.01,128.08 C127.75,127.78 125.47,127.66 123.2,127.38 C121.849697,127.201881 120.51322,126.931245 119.2,126.57 L117.12,125.97 C115.94,125.63 114.76,125.26 113.61,124.83 C113.127342,124.69605 112.610935,124.764663 112.18,125.02 L111.99,125.15 C111.664305,124.707964 111.37024,124.243475 111.11,123.76 C110.982927,123.391798 110.885942,123.013891 110.82,122.63 C110.82,122.23 110.77,121.83 110.77,121.43 C110.80013,121.020554 110.80013,120.609446 110.77,120.2 C110.98,119.86 111.21,119.54 111.43,119.2 L112.16,118.12 C112.75,117.24 113.36,116.37 113.96,115.5 C115.03,113.97 116.16,112.5 117.28,110.96 C118.4,109.42 119.28,108.23 120.28,106.86 C120.87,106.06 121.46,105.27 122.04,104.47 C122.83,103.37 123.66,102.28 124.34,101.1 C124.786741,100.373497 125.123711,99.5849863 125.34,98.76 C125.579439,97.6953692 125.373531,96.5791314 124.77,95.67 C123.928392,94.6658264 122.912017,93.8222352 121.77,93.18 C120.7,92.44 119.61,91.75 118.52,91.05 C117.43,90.35 116.41,89.66 115.36,88.96 C114.84,88.62 114.36,88.22 113.84,87.86 L112.37,86.78 C110.75,85.45 109.11,84.14 107.52,82.78 C105.31,80.86 103.12,78.91 101.08,76.78 C99.04,74.65 97.08,72.4 95.16,70.15 C94.868302,69.8172293 94.442215,69.6335711 94,69.65 C93.531285,69.6482 93.0799462,69.8273027 92.74,70.15 L92.78,70.14 Z M121.66,97.9 L121.74,98.07 L121.66,97.9 Z M121.66,97.9 C121.664902,97.9865973 121.664902,98.0734027 121.66,98.16 L121.66,97.9 Z M116.8,129.7 L117.96,130.05 C119.835805,130.588814 121.757256,130.953688 123.7,131.14 L125.23,131.29 C123.936848,131.425016 122.633152,131.425016 121.34,131.29 C120.259205,131.125984 119.199578,130.844311 118.18,130.45 C117.70678,130.232524 117.246064,129.988812 116.8,129.72 L116.8,129.7 Z" id="Shape" fill="#11BAA1"></path>
                    <path d="M95,80 C94.5820473,80.1224701 94.2252197,80.3972273 94,80.77 C93.7856356,81.1677608 93.7251246,81.6304924 93.83,82.07 C94.28,84.46 94.83,86.84 95.28,89.23 C95.65,91.01 96.14,92.77 96.58,94.54 C97.02,96.31 97.58,97.93 98.14,99.62 C98.38,100.37 98.71,101.09 98.99,101.82 C99.46,103 99.93,104.19 100.45,105.35 C101.101348,106.819512 101.846208,108.245769 102.68,109.62 C103.03,110.2 103.41,110.76 103.77,111.32 C104.47,112.4 105.18,113.48 105.92,114.53 C106.150753,114.89147 106.506865,115.154993 106.92,115.27 C107.339487,115.380604 107.785759,115.319421 108.16,115.1 C108.911574,114.649519 109.164888,113.680703 108.73,112.92 C108.01,111.8 107.31,110.67 106.61,109.54 C106.23,108.92 105.84,108.3 105.47,107.67 C104.637695,106.197017 103.889821,104.677898 103.23,103.12 C102.86,102.24 102.52,101.34 102.17,100.45 C101.91,99.8 101.63,99.14 101.42,98.45 C100.88,96.77 100.29,95.09 99.85,93.37 C99.41,91.65 98.93,89.94 98.57,88.2 C98.08,85.85 97.57,83.51 97.13,81.2 C97.015003,80.7782897 96.7383154,80.4189551 96.36,80.2 C96.0983047,80.0496266 95.8018219,79.9703347 95.5,79.97 C95.3327889,79.9538535 95.1640809,79.963976 95,80 Z" id="Shape" fill="#11BAA1"></path>
                    <path d="M90.82,108.62 C89.1410077,108.749555 87.4713268,108.979971 85.82,109.31 C83.5774851,109.798092 81.3694096,110.432789 79.21,111.21 C77.0122591,111.984655 74.8733579,112.917083 72.81,114 C71.8165376,114.518001 70.8754918,115.130853 70,115.83 C69.59,116.16 69.2,116.5 68.82,116.83 C68.4747737,117.178952 68.1602758,117.557018 67.88,117.96 C67.547796,118.502302 67.4606058,119.159862 67.64,119.77 C67.800083,120.36143 68.1885763,120.865033 68.72,121.17 C69.2659434,121.491793 69.9190593,121.578394 70.53,121.41 L71.09,121.17 C71.4007531,120.995305 71.6648656,120.748343 71.86,120.45 C72.2541719,120.032568 72.6786619,119.644845 73.13,119.29 C74.4941166,118.334688 75.9596896,117.53315 77.5,116.9 C79.2786836,116.142622 81.094307,115.475113 82.94,114.9 C84.8096831,114.313 86.7175159,113.855253 88.65,113.53 C89.9461807,113.353505 91.2519643,113.256657 92.56,113.24 C93.562732,113.248148 94.5642521,113.311577 95.56,113.43 C96.3578262,113.552882 97.1488564,113.716428 97.93,113.92 C98.4912555,114.073574 99.062686,114.187191 99.64,114.26 C100.076358,114.308622 100.518016,114.271251 100.94,114.15 C101.477418,113.984279 101.967619,113.692901 102.37,113.3 C103.117685,112.555482 103.265852,111.398957 102.73,110.49 C102.193414,109.588493 101.124268,109.151857 100.11,109.42 L100,109.42 C99.34,109.28 98.69,109.1 98,108.97 C97.09,108.79 96.15,108.69 95.23,108.58 C94.4732201,108.491841 93.7118959,108.448432 92.95,108.45 C92.25,108.45 91.54,108.45 90.83,108.55 L90.82,108.62 Z M88.33,113.62 L88.16,113.62 L88.33,113.62 Z" id="Shape" fill="#11BAA1"></path>
                    <path d="M117.5,0.53 C114.757081,1.01089027 112.074629,1.78880141 109.5,2.85 C106.815812,3.92997461 104.243588,5.26967469 101.82,6.85 C98.6225724,8.95123721 95.7144536,11.4626416 93.17,14.32 C91.9695209,15.667649 90.847663,17.0833269 89.81,18.56 C90.5900705,18.8664239 91.3108333,19.3063261 91.94,19.86 C92.24,19.45 92.55,19.03 92.86,18.63 C94.9506304,15.9593789 97.3469669,13.5429051 100,11.43 C102.661138,9.41633602 105.559498,7.73710091 108.63,6.43 C110.110474,5.8164914 111.622622,5.28239915 113.16,4.83 C114.798138,4.35106714 116.469325,3.99343314 118.16,3.76 C120.364345,3.46176794 122.595684,3.41814778 124.81,3.63 C126.141972,3.82314606 127.449428,4.15839117 128.71,4.63 C129.672235,5.0567487 130.58721,5.58294305 131.44,6.2 C132.040925,6.68924569 132.593463,7.23508594 133.09,7.83 C133.472516,8.39082851 133.807035,8.98292816 134.09,9.6 C134.290708,10.1433211 134.44787,10.7017496 134.56,11.27 C134.605152,11.7890199 134.605152,12.3109801 134.56,12.83 C134.366781,13.8578226 134.068551,14.8630927 133.67,15.83 C132.82,17.77 131.8,19.62 130.91,21.53 C130.72,21.93 130.55,22.33 130.38,22.73 C130.128272,23.3371867 129.963318,23.9768023 129.89,24.63 C129.84087,25.3004162 129.89142,25.9744121 130.04,26.63 C130.281939,27.5080436 130.759109,28.3033278 131.42,28.93 C131.916804,29.4216864 132.50434,29.8122452 133.15,30.08 C133.85328,30.3899637 134.592236,30.6116503 135.35,30.74 C136.672844,30.9613363 138.009316,31.0916423 139.35,31.13 C141.44,31.19 143.52,31.21 145.61,31.24 C147.7,31.27 149.77,31.39 151.85,31.56 L152.16,31.56 C154.041132,31.8493918 155.883064,32.352652 157.65,33.06 C158.628326,33.4923911 159.562654,34.01816 160.44,34.63 C161.044769,35.1330614 161.60058,35.6922203 162.1,36.3 C162.483498,36.8144542 162.818275,37.3634892 163.1,37.94 C163.282708,38.4244483 163.426497,38.9226938 163.53,39.43 C163.579975,40.0055839 163.579975,40.5844161 163.53,41.16 C163.376592,42.0169262 163.142208,42.8573604 162.83,43.67 C162.195613,44.9996019 161.424809,46.2596992 160.53,47.43 C158.051541,50.4516689 155.325429,53.2614038 152.38,55.83 C151.45,56.68 150.48,57.5 149.52,58.33 L148,59.62 L147.13,60.34 L146.72,60.67 C146.248407,61.0258003 145.859488,61.4795389 145.58,62 C145.254823,62.5774152 145.165256,63.2581215 145.33,63.9 C145.490349,64.5236406 145.898562,65.0546794 146.46,65.37 C147.011037,65.6495618 147.591206,65.8675443 148.19,66.02 C148.821154,66.1249542 149.4602,66.1751411 150.1,66.17 C151.15,66.17 152.21,66.17 153.27,66.17 L156.07,66.02 L161.25,65.71 C162.88,65.62 164.52,65.57 166.16,65.51 C169.422313,65.3481228 172.692292,65.4417418 175.94,65.79 C178.445164,66.1435743 180.899182,66.7948458 183.25,67.73 C184.866905,68.432982 186.399828,69.3151672 187.82,70.36 C188.923235,71.2511425 189.928858,72.2567654 190.82,73.36 C191.601334,74.4254067 192.271498,75.568035 192.82,76.77 C193.322936,78.0598436 193.68178,79.4013199 193.89,80.77 C194.060003,82.2819028 194.060003,83.8080972 193.89,85.32 C193.64577,86.9156034 193.223122,88.4787322 192.63,89.98 C191.991554,91.3996026 191.203781,92.7471973 190.28,94 C189.05046,95.5230259 187.658948,96.9078322 186.13,98.13 C183.724585,99.9064097 181.120355,101.396459 178.37,102.57 C176.01616,103.52847 173.608798,104.349844 171.16,105.03 C168.52,105.76 165.84,106.33 163.16,106.82 C161.29,107.15 159.41,107.38 157.54,107.65 C155.9,107.82 154.26,107.99 152.61,108.08 C150.79849,108.195006 148.98151,108.195006 147.17,108.08 C146.558167,108.072406 145.969629,108.314321 145.54,108.75 C145.105822,109.183337 144.861832,109.771574 144.861832,110.385 C144.861832,110.998426 145.105822,111.586663 145.54,112.02 L146,112.38 C146.354949,112.586855 146.759194,112.693963 147.17,112.69 C148.25,112.83 149.34,112.9 150.43,112.94 C150.86,112.94 151.29,112.94 151.71,112.94 L153.76,112.88 C154.76,112.88 155.81,112.7 156.82,112.61 C157.83,112.52 158.72,112.39 159.67,112.25 L163.56,111.69 C164.46,111.56 165.35,111.38 166.24,111.21 C167.77,110.92 169.3,110.58 170.81,110.21 C173.601145,109.513496 176.34368,108.63495 179.02,107.58 C181.72641,106.529301 184.32512,105.2199 186.78,103.67 C189.161743,102.151164 191.319316,100.306625 193.19,98.19 C194.101569,97.1340808 194.927518,96.0071786 195.66,94.82 C196.460679,93.4843437 197.130457,92.0744621 197.66,90.61 C198.113777,89.371278 198.44862,88.0921767 198.66,86.79 C198.920024,85.2509438 199.030539,83.6903407 198.99,82.13 C198.938153,80.6870888 198.74048,79.2531229 198.4,77.85 C198.034057,76.3864796 197.507529,74.9678726 196.83,73.62 C196.220176,72.3988762 195.482729,71.2457776 194.63,70.18 C193.745488,69.0468493 192.739486,68.0140203 191.63,67.1 C190.549965,66.1828043 189.388482,65.3660842 188.16,64.66 C186.807159,63.8786012 185.392399,63.209684 183.93,62.66 C181.165608,61.6615823 178.286135,61.0164728 175.36,60.74 C172.817259,60.4551918 170.256484,60.3649295 167.7,60.47 C164.96,60.57 162.23,60.67 159.49,60.83 L155.91,61.04 L153.7,61.16 L154.86,60.16 C156.35,58.88 157.77,57.52 159.17,56.16 C160.57,54.8 161.75,53.57 162.93,52.16 C163.881184,51.0472853 164.769244,49.8821241 165.59,48.67 C166.402376,47.414638 167.073136,46.0731178 167.59,44.67 C168.06294,43.3336973 168.33916,41.9357539 168.41,40.52 C168.435483,39.7457156 168.375115,38.9709911 168.23,38.21 C168.073004,37.3724166 167.80743,36.558888 167.44,35.79 C166.219792,33.1683132 164.199634,31.0011068 161.67,29.6 C160.808154,29.134343 159.916169,28.7267693 159,28.38 C158.08933,28.0147714 157.157673,27.7042193 156.21,27.45 C154.63543,27.030615 153.025082,26.7594338 151.4,26.64 C150.01,26.53 148.6,26.41 147.19,26.39 L142.44,26.34 C140.506465,26.3464905 138.573886,26.2530325 136.65,26.06 C136.17119,25.986951 135.699481,25.8732056 135.24,25.72 C135.105573,25.6548075 134.975322,25.5813328 134.85,25.5 L134.7,25.36 C134.7,25.36 134.7,25.36 134.7,25.36 C134.7,25.36 134.7,25.11 134.7,24.99 C134.795107,24.650745 134.908608,24.3169179 135.04,23.99 C135.76,22.37 136.54,20.76 137.28,19.14 C137.883806,17.8787408 138.365988,16.5627869 138.72,15.21 C138.865812,14.4809361 138.959383,13.7423917 139,13 C139.05174,12.1333729 138.998013,11.2636694 138.84,10.41 C138.725041,9.71951731 138.519956,9.04710867 138.23,8.41 C137.962426,7.7124324 137.627509,7.04260016 137.23,6.41 C136.421305,5.19311984 135.406008,4.12705806 134.23,3.26 C131.954842,1.61069197 129.298847,0.564808086 126.51,0.22 C125.432972,0.0724356837 124.347089,-0.00107020421 123.26,-8.32616446e-17 C121.328633,0.0167934031 119.402002,0.194070189 117.5,0.53 Z" id="Shape" fill="#11BAA1"></path>
                    <path d="M60.74,299 L60.27,299 L60.27,299.14 L60.5,300.99 C60.5466667,301.423333 60.5966667,301.843333 60.65,302.25 C60.71,302.67 60.76,303.09 60.86,303.5 C60.96,303.91 61.04,304.09 61.13,304.39 C61.2499923,304.806331 61.5209974,305.162917 61.89,305.39 C62.4077816,305.684252 63.0422184,305.684252 63.56,305.39 C63.7908769,305.265507 64.0086405,305.118098 64.21,304.95 C64.4906472,304.668646 64.7027874,304.326484 64.83,303.95 C64.8955051,303.793269 64.952259,303.633022 65,303.47 C65.08,303.22 65.17,302.97 65.26,302.72 C65.3400487,302.452527 65.3400487,302.167473 65.26,301.9 C65.0741082,301.192039 64.4100454,300.717108 63.68,300.77 L63.55,300.04 C63.44,299.46 63.33,298.86 63.23,298.27 C62.4840652,298.759944 61.6124274,299.023867 60.72,299.03 L60.74,299 Z" id="Shape" fill="#11BAA1"></path>
                    <path d="M54.17,206.66 C53.98218,206.903926 53.836811,207.177761 53.74,207.47 C53.6063775,207.855492 53.5158263,208.254588 53.47,208.66 C53.37,209.23 53.32,209.81 53.27,210.38 C53.7527492,209.697295 54.408537,209.155408 55.17,208.81 L55.17,208.46 C55.17,208.52 55.24,208.59 55.28,208.66 L55.28,208.74 C55.4229103,208.679593 55.5699507,208.629466 55.72,208.59 C55.9369189,208.532274 56.1573928,208.488847 56.38,208.46 L56.2,208.1 L55.86,207.42 C55.64,206.96 55.4,206.28 54.78,206.28 C54.5046619,206.296817 54.2513995,206.436295 54.09,206.66 L54.17,206.66 Z" id="Shape" fill="#11BAA1"></path>
                    <path d="M71.77,209.57 C70.9925415,210.03772 70.7269162,211.038242 71.17,211.83 C72.1,213.54 73.05,215.23 73.94,216.95 C74.3,217.64 74.65,218.31 74.94,219.01 C75.37,219.93 75.79,220.86 76.22,221.79 L77.07,223.86 C77.8093463,225.688871 78.329632,227.598823 78.62,229.55 C78.7716489,230.838158 78.8584252,232.133126 78.88,233.43 C78.8766912,234.821261 78.7831616,236.210844 78.6,237.59 C77.7926877,242.322624 76.6837612,246.99882 75.28,251.59 C74.1066667,255.803333 73,260.026667 71.96,264.26 C71.42,266.42 70.96,268.57 70.44,270.74 C69.92,272.91 69.56,275.01 69.17,277.16 C68.36,281.51 67.66,285.89 66.86,290.24 L65.95,295.24 C65.68,296.72 65.47,298.24 65.24,299.71 C65.1,300.58 65.01,301.46 64.91,302.34 C64.82,303.05 64.73,303.75 64.68,304.46 C64.6,305.52 64.51,306.58 64.48,307.65 C64.4515378,309.356661 64.7467456,311.053258 65.35,312.65 C65.5175968,313.173273 65.8741102,313.61535 66.35,313.89 C66.8298712,314.171912 67.4033929,314.24766 67.94,314.1 C69.0352886,313.784386 69.678821,312.652657 69.39,311.55 C69.29,311.13 69.22,310.7 69.15,310.28 C69.0564543,308.210136 69.1737247,306.136126 69.5,304.09 C69.63,302.87 69.82,301.65 69.98,300.43 C69.98,300.65 69.92,300.86 69.9,301.07 C70.2733333,298.77 70.6666667,296.473333 71.08,294.18 C71.48,292.033333 71.87,289.883333 72.25,287.73 C73,283.43 73.69,279.11 74.46,274.81 C75.23,270.51 76.25,266.18 77.22,261.88 C77.69,259.76 78.22,257.63 78.68,255.52 C79.14,253.41 79.68,251.6 80.12,249.63 C80.63,247.49 81.12,245.35 81.56,243.18 C81.92,241.18 82.26,239.25 82.45,237.26 C82.7375345,234.098156 82.5623573,230.911279 81.93,227.8 C81.4244143,225.607944 80.6869262,223.475932 79.73,221.44 C79.28,220.44 78.81,219.44 78.34,218.38 C77.39,216.38 76.34,214.38 75.28,212.48 C74.86,211.73 74.46,210.98 74.05,210.23 C73.7540973,209.717129 73.2019583,209.40655 72.61,209.42 C72.3233327,209.419743 72.0412555,209.491982 71.79,209.63 L71.77,209.57 Z" id="Shape" fill="#11BAA1"></path>
                    <path d="M83.2,239.05 C82.3973645,239.527093 82.1258277,240.559824 82.59,241.37 C83.46,242.65 84.35,243.91 85.17,245.21 L86.89,247.93 L90.89,254.28 C91.66,255.5 92.34,256.79 93.06,258.04 L96.36,263.83 C98.07,266.83 99.7,269.89 101.44,272.83 C102.68,274.943333 103.913333,277.053333 105.14,279.16 C106.08,280.76 107.08,282.33 108.05,283.92 C108.51,284.67 108.96,285.43 109.44,286.17 L111.73,289.67 C112.31,290.56 112.92,291.43 113.53,292.3 C113.88,292.79 114.23,293.3 114.59,293.79 C114.95,294.28 115.41,294.92 115.8,295.5 L116.1,295.97 C116.258025,296.229637 116.477907,296.446083 116.74,296.6 C117.147504,296.839818 117.635762,296.901302 118.09,296.77 C119.020269,296.511962 119.569047,295.552716 119.32,294.62 C118.892803,293.398517 118.260403,292.258843 117.45,291.25 L115.67,288.74 C115.183333,288.073333 114.703333,287.383333 114.23,286.67 C113.65,285.83 113.04,285 112.5,284.13 L109,278.55 C108.18,277.24 107.4,275.91 106.61,274.55 L103.39,269.14 C102.98,268.47 102.61,267.78 102.23,267.09 C101.55,265.9 100.87,264.7 100.23,263.5 C98.31,260.11 96.35,256.73 94.4,253.35 C94.13,252.88 93.83,252.42 93.54,251.96 C92.69,250.62 91.84,249.27 90.98,247.96 L88.46,243.96 C87.53,242.5 86.55,241.08 85.57,239.65 C85.2689917,239.128632 84.7120193,238.808182 84.11,238.81 C83.8081781,238.810335 83.5116953,238.889627 83.25,239.04 L83.2,239.05 Z M118.59,293.66 L118.73,293.77 L118.59,293.66 Z" id="Shape" fill="#11BAA1"></path>
                    <path d="M89,217.87 C88.6492465,218.211698 88.4509827,218.680322 88.45,219.17 C88.4635877,219.657023 88.6599295,220.121104 89,220.47 C89.81,221.47 90.64,222.42 91.42,223.42 C93.9974541,226.700434 96.4039846,230.111633 98.63,233.64 C100.853413,237.279506 102.808593,241.076231 104.48,245 C105.14,246.58 105.8,248.18 106.36,249.81 L107.77,253.93 C108.02,254.65 108.3,255.37 108.51,256.1 L109.59,259.84 C109.8,260.6 110.05,261.35 110.23,262.11 C110.53,263.43 110.84,264.75 111.14,266.11 C111.58,267.98 111.87,269.88 112.14,271.78 C112.27,272.85 112.4,273.92 112.54,274.99 C112.68,276.06 112.75,277.21 112.85,278.32 C113.05,280.53 113.18,282.75 113.31,284.97 C113.44,287.19 113.52,289.29 113.63,291.45 C113.696465,292.671689 113.843451,293.887662 114.07,295.09 C114.115599,295.320262 114.18601,295.544906 114.28,295.76 C114.41729,296.154778 114.609151,296.528401 114.85,296.87 L115.2,297.32 C115.398057,297.487711 115.605025,297.644606 115.82,297.79 C116.21274,298.027674 116.675287,298.123008 117.13,298.06 L117.69,297.99 C117.935118,297.914893 118.167673,297.803671 118.38,297.66 C118.753094,297.4152 119.089751,297.118942 119.38,296.78 C119.985782,296.16395 120.108327,295.22035 119.68,294.47 C119.459155,294.078333 119.103907,293.779925 118.68,293.63 C118.58,293.19 118.5,292.75 118.43,292.31 C117.97,287.91 117.83,283.48 117.35,279.09 C117.21,277.87 117.08,276.64 116.94,275.42 C116.8,274.2 116.56,272.7 116.37,271.35 C116.22,270.35 116,269.35 115.81,268.3 C115.62,267.25 115.46,266.43 115.23,265.5 L114.15,261.16 C113.92,260.25 113.6,259.34 113.33,258.44 L112.27,254.96 C112.18,254.66 112.06,254.36 111.95,254.06 L111.14,251.8 L109.81,248 C109.39,246.84 108.89,245.69 108.41,244.55 C107.72,242.91 106.99,241.27 106.2,239.67 C104.746126,236.719021 103.140649,233.845185 101.39,231.06 C99.63,228.25 97.67,225.57 95.66,222.93 C95,222.06 94.34,221.2 93.66,220.34 C92.98,219.48 92.27,218.67 91.58,217.84 C91.2423863,217.483314 90.7710916,217.28392 90.28,217.29 C89.7903218,217.290983 89.3216982,217.489247 88.98,217.84 L89,217.87 Z" id="Shape" fill="#11BAA1"></path>
                    <path d="M56.88,308.75 L55.8,310 C55.42,310.42 55,310.8 54.58,311.18 C53.72,311.96 52.82,312.7 51.9,313.42 C50.4621119,314.519947 48.9520551,315.522198 47.38,316.42 C45.6979578,317.382692 43.9617354,318.247464 42.18,319.01 C41.0950246,319.461102 39.96542,319.796296 38.81,320.01 C38.0289726,320.095002 37.2410274,320.095002 36.46,320.01 C35.2500596,319.815371 34.0516179,319.554985 32.87,319.23 C32.3103157,319.045807 31.7343933,318.91522 31.15,318.84 C30.5636306,318.774783 29.9774412,318.964112 29.54,319.36 C29.3120677,319.590697 29.1557794,319.882435 29.09,320.2 C28.9661648,320.670176 29.0345277,321.170305 29.28,321.59 C29.4564812,321.851418 29.6647412,322.089909 29.9,322.3 C30.17,322.52 30.46,322.72 30.74,322.92 C31.3650243,323.317778 32.0367732,323.636859 32.74,323.87 C33.8151465,324.241336 34.9289249,324.489587 36.06,324.61 C37.2,324.76 38.33,324.92 39.47,324.99 C41.58,325.11 43.7,325.15 45.81,325.21 C47.92,325.27 50.1,325.41 52.24,325.52 C54.78,325.66 57.32,325.74 59.86,325.78 C61.25,325.78 62.65,325.86 64.05,325.78 C64.527019,325.74281 65.0012661,325.676015 65.47,325.58 C65.9408742,325.466358 66.3878173,325.269974 66.79,325 C67.6249637,324.426183 68.2249985,323.570512 68.48,322.59 C68.54,322.29 68.58,321.98 68.62,321.68 C68.6349876,321.450244 68.6349876,321.219756 68.62,320.99 C68.5940784,320.511817 68.5271662,320.03674 68.42,319.57 C68.2421084,318.716338 67.8690387,317.915436 67.33,317.23 C67.1436472,316.923563 66.8864371,316.666353 66.58,316.48 C65.580165,315.896028 64.2963054,316.231532 63.71,317.23 C63.4126085,317.715495 63.3362269,318.304725 63.5,318.85 C63.8084795,319.602079 64.0429212,320.382435 64.2,321.18 C64.2,321.3 64.2,321.42 64.2,321.54 C63.96,321.61 63.71,321.66 63.46,321.71 C61.46,321.94 59.35,321.94 57.3,321.98 C55.25,322.02 52.98,321.93 50.82,321.85 C48.66,321.77 46.75,321.72 44.72,321.7 L44.55,321.7 C45.44,321.29 46.31,320.84 47.19,320.39 C48.6886667,319.631774 50.1381913,318.780094 51.53,317.84 C52.94,316.84 54.29,315.84 55.59,314.74 C56.24,314.2 56.87,313.64 57.48,313.08 C58.09,312.52 58.67,311.81 59.25,311.17 C59.8955652,310.515776 59.8955652,309.464224 59.25,308.81 C58.9276088,308.500086 58.4971896,308.327918 58.05,308.33 C57.6170944,308.32569 57.2013835,308.499204 56.9,308.81 L56.88,308.75 Z" id="Shape" fill="#11BAA1"></path>
                    <path d="M119.12,290 C118.715783,290.415472 118.486661,290.970376 118.48,291.55 C118.42,292.68 118.48,293.81 118.48,294.94 C118.48,295.68 118.6,296.41 118.7,297.14 C118.78959,297.74476 118.919886,298.342785 119.09,298.93 C119.29,299.58 119.53,300.22 119.78,300.86 C120.12,301.74 120.46,302.63 120.78,303.51 C121.484549,305.22418 121.994409,307.012045 122.3,308.84 C122.391565,309.583114 122.408316,310.333541 122.35,311.08 C122.264776,311.577537 122.134232,312.066239 121.96,312.54 C121.859219,312.75844 121.742225,312.969029 121.61,313.17 C121.047172,313.811262 120.42434,314.39726 119.75,314.92 C119.37,315.21 118.97,315.48 118.57,315.75 C118.17,316.02 117.99,316.16 117.68,316.34 C116.92,316.78 116.17,317.23 115.38,317.62 C114.59,318.01 113.87,318.4 113.09,318.74 L110.58,319.86 L107.27,321.19 C106.09,321.66 104.88,322.06 103.66,322.42 L103.82,322.28 C106.037769,320.204657 108.103116,317.97221 110,315.6 C110.34,315.15 110.72,314.71 111,314.24 L112,312.74 C112.25,312.36 112.47,311.96 112.7,311.57 C112.93,311.18 113.15,310.83 113.35,310.45 L114.21,308.77 C114.4,308.4 114.56,308.01 114.72,307.62 C114.98,306.99 115.21,306.36 115.42,305.71 C115.822885,304.409015 116.081112,303.067579 116.19,301.71 C116.242041,301.044349 116.242041,300.375651 116.19,299.71 C116.19,299.38 116.1,299.06 116.05,298.71 C116.012596,298.547443 115.965852,298.387177 115.91,298.23 C115.840895,298.061556 115.738908,297.908575 115.61,297.78 C115.448954,297.623759 115.217847,297.563268 115.000906,297.620573 C114.783965,297.677878 114.612879,297.844609 114.55,298.06 C114.495034,298.228075 114.464718,298.403229 114.46,298.58 C114.46,298.53 114.46,298.49 114.46,298.44 C114.46,298.64 114.46,298.84 114.39,299.05 C114.379594,299.179792 114.379594,299.310208 114.39,299.44 C114.39,299.54 114.39,299.64 114.39,299.74 C114.32,300.22 114.24,300.74 114.16,301.2 C114.121444,301.358281 114.175646,301.524759 114.3,301.63 C114.050608,302.65605 113.716117,303.659525 113.3,304.63 C112.919046,305.536843 112.47461,306.41569 111.97,307.26 C111.65,307.78 111.33,308.31 110.97,308.83 C110.53,309.55 109.97,310.23 109.52,310.92 L108.44,312.27 C108.03,312.78 107.56,313.27 107.13,313.74 C106.7,314.21 106.23,314.66 105.78,315.13 C105.33,315.6 104.96,315.94 104.54,316.34 C102.75,318.02 100.91,319.64 98.98,321.15 C98.45,321.54 97.92,321.91 97.36,322.25 C96.9246836,322.531363 96.4702442,322.781973 96,323 L95.48,323.2 L95.04,323.37 C94.7657682,323.456684 94.4983639,323.563646 94.24,323.69 C93.8982065,323.924738 93.6087841,324.227781 93.39,324.58 C93.0564029,325.158115 93.0088127,325.857983 93.2610784,326.475936 C93.5133442,327.09389 94.0371263,327.560507 94.68,327.74 C95.2255528,327.935685 95.8004206,328.037132 96.38,328.04 C96.8827259,328.07497 97.3872741,328.07497 97.89,328.04 C99.1201228,327.94748 100.342787,327.773768 101.55,327.52 C103.709676,327.053197 105.83469,326.438413 107.91,325.68 C108.77,325.38 109.62,325.04 110.47,324.68 C111.32,324.32 112.01,324.09 112.76,323.76 L115.43,322.62 C116.1,322.33 116.75,322.01 117.43,321.69 C118.11,321.37 118.75,321.03 119.43,320.69 C119.7,320.54 120,320.4 120.26,320.23 L121.47,319.44 C122.366773,318.848252 123.225159,318.200288 124.04,317.5 C124.497,317.111405 124.91865,316.683062 125.3,316.22 C125.570733,315.905167 125.81806,315.57094 126.04,315.22 C126.295335,314.748027 126.512689,314.256474 126.69,313.75 C126.963755,312.982499 127.135229,312.182284 127.2,311.37 C127.285002,310.588973 127.285002,309.801027 127.2,309.02 C127.036474,307.369649 126.701329,305.740844 126.2,304.16 C125.83,302.97 125.35,301.81 124.9,300.65 L124.18,298.81 C123.98,298.29 123.79,297.75 123.62,297.2 C123.43607,296.602169 123.302274,295.990051 123.22,295.37 C123.08,294.12 122.97,292.86 122.94,291.61 C122.937152,290.727713 122.40514,289.933297 121.590394,289.59473 C120.775648,289.256162 119.837301,289.439571 119.21,290.06 L119.12,290 Z" id="Shape" fill="#11BAA1"></path>
                    <path d="M78.23,57 C71,61.12 64,65.7 57.16,70.42 C54.3333333,72.36 51.5266667,74.3333333 48.74,76.34 C47.48,77.24 46.22,78.14 44.94,79.01 C44.29,79.45 43.62,79.88 42.99,80.36 L42.41,80.82 C41.71,79.88 41.06,78.9 40.41,77.93 C40,77.31 39.57,76.69 39.18,76.06 C38.25,74.58 37.33,73.06 36.41,71.61 C35.49,70.16 34.67,68.9 33.77,67.61 C32.87,66.32 31.88,64.63 31,63.12 C30.5872337,62.3987586 29.7798901,61.9980547 28.9558555,62.1054422 C28.1318209,62.2128297 27.4541364,62.8070612 27.24,63.61 C27.1018141,64.1439326 27.1771439,64.7106995 27.45,65.19 C27.85,66.05 28.28,66.88 28.74,67.7 C29.2,68.52 29.74,69.49 30.33,70.37 C30.92,71.25 31.33,71.89 31.85,72.65 C32.37,73.41 32.85,74.26 33.42,75.07 C34.31,76.45 35.2,77.85 36.15,79.2 C36.82,80.2 37.47,81.11 38.15,82.03 C38.8940196,83.1570277 39.8004738,84.1679432 40.84,85.03 C41.4343575,85.512073 42.2329937,85.6589919 42.96,85.42 C43.4322537,85.270986 43.836254,84.9591262 44.1,84.54 C44.1329925,84.4778305 44.1697267,84.4177201 44.21,84.36 C44.707406,83.8026473 45.2565292,83.2937038 45.85,82.84 L48,81.13 L52.15,77.89 C55.15,75.65 58.15,73.41 61.27,71.29 L67.27,67.19 C67.79,66.83 68.33,66.51 68.86,66.19 L72.49,63.85 C74.83,62.35 77.22,60.94 79.64,59.57 C80.3225802,59.1513604 80.5522305,58.2680904 80.16,57.57 C79.9224392,57.1438999 79.4865319,56.8658211 79,56.83 C78.7409558,56.8274777 78.485787,56.892994 78.26,57.02 L78.23,57 Z M42.23,80.58 L42.36,80.75 L42.23,80.58 Z" id="Shape" fill="#11BAA1"></path>
                    <path d="M20.26,67.63 L20,68 C19.8751428,68.1994021 19.7776059,68.4146559 19.71,68.64 C20.1717211,68.4901881 20.6546,68.4158991 21.14,68.42 C21.425376,68.4162665 21.710332,68.4430859 21.99,68.5 C22.0004441,68.4370972 22.0004441,68.3729028 21.99,68.31 C21.9915368,68.044197 21.8871865,67.7887188 21.7,67.6 C21.495031,67.4129948 21.2274581,67.3095333 20.95,67.31 C20.6949486,67.3037517 20.4500088,67.4097704 20.28,67.6 L20.26,67.63 Z" id="Shape" fill="#11BAA1"></path>
                    <path d="M162.56,102 C161.94,102 161.32,102 160.7,102.1 C160.08,102.2 159.2,102.22 158.46,102.34 L156.46,102.65 L155.87,102.78 L154.61,103.07 C153.97,103.21 153.34,103.43 152.71,103.61 C152.34,103.72 151.97,103.88 151.6,104.01 C151.05,104.21 150.51,104.42 149.97,104.65 C149.139548,104.984821 148.371973,105.458216 147.7,106.05 C147.014303,106.66969 146.524285,107.475961 146.29,108.37 C146.241736,108.761531 146.268892,109.158682 146.37,109.54 C146.448644,109.90661 146.613149,110.249329 146.85,110.54 C147.49748,111.173007 148.364543,111.531297 149.27,111.54 C149.446192,111.585384 149.626887,111.484019 149.68,111.31 C149.704445,111.222462 149.692823,111.12878 149.647731,111.049868 C149.602638,110.970956 149.527828,110.913383 149.44,110.89 C148.942133,110.843088 148.451847,110.735628 147.98,110.57 C147.88776,110.526304 147.800575,110.472651 147.72,110.41 C147.587025,110.300325 147.463276,110.179921 147.35,110.05 C147.354581,110.073109 147.354581,110.096891 147.35,110.12 C147.287613,110.037212 147.23082,109.950352 147.18,109.86 C147.110125,109.6655 147.059875,109.4645 147.03,109.26 C147.015203,109.080304 147.015203,108.899696 147.03,108.72 C147.057264,108.577705 147.094013,108.437392 147.14,108.3 C147.270742,108.042125 147.421188,107.794724 147.59,107.56 C147.849575,107.228754 148.14467,106.926952 148.47,106.66 C148.957594,106.323592 149.480746,106.041895 150.03,105.82 C151.216483,105.346733 152.436513,104.96234 153.68,104.67 C154.14,104.55 154.6,104.43 155.07,104.35 L156.69,104.07 L158.61,103.86 C158.86,103.86 159.11,103.86 159.36,103.81 L160.68,103.74 C161.13,103.74 161.59,103.74 162.04,103.74 L162.64,103.74 C164.000701,103.733279 165.360351,103.816795 166.71,103.99 C168.590853,104.260083 170.43134,104.760508 172.19,105.48 C174.46268,106.471338 176.605315,107.73744 178.57,109.25 C180.719042,110.937318 182.656406,112.87804 184.34,115.03 C185.73546,116.883841 186.903786,118.898196 187.82,121.03 C188.440837,122.52211 188.880638,124.083238 189.13,125.68 C189.244998,126.750253 189.244998,127.829747 189.13,128.9 C189.011575,129.504762 188.837501,130.097283 188.61,130.67 C188.019643,131.94118 187.288394,133.142038 186.43,134.25 C185.670544,135.209551 184.845216,136.115072 183.96,136.96 C182.96,137.88 181.96,138.74 180.87,139.56 L181.11,139.38 C179.7,140.46 178.28,141.5 176.79,142.45 C175.3,143.4 173.68,144.34 172.09,145.22 C170.5,146.1 168.84,147.01 167.19,147.85 C165.54,148.69 163.8,149.52 162.1,150.31 C160.77,150.93 159.43,151.5 158.1,152.08 L154.1,153.79 C151.76,154.73 149.426667,155.673333 147.1,156.62 C145.73,157.19 144.37,157.77 143.01,158.36 C141.92,158.85 140.85,159.36 139.79,159.93 C139.57,160.05 139.37,160.21 139.16,160.34 C138.72316,160.60713 138.402103,161.02807 138.26,161.52 C138.080862,162.284805 138.366006,163.083659 138.988936,163.562173 C139.611866,164.040687 140.457228,164.110249 141.15,163.74 C142.274886,163.077603 143.433081,162.473473 144.62,161.93 C145.79,161.37 146.96,160.82 148.15,160.29 C150.61,159.19 153.08,158.12 155.56,157.05 C156.56,156.6 157.63,156.11 158.67,155.64 L162.67,153.81 C164,153.21 165.3,152.54 166.6,151.89 C168.28,151.04 169.95,150.17 171.6,149.24 C174.801511,147.522166 177.888014,145.598113 180.84,143.48 C182.26,142.4 183.68,141.3 185.02,140.12 C186.349689,138.953934 187.559075,137.657445 188.63,136.25 C189.134141,135.608069 189.604769,134.940512 190.04,134.25 C190.532031,133.430944 190.959973,132.575058 191.32,131.69 C191.47,131.32 191.59,130.94 191.71,130.55 C191.825531,130.093508 191.905768,129.628803 191.95,129.16 C192.049992,128.252747 192.049992,127.337253 191.95,126.43 C191.776023,124.58595 191.334737,122.777012 190.64,121.06 C189.974503,119.372216 189.143798,117.75435 188.16,116.23 C186.215148,113.218575 183.789632,110.546454 180.98,108.32 C178.170249,106.028943 174.96377,104.273176 171.52,103.14 C169.12039,102.402411 166.620164,102.044754 164.11,102.08 C163.56,102.08 163,102.08 162.45,102.08 L162.56,102 Z M184.21,114.8 L184.27,114.86 L184.21,114.8 Z M154.01,153.8 L153.95,153.8 L154.03,153.8 L154.01,153.8 Z" id="Shape" fill="#11BAA1"></path>
                    <path d="M102.1,79.69 C101.84721,79.7885742 101.61367,79.9307285 101.41,80.11 C101.243723,80.2565378 101.101934,80.4287092 100.99,80.62 C100.879457,80.7887118 100.782485,80.9659355 100.7,81.15 C100.514855,81.5770382 100.354587,82.0144366 100.22,82.46 C100.08,82.89 99.93,83.31 99.8,83.73 C99.67,84.15 99.51,84.73 99.39,85.21 C99.15,86.21 98.96,87.14 98.81,88.11 C98.75,88.54 98.68,88.96 98.64,89.39 L98.52,90.57 C98.44,91.48 98.34,92.39 98.26,93.29 C98.21,93.74 98.18,94.19 98.15,94.64 L97.94,97.37 C97.94,97.97 97.87,98.56 97.83,99.16 L97.77,100.16 C97.77,100.56 97.77,100.98 97.77,101.38 C97.7734184,101.901486 97.8068067,102.422345 97.87,102.94 C97.94537,103.633723 98.065622,104.321832 98.23,105 C98.32,105.34 98.43,105.67 98.54,106 C98.65,106.33 98.73,106.6 98.85,106.89 L99.47,108.42 C99.86,109.42 100.3,110.42 100.76,111.33 C100.894601,111.5665 101.158876,111.698097 101.428723,111.662995 C101.69857,111.627893 101.920383,111.433065 101.99,111.17 C102.032903,110.994032 102.007908,110.808359 101.92,110.65 C101.74,110.23 101.55,109.81 101.38,109.39 C101.11,108.73 100.84,108.06 100.58,107.39 C100.41,106.95 100.24,106.51 100.08,106.06 C99.92,105.61 99.76,105.06 99.64,104.61 C99.5102565,104.106285 99.4100854,103.595413 99.34,103.08 C99.28,102.63 99.24,102.19 99.21,101.74 C99.18,101.29 99.21,100.74 99.21,100.17 C99.21,99.86 99.21,99.56 99.21,99.25 C99.21,98.64 99.21,98.02 99.29,97.4 L99.46,94.72 C99.46,94.26 99.51,93.79 99.55,93.33 C99.63,92.44 99.7,91.55 99.78,90.66 C99.86,89.77 99.91,89.05 100.02,88.25 C100.185895,87.0822489 100.412873,85.9239939 100.7,84.78 C100.85,84.21 101.01,83.65 101.19,83.1 C101.37,82.55 101.49,82.1 101.68,81.61 C101.768653,81.3977143 101.875729,81.1936011 102,81 C102.073045,80.9069766 102.156977,80.8230446 102.25,80.75 L102.43,80.64 L102.66,80.58 L102.87,80.58 C103.012673,80.6141724 103.15297,80.6575976 103.29,80.71 L103.48,80.81 C103.614837,81.0022203 103.86176,81.0802363 104.08256,81.0003808 C104.303361,80.9205253 104.443256,80.7026113 104.423944,80.4686096 C104.404632,80.234608 104.230905,80.0425769 104,80 C103.797539,79.8905514 103.58691,79.7969385 103.37,79.72 C103.159673,79.6391848 102.935168,79.6017672 102.71,79.61 C102.497983,79.6141704 102.288262,79.6547616 102.09,79.73 L102.1,79.69 Z" id="Shape" fill="#11BAA1"></path>
                    <path d="M103.59,119.88 C103.59,120 103.59,120.13 103.59,120.24 C103.59,120.35 103.59,120.4 103.59,120.48 C103.59,120.56 103.59,120.68 103.59,120.78 C103.59,120.88 103.59,121.27 103.66,121.51 C103.66,122.1 103.78,122.69 103.84,123.28 C103.823973,123.311407 103.823973,123.348593 103.84,123.38 C103.863059,123.412125 103.900464,123.430828 103.94,123.43 C103.981792,123.428351 104.021278,123.410403 104.05,123.38 C104.079831,123.355057 104.097944,123.318831 104.1,123.28 L103.92,121.57 C103.92,121.32 103.92,121.08 103.85,120.83 C103.85,120.73 103.85,120.63 103.85,120.54 C103.85,120.45 103.85,120.36 103.85,120.27 C103.85,120.18 103.85,120.01 103.85,119.88 C103.844712,119.795562 103.774603,119.729835 103.69,119.73 C103.607157,119.73 103.54,119.797157 103.54,119.88 L103.59,119.88 Z" id="Shape" fill="#11BAA1"></path>
                    <path d="M103.53,116.51 C103.160434,116.738791 102.886742,117.094235 102.76,117.51 C102.619936,117.866115 102.512821,118.234323 102.44,118.61 C102.347011,119.154756 102.313481,119.708002 102.34,120.26 C102.390584,121.156626 102.538111,122.045138 102.78,122.91 C102.989502,123.633617 103.239905,124.344761 103.53,125.04 C104.209864,126.543075 105.02312,127.982169 105.96,129.34 C106.77,130.61 107.52,131.9 108.32,133.18 C109.019657,134.300797 109.644356,135.466679 110.19,136.67 C110.42,137.3 110.64,137.93 110.83,138.59 C111.006119,139.248568 111.146326,139.916219 111.25,140.59 C111.33,141.42 111.39,142.25 111.39,143.09 C111.39,143.93 111.33,144.8 111.24,145.65 C110.777678,148.501933 110.027167,151.299595 109,154 C108.49,155.15 108,156.29 107.36,157.39 C106.745636,158.515518 106.05048,159.595015 105.28,160.62 C103.97,162.2 102.46,163.62 101.16,165.2 C99.6536169,167.008091 98.3147709,168.949418 97.16,171 C96.08,173 95.16,175 94.25,177.07 C93.2705427,179.135268 92.4384644,181.26726 91.76,183.45 C91.15,185.53 90.54,187.6 90.06,189.72 C89.5173066,191.988146 89.1825872,194.301057 89.06,196.63 C89,198.77 89,200.89 89,203 C89,204 89,205 89.07,206 C89.07,206.62 89.14,207.23 89.22,207.85 C89.2593645,208.106494 89.3264231,208.357963 89.42,208.6 C89.42,209.2 89.42,209.82 89.36,210.41 C89.3165701,211.340106 89.3332715,212.272047 89.41,213.2 C89.5199512,214.294749 89.7206411,215.378475 90.01,216.44 C90.3380896,217.571095 90.7629932,218.67183 91.28,219.73 C91.69,220.57 92.18,221.38 92.63,222.2 C93.08,223.02 93.55,223.92 93.98,224.79 C94.3711487,225.639045 94.8188207,226.46089 95.32,227.25 C95.97,228.2 96.71,229.08 97.41,229.98 C97.76,230.42 98.1,230.87 98.41,231.32 L98.08,230.9 L98.43,231.35 L98.75,231.76 C98.9924268,232.012866 99.300681,232.192969 99.64,232.28 C100.165493,232.42917 100.729133,232.356909 101.2,232.08 C102.150551,231.504641 102.473526,230.279105 101.93,229.31 C101.31,228.13 100.7,226.95 100.07,225.78 C99.8,225.28 99.49,224.78 99.22,224.31 C98.95,223.84 98.7,223.31 98.46,222.84 C97.94,221.79 97.39,220.75 96.83,219.72 C96.27,218.69 95.73,217.72 95.22,216.72 C94.9944795,216.163465 94.8073743,215.592126 94.66,215.01 C94.48,214.29 94.33,213.58 94.21,212.86 C94.12,211.98 94.12,211.1 94.09,210.22 L94.03,208.82 C93.9998518,208.534126 93.9998518,208.245874 94.03,207.96 C94.03,208.12 94.03,208.27 93.96,208.43 C94.0382004,207.890414 94.061653,207.344304 94.03,206.8 C94.03,206.22 94.01,205.64 93.97,205.06 C93.97,203.85 93.91,202.64 93.97,201.43 C93.97,198.97 94.08,196.52 94.34,194.07 C94.49,193.07 94.66,192.14 94.88,191.18 C95.15,190.01 95.47,188.83 95.79,187.67 C96.3359186,185.517179 97.0036603,183.397098 97.79,181.32 C98.69,179.22 99.63,177.11 100.66,175.07 C101.23,173.93 101.83,172.81 102.51,171.73 C103.19,170.65 103.75,169.87 104.42,168.98 C105.09,168.09 105.76,167.39 106.42,166.64 C107.08,165.89 107.86,165.17 108.5,164.37 C109.308399,163.417613 110.056523,162.415662 110.74,161.37 C111.32,160.43 111.82,159.46 112.31,158.47 C113.350634,156.423561 114.187978,154.27996 114.81,152.07 C115.409804,149.851366 115.847623,147.592085 116.12,145.31 C116.199933,144.398991 116.229978,143.484291 116.21,142.57 C116.21,142.17 116.21,141.78 116.14,141.38 C116.099092,140.7561 116.022298,140.135072 115.91,139.52 C115.740841,138.598455 115.5205,137.687045 115.25,136.79 C114.924165,135.811952 114.526412,134.859351 114.06,133.94 C113.265425,132.430854 112.338454,130.99522 111.29,129.65 C110.17,128.09 109.01,126.58 107.84,125.06 C107.94,125.2 108.05,125.33 108.15,125.46 C107.461583,124.513868 106.856008,123.510152 106.34,122.46 C106.062762,121.793134 105.854997,121.099469 105.72,120.39 C105.695024,120.017084 105.695024,119.642916 105.72,119.27 C105.794833,118.975509 105.884955,118.685115 105.99,118.4 C106.109719,117.97034 106.053666,117.510707 105.834194,117.122412 C105.614723,116.734117 105.249851,116.449034 104.82,116.33 C104.676809,116.289772 104.528734,116.26958 104.38,116.27 C104.078178,116.270335 103.781695,116.349627 103.52,116.5 L103.53,116.51 Z M106.47,122.7 L106.54,122.87 C106.512424,122.815175 106.489024,122.758347 106.47,122.7 Z" id="Shape" fill="#11BAA1"></path>
                    <path d="M120.13,288.82 C119.773959,288.914141 119.46888,289.143848 119.28,289.46 C119.099955,289.793457 119.050068,290.181867 119.14,290.55 C119.48,292.35 119.84,294.13 120.29,295.9 C120.48,296.63 120.65,297.37 120.86,298.1 C121.13,299 121.39,299.91 121.65,300.81 C122.08,302.29 122.54,303.81 123.07,305.22 C123.65,306.82 124.28,308.4 124.92,309.98 C125.56,311.56 126.26,313.33 126.92,314.98 C127.27,315.84 127.61,316.71 127.92,317.58 C128.06,317.98 128.21,318.39 128.36,318.8 C128.43,319 128.51,319.2 128.59,319.41 L128.78,319.84 L129.05,320.2 C129.159573,320.333066 129.279985,320.456823 129.41,320.57 C129.766607,320.909611 130.272864,321.041843 130.75,320.92 C131.33922,320.744352 131.744881,320.204822 131.75,319.59 C131.778235,319.165025 131.730834,318.738412 131.61,318.33 C131.531585,318.071417 131.438091,317.817649 131.33,317.57 C131.14,317.08 130.95,316.57 130.75,316.1 C130.31,315.01 129.86,313.93 129.4,312.85 C128.573333,310.85 127.73,308.87 126.87,306.91 C126.33,305.62 125.87,304.32 125.36,303 C124.85,301.68 124.49,300.38 124.09,299.06 C123.89,298.4 123.66,297.73 123.49,297.06 C123.26,296.21 123.04,295.35 122.82,294.49 C122.42,292.94 122.12,291.36 121.82,289.79 C121.64226,289.180693 121.07436,288.769171 120.44,288.79 C120.321637,288.791135 120.203946,288.807948 120.09,288.84 L120.13,288.82 Z" id="Shape" fill="#11BAA1"></path>
                    <path d="M66.1,302.7 C65.8745168,302.947059 65.7434849,303.265786 65.73,303.6 C65.58,304.95 65.44,306.3 65.35,307.6 C65.26,308.9 65.2,310.51 65.14,311.96 C65.14,312.67 65.14,313.38 65.14,314.08 C65.1363846,315.439772 65.2434043,316.797584 65.46,318.14 C65.529677,318.534097 65.6507078,318.917361 65.82,319.28 C65.9596188,319.514463 66.1555369,319.710381 66.39,319.85 C66.615648,319.986256 66.8766955,320.052388 67.14,320.04 C67.4040621,320.036788 67.6626645,319.964379 67.89,319.83 C67.89,320.1 67.97,320.37 68.02,320.63 C68.0865535,320.891637 68.2560659,321.115249 68.49,321.25 C68.7355075,321.390354 69.0259535,321.429797 69.3,321.36 C69.5604219,321.285128 69.7822821,321.113365 69.92,320.88 C70.052422,320.635292 70.0881116,320.349775 70.02,320.08 C69.8,318.7 69.61,317.31 69.41,315.92 L69.17,313.54 C69.1,312.84 69.06,312.14 69.01,311.44 C68.96,310.74 69,310 68.92,309.2 C68.92,308.83 68.92,308.45 68.92,308.08 C68.92,307.71 68.92,307.13 68.86,306.66 C68.8459765,306.350463 68.7218535,306.056114 68.51,305.83 C68.4313195,305.749272 68.3401525,305.681741 68.24,305.63 L68.3,303.63 C68.3054565,303.283575 68.1702456,302.949735 67.9252554,302.704745 C67.6802653,302.459754 67.3464254,302.324543 67,302.33 C66.6636215,302.333204 66.3413665,302.465686 66.1,302.7 Z" id="Shape" fill="#11BAA1"></path>
                    <path d="M56.77,211.36 C56.4735161,211.45029 56.2680792,211.720178 56.26,212.03 C56.26,212.92 56.26,213.82 56.2,214.71 C56.2001285,214.924518 56.309404,215.124228 56.49,215.24 L56.58,216.44 C56.68,217.71 56.8,218.98 56.91,220.25 C57.13,222.92 57.32,225.59 57.45,228.25 C57.58,230.91 57.69,233.46 57.71,236.07 C57.73,238.68 57.71,241.34 57.71,243.98 C57.71,246.62 57.71,249.26 57.85,251.9 C57.99,254.54 58.17,257.35 58.37,260.08 C58.57,262.81 58.76,265.47 58.92,268.17 C59.06,270.69 59.05,273.22 59.13,275.74 C59.29,281.03 59.5,286.32 59.84,291.6 C59.96,293.4 60.07,295.21 60.18,297.01 C60.29,298.81 60.43,300.73 60.65,302.58 L60.71,303 C60.781161,303.257921 60.9191421,303.492489 61.11,303.68 C61.403102,303.976339 61.8032012,304.142146 62.22,304.14 C63.0770585,304.129218 63.7692181,303.437058 63.78,302.58 C63.78,301.82 63.78,301.06 63.78,300.29 C63.78,299.52 63.78,299.02 63.71,298.38 C63.65,297.05 63.59,295.72 63.52,294.38 C63.4,291.77 63.24,289.15 63.11,286.53 C62.98,283.91 62.89,281.32 62.79,278.72 C62.69,276.12 62.64,273.36 62.54,270.72 C62.44,268.08 62.2,265.5 61.98,262.9 C61.74,260.14 61.49,257.39 61.25,254.63 C60.79,249.35 60.72,244.05 60.57,238.76 C60.42,233.47 60,228.24 59.4,223 C59.18,221.13 58.91,219.27 58.64,217.41 C58.53,216.62 58.42,215.82 58.29,215.03 C58.23,214.6 58.16,214.17 58.09,213.74 C58.04,213.46 58,213.18 57.95,212.9 L57.89,212.6 C57.89,212.47 57.89,212.34 57.82,212.22 C57.7705156,212.021292 57.6821472,211.834359 57.56,211.67 C57.4293358,211.462167 57.2052286,211.331437 56.96,211.32 L56.77,211.32 L56.77,211.36 Z" id="Shape" fill="#11BAA1"></path>
                    <path d="M92,20.09 C91.2450106,19.8159109 90.3998837,19.9942404 89.82,20.55 C87.9224868,22.2411604 86.1448663,24.0622191 84.5,26 C83.5121829,27.150731 82.6723185,28.4206059 82,29.78 C81.6784923,30.4555933 81.4077436,31.1541919 81.19,31.87 C80.9960747,32.5667959 80.8655434,33.2796976 80.8,34 C80.6949999,34.783163 80.6949999,35.576837 80.8,36.36 C80.8990249,37.2208802 81.1004496,38.0668639 81.4,38.88 C81.692302,39.6987751 82.1143554,40.4652241 82.65,41.15 C83.5565608,42.2979827 84.7968813,43.1365093 86.2,43.55 C86.9289559,43.7781604 87.6863672,43.9027125 88.45,43.92 C89.2559697,43.9417132 90.0608738,43.8474148 90.84,43.64 C91.6606113,43.4287647 92.4529334,43.1198934 93.2,42.72 C93.9625199,42.3266451 94.6772243,41.8468201 95.33,41.29 C95.9284554,40.8093352 96.486952,40.2809372 97,39.71 C97.5453521,39.0657705 98.0401556,38.3804009 98.48,37.66 C98.9202317,36.8761903 99.3012922,36.0605873 99.62,35.22 C100.187204,33.8041911 100.573586,32.3225002 100.77,30.81 C100.904901,29.9367128 100.965119,29.0535159 100.95,28.17 C100.915055,27.293669 100.794481,26.4228567 100.59,25.57 C100.214513,23.9997597 99.423544,22.559437 98.3,21.4 C97.7628799,20.8659817 97.1655431,20.3961662 96.52,20 C95.9028895,19.6118973 95.2277033,19.3249432 94.52,19.15 C94.321806,19.0698707 94.1129035,19.0193297 93.9,19 C93.1184902,19.001832 92.3960582,19.4162799 92,20.09 Z M92.71,23.44 C92.7908427,23.3672226 92.8645138,23.2868542 92.93,23.2 C93.2788439,23.361396 93.6133754,23.5520789 93.93,23.77 C94.3821933,24.1456715 94.8035429,24.556989 95.19,25 C95.3889428,25.2882198 95.5693086,25.5888294 95.73,25.9 C95.9348224,26.4644225 96.0855008,27.0470456 96.18,27.64 C96.2549697,28.4248805 96.2549697,29.2151195 96.18,30 C95.9633331,31.4350514 95.5945909,32.8429763 95.08,34.2 C94.7198958,35.0026434 94.284621,35.7693967 93.78,36.49 C93.279978,37.1066249 92.7206288,37.6726729 92.11,38.18 C91.590351,38.5610175 91.0382278,38.8956376 90.46,39.18 C90.0328804,39.3401459 89.5951623,39.4704589 89.15,39.57 C88.7937717,39.5950067 88.4362283,39.5950067 88.08,39.57 C87.7414062,39.5007565 87.407432,39.4105834 87.08,39.3 C86.8423477,39.1766426 86.6119691,39.0397509 86.39,38.89 C86.2358692,38.7474844 86.0890164,38.597294 85.95,38.44 C85.78,38.17 85.63,37.9 85.49,37.62 C85.3150286,37.0896761 85.1747325,36.548534 85.07,36 C85.0031658,35.3350084 85.0031658,34.6649916 85.07,34 C85.2040906,33.2698086 85.4049334,32.5534692 85.67,31.86 C86.1445153,30.848497 86.7243893,29.8898613 87.4,29 C89.0332068,27.0268097 90.8114847,25.1783366 92.72,23.47 L92.71,23.44 Z" id="Shape" fill="#11BAA1"></path>
                    <path d="M75.67,61.85 C75.27,62.49 74.84,63.11 74.4,63.71 C73.09,65.27 71.67,66.71 70.3,68.23 C69.54,69.07 68.84,69.95 68.15,70.85 C67.5450696,71.6332418 67.0128636,72.4700438 66.56,73.35 C65.9483432,74.5070962 65.4750838,75.7322003 65.15,77 C66.1929626,77.3560046 67.0800829,78.0628733 67.66,79 C68.2902916,80.0747452 68.4597766,81.3585043 68.13,82.56 C67.9171226,83.3178696 67.5104268,84.0071846 66.95,84.56 C67.3746945,85.1220719 67.7589919,85.7135556 68.1,86.33 C68.1292486,86.373467 68.1527756,86.4205209 68.17,86.47 C68.3559557,87.0304531 68.4931326,87.605927 68.58,88.19 C68.7199989,89.8787451 68.6898472,91.5772877 68.49,93.26 C68.37,94.53 68.22,95.8 68.06,97.06 C66.95,104.63 65.52,112.16 64.65,119.76 C64.6193644,120.612028 65.1780567,121.373505 66,121.6 C66.9827865,121.868381 67.9976009,121.29168 68.27,120.31 C69.13,116.12 69.87,111.91 70.65,107.71 C71.48,103.19 72.3,98.71 72.65,94.08 C72.958428,91.7950022 72.931477,89.4772082 72.57,87.2 C72.4675352,86.6175187 72.3135985,86.0452757 72.11,85.49 C71.8669509,84.8899087 71.5619672,84.3168074 71.2,83.78 C70.79,83.18 70.31,82.63 69.86,82.07 C69.5340724,81.6301473 69.2431788,81.1653861 68.99,80.68 C68.8934881,80.3922153 68.8166444,80.0982046 68.76,79.8 C68.7321738,79.4672474 68.7321738,79.1327526 68.76,78.8 C68.9223321,77.9483686 69.1668079,77.1144716 69.49,76.31 C69.8106901,75.5868629 70.1781344,74.8853785 70.59,74.21 C70.96,73.59 71.39,73.01 71.82,72.43 C73,71 74.15,69.77 75.3,68.49 C76.6355687,67.0162995 77.8463994,65.434192 78.92,63.76 C79.4385868,62.8613211 79.140327,61.7127982 78.25,61.18 C77.9694677,61.0102448 77.6478949,60.9203427 77.32,60.92 C76.6487688,60.9334128 76.0290464,61.2827109 75.67,61.85 Z" id="Shape" fill="#11BAA1"></path>
                    <path d="M20.64,63.44 C19.7813844,63.9551382 19.4962002,65.0646827 20,65.93 C20.2525343,66.3301177 20.6387441,66.6277472 21.09,66.77 C21.91,67.11 22.74,67.45 23.59,67.77 L24.73,68.15 L25.34,68.33 C25.4923878,68.3852012 25.6498012,68.4253918 25.81,68.45 L26.22,68.51 C26.4779203,69.4868743 26.8717672,70.4226816 27.39,71.29 C27.89,72.21 28.5,73.08 29.08,73.96 C29.66,74.84 30.24,75.71 30.78,76.6 C31.32,77.49 31.78,78.43 32.29,79.37 C33.29,81.37 34.29,83.31 35.29,85.27 C35.78,86.22 36.29,87.15 36.85,88.05 C37.5740477,89.1086753 38.4161229,90.0815908 39.36,90.95 C40.2095324,91.7117871 41.4835295,91.7532239 42.3807683,91.0482506 C43.2780071,90.3432772 43.5391656,89.0956467 43,88.09 C42.6641421,87.5624391 42.2933114,87.0579758 41.89,86.58 C41.69,86.34 41.47,86.12 41.27,85.88 C40.3557318,84.5046659 39.5435537,83.064136 38.84,81.57 C38.02,79.97 37.22,78.36 36.39,76.76 C35.6122319,75.2542897 34.7474345,73.7951528 33.8,72.39 C32.7261357,70.925458 31.7602525,69.3847239 30.91,67.78 C30.91,67.71 30.86,67.65 30.84,67.58 C30.9071039,67.4595825 30.9607599,67.3321496 31,67.2 C31.1591504,66.5906164 31.0691963,65.9429465 30.75,65.4 C30.12,64.33 28.95,64.22 27.85,64.12 C26.7929105,63.8778631 25.6897039,63.929738 24.66,64.27 C23.77,63.98 22.89,63.62 22.02,63.27 C21.8794542,63.2166702 21.730323,63.1895555 21.58,63.19 C21.2296472,63.1875803 20.8848058,63.2772391 20.58,63.45 L20.64,63.44 Z M30.74,67.85 L30.74,67.92 C30.7344794,67.8969932 30.7344794,67.8730068 30.74,67.85 Z" id="Shape" fill="#11BAA1"></path>
                    <path d="M67.49,82.33 C65.49,82.71 63.49,83.06 61.49,83.33 C59.49,83.6 57.64,83.94 55.73,84.33 C53.82,84.72 51.73,85.09 49.79,85.51 C46.93,86.12 44.07,86.73 41.22,87.38 C40.1319991,87.6809952 39.494005,88.8069991 39.7950001,89.895 C40.0959953,90.9830009 41.2219991,91.6209951 42.31,91.32 C44.22,90.88 46.13,90.47 48.05,90.06 C49.35,89.78 50.65,89.48 51.96,89.23 L56.96,88.3 C58.2,88.07 59.45,87.9 60.69,87.7 L64.27,87.25 C65.75,87.06 67.27,86.88 68.69,86.58 C69.519061,86.3246988 70.1234693,85.6098835 70.2374144,84.7499199 C70.3513596,83.8899563 69.9539653,83.0424022 69.22,82.58 C68.8903114,82.384786 68.5131084,82.2844292 68.13,82.29 C67.9216133,82.2941103 67.7140573,82.317544 67.51,82.36 L67.49,82.33 Z" id="Shape" fill="#11BAA1"></path>
                </g>
            </g>
        </g>
    </g>
</svg>