<?xml version="1.0" encoding="UTF-8"?>
<svg width="260px" height="54px" viewBox="0 0 260 54" version="1.1" xmlns="http://www.w3.org/2000/svg" xmlns:xlink="http://www.w3.org/1999/xlink">
    <!-- Generator: Sketch 52.2 (67145) - http://www.bohemiancoding.com/sketch -->
    <title>logo-performance</title>
    <desc>Created with Sketch.</desc>
    <g id="website-2.1" stroke="none" stroke-width="1" fill="none" fill-rule="evenodd">
        <g id="nutr-perf-vs-mieux" transform="translate(-625.000000, -109.000000)">
            <g id="logo-performance" transform="translate(625.000000, 109.000000)">
                <text id="PERFORMANCE" font-family="Roboto-Bold, Roboto" font-size="32" font-weight="bold" letter-spacing="3" fill="#11BAA1">
                    <tspan x="0" y="53">PERFORMANC</tspan>
                    <tspan x="242.484375" y="53">E</tspan>
                </text>
                <g id="logo-blanc" fill-rule="nonzero">
                    <path d="M10.5301205,10.4489286 L10.5301228,16.5203571 L5.98192771,16.5203571 L5.94578313,15.9132143 C5.93187864,15.6140185 6.05921392,15.3258259 6.28915663,15.1360714 C7.02064353,14.4731378 7.45516634,13.5403322 7.4939759,12.5496429 C7.4939759,9.89035714 6.4939759,8.05071429 5.25903614,8.05071429 C4.02409639,8.05071429 3.01204819,9.95107143 3.01204819,12.5435714 C3.05448029,13.5316245 3.48851602,14.4611973 4.21686747,15.1239286 C4.44361128,15.3199584 4.56437212,15.6129631 4.54216867,15.9132143 L4.5060241,16.5203571 L0,16.5203571 L0,5.50678571 L3.24096386,5.50678571 L3.24096386,7.00035714 L3.28313253,7.00035714 C3.40706265,6.77914415 3.55893129,6.57506162 3.73493976,6.39321429 C3.94094667,6.17173635 4.17606004,5.97971647 4.43373494,5.8225 C4.72283848,5.64851761 5.03249466,5.5118511 5.35542169,5.41571429 C5.72138941,5.30854211 6.10083222,5.25537084 6.48192771,5.25785714 C7.1933749,5.23029787 7.90179801,5.36520864 8.55421687,5.6525 C9.05034473,5.90018679 9.46771727,6.28298002 9.75903614,6.7575 C10.0692763,7.26091196 10.274266,7.82286478 10.3614458,8.40892857 C10.4741189,9.08298519 10.5305412,9.76537342 10.5301205,10.4489286 Z" id="Shape" fill="#FFFFFF"></path>
                    <path d="M7.48795181,12.5435714 C7.44914224,13.5342608 7.01461943,14.4670664 6.28313253,15.13 C6.05318982,15.3197544 5.92585454,15.607947 5.93975904,15.9071429 L5.97590361,16.5142857 L4.4939759,16.5142857 L4.53012048,15.9071429 C4.55334557,15.6110072 4.43737258,15.3210445 4.21686747,15.1239286 C3.48851602,14.4611973 3.05448029,13.5316245 3.01204819,12.5435714 C3.01204819,9.95107143 4.01204819,8.04464286 5.24096386,8.04464286 C6.46987952,8.04464286 7.48795181,9.88428571 7.48795181,12.5435714 Z" id="Shape" fill="#F7CE5B"></path>
                    <path d="M23.5301205,16.4657143 L20.2891566,16.4657143 L20.2891566,14.9721429 L20.2409639,14.9721429 C20.1090027,15.189528 19.9556154,15.3929391 19.7831325,15.5792857 C19.5828593,15.8020511 19.3515259,15.9942984 19.0963855,16.15 C18.8060052,16.3214706 18.4966602,16.4579997 18.1746988,16.5567857 C17.8086431,16.6635424 17.4292604,16.7167052 17.0481928,16.7146429 C16.3329575,16.740714 15.6209398,16.6059025 14.9638554,16.32 C14.4564666,16.0773028 14.0281232,15.6940295 13.7289157,15.215 C13.4160129,14.712902 13.2108128,14.1503725 13.126506,13.5635714 C13.0246257,12.8802998 12.9742806,12.1902277 12.9759036,11.4992857 L12.9758656,5.46428571 L16.3554217,5.46428571 L16.3554217,10.8617857 C16.3554217,11.1775 16.3554217,11.5053571 16.3855422,11.8453571 C16.4140304,12.1565282 16.4891823,12.4615445 16.6084337,12.75 C16.8284508,13.391106 17.4568359,13.7957287 18.126506,13.7275 C18.4943711,13.7432277 18.8599095,13.6615913 19.186747,13.4907143 C19.4422512,13.3385391 19.6508035,13.1178386 19.7891566,12.8532143 C19.9350126,12.5731821 20.0289214,12.2686668 20.0662651,11.9546429 C20.1187574,11.6151002 20.1469426,11.2721911 20.1506024,10.9285714 L20.1506024,5.46428571 L23.5301205,5.46428571 L23.5301205,16.4657143 Z" id="Shape" fill="#FFFFFF"></path>
                    <path d="M33.3614458,8.16607143 L30.3915663,8.16607143 L30.3915663,11.8392857 C30.3909761,12.1152548 30.4070701,12.3910038 30.439759,12.665 C30.4621109,12.892796 30.529718,13.1137292 30.6385542,13.3146429 C30.7518721,13.5038815 30.9231151,13.6509014 31.126506,13.7335714 C31.4007866,13.8408564 31.6939474,13.8904448 31.9879518,13.8792857 C32.2257621,13.8752305 32.4631255,13.8569842 32.6987952,13.8246429 C32.9407185,13.8068335 33.1716745,13.7158413 33.3614458,13.5635714 L33.3614458,16.3928571 C32.9831154,16.527221 32.5911581,16.6188533 32.1927711,16.6660714 C31.7926028,16.7095898 31.3904418,16.7318824 30.9879518,16.7328571 C30.4583988,16.7379011 29.9302699,16.6767197 29.4156627,16.5507143 C28.9614878,16.4410811 28.5321637,16.2453371 28.1506024,15.9739286 C27.7903686,15.7041355 27.5008756,15.3498461 27.3072289,14.9417857 C27.0953648,14.4563682 26.9925127,13.9297742 27.0060241,13.3996429 L27.0060241,8.16607143 L24.8554217,8.16607143 L24.8554217,5.46428571 L27.0180723,5.46428571 L27.0180723,2.17964286 L30.3915663,2.17964286 L30.3915663,5.46428571 L33.3614458,5.46428571 L33.3614458,8.16607143 Z" id="Shape" fill="#FFFFFF"></path>
                    <path d="M35.0722892,5.46428571 L38.4518072,5.46428571 L38.4518072,7.23107143 L38.4939759,7.23107143 C38.7854686,6.61963857 39.2195222,6.08843237 39.7590361,5.68285714 C40.3156398,5.32554222 40.9670572,5.14764222 41.626506,5.17285714 C41.8192771,5.17285714 42.0180723,5.17285714 42.2289157,5.17285714 C42.4117248,5.18886804 42.5930046,5.21931873 42.7710843,5.26392857 L42.7710843,8.3725 C42.5383228,8.29933191 42.3008047,8.24252884 42.060241,8.2025 C41.8190399,8.1652868 41.5753347,8.14701754 41.3313253,8.14785714 C40.8075725,8.1246652 40.2851741,8.21794327 39.8012048,8.42107143 C39.4448277,8.58341484 39.1433069,8.84720815 38.9337349,9.18 C38.7195501,9.54042315 38.5897525,9.94533448 38.5542169,10.3639286 C38.4913296,10.8612555 38.4611432,11.3622295 38.4638554,11.8635714 L38.4638554,16.4657143 L35.0722892,16.4657143 L35.0722892,5.46428571 Z" id="Shape" fill="#FFFFFF"></path>
                    <path d="M44.0060241,1.97321429 C44.0053713,1.45853902 44.2118758,0.965606655 44.5783133,0.607142857 C44.9455707,0.236386098 45.4440442,0.0280454468 45.9638554,0.0280454468 C46.4836666,0.0280454468 46.9821402,0.236386098 47.3493976,0.607142857 C47.7351589,0.967207648 47.9536404,1.47366324 47.9518072,2.00357143 C47.9536404,2.53347962 47.7351589,3.03993521 47.3493976,3.4 C46.5852457,4.16808436 45.3484893,4.16808436 44.5843373,3.4 C44.2002723,3.02807324 43.9901966,2.50978496 44.0060241,1.97321429 Z M44.2771084,5.46428571 L47.6566265,5.46428571 L47.6566265,16.4657143 L44.2771084,16.4657143 L44.2771084,5.46428571 Z" id="Shape" fill="#FFFFFF"></path>
                    <path d="M57.5361446,8.16607143 L54.560241,8.16607143 L54.560241,11.8392857 C54.5596508,12.1152548 54.5757448,12.3910038 54.6084337,12.665 C54.631738,12.8942679 54.7036415,13.1158141 54.8192771,13.3146429 C54.9303674,13.503454 55.099583,13.6505491 55.3012048,13.7335714 C55.5774528,13.8413429 55.8726786,13.8909338 56.1686747,13.8792857 C56.4044831,13.8752046 56.6398404,13.8569579 56.873494,13.8246429 C57.1175107,13.8080382 57.350735,13.7169802 57.5421687,13.5635714 L57.5421687,16.3928571 C57.1520973,16.529525 56.7479099,16.6211817 56.3373494,16.6660714 C55.9371811,16.7095898 55.5350201,16.7318824 55.1325301,16.7328571 C54.6029966,16.7375279 54.0749133,16.6763517 53.560241,16.5507143 C53.1076384,16.4419206 52.6801354,16.2460742 52.3012048,15.9739286 C51.9378148,15.7074963 51.6476,15.3523238 51.4578313,14.9417857 C51.2604274,14.4553177 51.1739618,13.9303733 51.2048193,13.4057143 L51.2048193,8.16607143 L49.0240964,8.16607143 L49.0240964,5.46428571 L51.2048193,5.46428571 L51.2048193,2.17964286 L54.5783133,2.17964286 L54.5783133,5.46428571 L57.5542169,5.46428571 L57.5361446,8.16607143 Z" id="Shape" fill="#FFFFFF"></path>
                    <path d="M59.0361446,1.97321429 C59.037228,1.44391636 59.2552249,0.938583938 59.6385542,0.576785714 C60.4047698,-0.191999091 61.643423,-0.191999091 62.4096386,0.576785714 C62.7929679,0.938583938 63.0109648,1.44391636 63.0120482,1.97321429 C63.0109648,2.50251221 62.7929679,3.00784463 62.4096386,3.36964286 C61.643423,4.13842766 60.4047698,4.13842766 59.6385542,3.36964286 C59.2552249,3.00784463 59.037228,2.50251221 59.0361446,1.97321429 Z M59.2891566,5.46428571 L62.6506024,5.46428571 L62.6506024,16.4657143 L59.2771084,16.4657143 L59.2891566,5.46428571 Z" id="Shape" fill="#FFFFFF"></path>
                    <path d="M64.6927711,10.9285714 C64.6812644,10.1107324 64.8413899,9.29967626 65.1626506,8.54857143 C65.465649,7.8582053 65.9065434,7.23817003 66.4578313,6.72714286 C67.0203404,6.21454758 67.6773879,5.81845936 68.3915663,5.56142857 C69.9281408,5.01905841 71.6019797,5.01905841 73.1385542,5.56142857 C73.855208,5.81701727 74.5144955,6.21322158 75.0783133,6.72714286 C75.6258941,7.24011258 76.0644671,7.85976527 76.3674699,8.54857143 C76.6936349,9.29832204 76.8559415,10.1100194 76.8433735,10.9285714 C76.8564309,11.7491292 76.6941219,12.5629093 76.3674699,13.3146429 C76.0669989,14.0049016 75.628081,14.6250417 75.0783133,15.1360714 C74.516381,15.6540121 73.8566684,16.0525368 73.1385542,16.3078571 C71.6019797,16.8502273 69.9281408,16.8502273 68.3915663,16.3078571 C67.6793512,16.0637527 67.0221368,15.6799448 66.4578313,15.1785714 C65.9046983,14.6691929 65.463507,14.0487402 65.1626506,13.3571429 C64.8348349,12.5910095 64.6745751,11.7627072 64.6927711,10.9285714 Z M68.0662651,10.9285714 C68.0326772,11.6701209 68.287741,12.3955752 68.7771084,12.9503571 C69.908917,13.977165 71.6272276,13.977165 72.7590361,12.9503571 C73.2549105,12.3979984 73.518433,11.6730599 73.4939759,10.9285714 C73.5263536,10.1901102 73.2737539,9.46769992 72.7891566,8.91285714 C71.6573481,7.88604925 69.9390374,7.88604925 68.8072289,8.91285714 C68.3094925,9.46165241 68.0455606,10.1855368 68.0722892,10.9285714 L68.0662651,10.9285714 Z" id="Shape" fill="#FFFFFF"></path>
                    <path d="M78.8253012,5.46428571 L82.0662651,5.46428571 L82.0662651,6.95785714 L82.1084337,6.95785714 C82.227036,6.73318348 82.3794444,6.5283757 82.560241,6.35071429 C82.7662479,6.12923635 83.0013612,5.93721647 83.2590361,5.78 C83.5470228,5.60384123 83.8569664,5.46704787 84.1807229,5.37321429 C84.5446292,5.26603526 84.9220866,5.21285784 85.3012048,5.21535714 C86.0126986,5.18716413 86.7212612,5.32210146 87.373494,5.61 C87.8663631,5.85968712 88.2827662,6.23949284 88.5783133,6.70892857 C88.8834905,7.21700983 89.0880661,7.77988935 89.1807229,8.36642857 C89.2877138,9.04918421 89.3400912,9.73950139 89.3373494,10.4307143 L89.3374517,16.5021429 L85.9638554,16.5021429 L85.9638554,11.0682143 C85.9638554,10.7525 85.9518072,10.4246429 85.9277108,10.0846429 C85.9086726,9.76208949 85.8395598,9.44454091 85.7228916,9.14357143 C85.620534,8.8637326 85.4407453,8.61932156 85.2048193,8.43928571 C84.9108954,8.23869456 84.5590209,8.14255742 84.2048193,8.16607143 C83.8388242,8.14969385 83.4750629,8.2313976 83.1506024,8.40285714 C82.8938797,8.55348257 82.6849506,8.77458175 82.5481928,9.04035714 C82.4011826,9.3182134 82.3052605,9.62058245 82.2650602,9.93285714 C82.2210226,10.279184 82.1988895,10.6279836 82.1987952,10.9771429 L82.1987952,16.4414286 L78.8253012,16.4414286 L78.8253012,5.46428571 Z" id="Shape" fill="#FFFFFF"></path>
                    <path d="M91.7409639,5.46428571 L95.1144578,5.46428571 L95.1144578,7.23107143 L95.1807229,7.23107143 C95.4760516,6.62180249 95.9169746,6.09604839 96.4638554,5.70107143 C97.0201453,5.34304096 97.6717889,5.16507918 98.3313253,5.19107143 L98.9337349,5.19107143 C99.1164894,5.20751535 99.2977362,5.2379605 99.4759036,5.28214286 L99.4759036,8.39071429 C99.2429561,8.31823182 99.0054845,8.2614399 98.7650602,8.22071429 C98.5218232,8.18362138 98.2761251,8.1653537 98.0301205,8.16607143 C97.5064585,8.14425769 96.9843538,8.23748335 96.5,8.43928571 C96.1452626,8.60171251 95.8457046,8.86562133 95.6385542,9.19821429 C95.4233406,9.55295097 95.2876449,9.95080361 95.2409639,10.3639286 C95.1780765,10.8612555 95.1478902,11.3622295 95.1506024,11.8635714 L95.1506024,16.4657143 L91.7771084,16.4657143 L91.7409639,5.46428571 Z" id="Shape" fill="#FFFFFF"></path>
                    <path d="M3.87349398,12.9625 L3.87349398,13.0110714 C3.87349398,13.0414286 3.87349398,13.0960714 3.92168675,13.1507143 C3.97893101,13.2994691 4.05813741,13.4386576 4.15662651,13.5635714 C4.21838479,13.6423612 4.28692393,13.7155023 4.36144578,13.7821429 C4.44164564,13.8530536 4.52838525,13.9160781 4.62048193,13.9703571 C4.71467423,14.0264428 4.81600717,14.069337 4.92168675,14.0978571 C4.97223544,14.1163607 5.02483114,14.1285935 5.07831325,14.1342857 L5.24096386,14.1342857 C5.3031611,14.1379037 5.3655136,14.1379037 5.42771084,14.1342857 L5.57831325,14.0978571 C5.6831547,14.066914 5.78419585,14.0241432 5.87951807,13.9703571 C5.97064677,13.9145924 6.05726163,13.8516585 6.13855422,13.7821429 C6.21153074,13.7139133 6.27995297,13.640897 6.34337349,13.5635714 C6.44113739,13.4359545 6.52025454,13.2948782 6.57831325,13.1446429 C6.57831325,13.09 6.61445783,13.0414286 6.62048193,13.0110714 L6.62048193,12.9625 L6.62048193,13.0110714 C6.62528303,13.061551 6.62528303,13.1123776 6.62048193,13.1628571 C6.62882784,13.243591 6.62882784,13.3249804 6.62048193,13.4057143 C6.60258366,13.5082412 6.57223511,13.6081588 6.53012048,13.7032143 C6.42932931,13.943799 6.26722708,14.1532553 6.06024096,14.3103571 C5.9430531,14.4018689 5.81314926,14.475514 5.6746988,14.5289286 C5.6004335,14.556299 5.52379605,14.5766253 5.44578313,14.5896429 C5.37559889,14.5949026 5.30512401,14.5949026 5.23493976,14.5896429 L5.13855422,14.5896429 L5.02409639,14.5896429 C4.95537101,14.5910434 4.88669731,14.5849363 4.81927711,14.5714286 C4.67956869,14.5207498 4.54925625,14.4468731 4.43373494,14.3528571 C4.32408985,14.2677273 4.22676608,14.1675953 4.14457831,14.0553571 C4.07074389,13.954265 4.01001233,13.8440893 3.96385542,13.7275 C3.92174079,13.6324445 3.89139225,13.5325269 3.87349398,13.43 C3.86859178,13.349123 3.86859178,13.2680199 3.87349398,13.1871429 C3.86869287,13.1366633 3.86869287,13.0858367 3.87349398,13.0353571 L3.87349398,12.9625 Z" id="Shape" fill="#F6921E"></path>
                </g>
            </g>
        </g>
    </g>
</svg>