<?xml version="1.0" encoding="UTF-8"?>
<svg width="18px" height="20px" viewBox="0 0 18 20" version="1.1" xmlns="http://www.w3.org/2000/svg" xmlns:xlink="http://www.w3.org/1999/xlink">
    <!-- Generator: Sketch 52.2 (67145) - http://www.bohemiancoding.com/sketch -->
    <title>logomark</title>
    <desc>Created with Sketch.</desc>
    <g id="assets" stroke="none" stroke-width="1" fill="none" fill-rule="evenodd">
        <g id="logomark" fill-rule="nonzero">
            <path d="M17.48,9.21 L17.4800039,19.21 L9.93,19.21 L9.87,18.21 C9.84691854,17.7172069 10.0582951,17.2425367 10.44,16.93 C11.6542683,15.8381094 12.3755761,14.3017236 12.44,12.67 C12.44,8.29 10.78,5.26 8.73,5.26 C6.68,5.26 5,8.39 5,12.66 C5.07043728,14.2873815 5.79093659,15.8184425 7,16.91 C7.37639472,17.2328726 7.57685771,17.7154687 7.54,18.21 L7.48,19.21 L0,19.21 L0,1.07 L5.38,1.07 L5.38,3.53 L5.45,3.53 C5.65572399,3.1656492 5.90782595,2.82951326 6.2,2.53 C6.54197147,2.1652128 6.93225967,1.84894478 7.36,1.59 C7.83991187,1.30344077 8.35394114,1.07834298 8.89,0.92 C9.49750642,0.743481127 10.1273815,0.655904916 10.76,0.66 C11.9410023,0.61460826 13.1169847,0.836814229 14.2,1.31 C15.0235723,1.71795472 15.7164107,2.34843768 16.2,3.13 C16.7149987,3.9591491 17.0552815,4.88471845 17.2,5.85 C17.3870373,6.9602109 17.4806984,8.08414446 17.48,9.21 Z" id="Shape" fill="#11BAA1"></path>
            <path d="M12.43,12.66 C12.3655761,14.2917236 11.6442683,15.8281094 10.43,16.92 C10.0482951,17.2325367 9.83691854,17.7072069 9.86,18.2 L9.92,19.2 L7.46,19.2 L7.52,18.2 C7.55855364,17.7122471 7.36603848,17.2346615 7,16.91 C5.79093659,15.8184425 5.07043728,14.2873815 5,12.66 C5,8.39 6.66,5.25 8.7,5.25 C10.74,5.25 12.43,8.28 12.43,12.66 Z" id="Shape" fill="#F7CE5B"></path>
            <path d="M6.43,13.35 L6.43,13.43 C6.43,13.48 6.43,13.57 6.51,13.66 C6.60502548,13.9050079 6.73650811,14.1342596 6.9,14.34 C7.00251874,14.4697714 7.11629372,14.590239 7.24,14.7 C7.37313176,14.8167941 7.51711951,14.9205993 7.67,15.01 C7.82635922,15.1023764 7.9945719,15.1730257 8.17,15.22 C8.25391082,15.2504765 8.34121969,15.2706247 8.43,15.28 L8.7,15.28 C8.80324742,15.2859591 8.90675258,15.2859591 9.01,15.28 L9.26,15.22 C9.4340368,15.1690347 9.60176511,15.0985888 9.76,15.01 C9.91127363,14.9181521 10.0550543,14.8144963 10.19,14.7 C10.311141,14.5876219 10.4247219,14.4673598 10.53,14.34 C10.6922881,14.1298074 10.8236225,13.8974464 10.92,13.65 C10.92,13.56 10.98,13.48 10.99,13.43 L10.99,13.35 L10.99,13.43 C10.9979698,13.5131428 10.9979698,13.5968572 10.99,13.68 C11.0038542,13.8129734 11.0038542,13.9470266 10.99,14.08 C10.9602889,14.2488679 10.9099103,14.413438 10.84,14.57 C10.6726867,14.9662572 10.4035969,15.311244 10.06,15.57 C9.86546814,15.7207253 9.64982777,15.842023 9.42,15.93 C9.29671961,15.9750808 9.16950145,16.0085592 9.04,16.03 C8.92349415,16.0386631 8.80650585,16.0386631 8.69,16.03 L8.53,16.03 L8.34,16.03 C8.22591587,16.0323067 8.11191753,16.022248 8,16 C7.76808403,15.916529 7.55176538,15.7948498 7.36,15.64 C7.17798914,15.4997861 7.0164317,15.3348629 6.88,15.15 C6.75743486,14.9834954 6.65662046,14.8020295 6.58,14.61 C6.51008971,14.453438 6.45971113,14.2888679 6.43,14.12 C6.42186235,13.9867908 6.42186235,13.8532092 6.43,13.72 C6.42203016,13.6368572 6.42203016,13.5531428 6.43,13.47 L6.43,13.35 Z" id="Shape" fill="#F6921E"></path>
        </g>
    </g>
</svg>