<?xml version="1.0" encoding="UTF-8"?>
<svg width="166px" height="28px" viewBox="0 0 166 28" version="1.1" xmlns="http://www.w3.org/2000/svg" xmlns:xlink="http://www.w3.org/1999/xlink">
    <!-- Generator: Sketch 52.2 (67145) - http://www.bohemiancoding.com/sketch -->
    <title>logo-full-teal</title>
    <desc>Created with Sketch.</desc>
    <g id="assets" stroke="none" stroke-width="1" fill="none" fill-rule="evenodd">
        <g id="logo-full-teal" fill-rule="nonzero">
            <path d="M17.48,17.21 L17.4800039,27.21 L9.93,27.21 L9.87,26.21 C9.84691854,25.7172069 10.0582951,25.2425367 10.44,24.93 C11.6542683,23.8381094 12.3755761,22.3017236 12.44,20.67 C12.44,16.29 10.78,13.26 8.73,13.26 C6.68,13.26 5,16.39 5,20.66 C5.07043728,22.2873815 5.79093659,23.8184425 7,24.91 C7.37639472,25.2328726 7.57685771,25.7154687 7.54,26.21 L7.48,27.21 L0,27.21 L0,9.07 L5.38,9.07 L5.38,11.53 L5.45,11.53 C5.65572399,11.1656492 5.90782595,10.8295133 6.2,10.53 C6.54197147,10.1652128 6.93225967,9.84894478 7.36,9.59 C7.83991187,9.30344077 8.35394114,9.07834298 8.89,8.92 C9.49750642,8.74348113 10.1273815,8.65590492 10.76,8.66 C11.9410023,8.61460826 13.1169847,8.83681423 14.2,9.31 C15.0235723,9.71795472 15.7164107,10.3484377 16.2,11.13 C16.7149987,11.9591491 17.0552815,12.8847185 17.2,13.85 C17.3870373,14.9602109 17.4806984,16.0841445 17.48,17.21 Z" id="Shape" fill="#11BAA1"></path>
            <path d="M12.43,20.66 C12.3655761,22.2917236 11.6442683,23.8281094 10.43,24.92 C10.0482951,25.2325367 9.83691854,25.7072069 9.86,26.2 L9.92,27.2 L7.46,27.2 L7.52,26.2 C7.55855364,25.7122471 7.36603848,25.2346615 7,24.91 C5.79093659,23.8184425 5.07043728,22.2873815 5,20.66 C5,16.39 6.66,13.25 8.7,13.25 C10.74,13.25 12.43,16.28 12.43,20.66 Z" id="Shape" fill="#F7CE5B"></path>
            <path d="M39.06,27.12 L33.68,27.12 L33.68,24.66 L33.6,24.66 C33.3809445,25.0180461 33.1263216,25.3530762 32.84,25.66 C32.5075464,26.0269076 32.1235329,26.3435503 31.7,26.6 C31.2179686,26.8824221 30.7044559,27.1072937 30.17,27.27 C29.5623476,27.4458345 28.9325723,27.5333969 28.3,27.53 C27.1127095,27.5729407 25.9307601,27.3508982 24.84,26.88 C23.9977345,26.4802635 23.2866845,25.8489898 22.79,25.06 C22.2705813,24.233015 21.9299493,23.3064958 21.79,22.34 C21.6208786,21.2146114 21.5373059,20.0780221 21.54,18.94 L21.5399369,9 L27.15,9 L27.15,17.89 C27.15,18.41 27.15,18.95 27.2,19.51 C27.2472905,20.022517 27.3720426,20.5248969 27.57,21 C27.9352283,22.0559393 28.9783477,22.7223766 30.09,22.61 C30.700656,22.6359044 31.3074498,22.5014444 31.85,22.22 C32.274137,21.9693585 32.6203339,21.6058518 32.85,21.17 C33.0921209,20.7087706 33.2480095,20.2072159 33.31,19.69 C33.3971372,19.1307533 33.4439247,18.5659619 33.45,18 L33.45,9 L39.06,9 L39.06,27.12 Z" id="Shape" fill="#11BAA1"></path>
            <path d="M55.38,13.45 L50.45,13.45 L50.45,19.5 C50.4490203,19.9545374 50.4757364,20.4087122 50.53,20.86 C50.567104,21.2351934 50.6793318,21.5990834 50.86,21.93 C51.0481077,22.2416872 51.3323711,22.4838376 51.67,22.62 C52.1253058,22.7967047 52.6119527,22.8783797 53.1,22.86 C53.4947651,22.8533208 53.8887883,22.8232682 54.28,22.77 C54.6815927,22.7406669 55.0649798,22.5907975 55.38,22.34 L55.38,27 C54.7519715,27.2213052 54.1013225,27.3722289 53.44,27.45 C52.7757206,27.5216773 52.1081333,27.5583946 51.44,27.56 C50.560942,27.5683077 49.6842481,27.4675383 48.83,27.26 C48.0760698,27.0794278 47.3633917,26.7570258 46.73,26.31 C46.132012,25.8656349 45.6514534,25.2820995 45.33,24.61 C44.9783056,23.8104888 44.8075711,22.9431575 44.83,22.07 L44.83,13.45 L41.26,13.45 L41.26,9 L44.85,9 L44.85,3.59 L50.45,3.59 L50.45,9 L55.38,9 L55.38,13.45 Z" id="Shape" fill="#11BAA1"></path>
            <path d="M58.22,9 L63.83,9 L63.83,11.91 L63.9,11.91 C64.383878,10.9029341 65.1044068,10.0280063 66,9.36 C66.923962,8.77148131 68.005315,8.47846955 69.1,8.52 C69.42,8.52 69.75,8.52 70.1,8.52 C70.4034631,8.54637089 70.7043876,8.59652497 71,8.67 L71,13.79 C70.6136159,13.6694878 70.2193358,13.5759298 69.82,13.51 C69.4196063,13.4487077 69.0150555,13.4186171 68.61,13.42 C67.7405703,13.3818015 66.8733891,13.535436 66.07,13.87 C65.4784139,14.1373892 64.9778894,14.5718722 64.63,15.12 C64.2744532,15.7136381 64.0589891,16.3805509 64,17.07 C63.8956071,17.8891266 63.8454977,18.7142603 63.85,19.54 L63.85,27.12 L58.22,27.12 L58.22,9 Z" id="Shape" fill="#11BAA1"></path>
            <path d="M73.05,3.25 C73.0489164,2.40229956 73.3917138,1.59041096 74,1 C74.6096473,0.389341809 75.4371134,0.0461925006 76.3,0.0461925006 C77.1628866,0.0461925006 77.9903527,0.389341809 78.6,1 C79.2403638,1.59304789 79.603043,2.42721004 79.6,3.3 C79.603043,4.17278996 79.2403638,5.00695211 78.6,5.6 C77.3315078,6.86508012 75.2784922,6.86508012 74.01,5.6 C73.372452,4.98741474 73.0237264,4.13376346 73.05,3.25 Z M73.5,9 L79.11,9 L79.11,27.12 L73.5,27.12 L73.5,9 Z" id="Shape" fill="#11BAA1"></path>
            <path d="M95.51,13.45 L90.57,13.45 L90.57,19.5 C90.5690203,19.9545374 90.5957364,20.4087122 90.65,20.86 C90.6886851,21.2376177 90.8080448,21.6025174 91,21.93 C91.18441,22.240983 91.4653077,22.4832573 91.8,22.62 C92.2585716,22.797506 92.7486465,22.8791852 93.24,22.86 C93.631442,22.8532782 94.0221351,22.8232248 94.41,22.77 C94.8150677,22.7426512 95.2022201,22.5926732 95.52,22.34 L95.52,27 C94.8724815,27.2251 94.2015304,27.376064 93.52,27.45 C92.8557206,27.5216773 92.1881333,27.5583946 91.52,27.56 C90.6409744,27.567693 89.764356,27.4669323 88.91,27.26 C88.1586797,27.0808104 87.4490247,26.7582399 86.82,26.31 C86.2167725,25.8711703 85.735016,25.2861803 85.42,24.61 C85.0923095,23.8087585 84.9487766,22.9441442 85,22.08 L85,13.45 L81.38,13.45 L81.38,9 L85,9 L85,3.59 L90.6,3.59 L90.6,9 L95.54,9 L95.51,13.45 Z" id="Shape" fill="#11BAA1"></path>
            <path d="M98,3.25 C98.0017984,2.37821519 98.3636733,1.54590296 99,0.95 C100.271918,-0.316233797 102.328082,-0.316233797 103.6,0.95 C104.236327,1.54590296 104.598202,2.37821519 104.6,3.25 C104.598202,4.12178481 104.236327,4.95409704 103.6,5.55 C102.328082,6.8162338 100.271918,6.8162338 99,5.55 C98.3636733,4.95409704 98.0017984,4.12178481 98,3.25 Z M98.42,9 L104,9 L104,27.12 L98.4,27.12 L98.42,9 Z" id="Shape" fill="#11BAA1"></path>
            <path d="M107.39,18 C107.370899,16.6529711 107.636707,15.3171138 108.17,14.08 C108.672977,12.9429264 109.404862,11.9216918 110.32,11.08 C111.253765,10.2357254 112.344464,9.58334482 113.53,9.16 C116.080714,8.26668444 118.859286,8.26668444 121.41,9.16 C122.599645,9.58096963 123.694062,10.2335414 124.63,11.08 C125.538984,11.9248913 126.267015,12.9454957 126.77,14.08 C127.311434,15.3148834 127.580863,16.6517966 127.56,18 C127.581675,19.3515068 127.312242,20.6918507 126.77,21.93 C126.271218,23.0668967 125.542614,24.0883039 124.63,24.93 C123.697192,25.7830787 122.60207,26.4394723 121.41,26.86 C118.859286,27.7533156 116.080714,27.7533156 113.53,26.86 C112.347723,26.4579456 111.256747,25.8257914 110.32,25 C109.401799,24.1610235 108.669422,23.1391015 108.17,22 C107.625826,20.7381333 107.359795,19.3738707 107.39,18 Z M112.99,18 C112.934244,19.2213757 113.35765,20.4162414 114.17,21.33 C116.048802,23.021213 118.901198,23.021213 120.78,21.33 C121.603151,20.4202326 122.040599,19.2262164 122,18 C122.053747,16.783711 121.634431,15.5938587 120.83,14.68 C118.951198,12.988787 116.098802,12.988787 114.22,14.68 C113.393758,15.5838981 112.955631,16.7761783 113,18 L112.99,18 Z" id="Shape" fill="#11BAA1"></path>
            <path d="M130.85,9 L136.23,9 L136.23,11.46 L136.3,11.46 C136.49688,11.0899493 136.749878,10.7526188 137.05,10.46 C137.391971,10.0952128 137.78226,9.77894478 138.21,9.52 C138.688058,9.22985614 139.202564,9.00454944 139.74,8.85 C140.344085,8.67346984 140.970664,8.58588349 141.6,8.59 C142.78108,8.54356445 143.957294,8.76581417 145.04,9.24 C145.858163,9.65124937 146.549392,10.2768117 147.04,11.05 C147.546594,11.8868397 147.88619,12.8139354 148.04,13.78 C148.217605,14.9045387 148.304551,16.0415317 148.3,17.18 L148.30017,27.18 L142.7,27.18 L142.7,18.23 C142.7,17.71 142.68,17.17 142.64,16.61 C142.608397,16.0787356 142.493669,15.5557144 142.3,15.06 C142.130086,14.599089 141.831637,14.1965296 141.44,13.9 C140.952086,13.5696146 140.367975,13.411271 139.78,13.45 C139.172448,13.4230252 138.568604,13.5575961 138.03,13.84 C137.60384,14.0880889 137.257018,14.4522523 137.03,14.89 C136.785963,15.3476456 136.626732,15.8456652 136.56,16.36 C136.486897,16.9304207 136.450157,17.5049142 136.45,18.08 L136.45,27.08 L130.85,27.08 L130.85,9 Z" id="Shape" fill="#11BAA1"></path>
            <path d="M152.29,9 L157.89,9 L157.89,11.91 L158,11.91 C158.490246,10.9064982 159.222178,10.0405503 160.13,9.39 C161.053441,8.80030276 162.13517,8.50718924 163.23,8.55 L164.23,8.55 C164.533372,8.5770841 164.834242,8.62722905 165.13,8.7 L165.13,13.82 C164.743307,13.7006171 164.349104,13.6070775 163.95,13.54 C163.546226,13.4789058 163.138368,13.4488179 162.73,13.45 C161.860721,13.4140715 160.994027,13.5676196 160.19,13.9 C159.601136,14.1675265 159.10387,14.6021998 158.76,15.15 C158.402745,15.7342722 158.177491,16.3895589 158.1,17.07 C157.995607,17.8891266 157.945498,18.7142603 157.95,19.54 L157.95,27.12 L152.35,27.12 L152.29,9 Z" id="Shape" fill="#11BAA1"></path>
            <path d="M6.43,21.35 L6.43,21.43 C6.43,21.48 6.43,21.57 6.51,21.66 C6.60502548,21.9050079 6.73650811,22.1342596 6.9,22.34 C7.00251874,22.4697714 7.11629372,22.590239 7.24,22.7 C7.37313176,22.8167941 7.51711951,22.9205993 7.67,23.01 C7.82635922,23.1023764 7.9945719,23.1730257 8.17,23.22 C8.25391082,23.2504765 8.34121969,23.2706247 8.43,23.28 L8.7,23.28 C8.80324742,23.2859591 8.90675258,23.2859591 9.01,23.28 L9.26,23.22 C9.4340368,23.1690347 9.60176511,23.0985888 9.76,23.01 C9.91127363,22.9181521 10.0550543,22.8144963 10.19,22.7 C10.311141,22.5876219 10.4247219,22.4673598 10.53,22.34 C10.6922881,22.1298074 10.8236225,21.8974464 10.92,21.65 C10.92,21.56 10.98,21.48 10.99,21.43 L10.99,21.35 L10.99,21.43 C10.9979698,21.5131428 10.9979698,21.5968572 10.99,21.68 C11.0038542,21.8129734 11.0038542,21.9470266 10.99,22.08 C10.9602889,22.2488679 10.9099103,22.413438 10.84,22.57 C10.6726867,22.9662572 10.4035969,23.311244 10.06,23.57 C9.86546814,23.7207253 9.64982777,23.842023 9.42,23.93 C9.29671961,23.9750808 9.16950145,24.0085592 9.04,24.03 C8.92349415,24.0386631 8.80650585,24.0386631 8.69,24.03 L8.53,24.03 L8.34,24.03 C8.22591587,24.0323067 8.11191753,24.022248 8,24 C7.76808403,23.916529 7.55176538,23.7948498 7.36,23.64 C7.17798914,23.4997861 7.0164317,23.3348629 6.88,23.15 C6.75743486,22.9834954 6.65662046,22.8020295 6.58,22.61 C6.51008971,22.453438 6.45971113,22.2888679 6.43,22.12 C6.42186235,21.9867908 6.42186235,21.8532092 6.43,21.72 C6.42203016,21.6368572 6.42203016,21.5531428 6.43,21.47 L6.43,21.35 Z" id="Shape" fill="#F6921E"></path>
        </g>
    </g>
</svg>