<?xml version="1.0" encoding="UTF-8"?>
<svg width="729px" height="958px" viewBox="0 0 729 958" version="1.1" xmlns="http://www.w3.org/2000/svg" xmlns:xlink="http://www.w3.org/1999/xlink">
    <!-- Generator: Sketch 52.2 (67145) - http://www.bohemiancoding.com/sketch -->
    <title>video-background</title>
    <desc>Created with Sketch.</desc>
    <g id="assets" stroke="none" stroke-width="1" fill="none" fill-rule="evenodd" opacity="0.437895275">
        <g id="video-background" fill="#FFFFFF" fill-rule="nonzero">
            <ellipse id="Oval" cx="364.5" cy="939.5" rx="364.5" ry="18.5"></ellipse>
            <path d="M433.664493,167.335652 C432.51253,167.361703 431.385716,167.676529 430.388073,168.251067 C429.899073,168.569822 429.428785,168.916212 428.979519,169.288537 C428.61207,169.746244 428.275242,170.203952 427.938414,170.692173 C427.566429,171.341706 427.288109,172.040214 427.111653,172.767113 C427.022306,173.057487 426.950726,173.352997 426.897308,173.652014 C426.897308,174.140235 426.682963,174.628456 426.56048,175.116677 L426.101169,176.642369 C425.909109,177.34072 425.786041,178.056114 425.73372,178.778336 C425.688583,179.204346 425.688583,179.633908 425.73372,180.059917 C425.582026,180.712409 425.582026,181.390824 425.73372,182.043316 C425.942216,182.7939 426.343233,183.477455 426.897308,184.026714 C428.370661,185.48227 430.63656,185.781671 432.439663,184.759046 C433.856724,184.02281 435.035266,182.901285 435.838566,181.524581 C436.215581,180.87747 436.494199,180.178216 436.665326,179.449641 C437.706431,179.449641 438.747537,179.449641 439.7274,179.449641 C442.023956,179.449641 444.351133,179.449641 446.67831,179.449641 L452.986183,179.083475 L454.211013,179.083475 L454.211013,179.876834 L453.843564,186.345765 C453.629219,190.892325 453.445494,195.499913 453.200528,199.954931 C452.955562,204.409949 452.465631,208.346233 451.975699,212.496113 C451.485767,216.645993 450.903973,221.314609 450.444661,225.739113 C449.98535,230.163618 449.648522,234.893261 449.311694,239.500848 C449.036107,243.437132 448.913624,247.373415 448.576796,251.309699 C448.239968,255.245982 447.841898,259.914597 447.351966,264.217047 C446.770172,268.977203 446.218999,273.706846 445.637204,278.467003 C443.524373,296.409132 442.57513,314.442803 441.472783,332.476473 C440.431678,349.960895 438.839399,367.353775 437.185879,384.777169 C436.84905,388.347287 436.573464,391.917404 436.297877,395.487522 C436.02229,399.057639 435.838566,401.590287 435.5936,404.88578 C435.5936,406.228388 435.379255,407.570997 435.318013,408.913605 C435.164909,413.704275 435.011806,418.494946 434.828081,423.285616 C434.828081,425.177474 434.828081,427.099845 434.828081,428.991702 L434.828081,437.657628 C434.828081,441.624425 434.828081,445.591223 434.828081,449.55802 C434.828081,451.053197 434.828081,452.609402 434.828081,454.043552 L434.828081,458.071377 L431.980352,458.071377 L425.856203,458.223946 L412.873007,458.529084 C403.686783,458.803709 394.50056,459.078333 385.314336,459.413985 C377.199838,459.68861 369.115962,459.68861 361.001464,459.413985 C357.326975,459.413985 353.652485,459.413985 350.008617,458.986792 C347.865164,458.834223 345.721712,458.742681 343.608881,458.49857 L338.035905,457.796753 C333.626518,457.064421 329.247751,456.271061 324.807743,455.691299 C322.60305,455.416674 320.428977,455.081022 318.254904,454.897939 C316.080831,454.714856 313.386205,454.440232 310.936546,454.257149 C308.486886,454.074066 306.955849,453.952011 304.812396,453.952011 C302.580593,453.957546 300.351255,454.100214 298.137074,454.379204 C296.299829,454.623315 294.493205,454.928453 292.655961,455.294619 C292.380374,452.456833 292.012925,449.619047 291.614855,446.811776 C289.725079,444.386701 288.65329,441.42821 288.552781,438.359446 C288.369056,435.002925 288.215953,431.646404 288.062849,428.320398 C287.459128,425.659289 287.222189,422.928599 287.358572,420.20372 C287.358572,418.372891 287.358572,416.572575 287.358572,414.741745 C287.367855,413.933925 287.439515,413.128014 287.572917,412.331153 C287.389192,410.164672 287.174847,407.99819 286.991123,405.801195 C286.194983,397.104755 285.521327,388.377801 284.847671,379.650847 C283.439116,361.952828 282.244907,344.224296 281.14256,326.495763 C280.622008,318.196003 279.88711,309.896243 279.274695,301.596482 C278.570418,292.259252 278.019244,282.922021 277.498692,273.584791 C277.029174,265.20366 276.447379,256.832701 275.753309,248.471913 C274.987791,239.622904 274.099789,230.804408 273.273029,221.955399 C272.752476,216.310341 272.293165,210.665284 271.956337,205.020226 C271.793026,202.57912 271.701164,200.138014 271.68075,197.696908 L271.68075,187.932484 C271.675988,187.508794 271.54838,187.095515 271.313301,186.742445 C271.193618,186.456418 271.004164,186.204695 270.762128,186.010113 C270.487222,185.78341 270.138943,185.664107 269.782264,185.674461 C269.501445,185.664936 269.224185,185.739322 268.986124,185.888058 C268.447809,186.02178 267.991595,186.376607 267.730674,186.8645 C267.155924,188.318655 266.915276,189.882619 267.026397,191.441574 C267.026397,192.479044 267.026397,193.486 267.026397,194.492956 C267.026397,196.903549 267.026397,199.314141 267.026397,201.724733 C267.026397,205.996668 267.240742,210.23809 267.485708,214.479512 C268.006261,223.450576 268.771779,232.391127 269.384194,241.331678 C270.639645,258.907641 271.25206,276.483604 272.10944,294.059567 C272.50751,302.450869 273.211787,310.781144 273.701719,319.141932 C274.222272,328.296079 274.681583,337.663823 275.171515,346.940026 C275.600205,355.148245 276.182,363.356464 276.733173,371.595197 C277.314967,380.444206 277.927382,389.293215 278.631659,398.142225 C279.335936,406.991234 280.132076,416.29795 280.897594,425.39107 C281.11194,427.679607 281.448768,429.998658 281.724354,432.287195 C281.999941,434.575732 282.36739,437.108379 282.704218,439.488457 C283.316633,443.638338 283.929048,447.788218 284.510842,451.938098 C284.786429,453.768928 285.092636,455.630271 285.368223,457.4611 C284.569039,457.911185 283.903506,458.563867 283.439116,459.352958 C283.055581,460.041728 282.875133,460.824466 282.918564,461.610981 C282.925998,462.683145 283.329307,463.71505 284.051531,464.509794 C284.741839,465.279868 285.573259,465.911613 286.501191,466.371137 C287.717878,467.011304 289.173339,467.011304 290.390025,466.371137 C290.812198,466.160492 291.20365,465.893591 291.553614,465.577778 C292.046021,464.987052 292.410865,464.301465 292.62534,463.563865 L293.605204,463.411296 L297.095969,462.862047 C298.963834,462.862047 300.801079,462.587423 302.668944,462.556909 C304.531999,462.546155 306.393726,462.658284 308.24192,462.892561 C311.702064,463.228213 315.131588,463.624893 318.561111,464.052087 C320.398356,464.326711 322.235601,464.570822 324.072845,464.906474 L330.533823,466.157541 C335.188176,467.011928 339.720046,467.896829 344.619365,468.38505 C349.518685,468.873271 353.621865,469.269951 358.184356,469.453034 C362.746847,469.636117 367.615545,469.8192 372.361761,469.910741 C381.088673,470.124338 389.846206,469.910741 398.573119,469.727658 C407.300031,469.544575 416.241289,469.727658 425.090684,469.727658 C429.255106,469.727658 433.419527,469.727658 437.583948,469.910741 C439.42561,470.067936 441.275914,469.730776 442.942579,468.934299 C443.619732,468.544882 444.238263,468.062058 444.779823,467.500149 C445.621365,466.577967 446.230192,465.469169 446.555827,464.265683 C446.780644,463.315718 446.893681,462.342895 446.892655,461.36687 C446.938544,460.696345 446.938544,460.023483 446.892655,459.352958 L446.892655,458.071377 C446.892655,455.691299 446.892655,453.280706 446.892655,450.900628 C446.892655,446.68972 446.892655,442.448299 446.892655,438.206877 C446.892655,433.263637 446.892655,428.289884 447.045759,423.31613 C447.045759,421.759925 447.045759,420.264748 447.198862,418.708543 C447.198862,415.65716 447.413208,412.605778 447.535691,409.737478 C447.688794,405.648626 448.117485,401.529259 448.423692,397.531948 C448.7299,393.900803 449.005486,390.239144 449.372935,386.638513 L450.903973,371.3816 C451.761353,363.020812 452.526872,354.690538 453.169908,346.32975 C453.935426,336.59584 454.609083,326.892443 455.252118,317.158533 C455.497084,313.374819 455.803292,309.621618 456.109499,305.898932 C456.415707,302.176245 456.691293,297.843282 457.089363,293.693402 C457.548674,289.207869 457.946744,284.722337 458.497917,280.267319 C459.049091,275.8123 459.661506,271.113171 460.212679,266.3225 C460.457645,264.369616 460.733232,262.386217 460.916956,260.433332 C461.161922,257.656574 461.406888,254.91033 461.621233,252.133572 C461.988682,248.136261 462.111165,244.108436 462.386752,239.928042 C462.662339,235.747648 462.907305,231.597768 463.274754,227.447887 C463.764686,222.565675 464.254618,217.683463 464.805791,212.801251 C465.569848,205.624717 465.968429,198.414206 466,191.197463 C466,187.535804 466,183.904659 466,180.243 C465.959625,177.96436 465.765254,175.691019 465.418206,173.438417 C465.052175,171.070379 463.402675,169.097891 461.131301,168.312094 C459.917251,167.99123 458.640241,167.99123 457.426191,168.312094 C454.366764,168.491532 451.299395,168.491532 448.239968,168.312094 C445.392238,168.312094 442.57513,168.03747 439.758021,167.701818 C438.318846,167.457707 436.879671,167.152569 435.409875,167 L433.756355,167 L433.664493,167.335652 Z" id="Shape"></path>
            <path d="M298.745329,168.122731 C298.120809,168.314048 297.517952,168.570435 296.946606,168.887701 C296.055024,169.373989 295.331968,170.121046 294.873501,171.029618 L293.166238,171.733391 L293.623541,171.549798 L283.136071,175.864231 C279.752033,177.241178 276.337508,178.526328 273.04493,180.117467 C271.161715,180.979452 269.356271,182.003224 267.648761,183.177348 C265.890442,184.501917 264.42644,186.179719 263.350118,188.103758 C262.634528,189.337404 263.050835,190.919703 264.279966,191.637921 C265.509097,192.35614 267.085605,191.938303 267.801195,190.704657 C268.167037,190.12328 268.563366,189.572501 268.959695,189.021722 C269.397857,188.485401 269.876929,187.984108 270.392576,187.52238 C272.799627,185.970175 275.352386,184.658361 278.014283,183.605732 C282.3739,181.800402 286.824978,180.117467 291.245568,178.465131 L295.26983,176.965789 L295.879566,178.22034 C296.824658,180.239862 297.708776,182.259384 298.562408,184.340104 C300.147723,188.501543 301.611091,192.662982 303.104945,196.855019 C304.5988,201.047057 306.153629,206.034664 308.074299,210.349098 C309.994969,214.663531 312.0071,219.528742 314.171665,224.087966 C315.269191,226.291081 316.33623,228.524794 317.433756,230.727909 C318.043493,231.951862 318.653229,233.175815 319.293453,234.399767 C320.841691,237.334904 322.593936,240.156975 324.537188,242.845041 C326.391659,245.465327 328.429243,247.950084 330.634554,250.280553 C333.064572,252.732268 335.764801,254.898333 338.683077,256.736903 C341.558815,258.510621 344.627494,259.947932 347.829127,261.020738 C351.299415,262.207047 354.926623,262.867087 358.590978,262.979062 C362.046536,263.09278 365.501752,262.742902 368.86504,261.938702 C372.42744,261.063537 375.890683,259.822853 379.200076,258.236245 C385.416852,255.398118 391.213301,251.711833 396.425135,247.281869 C401.440158,242.893271 405.63213,237.639239 408.802789,231.768269 C412.13477,225.77815 414.900811,219.488158 417.06472,212.980596 C418.040299,210.165505 418.832956,207.289216 419.686587,204.443526 C420.296324,202.362806 420.845087,200.282087 421.39385,198.323763 C422.277968,194.804899 423.070626,191.286035 423.832796,187.736572 C424.137665,186.23723 424.412046,184.676691 424.655941,183.14675 C424.655941,182.62657 424.808375,182.10639 424.869349,181.555611 C428.399972,181.015934 431.982319,180.902932 435.53974,181.219024 C436.513216,181.226981 437.471091,180.973426 438.314041,180.484653 C440.200523,179.360342 441.238474,177.216311 440.953286,175.032931 C440.668098,172.849552 439.114587,171.046503 437.003107,170.448241 C435.520288,170.066841 434.012538,169.790768 432.491056,169.622073 C430.826674,169.499659 429.155598,169.499659 427.491216,169.622073 C426.149796,169.622073 424.808375,169.866863 423.497441,170.050456 L424.015717,170.050456 L420.997521,170.142253 C418.709684,170.165176 416.496638,170.963074 414.717234,172.406565 C413.524544,173.602238 412.836682,175.213145 412.796564,176.904591 C412.796564,177.363573 412.796564,177.822556 412.796564,178.250939 C412.807386,179.519962 412.725871,180.788085 412.552669,182.045192 C411.729525,187.185793 410.662485,192.234598 409.503986,197.344601 C408.894249,199.914901 408.132078,202.424004 407.400395,204.963706 C406.095094,209.688704 404.527658,214.336775 402.705423,218.886167 C400.672898,223.722043 398.116984,228.319064 395.083715,232.594437 C392.510093,235.723113 389.618544,238.574008 386.455942,241.100908 C381.73709,244.645488 376.621157,247.623629 371.212526,249.974565 C368.372602,251.115226 365.418734,251.946168 362.401832,252.453069 C359.959578,252.713166 357.496759,252.713166 355.054506,252.453069 C352.508317,252.026638 350.014646,251.329127 347.615719,250.372349 C345.131128,249.251248 342.762131,247.888171 340.542774,246.302707 C337.500297,243.668954 334.759878,240.702946 332.372303,237.459649 C328.142909,231.37231 324.421057,224.945162 321.24461,218.243592 C319.049558,213.990357 317.067914,209.675924 315.147244,205.330892 C313.013166,200.006698 310.970548,194.651905 309.049877,189.297112 C308.653549,188.226153 308.25722,187.155195 307.799917,186.23723 C307.09872,184.523696 306.458497,182.779564 305.696326,181.096629 C304.934155,179.413694 304.385392,178.312137 303.745169,176.93519 C303.379327,176.139621 302.982998,175.344051 302.556182,174.548482 C303.864087,173.663442 304.437497,172.021279 303.966198,170.510404 C303.494898,168.999529 302.090817,167.978761 300.513565,168.000336 C299.948474,168.009366 299.386119,168.081201 298.836789,168.214527 L298.745329,168.122731 Z M420.509732,170.20345 L420.021943,170.20345 L420.509732,170.20345 Z M301.611091,172.345367 L301.611091,172.681954 C301.611091,172.681954 301.611091,172.467763 301.611091,172.345367 Z M394.870307,233.02282 L394.626412,233.328809 L394.870307,233.02282 Z M422.521863,169.95866 L423.558415,169.95866 L422.521863,169.95866 Z" id="Shape"></path>
            <path d="M335.874511,167.271553 C331.943363,167.43642 328.025158,167.829327 324.139761,168.448283 C322.355353,168.750009 320.601189,169.142252 318.847026,169.594841 C317.030982,170.030615 315.251368,170.605602 313.524046,171.314677 C312.462584,171.728302 311.448646,172.254301 310.499626,172.88365 C309.466849,173.617428 308.504947,174.445734 307.626427,175.3578 C307.086166,175.896781 306.87517,176.682363 307.072919,177.418625 C307.270668,178.154887 307.84712,178.729973 308.58513,178.927253 C309.323139,179.124534 310.110586,178.914038 310.650847,178.375057 C311.255731,177.771606 311.890859,177.228499 312.525988,176.685393 C313.321762,176.135257 314.173274,175.670057 315.0665,175.297455 C316.811971,174.626257 318.600342,174.071864 320.419724,173.637964 C322.484374,173.12849 324.574003,172.725654 326.680274,172.431062 C335.475176,171.299716 344.379293,171.299716 353.174195,172.431062 C359.04157,173.245721 364.848457,174.482796 370.655344,175.659526 C375.342468,176.648283 380.110991,177.203798 384.900363,177.319017 L388.892597,177.319017 C390.61372,177.247934 392.329918,177.086792 394.034112,176.836256 C395.199667,176.510638 396.004022,175.448934 395.999985,174.241416 C396.001068,173.528801 395.718186,172.844979 395.213636,172.340544 C394.709912,171.834339 394.023219,171.551613 393.308251,171.556057 C391.191157,171.737093 389.074063,171.82761 386.956968,171.857783 C385.716956,171.857783 384.4467,171.857783 383.176443,171.857783 C380.535826,171.806752 377.900287,171.605274 375.282707,171.254332 L374.798799,171.103469 L375.191974,171.103469 C372.167554,170.711225 369.143134,170.137947 366.118713,169.625013 L357.801558,168.267248 C356.470813,168.05604 355.109824,167.905177 353.779079,167.754314 C351.782962,167.512934 349.7566,167.331898 347.730239,167.211208 C345.703877,167.090518 343.223852,167 340.985782,167 C339.292106,167 337.568187,167 335.874511,167 L335.874511,167.271553 Z" id="Shape"></path>
            <path d="M331.298906,141.223268 C328.936771,150.593837 326.514069,159.964405 324.091367,169.334974 C323.698931,170.873923 324.605006,172.444582 326.150664,172.904714 C327.432987,173.231035 328.782404,172.700821 329.481879,171.595809 C329.871813,171.770336 330.295014,171.86159 330.723514,171.86354 C332.212063,171.86354 333.41877,170.678188 333.41877,169.215982 C333.327973,168.01781 333.327973,166.814666 333.41877,165.616494 C333.41877,165.200024 333.41877,164.783555 333.41877,164.367085 C333.41877,163.415154 333.630756,162.463223 333.751891,161.392301 C333.933594,159.815666 334.145581,158.417518 334.357567,156.721891 L335.356932,150.236863 C335.356932,149.165941 335.780904,148.095019 335.992891,147.053844 C336.204877,146.01267 336.568283,144.079061 336.901404,142.621417 C337.312402,141.072791 336.402464,139.482292 334.842107,139.021928 C334.580492,138.992691 334.316345,138.992691 334.054729,139.021928 C332.664186,138.967563 331.414911,139.851122 331.026352,141.163773 L331.298906,141.223268 Z" id="Shape"></path>
            <path d="M366.251132,131.241796 C365.47762,134.223885 364.925281,137.274447 364.599914,140.361449 L364.232976,144.056995 C364.232976,145.100092 364.075717,146.14319 364.023298,147.037273 C363.970878,147.931357 364.023298,148.736032 364.023298,149.57051 C364.032327,150.369328 364.093653,151.166272 364.206766,151.954733 C364.33604,152.709781 364.575213,153.435008 364.914431,154.100534 C365.107167,154.509465 365.438608,154.810966 365.831775,154.935012 C366.231601,155.062166 366.659599,155.001168 367.019458,154.765743 C367.379318,154.530318 367.64081,154.140243 367.745092,153.683295 C367.838557,153.229422 367.782615,152.752341 367.587833,152.342169 L367.351944,151.775916 C367.2747,151.514753 367.221986,151.245025 367.194685,150.971241 C367.103455,149.612224 367.103455,148.247277 367.194685,146.888259 C367.194685,146.083584 367.194685,145.278909 367.194685,144.504036 C367.194685,142.566855 367.456784,140.629674 367.666462,138.692493 C367.666462,137.58979 367.95477,136.487087 368.164449,135.414186 C368.374127,134.341286 368.662435,133.059766 368.950743,131.897457 C369.046846,131.506124 369.001158,131.08733 368.823877,130.734559 C368.646597,130.381789 368.352483,130.124412 368.00719,130.019882 C367.89481,129.993373 367.778842,129.993373 367.666462,130.019882 C367.052786,130.010529 366.512357,130.477559 366.355971,131.152388 L366.251132,131.241796 Z" id="Shape"></path>
            <path d="M349.925176,50.6787791 C346.468531,51.8722377 343.182578,53.5140889 340.151041,55.5625 C337.134734,57.6760075 334.3304,60.0782804 331.77756,62.7354651 C329.280741,65.2688953 326.905717,67.9854651 324.62204,70.7325581 C322.125395,73.6829732 319.865138,76.8264706 317.862358,80.1337209 C315.895042,83.4956364 314.311857,87.0690475 313.14276,90.7863372 C311.977638,94.4986894 311.292023,98.3454425 311.102676,102.232558 C310.965775,104.000247 310.965775,105.775915 311.102676,107.543605 C311.268195,109.609505 311.635339,111.654166 312.19884,113.648256 C312.819288,115.778012 313.688004,117.827033 314.787007,119.752907 C315.457159,120.820291 316.199842,121.840145 317.009786,122.805233 C317.64625,123.580124 318.371918,124.276825 319.171666,124.880814 C320.123168,125.670855 321.14205,126.375597 322.216568,126.986919 C323.135615,127.503747 324.080806,127.972401 325.048327,128.390988 L328.549964,129.825581 C329.653912,130.225355 330.78298,130.551646 331.929805,130.802326 C335.83794,131.67066 339.792707,132.31271 343.774474,132.725291 L346.240845,133 C347.428356,133 348.585419,133 349.772931,133 C351.800834,132.983405 353.440707,131.339533 353.457262,129.306686 C353.425162,127.275358 351.798986,125.631745 349.772931,125.582849 C348.646317,125.582849 347.550152,125.582849 346.423539,125.338663 L340.699123,124.422965 C338.62859,124.087209 336.527607,123.62936 334.609319,123.171512 C332.821547,122.740351 331.070397,122.168819 329.372088,121.462209 C327.667902,120.74589 326.036435,119.866838 324.500244,118.837209 C323.810974,118.258316 323.178789,117.614368 322.612405,116.914244 C321.788655,115.736332 321.084807,114.478587 320.511423,113.159884 C319.825915,111.408389 319.335751,109.586266 319.04987,107.726744 C318.785862,105.447249 318.734892,103.148013 318.897625,100.859012 C319.3581,102.381518 319.896751,103.879154 320.511423,105.34593 C321.894708,108.529622 323.798574,111.459439 326.144491,114.014535 C327.248506,115.222833 328.461467,116.326355 329.767925,117.311047 C331.148583,118.340443 332.665238,119.172527 334.27438,119.78343 C337.492146,121.013032 340.909428,121.633989 344.353005,121.614826 C348.020476,121.540986 351.647196,120.828333 355.07106,119.508721 C358.483163,118.307128 361.74312,116.70903 364.784298,114.747093 C367.803904,112.754467 370.664565,110.529754 373.340472,108.093023 C376.051807,105.668562 378.409342,102.873723 380.343747,99.7906977 C382.338287,96.6338758 383.827994,93.1837498 384.758855,89.565407 C385.695636,85.9502778 386.10587,82.2183281 385.976816,78.4854651 C385.846357,74.820847 385.158399,71.1976889 383.936731,67.7412791 C382.803616,64.435536 381.148461,61.3335716 379.034439,58.5537791 C376.953257,55.5916576 374.183811,53.1821274 370.965449,51.5334302 C367.640893,50.0096117 364.052211,49.149131 360.399639,49 L359.059882,49 C355.945271,49.0420522 352.858922,49.5989496 349.925176,50.6482558 L349.925176,50.6787791 Z M362.896459,55.8982558 C364.645168,56.158524 366.360417,56.6088511 368.011894,57.2412791 C368.995178,57.7013862 369.933084,58.253238 370.813204,58.8895349 C372.179556,60.0406325 373.424348,61.3293719 374.527984,62.7354651 C375.967279,64.6287189 377.192727,66.6761112 378.181867,68.8401163 C379.21349,71.4767628 379.948804,74.220437 380.374196,77.0203488 C380.709277,79.8694945 380.709277,82.748238 380.374196,85.5973837 C379.985382,88.3983501 379.23831,91.1374526 378.151418,93.747093 C377.045008,96.3280374 375.634314,98.7669059 373.949453,101.011628 C371.302756,104.186586 368.298815,107.044215 364.997441,109.527616 C363.452306,110.719335 361.846496,111.829841 360.186496,112.854651 C358.473724,113.842827 356.704647,114.729522 354.888366,115.510174 C352.213532,116.645442 349.412517,117.455003 346.545335,117.921512 C344.441298,118.166881 342.315976,118.166881 340.211939,117.921512 C338.123727,117.650076 336.077785,117.116834 334.122135,116.334302 C332.899283,115.790047 331.744455,115.103656 330.681395,114.289244 C329.011116,112.880474 327.509119,111.282631 326.20539,109.527616 C324.654175,107.490005 323.365171,105.264641 322.368813,102.90407 C321.245324,100.137433 320.448243,97.2486515 319.993789,94.2965116 C320.237382,93.4113372 320.480974,92.5261628 320.785464,91.6409884 C320.739321,92.0540577 320.99633,92.4405103 321.394444,92.556686 C321.872415,92.6738472 322.357076,92.3904391 322.490609,91.9156977 C322.916895,89.5348837 323.312733,87.1540698 323.739019,84.7732558 C325.20648,82.0860138 326.875848,79.5146337 328.732658,77.0813953 C330.833641,74.3648256 333.086868,71.7703488 335.370545,69.2369186 C337.57656,66.7966427 339.957957,64.5216582 342.495615,62.4302326 C345.005274,60.5299231 347.722582,58.9221883 350.595054,57.6380814 C352.66924,56.7736397 354.834944,56.1489698 357.050247,55.7761628 C358.993151,55.5624171 360.953554,55.5624171 362.896459,55.7761628 L362.896459,55.8982558 Z M374.193045,62.247093 L374.193045,62.4607558 L374.193045,62.247093 Z M373.797208,101.164244 L373.797208,101.31686 L373.797208,101.164244 Z" id="Shape"></path>
            <path d="M358.762513,54.2745426 C356.736811,54.7015696 354.759905,55.3347565 352.862545,56.1642539 C350.986253,56.9369901 349.158198,57.8224967 347.388349,58.8159456 C345.771929,59.7839205 344.21784,60.8528019 342.735282,62.0162631 C339.694062,64.4546003 336.652842,67.0758127 333.611622,69.7275044 C330.42494,70.9324788 327.440556,72.618106 324.761671,74.7260956 C323.304936,75.8308046 321.96944,77.0875061 320.777673,78.475039 C319.453734,80.0436025 318.301609,81.7500523 317.341094,83.5650678 C316.440597,85.2427904 315.716936,87.0099619 315.181828,88.8379719 C314.624674,90.8256662 314.298119,92.8711281 314.208637,94.9338148 C313.265859,96.5796924 312.353493,98.22557 311.471539,99.9019268 C310.498292,101.630759 311.078645,103.822022 312.779264,104.83956 C313.491906,105.235666 314.314847,105.385621 315.121003,105.266269 C315.283202,105.97745 315.465675,106.678472 315.668423,107.369334 C316.88992,111.260052 318.661717,114.955153 320.929734,118.341852 C322.912903,121.555899 325.469599,124.376528 328.47196,126.662677 C329.953103,127.59985 331.561175,128.318404 333.246675,128.796222 C335.22739,129.386441 337.267366,129.754446 339.329116,129.893474 C343.192083,130.228257 347.082631,129.771977 350.764104,128.552388 C354.727148,127.224117 358.507679,125.401367 362.016618,123.127088 C368.972053,118.720899 374.912328,112.881823 379.44281,105.99777 C381.762527,102.495124 383.517511,98.6482811 384.643296,94.5985435 C385.187466,92.5985392 385.583898,90.5610788 385.829372,88.5027005 C386.056876,86.385436 386.056876,84.2498093 385.829372,82.1325447 C385.381874,77.8682601 384.122354,73.7295871 382.119083,69.9408589 C380.338208,66.294151 377.940787,62.9839892 375.03304,60.157031 C373.597602,58.8060266 372.039868,57.5917859 370.379973,56.5300045 C368.709557,55.4126227 366.841009,54.6263103 364.875365,54.2135842 C364.103491,54.0668486 363.319248,53.9953967 362.533625,54.0002297 C361.197169,54.0249546 359.864867,54.1574592 358.549627,54.3964595 L358.762513,54.2745426 Z M363.780526,60.9799698 C364.370086,61.1104988 364.949435,61.2836677 365.514021,61.4981164 C366.890706,62.1820055 368.203653,62.98783 369.437195,63.9059744 C371.091098,65.2486374 372.590549,66.7718388 373.907789,68.4473774 C375.587573,70.7562649 377.014999,73.2393281 378.165497,75.8538265 C378.986833,77.8105283 379.578763,79.8561654 379.929405,81.9496694 C380.21823,84.3692202 380.21823,86.8146509 379.929405,89.2342017 C379.549489,91.9406256 378.84491,94.5911783 377.830963,97.1283183 C376.323172,100.544006 374.413974,103.767121 372.143881,106.729271 C369.352855,110.354018 366.136416,113.628711 362.564038,116.48262 C359.113564,119.090738 355.36705,121.280167 351.40276,123.005171 C347.13853,124.940136 342.415193,125.626952 337.778093,124.98632 C336.012403,124.723097 334.279418,124.273571 332.608019,123.645235 C331.660995,123.228503 330.763346,122.707129 329.931745,122.090795 C328.493737,120.903533 327.197664,119.553465 326.069396,118.067539 C323.808673,115.143165 321.918812,111.948917 320.443139,108.558024 C319.597501,106.439887 318.955924,104.245555 318.52717,102.004993 C319.469948,100.359115 320.443139,98.7741958 321.385917,97.1587975 C322.328695,95.5433991 323.089,94.3242305 323.940542,92.8917074 C325.361201,90.5098169 326.914687,88.210069 328.593609,86.0034049 C331.378785,82.4735378 334.428874,79.1619941 337.717269,76.0976602 C339.237879,74.6346579 340.758489,73.2326141 342.43116,71.800091 L346.628044,72.5925505 C347.248453,72.8536455 347.963575,72.7313324 348.462462,72.2787956 C348.961349,71.8262587 349.153859,71.125264 348.956285,70.4806184 C348.758711,69.8359728 348.206752,69.3641531 347.54041,69.2703162 L345.74609,68.9350448 L347.418761,67.5634801 C348.695996,66.5865539 350.026014,65.6809623 351.40276,64.8508301 C352.876851,64.0079831 354.400214,63.2548012 355.96459,62.5953682 C357.733512,61.8456185 359.579539,61.2936566 361.469198,60.9494906 C362.208514,60.9034077 362.949973,60.9034077 363.689289,60.9494906 L363.780526,60.9799698 Z M356.542422,62.4734513 L356.268712,62.4734513 L356.542422,62.4734513 Z M374.211911,68.5692942 L374.211911,68.7216903 L374.211911,68.5692942 Z M328.928143,85.5766959 L328.776082,85.7595712 L328.928143,85.5766959 Z" id="Shape"></path>
            <path d="M308.039186,8.09393411 C303.797458,8.24207361 299.61098,9.10947542 295.656075,10.6596069 C294.784109,11.0067981 293.932862,11.4045328 293.106611,11.8508122 C292.101257,12.4527471 291.147023,13.1372169 290.253639,13.8972417 C288.583959,15.3284234 287.247331,17.1114971 286.33839,19.1202185 C285.411152,21.1145805 284.777261,23.2341279 284.456643,25.4122257 C284.072534,27.8148246 283.930177,30.2502829 284.031732,32.681632 C284.176464,37.3008768 285.121406,41.8592324 286.824003,46.1514144 C290.059389,54.4543557 294.758233,62.1010134 300.694301,68.7232265 C303.772973,72.1365667 307.355943,75.0520726 311.317068,77.3671004 C315.301122,79.6762955 319.831532,80.8583137 324.428598,80.7879975 C326.465837,80.6076632 328.028478,78.8906925 328.028478,76.8325853 C328.028478,74.774478 326.465837,73.0575073 324.428598,72.877173 C322.195873,72.904339 319.976115,72.5320272 317.872833,71.7775989 C315.550888,70.605184 313.362831,69.1815861 311.347419,67.5320213 C308.512493,65.167928 305.947299,62.4942281 303.699027,59.5601093 C302.003447,57.3286258 300.432885,55.0036909 298.994659,52.5961402 C297.565614,50.1166973 296.278663,47.5570254 295.140112,44.9296654 C293.940252,41.9803503 293.064979,38.9076586 292.529946,35.7665482 C292.22517,33.1589573 292.22517,30.5244019 292.529946,27.9168111 C292.761785,26.4235152 293.117112,24.9523063 293.592223,23.5185148 C293.957973,22.7523187 294.384253,22.0169072 294.866955,21.3193667 C295.248744,20.8993405 295.654082,20.5016232 296.080985,20.1281614 C296.818533,19.5755193 297.600196,19.0851515 298.417994,18.6620627 C300.569355,17.8637208 302.796718,17.2905457 305.064811,16.9516141 C308.232776,16.6160827 311.426986,16.6160827 314.594951,16.9516141 C316.838333,17.3429251 319.03534,17.9673208 321.150715,18.8147813 C323.036144,19.6540828 324.835417,20.6770838 326.522801,21.8691537 L326.735256,21.8691537 C325.217718,23.0909027 323.70018,24.3737391 322.395097,25.7176629 C321.072578,27.0065244 319.873497,28.4177551 318.813707,29.9326969 C317.664799,31.5791551 316.726651,33.364759 316.021437,35.2473049 C315.720136,36.1774276 315.536583,37.1420733 315.475123,38.1184149 C315.325209,39.0695059 315.325209,40.038434 315.475123,40.989525 C315.972687,43.1059873 317.239491,44.9583449 319.026162,46.1819581 C320.397332,47.1421069 321.929243,47.8456788 323.548426,48.2589313 C325.918749,48.79179 328.390163,48.6436208 330.680855,47.8313192 C332.485504,47.1899504 334.161124,46.2278437 335.628029,44.9907529 C336.941085,43.8976467 338.104526,42.6343743 339.088016,41.2338748 C340.126898,39.7595305 340.907072,38.1169469 341.394674,36.3774227 C341.688828,35.4362834 341.862221,34.4611617 341.910637,33.4757689 C342.007531,32.2195543 341.936071,30.9559315 341.698182,29.7188908 C341.407003,28.0141474 340.907484,26.3521775 340.210995,24.7708075 C341.478506,24.0365132 342.785606,23.3737095 344.126243,22.7854654 C346.838773,21.7203175 349.657417,20.9522949 352.533404,20.4946861 C354.18839,20.3268829 355.855944,20.3268829 357.510929,20.4946861 C358.300049,20.6779485 359.058818,20.8917545 359.817587,21.1361043 L361.09232,21.8691537 C361.557701,22.2862218 361.993776,22.7352741 362.397402,23.2130776 C362.997758,24.0791662 363.535346,24.9876471 364.005993,25.931469 C364.411904,27.046503 364.736506,28.1898319 364.977217,29.3523661 C364.68326,29.9284323 364.41985,30.5197739 364.188097,31.1239021 C363.76605,32.2568548 363.55015,33.4570246 363.550731,34.6669741 C363.532478,36.1039378 364.103363,37.4849831 365.128971,38.4849396 C366.145259,39.5359785 367.557815,40.1023723 369.013869,40.0426695 C369.712059,40.00793 370.404255,39.8952454 371.077721,39.7066886 C372.351017,39.274106 373.427909,38.3962776 374.112797,37.2326469 C374.792526,36.0657642 375.207123,34.7619115 375.326827,33.4146814 L376.419455,32.3761948 C377.471118,31.6848246 378.566021,31.0624756 379.697337,30.5130276 C380.837762,30.0928494 382.003555,29.745989 383.187675,29.474541 C384.197148,29.3791805 385.213278,29.3791805 386.222751,29.474541 C388.241485,29.841186 390.222573,30.3932828 392.14115,31.1239021 C394.681295,32.3097391 397.100557,33.7418819 399.364632,35.4000235 C400.243272,36.1519431 401.065017,36.9687035 401.823043,37.8435214 C402.283023,38.4923627 402.70853,39.1652672 403.097775,39.8594072 C403.370932,40.653544 403.583388,41.4476809 403.795843,42.2418177 C404.008298,43.0359545 403.795843,42.9748671 403.795843,43.310848 C403.795843,43.646829 403.795843,43.7384602 403.795843,43.9217225 L403.188828,44.5020533 L401.610588,45.6321711 C399.979003,46.4992437 398.55887,47.7197686 397.452533,49.2057868 C396.928191,50.1367773 396.65607,51.1900514 396.663414,52.2601592 C396.65607,53.330267 396.928191,54.3835411 397.452533,55.3145316 C398.026343,56.2787812 398.816258,57.0946383 399.759191,57.6969421 L400.639364,58.0940105 L401.428483,58.4299915 L400.609013,58.0940105 L401.519536,58.4910789 C402.175332,58.7820605 402.804922,59.1295145 403.401283,59.5295655 C404.154248,60.1957155 404.863895,60.9098741 405.525836,61.6676262 C405.743866,62.3060278 405.916293,62.9592904 406.041799,63.6224246 C406.072086,64.1514105 406.072086,64.6817123 406.041799,65.2106982 C405.828669,66.250529 405.534366,67.2718207 405.161627,68.2650706 C404.322979,70.1891654 403.306836,72.0298514 402.126551,73.762941 C399.937386,76.5205892 397.476557,79.0482309 394.781666,81.3072408 C393.658688,82.1624651 392.505359,82.9566019 391.321679,83.7507388 C389.745996,84.7771902 388.091727,85.67597 386.374505,86.4385865 L384.401705,87.1410921 C383.748327,86.9079132 383.061386,86.7840967 382.368204,86.7745675 C379.872229,86.7461351 377.613406,88.2582739 376.674818,90.5859303 C375.736229,92.9135866 376.309239,95.5821809 378.119098,97.3121523 C379.291278,98.534326 380.786906,99.3928903 382.428906,99.7861939 L384.098198,100 C384.944009,99.9249507 385.785014,99.8025866 386.617311,99.6334753 C387.176287,99.5171615 387.724538,99.3536841 388.256252,99.1447757 C390.046947,98.4728138 391.776941,97.678677 393.506934,96.8845401 C395.641757,95.7889966 397.673461,94.5008854 399.577087,93.0360309 C402.179753,91.1532322 404.607615,89.0370705 406.830919,86.71348 C409.598571,83.9050333 412.014242,80.7662361 414.02405,77.3671004 C415.006347,75.5426217 415.868151,73.6550054 416.603865,71.7165115 C417.430446,69.5789102 417.902117,67.31907 418,65.0274359 C417.97518,64.0016129 417.86349,62.9797876 417.666142,61.9730635 C417.551129,61.1196088 417.389007,60.2732571 417.180529,59.4379344 C416.888094,58.4603334 416.512374,57.5099523 416.057551,56.597368 C415.393842,55.4119369 414.599729,54.3054053 413.690192,53.2986458 C413.349911,52.8896358 412.985017,52.5020205 412.597564,52.1379843 C413.29685,51.4118945 413.889605,50.5891028 414.357908,49.6944864 C416.088135,45.9344889 416.252064,41.6342382 414.81317,37.7518902 C414.260882,35.9074293 413.39858,34.1718604 412.263706,32.6205446 C411.137355,31.0489016 409.856119,29.5957881 408.43951,28.2833358 C406.761905,26.8337488 404.953211,25.5452975 403.037074,24.4348265 C401.489185,23.5490585 399.850244,22.8160091 398.241653,22.0829598 C396.408092,21.2224057 394.510437,20.5075375 392.566061,19.9448991 C390.575481,19.4141092 388.545465,19.0463832 386.495908,18.845325 C384.129578,18.6138918 381.741106,18.8314642 379.454531,19.4867432 C377.52477,20.0435956 375.654221,20.7904337 373.869991,21.7164351 L373.627185,21.7164351 L373.293326,20.9833857 C372.477704,19.3146765 371.458116,17.7550501 370.25825,16.3407396 C369.051024,14.914497 367.602122,13.7149138 365.978792,12.7976676 C365.08495,12.2721608 364.138927,11.8422083 363.156171,11.5148312 C362.324597,11.2102638 361.472648,10.9653022 360.606707,10.7817818 C358.380157,10.330556 356.100296,10.207093 353.838487,10.4152571 C350.111008,10.7601599 346.440693,11.5707109 342.912213,12.8282114 C339.977176,13.9078634 337.151748,15.268191 334.4747,16.8905267 C333.090633,15.6331444 331.608837,14.489197 330.043489,13.4696296 C326.947824,11.5114358 323.569077,10.0483071 320.027737,9.13242073 C317.056718,8.34668782 313.994201,7.96657592 310.922508,8.00230294 C310.011985,8.00230294 309.131813,8.00230294 308.22129,8.00230294 L308.039186,8.09393411 Z M332.319796,30.2381341 C332.333968,30.4720855 332.333968,30.7066883 332.319796,30.9406398 C332.350083,31.4696256 332.350083,31.9999275 332.319796,32.5289134 C332.319796,33.0481567 332.046639,33.5674 331.894886,34.0560996 C331.743132,34.5447992 331.227169,35.2473049 330.86296,35.7970919 L329.466825,37.2021032 C328.981212,37.5380842 328.465249,37.8435214 327.918936,38.1489587 L326.522801,38.5460271 L325.764031,38.3627647 C325.764031,38.3627647 325.764031,38.0573275 325.764031,37.9046089 C326.264296,36.9127251 326.842815,35.9628233 327.494025,35.0640425 C328.953007,33.3208998 330.557315,31.7063921 332.289445,30.2381341 L332.319796,30.2381341 Z M374.264551,35.0334988 L374.264551,35.4611109 C374.264551,35.3083923 374.264551,35.1862174 374.264551,35.0640425 L374.264551,35.0334988 Z M325.551576,39.6150574 L325.551576,39.8594072 C325.536737,39.7786418 325.536737,39.6958228 325.551576,39.6150574 Z M401.428483,58.368904 L402.763917,58.9186911 L401.762342,58.5216226 L401.519536,58.5216226 L401.428483,58.368904 Z M405.009873,60.8734894 L405.191978,61.1178392 L405.009873,60.8734894 Z" id="Shape"></path>
            <path d="M512.791078,121.614692 C510.147891,122.314611 507.602248,123.347186 505.21396,124.688153 C502.718684,125.917538 500.314699,127.269861 497.941144,128.745122 C495.432519,130.37126 493.014711,132.136064 490.698759,134.031476 C488.614149,135.778119 486.670612,137.689711 484.886593,139.748114 C483.030351,141.745863 481.32626,143.897286 479.530879,145.895036 C477.735498,147.892786 476.092267,149.798332 474.449037,151.796082 C470.979995,155.975989 467.602244,160.309569 464.528795,164.827557 C461.029323,169.990972 457.651572,175.246591 454.243391,180.502209 C453.609531,182.15304 454.248578,184.024838 455.755147,184.930214 C457.261717,185.835591 459.195348,185.509851 460.329429,184.159628 C464.011482,178.473725 467.693535,172.849291 471.64946,167.347795 C474.70669,163.420042 478.031663,159.712632 481.600132,156.2526 C485.495196,152.533712 489.390261,148.845559 493.528767,145.403282 C495.609837,143.810668 497.795708,142.362803 500.071258,141.069702 C502.566533,139.686644 505.092239,138.45726 507.648375,137.289345 C510.422412,136.09238 513.307098,135.176107 516.260119,134.553964 C517.333379,134.461709 518.412459,134.461709 519.48572,134.553964 C521.104022,134.878334 522.692106,135.341018 524.232829,135.937022 C526.059625,136.793106 527.801942,137.822198 529.436392,139.010483 C531.913803,141.079095 534.177208,143.396035 536.191894,145.925771 C537.545572,147.728018 538.766076,149.628453 539.843517,151.611674 L541.82148,155.330562 C542.825676,157.236108 543.708151,159.233858 544.590627,161.200873 C546.59902,166.210615 548.150959,171.37403 549.79419,176.568179 C550.615805,179.211356 551.52871,181.793063 552.563337,184.344036 C553.263231,186.03444 553.963126,187.663374 554.784741,189.261574 C555.743832,191.017847 556.965238,192.614303 558.405934,193.994704 C560.120464,195.724746 562.61837,196.399927 564.959267,195.766062 C567.300164,195.132198 569.128664,193.285519 569.756395,190.921243 C569.756395,190.306551 569.756395,189.722593 569.999836,189.107901 C570.008241,187.888641 569.693007,186.689381 569.08693,185.63489 C568.143595,183.514201 567.048108,181.485717 566.043911,179.487967 C564.24853,174.939245 562.848741,170.267584 561.388092,165.626657 C559.51766,159.675616 557.124444,153.905296 554.236997,148.38454 L552.046024,144.296836 C549.977485,140.769318 547.572185,137.454679 544.864499,134.400291 C539.632533,128.040475 532.500219,123.565145 524.537131,121.645427 C522.659473,121.218465 520.740911,121.002014 518.816255,121 L518.542384,121 C516.603136,121.065443 514.675786,121.333234 512.791078,121.7991 L512.791078,121.614692 Z" id="Shape"></path>
            <path d="M606.391268,84.7815322 L605.445834,86.0266528 C604.908298,86.9493772 604.624292,87.9967986 604.622391,89.0635322 C604.572218,91.4863801 604.89098,93.9028139 605.567825,96.2305677 C605.903302,97.8704826 606.208281,99.5407663 606.452264,101.21105 C606.791719,105.253168 606.791719,109.31645 606.452264,113.358568 C606.299774,115.454015 606.208281,117.549461 606.025293,119.614539 C605.567825,124.321703 605.171353,129.028866 604.591893,133.70566 C604.012434,138.382454 603.524468,143.180724 602.91451,147.887887 C602.304553,152.59505 601.572604,157.848852 600.932149,162.829334 C600.291693,167.809816 599.681736,172.851036 599.04128,178.013731 C598.736302,180.412866 598.61431,182.84237 598.400825,185.241504 C598.400825,186.820682 598.126344,188.278384 598.004353,189.918299 C598.004353,190.64715 597.821365,191.345632 597.821365,192.074483 C597.821365,194.746937 597.638378,197.44976 597.577383,200.122214 C597.577383,202.005079 597.424893,203.857575 597.577383,205.710072 C597.577383,208.746951 597.577383,211.571249 597.790868,214.486653 C597.790868,216.916157 598.126344,219.376029 598.309331,221.805533 C598.498849,226.158495 599.122031,230.481957 600.169702,234.71227 L600.413685,235.501859 C594.659753,235.258909 588.895655,235.076696 583.121391,234.955221 C573.148586,234.773008 563.206279,234.621164 553.233475,234.013788 C543.779134,233.436781 534.294295,232.768668 524.809457,232.495348 C522.278133,232.495348 519.74681,232.495348 517.184989,232.495348 C514.623167,232.495348 512.488316,232.495348 510.170478,232.677561 C505.321316,232.859774 500.53315,233.2242 495.714486,233.649363 C492.35972,233.953051 488.974456,234.347845 485.61969,234.955221 C483.478677,235.318738 481.360609,235.805454 479.276132,236.412923 C478.488386,236.674305 477.723396,236.99932 476.988792,237.384724 C476.097526,237.787826 475.34464,238.442493 474.823443,239.26759 C474.336913,240.057243 474.054036,240.954445 474,241.879306 C474.014571,242.903403 474.147606,243.922418 474.396472,244.916185 C474.692609,245.963373 475.783792,246.574565 476.836302,246.282781 C477.872771,245.987672 478.482431,244.92191 478.208707,243.883646 C478.208707,243.519221 478.025719,243.124427 477.964724,242.760001 L477.964724,242.000781 L477.964724,241.666724 L478.178209,241.484512 C478.360517,241.35547 478.554509,241.243634 478.757668,241.150455 C480.665373,240.517349 482.624557,240.049948 484.61326,239.75349 L488.05952,239.26759 L487.449562,239.26759 C496.858414,238.427227 506.310244,238.163533 515.751589,238.478001 C520.60075,238.629845 525.449912,239.055008 530.299074,239.419434 C535.148236,239.783859 540.332874,240.300129 545.365023,240.694923 L559.058569,241.909675 C561.315411,242.091888 563.602752,242.182994 565.890092,242.334838 L571.989667,242.699263 C576.838829,242.942214 581.718488,243.063689 586.537152,243.428114 L595.686514,244.096228 C597.912859,244.096228 600.139204,244.55176 602.365549,244.79471 L602.609532,244.79471 C604.012434,244.976923 605.445834,245.159136 606.879234,245.402086 L607.428196,245.79688 C608.229055,246.303071 609.11905,246.65344 610.051013,246.829419 C611.167876,247.05686 612.319413,247.05686 613.436277,246.829419 C614.824878,246.454261 616.0086,245.548399 616.730047,244.30881 C617.470135,243.019541 617.667505,241.490937 617.279009,240.057178 C616.900429,238.667587 615.992238,237.479951 614.747685,236.74698 L613.985238,236.291448 C613.675496,236.013135 613.380295,235.719184 613.1008,235.410753 C612.766414,234.891348 612.460974,234.354021 612.185864,233.801207 C611.422636,231.632014 610.871125,229.394627 610.538979,227.120072 C610.234,224.569093 610.081511,222.048483 609.929021,219.497504 C609.929021,217.766483 609.65454,216.005093 609.624042,214.274072 C609.624042,210.477972 609.410557,206.651504 609.624042,202.825036 L609.715536,194.503987 C609.715536,193.258866 609.715536,192.044114 609.929021,190.798994 C610.386489,186.516994 610.81346,182.265362 611.24043,177.983362 C612.582336,168.488053 613.934409,158.992743 615.296647,149.497433 C616.730047,139.597206 617.888966,129.696979 618.98689,119.766383 C619.139379,118.308681 619.26137,116.729504 619.383362,115.393277 C619.627345,112.629717 619.871328,109.896525 619.993319,107.132965 C620.060515,102.633965 619.620628,98.1416593 618.681911,93.7403266 C618.498924,92.8292628 618.193945,91.9485677 617.949962,91.0375039 C617.832649,90.6062296 617.669051,90.1887843 617.461996,89.7923833 C617.126519,88.9724259 616.760545,88.1828372 616.425068,87.3932485 C616.126469,86.4012727 615.593056,85.4951837 614.869677,84.7511634 C612.494214,82.4162789 608.675237,82.4162789 606.299774,84.7511634 L606.391268,84.7815322 Z M478.3002,240.937873 L478.3002,241.211192 L478.3002,240.937873 Z M478.147711,242.425944 C478.164623,242.557004 478.164623,242.689679 478.147711,242.820739 C478.147711,242.820739 478.147711,242.547419 478.147711,242.425944 Z" id="Shape"></path>
            <path d="M584.358319,84.6075592 C583.339137,85.6467389 582.753896,87.0107932 582.714491,88.438919 C582.493206,90.6586751 582.177086,92.8784313 581.860965,95.0981874 C581.070663,100.358705 580.185525,105.588816 579.300387,110.818926 C579.015879,112.43053 578.668146,113.859688 578.320413,115.562514 L575.886284,126.326811 C574.90631,130.6751 573.641827,134.962575 572.408956,139.280456 C570.417396,146.213393 568.425835,153.115923 566.276214,160.018452 C565.639864,161.882626 566.121618,163.932383 567.529749,165.351961 C568.93788,166.771539 571.043885,167.330578 573.009616,166.806591 C574.975346,166.282604 576.481817,164.760621 576.929482,162.84636 C579.331999,155.122825 581.576456,147.368883 583.820913,139.584533 C584.516379,137.212738 585.180232,134.871352 585.844086,132.499558 C586.096982,131.678552 586.255043,130.796731 586.444715,129.975725 L587.867258,123.894202 C588.531112,121.005478 589.226577,118.116754 589.890431,115.197623 C590.554284,112.278492 590.996853,109.116099 591.534259,106.075337 C592.071664,103.034576 592.451009,100.845227 592.893578,98.1997644 C593.484067,94.9627278 593.853664,91.6919861 594,88.4085114 C593.98552,86.2178159 592.607052,84.248983 590.502085,83.4125225 C588.397118,82.5760621 585.975966,83.0350223 584.358319,84.5771515 L584.358319,84.6075592 Z" id="Shape"></path>
            <path d="M564.465064,2.21238166 C561.024679,3.45397288 557.750236,5.1261585 554.717515,7.19024038 C551.144343,9.75478291 548.328738,13.2608597 546.574376,17.330323 C545.074089,20.7643161 544.055124,24.3947142 543.547187,28.1156835 C543.27474,30.082245 543.093109,32.018079 543.002293,34.015368 C542.977773,36.3612483 543.149935,38.704993 543.516915,41.0212432 C543.732701,42.8488745 544.086922,44.6569088 544.576431,46.4292873 C545.203227,48.4527364 546.003445,50.4165617 546.967911,52.2982441 C547.830301,53.9964403 548.843565,55.6112099 549.9951,57.1224653 C551.360794,59.1036787 552.900893,60.9549301 554.596427,62.6534194 C556.648972,64.686984 558.935916,66.4615386 561.407603,67.9385534 C564.148884,69.6314592 567.145239,70.8563452 570.277267,71.5644011 L571.27624,71.7487662 C573.239367,73.9571128 575.466439,75.9080347 577.905784,77.5562681 C579.181514,78.4575882 580.564923,79.1906795 582.022761,79.7379222 C583.258498,80.1567142 584.538902,80.4249014 585.837019,80.5368378 L587.350614,80.7212029 C588.410823,80.7597311 589.460186,80.4934417 590.377803,79.9530148 C591.677171,79.1844435 592.62402,77.9250704 593.011457,76.4500772 C593.82841,73.3490041 592.052832,70.1540128 589.015568,69.2598368 L587.380886,68.737469 C588.459145,68.07935 589.472835,67.3179288 590.408075,66.4636322 C591.477356,65.5023867 592.488272,64.4762555 593.435264,63.3908799 C594.609016,62.0952148 595.625345,60.6612543 596.462453,59.1197543 C597.157933,57.7388338 597.705942,56.2863832 598.097135,54.7871735 C598.373397,53.4961147 598.455051,52.1699783 598.33931,50.8540506 C598.282217,50.0363512 598.160741,49.2246016 597.976048,48.4265762 C597.708649,47.3522869 597.301442,46.3189461 596.765172,45.3538239 C596.381169,44.6605877 595.924436,44.0115364 595.402937,43.41799 C594.881147,42.7349591 594.292923,42.1069983 593.647167,41.5436111 C592.232856,40.317645 590.61271,39.3600698 588.864208,38.716679 C587.584954,38.2500025 586.252366,37.9505619 584.898591,37.8255808 C583.258896,37.7181763 581.612428,37.8110235 579.994544,38.1021285 C576.944782,38.5680915 574.008127,39.6103487 571.336783,41.1748808 C568.838719,42.5497653 566.843205,44.7046049 565.645668,47.3203854 C565.013531,48.5390726 564.554885,49.8426112 564.283433,51.1920533 C564.100955,52.2078615 563.979643,53.2340147 563.92017,54.2648056 C562.743855,53.1629603 561.641513,51.9824336 560.620534,50.7311405 C559.270585,48.8537335 558.104621,46.8469066 557.139266,44.7392735 C556.797032,43.9075837 556.503885,43.0559488 556.261381,42.1888891 C555.926452,41.001347 555.683536,39.7890347 555.534856,38.5630414 C555.209578,35.4991585 555.209578,32.4086673 555.534856,29.3447845 C555.902332,26.7362136 556.531212,24.1725382 557.411713,21.6936312 C558.040516,20.5648638 558.738126,19.4770424 559.500474,18.4365138 C560.161687,17.7039496 560.869552,17.0162237 561.619506,16.3777698 C563.693351,14.8001987 565.913688,13.4314792 568.24905,12.2910092 C570.085274,11.5127284 571.991124,10.9159036 573.940166,10.5088129 C576.324666,10.2465445 578.730104,10.2465445 581.114604,10.5088129 C583.65574,10.9384478 586.149749,11.6176432 588.561489,12.5368294 C589.776135,13.1001395 590.940842,13.7683609 592.042757,14.5341184 C592.566341,14.9836959 593.061746,15.466033 593.52608,15.978312 C594.501817,17.5348068 595.391177,19.1453871 596.190006,20.8025331 C597.128435,22.6154569 597.976048,24.4898358 598.793389,26.3642147 C600.857185,31.3745573 602.626157,36.5048339 604.09097,41.7279762 C605.444032,46.6795746 606.455545,51.7208543 607.118159,56.81519 C607.81389,61.7409085 607.935817,66.732648 607.481421,71.6873112 C607.15437,74.1415168 606.565661,76.5524028 605.725652,78.8775515 C605.332362,79.8091357 604.877238,80.7125522 604.363417,81.5815736 C603.88032,82.4074344 603.742872,83.3951746 603.981722,84.3245439 C604.220571,85.2539132 604.815855,86.0476287 605.634836,86.5287048 C607.337206,87.4972094 609.489275,86.9273502 610.508611,85.2381488 C612.207746,82.3155367 613.386189,79.111854 613.989878,75.7740717 C614.797711,71.7313985 615.122953,67.604683 614.958579,63.4830625 C614.778114,59.6023156 614.383964,55.7348509 613.777975,51.8987863 C613.172537,47.7812983 612.355196,43.6945377 611.356224,39.6077771 C609.321056,31.7737162 606.668769,24.1183933 603.424988,16.7157725 C602.728735,15.0872138 602.032481,13.4586551 601.245412,11.8915514 C600.367112,10.2974365 599.219486,8.87251414 597.85496,7.68188075 C594.805084,5.09845788 591.273757,3.16513907 587.471701,1.99728899 C583.956941,0.827197974 580.299902,0.155093976 576.604092,0 L575.332673,0 C571.609038,0.0727283777 567.928358,0.822025685 564.465064,2.21238166 Z M584.172065,50.4853203 L585.019678,50.7311405 L585.625116,51.0691432 L586.200282,51.6529662 C586.200282,51.9909689 585.988379,52.3289717 585.867291,52.6669744 L585.20131,53.9268029 C584.254973,55.0128043 583.244018,56.0389748 582.17412,56.9995552 C581.421925,57.5192707 580.632677,57.9814592 579.812913,58.3822937 L578.632309,58.751024 C578.32959,58.1364735 577.996599,57.4911955 577.724152,56.8766451 C577.476592,56.173758 577.274352,55.4552646 577.118715,54.7257185 C577.118715,54.3262607 577.118715,53.8960753 577.118715,53.4966175 C577.181375,53.2049026 577.262264,52.9175315 577.36089,52.6362469 C577.352196,52.5751086 577.352196,52.51302 577.36089,52.4518818 C577.921789,52.0630802 578.508438,51.7140068 579.116659,51.407146 C580.29013,50.9761298 581.494449,50.6371323 582.719014,50.3931377 L584.172065,50.4853203 Z M578.299318,51.9909689 L577.996599,52.2367891 L578.299318,51.9909689 Z M607.208974,57.2453753 L607.208974,57.6448331 L607.208974,57.2453753 Z" id="Shape"></path>
            <path d="M265.604076,187.703539 C262.115427,190.174348 258.779789,192.797677 255.382946,195.390502 C250.584613,199.162151 246.167146,203.39174 242.193405,208.019083 C239.898241,210.672915 237.817293,213.479267 235.644538,216.224611 C234.083826,218.207359 232.584319,220.190107 231.023608,222.325375 C223.709686,232.26962 216.365162,242.183361 209.173648,252.219118 C202.594179,261.370264 196.320731,270.704433 190.077886,280.069106 C183.83504,289.433779 178.204238,298.371398 172.389823,307.522544 C166.575408,316.67369 160.8528,325.824836 154.82417,334.975982 C151.763951,339.704074 148.52012,344.401662 145.30689,349.038243 C143.776781,351.265022 142.246672,353.430793 140.594154,355.596564 L138.452001,358.646946 C138.018884,359.243986 137.620404,359.865246 137.258516,360.507679 C136.849337,361.293274 136.501483,362.109124 136.218042,362.947985 C135.927319,364.037348 135.927319,365.183539 136.218042,366.272901 C136.767572,368.251242 138.330979,369.789098 140.322809,370.310587 C142.31464,370.832076 144.434412,370.258527 145.888332,368.804718 L145.888332,368.621695 L146.408569,368.835222 C149.810253,370.315149 153.042123,372.155996 156.048257,374.32591 C164.129196,381.231087 171.527917,388.892035 178.143034,397.203775 C182.060113,401.779348 185.854784,406.354921 189.649455,411.083013 L200.666241,424.565701 C207.737563,433.825881 215.84892,442.248906 224.841967,449.670345 C229.470233,453.444077 234.624551,456.526727 240.143059,458.821491 C242.273512,459.413344 244.536409,458.498564 245.651452,456.594712 C247.002799,454.267438 246.225259,451.28965 243.907127,449.914376 C241.97919,448.846742 240.173661,447.626589 238.33753,446.406437 C235.736344,444.667719 233.135159,442.929001 230.625779,441.068268 C228.1164,439.207535 225.147989,436.553703 222.577405,434.113397 C219.517187,431.063015 216.671184,428.012633 213.82518,424.962251 C211.591221,422.460938 209.449068,419.898617 207.306915,417.336296 L196.137118,404.067134 C192.281243,399.461058 188.394765,394.915988 184.385879,390.370919 L178.265443,383.538063 C172.971337,377.512366 167.109688,372.006643 160.760993,367.096504 C157.788928,364.856469 154.588688,362.934318 151.213112,361.361786 L151.060101,361.361786 L151.61094,360.538183 C153.018641,358.43342 154.426341,356.35916 155.80344,354.254396 C159.139078,349.221266 162.413511,344.127128 165.687945,339.002486 C171.808382,329.85134 177.316775,320.303645 183.161792,310.938972 L193.811352,293.826329 C196.87157,288.732191 200.421424,283.729564 203.72646,278.574419 C209.846897,269.087731 216.365162,259.784066 222.883427,250.541408 C226.678098,245.213408 230.503371,239.895575 234.359246,234.58791 C236.593205,231.537528 238.76596,228.304123 241.122329,225.436764 L248.772875,215.523023 L248.00782,216.529649 C251.927038,211.611567 256.369945,207.131802 261.258566,203.168976 L267.532013,198.318868 L270.592232,196.153097 C271.700423,195.451367 272.507501,194.364225 272.856793,193.102715 C273.161826,191.861264 272.975522,190.550404 272.336556,189.442257 C271.666375,188.306775 270.561633,187.491894 269.276338,187.184974 C268.825762,187.072065 268.363753,187.010662 267.89924,187.001951 C267.048787,186.975355 266.212183,187.221253 265.512269,187.703539 L265.604076,187.703539 Z" id="Shape"></path>
            <path d="M269.630958,253.550964 C269.425606,253.886471 269.261887,254.245914 269.143443,254.621295 C269.0425,255.126332 268.971281,255.636897 268.930155,256.150339 C268.930155,257.098346 268.930155,258.015772 268.930155,258.963779 C268.930155,259.911787 268.930155,260.462242 268.930155,261.196183 C268.930155,261.471411 268.930155,261.716058 268.716867,261.991286 C268.137944,263.826139 267.467611,265.59983 266.766808,267.373521 C263.736687,274.4013 259.869327,281.034718 255.249269,287.128767 C249.531007,294.173942 242.994654,300.508289 235.779143,305.997168 C230.599297,309.942101 225.206163,313.520063 219.81303,317.128607 C215.821502,319.789143 211.860443,322.510841 207.899385,325.232539 C203.938326,327.954237 200.769479,330.339545 197.174057,332.847177 L194.523195,334.712611 C193.296214,335.525416 192.143953,336.446495 191.080121,337.46489 C190.380201,338.204581 189.71913,338.980347 189.099592,339.789036 C188.215971,340.920529 187.30188,342.052021 186.509669,343.244675 C185.393829,344.779569 184.577124,346.512322 184.102564,348.351682 C183.679018,352.019204 184.576003,355.717856 186.631547,358.779761 C188.247077,361.632343 190.070047,364.361445 192.08562,366.944855 C194.127089,369.666553 196.290436,372.265927 198.392844,374.895883 L207.320461,386.180226 L216.065259,398.198511 C216.94888,399.452327 217.741092,400.736723 218.594243,402.02112 L223.469391,409.605178 C225.663209,412.999655 227.765616,416.455294 229.898494,419.880352 C232.397008,423.794704 234.986931,427.709057 237.363566,431.715151 C239.161277,434.773239 241.019928,437.831327 242.543412,440.889414 C242.99584,442.453087 243.774858,443.902137 244.828638,445.140156 C247.039606,447.296129 250.401736,447.731937 253.085921,446.210487 L253.634375,445.874097 C253.972715,446.220091 254.288237,446.587841 254.578936,446.975009 C256.191748,449.330902 257.56953,451.840445 258.692342,454.467324 C259.606433,456.760889 260.429114,459.085036 261.160387,461.470344 C261.888386,463.673847 262.478614,465.920815 262.927628,468.198137 C262.927628,468.65685 262.927628,469.084983 262.927628,469.543696 C262.927628,470.002409 262.927628,470.094151 262.71434,470.369379 C262.501053,470.644607 262.074477,471.43971 261.708841,471.990166 C260.987747,472.805678 260.203222,473.562388 259.362675,474.253151 C256.089191,476.540036 252.586451,478.477161 248.911575,480.032936 C245.366371,481.560534 241.696383,482.778096 237.94249,483.672061 C238.620772,482.682663 238.982181,481.509133 238.978459,480.308164 C238.956223,478.739787 238.334464,477.239929 237.241687,476.118584 C236.301284,475.026393 235.282939,474.004332 234.194719,473.060496 C233.412852,472.395432 232.588404,471.782501 231.726675,471.225644 C230.750198,470.701 229.730833,470.261073 228.679707,469.910666 C227.108868,469.332396 225.447217,469.042358 223.774088,469.054402 L223.164695,469.054402 L220.78806,469.36021 C218.698702,469.835969 216.786476,470.896303 215.273047,472.418298 C214.335761,473.379316 213.645571,474.554822 213.262048,475.843356 C213.009444,476.842164 212.896639,477.871409 212.926882,478.901444 C212.98328,479.939614 213.167499,480.966786 213.475336,481.959532 C214.070425,483.556957 214.836662,485.08477 215.760562,486.516082 C216.783163,488.193555 217.934333,489.78858 219.203636,491.286699 C221.529,493.896983 224.474293,495.874691 227.765616,497.035904 C229.466143,497.612497 231.242669,497.931996 233.036871,497.983911 C235.14216,498.056719 237.248711,497.882243 239.313625,497.464036 C242.443393,496.893963 245.506467,496.00243 248.45453,494.8035 C252.019482,493.457941 255.523496,491.959478 258.9361,490.27753 C261.665883,488.922643 264.257858,487.304428 266.675399,485.445752 C268.112528,484.389478 269.457996,483.213011 270.697397,481.928951 C272.034613,480.45903 273.181244,478.825282 274.110001,477.066591 C275.855335,473.668705 276.413296,469.781032 275.694424,466.026895 C275.007025,462.84496 274.12167,459.709375 273.043562,456.638566 C271.955634,453.442328 270.694337,450.308204 269.265322,447.250237 C268.655928,445.874097 267.924656,444.528539 267.193383,443.213561 C266.172453,441.467315 265.021484,439.801008 263.750309,438.228878 C261.701853,435.441187 258.802508,433.401017 255.493026,432.418512 C254.397023,432.150008 253.262435,432.077543 252.141361,432.204445 L251.501498,431.3176 C250.221771,429.421586 248.911575,427.49499 247.601379,425.629557 C244.889577,421.806947 242.238715,417.953757 239.557383,414.100566 C236.876051,410.247376 234.956461,407.158707 232.640765,403.733649 L227.39998,396.027268 C226.607769,394.834614 225.815557,393.672541 224.931936,392.510468 L218.838,384.131307 C217.497334,382.357617 216.217607,380.553345 214.816002,378.840816 L208.143142,370.61456 C205.644628,367.556472 203.115645,364.498385 200.70854,361.440297 C198.439915,358.586514 196.459792,355.513293 194.797422,352.266034 L194.431786,351.103961 C195.89433,349.422012 197.478754,347.862388 199.093647,346.272182 C201.104646,344.223263 203.267993,342.35783 205.43134,340.461816 C209.514278,336.822691 213.627685,333.214148 217.954379,329.819671 L226.45542,323.275363 C232.549356,318.688231 238.369065,314.1011 243.914547,309.055255 C248.107562,305.250968 252.037116,301.16403 255.675844,296.822905 C259.30235,292.405438 262.505692,287.654563 265.243324,282.633378 C268.031749,277.633794 270.31806,272.36838 272.068532,266.914807 C272.286092,266.623669 272.403699,266.269562 272.403699,265.905638 C273.068737,263.761241 273.537875,261.560528 273.805304,259.33075 C273.987517,258.260565 274.048845,257.173163 273.988122,256.089177 C273.926973,255.09398 273.464969,254.1666 272.708396,253.520383 C272.371719,253.177062 271.908493,252.988882 271.428669,253.000509 C270.804408,252.990349 270.222751,253.317265 269.905185,253.856773 L269.630958,253.550964 Z M236.175248,305.599616 L235.748673,305.936006 L236.175248,305.599616 Z M194.157559,350.951056 C194.140629,351.093261 194.140629,351.236984 194.157559,351.379189 C194.140629,351.236984 194.140629,351.093261 194.157559,350.951056 Z M193.974741,351.165122 C193.989331,351.297235 193.989331,351.430561 193.974741,351.562674 C193.974741,351.562674 193.974741,351.287446 193.974741,351.165122 Z" id="Shape"></path>
            <path d="M288.847701,471.4026 C287.922222,471.945193 287.248325,472.850857 286.979011,473.913973 C286.563746,476.976624 286.11882,480.039275 285.703555,483.101925 C285.703555,484.081974 285.4366,485.062022 285.288291,486.164576 C284.827744,488.642096 284.530444,491.149012 284.398438,493.66807 C284.410471,495.538605 285.620272,497.174992 287.364613,497.680143 L287.898525,497.680143 C287.720554,500.987805 287.30529,504.264842 286.949349,507.511251 C286.62307,510.298263 286.326452,513.115902 285.970511,515.902914 C285.288291,521.354432 284.576409,526.805951 283.894189,532.257469 C282.391327,544.140553 280.888465,556.033847 279.385603,567.937349 C279.385603,568.978651 279.118647,570.019952 279,571 C280.039068,569.730757 281.271315,568.644625 282.648395,567.784217 C284.684716,566.563131 286.997129,565.918683 289.351951,565.916 L289.67823,565.916 C290.419774,558.320626 291.131656,550.602746 291.873199,543.068626 C292.614743,535.534505 293.504596,526.98971 294.305463,518.934938 C294.661404,515.41289 294.958021,511.890842 295.284301,508.368793 C295.521595,505.76554 295.729227,503.162287 295.877536,500.528408 C296.040821,497.887007 296.040821,495.237543 295.877536,492.596142 C296.019585,490.075411 295.150673,487.605414 293.474934,485.766431 L294.809713,476.180335 C295.072185,475.096144 294.934741,473.949911 294.42411,472.964552 C293.886621,472.007121 292.99984,471.31213 291.962185,471.035082 C291.607685,470.988306 291.248861,470.988306 290.894362,471.035082 C290.173056,471.029142 289.464387,471.23063 288.847701,471.616985 L288.847701,471.4026 Z" id="Shape"></path>
            <path d="M377.370988,536.57524 C376.180371,537.238876 375.144817,538.147013 374.332905,539.239508 C373.846812,539.8753 373.482242,540.541367 373.02653,541.207434 C372.480765,541.925705 372.163323,542.790377 372.115105,543.690048 C372.061968,544.535152 372.28588,545.374575 372.753102,546.081835 C371.385965,548.83693 369.988447,551.561751 368.621309,554.286571 C366.0997,559.251799 363.851519,564.338129 361.724861,569.42446 C359.415918,575.055755 357.167736,580.747602 354.949936,586.439448 C354.251177,588.225719 353.522037,589.981715 352.91442,591.798261 L349.633291,601.335132 C348.083868,605.846223 346.595208,610.417866 345.136928,614.959233 L339.303808,635.819245 C339.303808,636.21283 339.091142,636.606415 339,637 C342.463415,637 345.926829,637 349.390244,637 L350.119384,634.577938 L353.491656,622.921763 C354.251177,620.318046 355.010697,617.744604 355.739837,615.140887 C356.256312,613.415168 356.955071,611.719724 357.562687,610.024281 L361.572957,598.731415 C362.180573,596.97542 362.757809,595.189149 363.456568,593.493705 L368.712452,580.68705 C370.565682,576.569544 372.418913,572.482314 374.363286,568.576739 C375.851947,565.549161 377.401369,562.521583 379.163457,559.494005 C381.198973,565.064748 382.839538,570.756595 384.571245,576.418165 C385.361147,579.021882 385.938383,581.686151 386.637142,584.320144 L388.915704,593.10012 C390.465126,598.973621 391.953787,604.93795 393.260163,610.841727 C394.475396,615.685851 395.660248,620.529976 396.875481,625.404376 C397.726145,628.764988 398.546427,632.1256 399.39709,635.516487 L410,635.122902 C407.44801,626.040168 405.017544,616.715228 402.556697,607.481115 C401.007274,601.789269 399.518614,596.067146 397.969191,590.3753 C397.057766,587.347722 396.115961,584.077938 395.204536,580.929257 C394.536157,578.598022 393.958922,576.236511 393.199401,573.935552 L389.280274,562.339928 C388.277706,559.31235 387.062473,556.58753 385.816859,553.741607 C385.300385,552.530576 384.723149,551.319544 384.115533,550.108513 C384.540864,549.291067 384.966196,548.41307 385.330766,547.565348 C386.607588,545.42565 387.020295,542.882209 386.485237,540.45054 C385.905076,538.419246 384.30478,536.835956 382.262302,536.272482 C381.654685,536.272482 381.07745,536.060552 380.469833,536 C379.404662,536.042632 378.36426,536.332937 377.43175,536.847722 L377.370988,536.57524 Z" id="Shape"></path>
            <path d="M445.057194,475.490724 C444.980935,475.956495 444.980935,476.43175 445.057194,476.897521 C445.057194,477.386841 445.329758,477.814997 445.390328,478.304317 L445.753747,480.536842 C445.935456,481.607231 446.056596,482.708202 446.208021,483.778591 C446.208021,483.778591 446.208021,483.778591 446.208021,483.778591 C446.208021,484.298494 446.208021,484.84898 446.420015,485.368883 C446.632009,485.888786 446.692579,486.011116 447.055998,486.011116 C447.224671,486.011116 447.386436,485.943452 447.505706,485.82301 C447.624976,485.702568 447.691981,485.539214 447.691981,485.368883 C447.691981,484.206746 447.389132,483.014028 447.267992,481.851891 C447.267992,482.188299 447.449702,482.524707 447.570842,482.891697 C448.146255,484.84898 448.630813,486.867427 449.115372,489.008204 C449.599931,491.148982 449.993634,492.555778 450.417623,494.329565 C451.205031,497.387819 452.022723,500.751898 452.749561,503.993646 L455.778052,517.449961 C456.38375,520.080059 456.989448,522.710157 457.534577,525.370838 C460.684207,540.641717 463.843933,555.932984 467.013754,571.244639 C470.042245,585.863091 473.313015,600.420377 476.583785,614.977664 C477.997081,621.338831 479.440662,627.67961 480.914527,634 L490,633.694175 L486.274956,619.932034 C482.428773,605.711156 478.764299,591.39853 475.160394,577.116486 C471.707915,563.384928 468.376575,549.592205 465.045234,535.89123 C464.076117,531.854335 463.076715,527.786858 462.016743,523.658216 C461.320191,520.752875 460.502498,517.878117 459.77566,515.003359 C458.655119,510.813551 457.595147,506.623744 456.50489,502.464519 C456.262611,501.516461 455.959762,500.568402 455.687197,499.650926 C454.930075,497.143159 454.203237,494.635391 453.476399,492.158205 C453.082695,490.781991 452.658706,489.405777 452.265003,487.998981 C451.629019,485.858203 450.871897,483.748008 450.084489,481.637814 C449.710824,480.593228 449.275973,479.572008 448.782238,478.57956 C448.267395,477.509171 447.631411,476.499948 447.055998,475.521307 C446.879416,475.183963 446.524771,474.981023 446.147451,475.001404 C445.646153,474.981578 445.196166,475.309763 445.057194,475.796549 L445.057194,475.490724 Z" id="Shape"></path>
            <path d="M304.74,472.216216 C304.368868,472.699508 304.111462,473.319989 304,474 C304.256628,473.299411 304.557758,472.630234 304.9,472 L304.74,472.216216 Z" id="Shape"></path>
            <path d="M278.24,188.4 L278,188.68 C278.26,188.44 278.52,188.2 278.78,188 C278.579695,188.103482 278.397361,188.238544 278.24,188.4 Z" id="Shape"></path>
            <polygon id="Shape" points="291 372.02 291 372 291 372 291 372.02 291 372.02"></polygon>
            <path d="M295.182337,450.19403 C295.182337,452.910448 295.182337,455.686567 295.668568,458.402985 C295.821505,459.433016 296.118052,460.437468 296.549861,461.38806 C296.760917,462.216811 297.202899,462.9714 297.826218,463.567164 C298.763178,464.482364 300.030036,464.997289 301.351392,465 C302.230141,464.997981 303.091693,464.76061 303.843326,464.313433 C305.003703,463.6855 305.833745,462.598395 306.122534,461.328358 C306.122534,460.731343 306.426428,460.164179 306.547986,459.567164 C306.669544,458.970149 306.821491,457.776119 306.943049,456.910448 C307.018984,455.747463 307.018984,454.580895 306.943049,453.41791 C306.943049,452.552239 306.943049,451.686567 306.943049,450.820896 C305.627725,451.239167 304.253395,451.450729 302.870864,451.447761 C300.053784,451.443945 297.306017,450.589416 295,449 C295,449.38806 295,449.776119 295,450.19403 L295.182337,450.19403 Z" id="Shape"></path>
            <path d="M251.275862,880.16 C252.187876,880.829641 253.527811,881.089715 254.77931,880.84 L255,880.84 C254.064761,880.722711 253.142721,880.555591 252.241379,880.34 L251,880 C251.076946,880.082534 251.169849,880.156624 251.275862,880.22 L251.275862,880.16 Z" id="Shape"></path>
            <polygon id="Shape" points="483.478873 721.44 485 721.16 483 721 483.478873 721.44"></polygon>
            <path d="M503,887 C503,887.1 503,887.2 503,887.28 C503,887.36 503,887.1 503,887 Z" id="Shape"></path>
            <path d="M260.12711,901.048663 C258.562236,901.96329 257.423922,903.47152 256.965225,905.238059 C256.506528,907.004597 256.765464,908.88304 257.684469,910.455792 C258.675295,912.155919 259.864396,913.729873 261.226298,915.143934 C261.462277,915.489799 261.676433,915.85035 261.867492,916.223441 L261.653761,916.439342 L261.287365,916.655243 L260.920968,916.655243 C259.699648,916.655243 258.50886,916.655243 257.257007,916.655243 C254.868833,916.52222 252.493556,917.089934 250.417612,918.289925 C249.548923,918.851207 248.740519,919.50243 248.005504,920.233036 L246.997914,921.250857 L245.410198,922.793009 L245.165934,922.947224 L244.92167,922.947224 C243.517151,922.947224 242.112632,922.947224 240.708114,922.947224 L236.769355,922.947224 C234.448846,922.947224 232.097804,923.163125 229.777295,923.286498 C224.678282,923.564085 219.609802,924.150103 214.510789,924.921179 C210.052969,925.568883 205.656215,926.401645 201.198395,927.203564 C196.190981,928.098012 191.183567,928.961618 186.14562,929.763537 L178.665032,930.904729 L180.68021,930.164496 C182.970186,929.362577 185.260162,928.498972 187.580671,927.758739 L202.572381,922.793009 C204.831824,922.021933 207.030201,921.158328 209.259111,920.356408 C211.48802,919.554489 212.831473,919.030158 214.602388,918.289925 L223.212697,914.773818 C225.350008,913.879369 227.426253,912.861549 229.502498,911.905415 C231.578743,910.94928 233.105394,910.363263 234.845775,909.437971 L238.418138,907.525703 C239.608925,906.877999 240.830246,906.137766 242.082099,905.551748 L242.479029,905.551748 C243.272887,906.69294 244.127811,907.834133 244.982736,908.944483 C245.699176,909.533106 246.740228,909.479122 247.393235,908.819485 C248.046241,908.159848 248.099682,907.108225 247.516976,906.38451 L246.539919,905.089102 C246.205504,904.582617 245.899686,904.057448 245.623929,903.516107 C245.522592,903.091476 245.379389,902.678171 245.196467,902.282385 C244.915643,901.844018 244.511633,901.500344 244.036212,901.295408 C242.996959,900.734834 241.786404,900.591617 240.647048,900.894448 C239.011884,901.333452 237.409902,901.890047 235.853365,902.559973 L229.746762,904.934887 L221.869245,908.019191 C219.579269,908.913639 217.167161,909.592186 214.816119,910.394106 C213.014671,911.010966 211.18269,911.627827 209.35071,912.152159 L200.893065,914.588759 C198.51149,915.236463 196.068849,915.760795 193.656741,916.346813 L186.664681,918.074023 C182.054196,919.215216 177.504777,920.510624 172.924825,921.99109 C170.787514,922.669637 168.711269,923.594928 166.604492,924.42769 C163.978652,925.476354 161.413879,926.740918 158.879639,927.97464 C157.87205,928.468129 156.86446,929.023304 155.826338,929.578478 C155.060417,930.02433 154.343905,930.551662 153.689027,931.151474 C153.006893,931.80875 152.402385,932.543594 151.887579,933.34133 C151.276643,934.475429 150.971304,935.75173 151.002122,937.042495 C151.071337,938.856509 151.762056,940.589938 152.956235,941.946539 C153.596236,942.556006 154.31525,943.074803 155.093546,943.488691 C155.93509,943.920354 156.827771,944.241665 157.749918,944.444825 C159.460833,944.782106 161.19763,944.967869 162.94053,945 C164.497714,945 165.993831,945 167.642614,944.753256 C169.291397,944.506511 171.459241,944.444825 173.352287,944.228924 C180.497012,943.457848 187.611204,942.316655 194.725396,941.14462 C201.106796,940.219328 207.457663,939.078136 213.808529,938.060315 C216.587034,937.721042 219.335005,937.412611 222.113509,937.165867 C224.892013,936.919123 228.220112,936.734064 231.273413,936.672378 C234.326714,936.610692 237.380015,936.672378 240.616515,936.672378 L242.69276,936.672378 C244.95215,936.859939 247.226561,936.640632 249.410022,936.024674 C252.405222,934.853037 255.083615,932.982376 257.226474,930.565456 L258.478327,930.565456 C259.088988,930.565456 259.730181,930.565456 260.340841,930.565456 C262.825461,930.556332 265.276763,929.987334 267.516099,928.899931 C269.037766,928.138901 270.437563,927.151173 271.668589,925.969842 C273.324649,924.496058 274.59388,922.631156 275.363083,920.541467 C276.609942,916.382065 276.008376,911.880771 273.714301,908.204249 C272.84759,906.747515 271.823559,905.392413 270.660999,904.163811 C269.928207,903.392735 269.164882,902.745031 268.371024,902.004798 C267.060434,900.723639 265.309516,900.005106 263.485741,900 C262.305545,900.007804 261.147817,900.326754 260.12711,900.925291 L260.12711,901.048663 Z M246.356721,904.749829 L246.356721,904.904044 L246.356721,904.749829 Z M257.837134,930.565456 L257.440205,930.565456 L257.837134,930.565456 Z" id="Shape"></path>
            <path d="M468.217052,909.802793 C467.296292,913.377806 469.386698,917.036367 472.939943,918.068642 L474.189224,918.463701 L473.82358,925.939433 C473.82358,927.215777 473.82358,928.52251 473.82358,929.829244 C473.710295,931.676709 473.874619,933.530685 474.311105,935.329681 C474.930028,937.374131 477.046502,938.576508 479.125406,938.064704 C479.57776,937.980431 480.011239,937.815736 480.405157,937.578478 C480.83177,937.291178 481.280001,937.037179 481.745849,936.818749 C482.172902,936.664907 482.610855,936.543013 483.05607,936.454079 C483.522772,936.423337 483.991,936.423337 484.457702,936.454079 C488.114134,937.15303 491.648684,938.338207 495.305116,938.976379 L505.08607,940.647782 C510.997301,941.620235 516.908532,942.805412 522.819763,943.929811 C534.428933,946.178608 546.281865,946.968726 557.708214,950.007641 C560.511478,950.797759 563.253801,951.618266 565.996125,952.469162 L570.322902,953.836674 C571.380336,954.204499 572.458877,954.508934 573.55275,954.748349 C574.954796,955.083884 576.416541,955.083884 577.818587,954.748349 C579.365652,954.293787 580.750449,953.408189 581.810191,952.19566 L582.876651,950.797759 C583.290872,950.078907 583.589067,949.299512 583.760288,948.488183 C584.079904,947.036669 584.079904,945.533271 583.760288,944.081756 C583.375835,942.189121 582.59729,940.398057 581.475019,938.824433 C578.841856,935.169773 575.619045,931.976079 571.937826,929.373407 C564.819123,924.094597 556.855312,920.056503 548.384313,917.43047 C542.762494,915.671914 537.004224,914.381023 531.168615,913.571048 C527.755945,913.024043 524.343276,912.385871 520.900136,912.05159 L501.094466,909.954739 L500.39365,909.954739 C496.859099,909.377345 493.294078,908.83034 489.759528,908.070611 C485.37181,907.158937 480.984092,906.247262 476.626845,905.183642 C476.065856,905.06457 475.494058,905.003469 474.92051,905.001307 C471.873496,904.941514 469.169508,906.939137 468.338933,909.863571 L468.217052,909.802793 Z M481.776319,925.939433 C481.776319,924.146473 481.92867,922.353513 482.020081,920.560553 L485.40228,921.38106 C489.272004,922.323123 493.202668,922.991685 497.133331,923.721024 C499.174839,924.085694 501.277287,924.23764 503.227384,924.450364 L510.266015,925.240482 C513.709154,925.635541 517.152294,925.939433 520.595434,926.273713 L529.584161,927.641225 C536.889958,928.723939 544.046691,930.640917 550.913345,933.354386 C553.484728,934.495023 555.987505,935.783668 558.40903,937.213808 C555.605766,936.636414 552.772031,936.119799 549.938297,935.755129 C545.763871,935.208124 541.619915,934.63073 537.445489,934.205282 C533.271063,933.779834 529.279459,933.293607 525.257384,932.807381 L509.808961,930.710529 C505.268892,930.102746 500.667882,929.738077 496.158283,929.25185 C494.116775,928.978348 492.075268,928.674456 490.064231,928.309786 C487.503783,927.743709 484.863541,927.630563 482.263843,927.975506 L481.776319,927.975506 C481.776319,927.276555 481.776319,926.547216 481.776319,925.848265 L481.776319,925.939433 Z" id="Shape"></path>
            <path d="M376.990565,98.1639222 C375.636874,101.066704 374.447638,104.045963 373.428695,107.087074 C373.09837,107.597492 372.836641,108.150577 372.650471,108.731614 C370.42733,115.057509 368.548759,121.503336 367.023315,128.039732 L365.945775,133.064715 C365.945775,133.399714 365.945775,133.765168 365.736253,134.100166 C364.668089,138.507607 364.085819,143.022405 364.000216,147.561031 C363.983014,149.504946 364.995863,151.307698 366.650921,152.278973 C368.305979,153.250248 370.346825,153.239565 371.991974,152.251015 C373.165375,151.603522 374.037598,150.507897 374.41644,149.205571 C374.671232,147.50115 374.821182,145.782206 374.865415,144.05877 C376.335979,135.479974 378.488142,127.036702 381.300726,118.812035 C382.138813,116.162499 383.036764,113.512962 383.904782,110.832971 C385.120935,107.659015 385.828344,104.306973 386,100.904822 C385.987316,98.6900421 384.534132,96.7517561 382.43813,96.1539288 C382.035977,96.0564694 381.624318,96.0053902 381.210931,96.0016566 C379.476953,95.9554491 377.857257,96.878788 376.990565,98.4075577 L376.990565,98.1639222 Z" id="Shape"></path>
            <path d="M333.049326,646.774509 C332.746836,647.439368 332.396031,648.078968 332,648.68768 C333.971736,649.065991 335.915361,649.590028 337.816262,650.255854 C339.105434,650.883123 340.334644,651.604483 341.563854,652.294479 C343.507242,653.480887 345.971174,653.145803 347.560001,651.479029 C348.484774,650.51594 349.002943,649.205943 348.999076,647.840867 C349.025009,646.462156 348.504051,645.133757 347.560001,644.171341 C346.607258,643.256271 345.606337,642.397662 344.561927,641.599537 C343.7577,641.120856 342.871531,640.811843 341.953604,640.689996 C340.724394,640.439089 339.495183,640.313635 338.265973,640.188181 C337.036763,640.062727 336.047399,640.188181 334.938112,640 C334.802557,642.365725 334.189486,644.674575 333.139268,646.774509 L333.049326,646.774509 Z" id="Shape"></path>
            <path d="M405.152265,636.705882 C405.155823,638.483077 405.889682,640.186229 407.192622,641.441176 C408.507825,642.67286 410.263656,643.368029 412.095569,643.382353 C419.434763,643.794118 426.743504,644.205882 434.082697,644.676471 C438.772473,644.941176 443.462248,645.176471 448.12157,645.558824 L463.71355,646.764706 C466.27161,646.970588 468.860122,647.205882 471.448634,647.352941 C474.85938,647.558824 478.300579,647.647059 481.680871,648 C482.75443,647.969633 483.802364,647.676124 484.72618,647.147059 C486.22696,646.384466 487.330594,645.052096 487.771489,643.470588 C488.07617,642.402245 488.07617,641.274225 487.771489,640.205882 C487.323094,638.635364 486.220397,637.314776 484.72618,636.558824 C483.529723,635.983248 482.27435,635.529813 480.98045,635.205882 C479.670968,634.941176 478.300579,634.764706 476.991096,634.617647 L472.179508,634.117647 C469.682355,633.852941 467.215655,633.647059 464.718502,633.441176 C459.419665,632.970588 454.120828,632.588235 448.852444,632.205882 C436.67121,631.264706 424.246351,630.676471 411.943304,630 L411.60832,630 C407.918814,630.201639 405.026232,633.136926 405,636.705882 L405.152265,636.705882 Z" id="Shape"></path>
            <path d="M335.43515,630.857454 L333.98297,635.410961 C333.973132,635.489992 333.973132,635.570022 333.98297,635.649053 C334.823563,639.107439 334.36505,642.770988 332.701635,645.887005 C331.776511,647.823557 330.522236,649.568173 329,651.035742 L329,651.244072 C331.619619,651.809541 334.210763,652.375009 336.830382,653 C338.595777,647.047703 340.446594,641.095405 342.240464,635.143108 C342.468257,634.458594 342.639101,633.774079 342.866894,633.089565 C343.414593,630.955191 342.223224,628.756163 340.190327,628.149158 C339.857848,628.045445 339.512195,627.995267 339.165259,628.000351 C337.44322,628.044766 335.946409,629.248216 335.463624,630.9765 L335.43515,630.857454 Z" id="Shape"></path>
            <path d="M294.750118,492.142618 C294.477951,493.913289 294.175543,495.683961 293.994099,497.454633 L293.540487,502.1866 C293.298561,504.354146 293.086875,506.552222 292.87519,508.719768 L292.149411,516.046685 L291.967967,516.046685 C289.782638,515.460094 287.53506,516.750835 286.917756,518.946923 C284.800902,528.105569 283.016696,537.264216 281.262731,546.422862 C279.508766,555.581509 278.238653,564.526453 276.847577,573.624042 C276.273002,577.348558 275.758909,581.042546 275.244816,584.797591 L273.974703,594.353112 C273.732777,596.123783 273.46061,597.894455 273.248924,599.695656 L271.615922,614.960066 C270.976137,620.195501 270.834366,625.48075 271.192551,630.743467 C271.307418,634.297924 272.547427,637.721705 274.730723,640.51269 C275.394732,641.233327 276.135015,641.878287 276.938299,642.436006 C277.797761,642.922895 278.698461,643.331559 279.629729,643.657158 C280.351953,643.863835 281.090584,644.00684 281.837306,644.084562 L284.256568,644.38985 C287.673776,644.725667 291.151466,644.695138 294.598914,644.90884 C296.262157,644.90884 297.9254,644.90884 299.588643,645.183599 L305.122705,645.763647 L313.650605,646.923742 L319.698761,647.74802 C321.029355,647.900665 322.39019,647.961722 323.720785,648.053309 L328.952439,648.450183 C330.676164,648.450183 332.46037,648.450183 334.184094,648.450183 C337.208172,648.450183 340.23225,648.450183 343.256328,648.816529 C344.249791,649.061157 345.286943,649.061157 346.280406,648.816529 C347.905223,648.341969 349.282889,647.24686 350.120985,645.763647 C351.003808,644.264452 351.233633,642.463582 350.756041,640.787449 L350.120985,639.230479 C349.563947,638.271461 348.772655,637.472633 347.822686,636.910289 C346.951465,636.474822 346.03983,636.127146 345.101015,635.872309 C344.103564,635.65544 343.09352,635.50249 342.076938,635.414377 L341.562844,635.414377 L338.992378,634.55957 C337.056968,633.887936 335.151799,633.124715 333.24663,632.392023 C331.341461,631.659332 329.194366,630.743467 327.198474,629.980246 C325.898121,629.461256 324.597767,628.972795 323.267173,628.514863 C320.187105,627.530126 317.045097,626.754991 313.862291,626.194673 C308.724149,625.245388 303.511764,624.765163 298.288289,624.759818 C295.808546,624.759818 293.359042,624.759818 290.909539,624.97352 C288.913648,624.97352 286.947997,625.187221 284.861384,625.339866 L281.837306,625.553567 C281.776458,621.803034 281.927909,618.052053 282.290917,614.318961 C282.593325,612.243001 282.865492,610.19757 283.137659,608.213197 C283.742475,603.694931 284.468253,599.207194 285.314995,594.749987 C286.131496,590.567538 287.008479,586.415618 287.734258,582.23317 C289.276537,573.074523 290.576891,563.915877 291.514355,554.75723 C292.451819,545.598584 293.056635,536.745226 293.842895,527.739224 C294.629155,518.733221 295.294452,510.643084 295.959749,502.095014 C295.959749,500.599101 296.201676,499.042131 296.292398,497.637806 C296.292398,497.301989 296.292398,496.935643 296.292398,496.599826 C296.569336,496.677982 296.862201,496.677982 297.13914,496.599826 C297.82641,496.379714 298.224325,495.656644 298.046363,494.951269 C298.046363,494.554395 297.864919,494.15752 297.804437,493.760645 C297.767404,493.063248 297.570731,492.38401 297.229862,491.776272 C296.80929,491.223037 296.13192,490.933282 295.445656,491.013051 C294.865549,491.030865 294.3638,491.426204 294.205784,491.989974 L294.750118,492.142618 Z M303.459463,645.549945 L304.094519,645.549945 L303.459463,645.549945 Z" id="Shape"></path>
            <path d="M447.236493,461.748228 C447.030499,462.584873 446.958394,463.448794 447.022855,464.307942 C447.022855,465.069762 447.205973,465.862055 447.389092,466.623875 C447.57221,467.385695 447.846887,468.482716 448.091044,469.427372 C448.609879,471.347158 449.098194,473.236472 449.586509,475.156258 C450.47158,478.66063 451.234573,482.25642 451.844967,485.821737 C452.45536,489.387054 453.187833,493.775137 453.920306,497.736601 C454.652778,501.698064 455.324211,504.989126 455.904086,508.615389 C456.48396,512.241652 457.185913,516.660207 457.918385,520.804508 C458.650858,524.948808 459.44437,528.270343 460.298921,531.988024 C461.153473,535.705705 462.160622,539.301495 463.015174,542.988704 C463.869725,546.675912 464.480119,550.57643 465.059993,554.38553 L465.059993,553.958911 L465.059993,554.416003 C466.036623,561.759947 466.952214,569.103891 468.111962,576.417362 C468.752876,580.653081 469.424309,584.888799 470.095742,589.124518 C470.645097,592.537471 471.224971,595.950425 471.896404,599.332905 C472.903554,604.421862 473.971743,609.480346 474.948373,614.569303 C475.528247,617.189964 476.077602,619.810625 476.657476,622.431285 C477.512027,626.606058 478.488658,630.811304 479.099051,635.01655 C479.297746,636.51115 479.359041,638.02077 479.28217,639.526524 C479.213968,640.013103 479.1016,640.492484 478.946453,640.958745 L478.793855,641.111109 C477.23735,641.111109 475.741885,640.867327 474.124342,640.867327 C472.506798,640.867327 470.553538,640.867327 468.783396,640.867327 C465.674045,641.087949 462.601205,641.670891 459.627488,642.604277 C458.363223,643.007816 457.120464,643.475677 455.904086,644.006025 C454.430279,644.716097 453.038482,645.584634 451.753407,646.596213 C450.890553,647.111471 450.593309,648.217678 451.081974,649.094982 C451.598025,649.956511 452.705935,650.253298 453.584589,649.765384 C454.97053,648.707859 456.464039,647.798831 458.040464,647.053305 C460.98788,645.909661 464.061659,645.121937 467.196372,644.706899 L466.677537,644.706899 C469.891176,644.32612 473.13864,644.32612 476.352279,644.706899 L476.535397,644.706899 C477.303134,644.833301 478.077625,644.914701 478.854894,644.950682 C479.764511,644.918846 480.64498,644.622276 481.388028,644.097444 C483.024201,642.733091 483.964409,640.710279 483.951682,638.581867 C484.1327,634.494128 483.804647,630.399763 482.975052,626.392749 C482.395178,623.040741 481.845824,619.688733 481.26595,616.336726 C480.126548,609.754602 479.027839,603.16232 477.969823,596.559881 L477.969823,596.194207 L477.969823,595.950425 L477.969823,595.401914 C477.969823,595.036241 477.969823,594.670567 477.817224,594.335366 C477.817224,593.756383 477.634106,593.146927 477.573067,592.537471 L477.573067,591.745179 C477.573067,591.379505 477.573067,591.044304 477.573067,590.709104 L477.573067,591.044304 L477.573067,590.282484 L477.573067,589.612083 C476.657476,581.973568 475.772405,574.324896 474.917854,566.666067 C474.490578,562.704603 474.154861,558.773613 473.788625,554.842622 C473.422389,550.911631 472.873034,546.554021 472.26264,542.440193 C471.560688,537.838801 470.461979,533.298354 469.576908,528.696962 C468.691836,524.09557 467.806765,519.067558 467.104813,514.222384 C466.585978,510.169502 466.097663,506.11662 465.517789,502.033265 C464.937914,497.94991 464.35804,494.872158 463.839205,491.245895 C463.320371,487.619632 462.587898,483.079185 461.855425,479.056776 C461.122953,475.034367 460.298921,471.80425 459.291771,468.238933 C458.956055,467.080967 458.620338,465.923001 458.254102,464.765034 C458.070984,464.216524 457.857346,463.698486 457.674228,463.149976 C457.436434,462.554255 457.161209,461.974118 456.850196,461.413027 C456.642828,460.988709 456.38678,460.589888 456.087204,460.224588 C455.692707,459.566894 455.13576,459.021295 454.46966,458.640002 C453.770538,458.216866 452.967687,457.995366 452.150163,458.000073 C450.101933,458.018072 448.311412,459.383729 447.755328,461.352081 L447.236493,461.748228 Z M476.962673,589.215937 L476.962673,589.977756 L476.962673,589.79492 L476.962673,590.13012 L476.962673,589.642556 C476.962673,589.490192 476.962673,589.337828 476.962673,589.185464 L476.962673,589.215937 Z M477.420468,592.567944 C477.405657,592.658764 477.405657,592.751379 477.420468,592.842199 L477.420468,592.567944 Z M478.030862,597.260755 L478.030862,597.809265 L478.030862,597.260755 Z M479.312689,640.867327 L479.038012,641.080637 L479.312689,640.867327 Z M477.756185,594.640094 L477.756185,594.213475 L477.756185,594.640094 Z M477.756185,594.213475 L477.756185,593.878274 C477.756185,593.878274 477.756185,594.122057 477.756185,594.213475 Z M477.481508,592.171798 L477.481508,592.385107 C477.481508,592.080379 477.481508,591.775651 477.481508,591.470923 L477.481508,592.171798 Z" id="Shape"></path>
            <path d="M479.500615,642.034041 C479.500615,645.075336 479.274896,648.116632 479.218466,651.157928 C479.218466,653.590965 479.077392,656.024001 479.020962,658.487451 C478.993013,658.993886 478.993013,659.501664 479.020962,660.008099 C479.020962,661.407095 479.020962,662.836504 479.020962,664.2355 L479.020962,667.276795 C479.020962,667.945881 479.020962,668.614966 479.020962,669.253638 L479.444186,675.062513 L479.613475,676.796051 L479.952054,680.323954 C480.290633,683.88227 480.657427,687.410173 481.080651,690.938077 C481.082773,691.220719 481.183499,691.49215 481.3628,691.6984 C481.737162,692.100533 482.342753,692.100533 482.717115,691.6984 C482.907173,691.499725 483.009778,691.223231 482.999265,690.938077 C482.547826,686.467372 482.152817,681.966254 481.757808,677.434723 C481.757808,676.643986 481.588519,675.85325 481.532089,675.062513 C481.475659,674.271776 481.391015,673.055257 481.334585,672.021217 L481.080651,668.037119 C481.080651,667.550512 481.080651,667.094318 481.080651,666.60771 C481.080651,664.417977 481.080651,662.228244 481.080651,660.038512 C481.080651,659.582317 481.080651,659.126123 481.080651,658.639515 C481.080651,658.152908 481.080651,657.422997 481.080651,656.814738 C481.080651,654.503353 481.221725,652.222381 481.278155,649.910997 C481.334585,647.599612 481.447444,644.740794 481.532089,642.155692 C481.532089,641.517421 481.052064,641 480.459922,641 C479.863049,640.999789 479.374845,641.512532 479.359541,642.155692 L479.500615,642.034041 Z" id="Shape"></path>
            <path d="M449.627642,474 C447.249226,474 444.870809,474.281163 442.492393,474.406125 C437.857531,474.718529 433.344639,475.093413 428.587806,475.499538 L412.548744,476.874115 C407.273539,477.342721 401.998333,477.655125 396.692636,477.998769 C391.386938,478.342413 386.782569,478.279932 381.842781,478.404894 C379.860768,478.404894 377.878754,478.404894 375.927233,478.404894 L367.968687,478.404894 C365.285346,478.404894 362.632497,478.186211 359.949155,478.06125 L354.094593,477.811327 L337.872575,477.030317 L318.265888,476.124346 L309.606013,475.780702 C305.231779,475.634761 300.859197,476.118498 296.616202,477.217759 C294.607511,477.719773 292.691942,478.553329 290.944594,479.685749 C289.114462,481.037771 287.586423,482.773683 286.462195,484.777931 C285.519124,486.434276 286.065202,488.560269 287.681895,489.526469 C289.298588,490.49267 291.373687,489.933198 292.316758,488.276854 C292.652175,487.777008 292.9571,487.277162 293.323011,486.777316 L294.268278,485.808864 C294.788814,485.437931 295.339739,485.113902 295.914874,484.840412 C297.814275,484.154088 299.775375,483.662253 301.769437,483.372114 C305.968773,482.981615 310.194002,482.981615 314.393338,483.372114 L321.681049,483.87196 L335.280711,484.840412 C345.861614,485.652662 356.442516,486.464912 367.053911,487.183441 C371.749759,487.527085 376.476099,487.620806 381.171946,487.808248 C382.818542,487.808248 384.49563,487.808248 386.172718,487.808248 L388.551134,487.808248 C390.655118,487.808248 392.789594,487.808248 394.893578,487.808248 C399.833365,487.620806 404.773152,487.527085 409.71294,487.245922 L426.239883,486.371191 C431.332133,486.121268 436.424383,485.933826 441.48614,485.777624 L448.865329,485.590181 C451.165582,485.585153 453.461091,485.376103 455.726145,484.965374 C457.050896,484.971008 458.327483,484.456793 459.293769,483.528316 C459.678417,483.133046 460.016173,482.692632 460.300022,482.21622 C461.233326,480.586228 461.233326,478.566588 460.300022,476.936596 C459.773464,476.079749 459.077512,475.345444 458.257023,474.78101 C457.312898,474.283501 456.269341,474.016213 455.207772,474 L453.530684,474 L452.737878,474 L449.688627,474 L449.627642,474 Z" id="Shape"></path>
            <path d="M377.082746,150.701769 C376.2345,151.180588 375.541404,151.889377 375.0847,152.745054 C373.675951,153.230335 372.596366,154.369774 372.195219,155.794733 C371.934927,156.794892 371.934927,157.844253 372.195219,158.844412 C372.511775,159.909586 372.955517,160.933406 373.517003,161.894091 C374.592266,163.648944 376.762017,164.413195 378.711922,163.723898 L381.109576,166.011157 C381.632142,166.499106 382.154708,167.017551 382.646534,167.535997 C383.455047,168.545609 384.338712,169.493666 385.290102,170.372198 C385.982782,171.143296 386.932081,171.641267 387.964409,171.77505 L389.532106,173.574361 C393.712632,178.33186 397.770202,183.180849 401.827771,187.938348 C402.979541,189.096017 404.774709,189.334322 406.192732,188.517787 C407.921956,187.522227 408.513141,185.326175 407.514516,183.607804 C403.825817,178.545337 400.0449,173.574361 396.325461,168.542391 L393.251545,164.242343 C392.571508,163.090601 391.822165,161.980541 391.007586,160.918193 L389.071019,158.142986 C388.425497,157.197585 387.749235,156.252185 387.072974,155.337281 C386.396712,154.422378 385.997103,153.812442 385.38232,153.141512 L384.675319,152.348596 C384.299609,151.935327 383.876657,151.566883 383.415013,151.250712 L382.738752,150.762763 C382.33769,150.518297 381.902736,150.333358 381.447707,150.213821 C380.980738,150.066443 380.492956,149.994368 380.002966,150.000343 C379.043399,150.011399 378.102256,150.263189 377.267181,150.732266 L377.082746,150.701769 Z" id="Shape"></path>
            <path d="M288.275858,653.282979 C286.922102,673.013009 284.337658,692.529906 281.568611,712.016355 C280.122553,721.75958 278.491893,731.472357 276.953533,741.154687 C275.415174,750.837016 273.569143,760.549794 271.538508,770.171228 C267.508007,789.414097 262.123749,808.413385 257.877877,827.656254 C253.632005,846.899123 250.247615,866.233335 247.78624,885.780679 L243.232696,882.918607 C251.524125,876.012331 259.240803,868.457271 266.308086,860.326505 C269.815546,856.276977 273.292238,852.227449 276.461258,847.964788 C279.695822,843.802013 282.704979,839.472375 285.476044,834.99412 C291.075072,826.401467 295.066572,816.882188 297.259877,806.891006 C298.236827,802.019258 298.434093,797.025841 297.844453,792.093484 C297.716867,790.853975 297.511355,789.623538 297.22911,788.409327 L296.890671,786.552025 C296.706067,785.821283 296.552231,785.060093 296.398396,784.329352 C295.840527,781.317169 295.593121,778.25672 295.659983,775.195078 C295.75469,772.110964 296.198458,769.047075 296.982972,766.060805 C297.368591,764.586069 297.86217,763.141065 298.459797,761.737249 C298.705935,761.036955 299.075141,760.336661 299.382813,759.666814 L300.244294,757.839959 C302.5826,752.937899 304.797838,748.005392 306.982308,743.011989 C311.197413,732.994736 315.16638,722.825245 318.950744,712.564412 C326.478449,692.083341 333.431833,671.378989 339.810897,650.451354 C339.853858,650.292675 339.959781,650.157905 340.104617,650.077639 C340.249453,649.997373 340.420915,649.978422 340.580076,650.025088 C340.886739,650.126796 341.061499,650.446079 340.98005,650.75583 C335.647071,671.98794 329.739771,693.067813 323.25815,713.995448 C319.966061,724.469415 316.520136,734.882486 312.735772,745.204215 C310.828206,750.380303 308.920641,755.525943 306.828472,760.671584 L306.059292,762.589781 C305.843922,763.168285 305.597785,763.716342 305.413181,764.294846 C305.030063,765.441239 304.721756,766.610805 304.490166,767.796317 C303.999086,770.168979 303.813008,772.593551 303.936356,775.012393 C304.054634,777.45105 304.436268,779.87018 305.074742,782.228469 C305.074742,782.806973 305.413181,783.385477 305.567017,783.963981 L306.151594,786.095311 C306.584097,787.52358 306.923237,788.977922 307.166911,790.449315 C308.260603,796.32859 308.374926,802.345339 307.50535,808.261147 C305.684302,819.807966 301.382784,830.834202 294.890803,840.596474 C288.734771,850.113587 281.384346,858.819962 273.015333,866.507363 C264.793337,874.134085 255.976895,881.107862 246.647854,887.363953 L246.432483,887.516191 C245.123765,888.389077 243.347984,888.048508 242.463516,886.755002 C242.047299,886.092209 241.904122,885.296568 242.063543,884.532329 C246.740155,865.370653 250.504008,846.087188 253.355101,826.681932 C256.216449,807.195482 257.970179,787.526347 261.077665,768.13124 C262.585257,758.388016 264.400521,748.736134 266.369621,739.084252 C268.338721,729.43237 270.307821,719.841383 272.523058,710.219948 C276.861232,691.007527 281.414775,671.856001 287.199007,652.917608 C287.241968,652.758929 287.34789,652.624158 287.492726,652.543893 C287.637563,652.463627 287.809025,652.444676 287.968186,652.491342 C288.270111,652.629541 288.406387,652.980179 288.275858,653.282979 Z" id="Shape"></path>
            <path d="M483.582811,650.178411 C487.202582,670.483759 490.213988,690.911062 493.194976,711.338364 C496.175964,731.765667 498.822351,752.223458 501.012465,772.772714 C503.202579,793.32197 504.601818,813.932204 506.82235,834.48146 C509.042882,855.030717 512.175961,875.397042 515.947823,895.702391 C516.090139,896.422604 515.938555,897.169943 515.526969,897.777289 C515.115384,898.384635 514.47813,898.801322 513.757709,898.934173 C512.991627,899.109522 512.187482,898.93041 511.567596,898.446357 C493.13414,884.604573 476.039086,868.628593 463.810952,848.20129 C457.400182,837.842996 453.080246,826.324178 451.096125,814.298066 C450.153169,808.05299 450.153169,801.701243 451.096125,795.456166 C451.591475,792.358398 452.313318,789.301311 453.255821,786.309613 C453.890497,784.244965 454.218474,782.097915 454.229205,779.937514 C454.226139,777.866332 453.897654,775.808555 453.255821,773.839812 C453.092061,773.311176 452.899114,772.792071 452.677874,772.284898 L451.887,770.242168 L450.274833,766.217684 C448.206392,760.851706 446.16837,755.45524 444.373693,750.028285 C440.753922,739.143886 437.407915,728.228999 434.487764,717.222647 C428.495743,695.236127 423.662693,672.948671 420.008679,650.452808 C419.953169,650.125188 420.169605,649.813343 420.495371,649.751572 C420.79484,649.688528 421.094424,649.858249 421.194991,650.147923 L443.978256,714.173796 C447.841373,724.783798 451.674072,735.363311 455.841372,745.790382 C457.879394,751.034406 459.947835,756.217453 462.137948,761.309034 L463.810952,765.150586 L464.632244,767.040874 C464.87559,767.650644 465.331864,768.626277 465.605628,769.449466 C466.84169,772.816688 467.460005,776.380212 467.430723,779.968003 C467.426201,783.478133 466.871925,786.965793 465.788138,790.303608 C465.052789,792.714959 464.463628,795.168683 464.023879,797.651339 C463.201132,802.628802 463.047675,807.694337 463.567606,812.712664 C464.995657,823.205616 468.391223,833.333088 473.575208,842.560916 C478.89912,852.156061 485.078979,861.248276 492.039083,869.726179 C498.978977,878.438785 506.663314,886.528528 515.004857,893.903568 L510.442121,896.556069 C508.617026,875.945835 505.879384,855.488045 502.472541,835.152208 C499.065697,814.816371 494.746307,794.541511 491.035281,774.175186 C487.324255,753.80886 484.556195,733.412046 481.51437,712.954255 C478.472546,692.496464 476.008668,672.069162 473.879391,651.519906 C473.509801,648.867867 475.355137,646.417662 478.001063,646.047218 C480.646989,645.676775 483.091548,647.526373 483.461138,650.178411 L483.582811,650.178411 Z" id="Shape"></path>
        </g>
    </g>
</svg>