<?xml version="1.0" encoding="UTF-8"?>
<svg width="177px" height="243px" viewBox="0 0 177 243" version="1.1" xmlns="http://www.w3.org/2000/svg" xmlns:xlink="http://www.w3.org/1999/xlink">
    <!-- Generator: Sketch 46.2 (44496) - http://www.bohemiancoding.com/sketch -->
    <title>blog-img2</title>
    <desc>Created with Sketch.</desc>
    <defs></defs>
    <g id="Page-1" stroke="none" stroke-width="1" fill="none" fill-rule="evenodd">
        <g id="blog" transform="translate(-847.000000, -96.000000)" fill="#231F20">
            <g id="blog-img2" transform="translate(847.000000, 96.000000)">
                <g id="Page-1" transform="translate(0.000000, 100.000000)">
                    <g id="Group-3">
                        <path d="M194.988995,99.5796562 C192.224775,104.197197 188.460731,108.142472 185.762676,112.777187 C181.893258,119.431157 179.736775,123.864684 171.012819,123.594796 C159.747643,123.236581 148.487368,124.019256 137.2565,125.086541 C131.291863,125.653306 125.34683,126.308399 119.36994,126.752487 C116.983104,126.926688 114.596269,127.100888 112.214335,127.240739 C108.925698,127.439475 107.082885,124.865724 105.583148,122.22082 C110.922896,119.96112 116.855676,119.617626 122.624269,119.242236 C130.870368,118.702459 139.020896,117.684245 147.303753,117.559115 C156.135533,117.419264 164.95261,118.152869 173.774588,118.405582 C178.589918,118.54298 181.025764,114.914211 183.255764,111.224104 C191.808181,97.0770569 200.54194,83.2538759 208.577291,68.7976844 C209.187478,67.7009571 210.75583,65.1689154 212.035016,62.4454985 C212.069324,62.4970226 212.108533,62.5436396 212.142841,62.5951637 C212.405049,63.0269848 212.613346,63.4956088 212.802038,63.9617792 C212.917214,64.2562027 212.980929,64.5678008 213.054445,64.8769455 C209.079654,77.161764 201.588324,88.558405 194.988995,99.5796562 M102.167082,116.702833 C105.835555,112.512206 113.397951,110.890424 118.230434,109.452656 C127.280313,106.758681 136.239522,106.199277 145.605522,106.972138 C154.265764,107.688569 162.94561,109.165593 171.586247,110.149458 C176.256995,110.676967 178.68794,111.852207 181.351687,107.614963 C190.590258,92.9232327 197.309665,76.5729171 205.913544,61.505797 C207.170676,59.3025281 208.567489,57.0771775 209.949599,54.8174776 C213.605819,55.8994837 200.407159,78.8571523 198.868214,81.7056992 C194.898324,89.0417502 190.23983,95.9975042 185.593588,102.909095 C183.665005,105.772363 181.753577,108.62827 179.93772,111.560237 C176.702995,116.771532 171.696522,115.60856 166.543016,115.289601 C152.366588,114.411238 138.366599,115.321497 124.253885,116.494283 C119.10528,116.921197 109.494225,116.869673 104.708302,120.648108 C104.573522,120.400301 104.433841,120.145134 104.29906,119.909596 C103.67417,118.807961 102.95861,117.728408 102.167082,116.702833 M95.0237308,110.809457 C98.4569505,107.548718 104.134874,105.946563 108.117016,104.555413 C114.949148,102.170583 121.795984,99.8250091 128.807005,98.0069443 C136.548291,95.9975042 144.230764,95.9852366 152.123984,96.618247 C160.012302,97.2463504 169.020522,96.7973546 176.511852,99.4888757 C176.622126,99.5330392 176.793665,99.4888757 176.874533,99.3980951 C183.532676,91.3480672 188.066192,82.6036907 192.609511,73.2042221 C198.380555,61.2628976 204.894115,49.8564424 211.101357,38.1850061 C217.465434,42.3437374 208.908115,53.3429068 206.102236,58.2475108 C201.627533,66.0644534 197.29006,73.9574554 192.844764,81.7866657 C189.210599,88.1952828 184.699137,94.3021159 181.461962,100.904562 C180.636126,102.595043 179.099632,107.597788 176.764258,107.821059 C173.554038,108.125297 168.900445,106.812659 165.75639,106.447083 C150.268918,104.646193 135.791071,102.148501 120.382016,105.77727 C114.765357,107.102175 104.639687,109.474738 100.706555,114.987817 C99.0622363,113.221276 97.1557088,111.744252 95.0237308,110.809457 M39.2982363,94.8664275 C42.2683022,95.1436762 45.2016099,95.5754973 47.9878846,96.0073183 C54.7857088,97.0672428 61.4217967,98.5589883 67.7711703,101.26523 C72.8070495,103.412068 80.092533,106.770949 84.8760055,110.868342 C81.4501374,112.166259 78.5952473,114.192873 76.1128407,116.673391 C58.9908516,105.097642 33.5909066,114.428412 15.0696538,119.254503 C21.3822692,109.636671 29.4102692,100.749989 39.2982363,94.8664275 M26.5112692,91.3848702 C19.7183462,92.0375088 13.4498407,95.1166874 7.42393956,98.2253083 C8.46297253,93.1833067 11.7467088,88.4479962 14.5819945,84.3555103 C19.9683022,76.5778241 25.6609286,68.935082 31.5201923,61.5082505 C41.0650824,49.4172608 48.1692253,35.9621091 55.7438736,22.6222732 C59.2530604,16.4369272 63.345478,10.8036252 69.5992802,7.19939142 C77.3038077,2.75850437 88.5150714,3.45776007 96.8077308,5.24883606 C109.942676,8.08756883 127.863544,20.4827961 128.177214,35.4321468 C128.179665,35.6088009 128.240929,35.7560126 128.321797,35.8885032 C126.459379,39.0584623 124.827313,42.3903544 123.290819,45.6756294 C117.309027,58.4585142 110.704797,70.8488345 104.12017,83.3348423 C99.4543242,92.182267 92.580533,100.065455 89.8922802,109.75444 C89.2012253,109.766708 88.4930165,109.835406 87.7701044,109.972804 C85.7484011,106.883811 81.7956648,105.161434 78.5388846,103.090656 C70.9936429,98.2866466 63.1494341,94.9449404 54.3348077,93.4041243 C45.0080165,91.7798883 36.0095989,90.4721575 26.5112692,91.3848702 M39.3227418,125.557619 C49.2646209,125.390779 58.4149725,125.484013 68.1681593,126.703417 C64.2350275,131.953968 59.0178077,130.999545 53.2296099,130.408245 C47.4830714,129.824305 41.6899725,130.381256 35.9311813,130.597167 C31.1305549,130.776274 26.3789396,130.719843 21.6150714,131.504972 C18.6425549,131.993225 15.6259286,132.746458 12.5945989,133.298502 C11.8177747,132.981997 11.1169176,132.425046 10.7811923,131.649731 C10.7738407,131.630102 10.766489,131.608021 10.7566868,131.583485 C10.5606429,131.078058 10.641511,130.322372 10.9184231,129.713896 C20.4069505,128.92386 29.5842582,125.724459 39.3227418,125.557619 M44.9026429,116.288187 C54.8494231,115.495697 64.259533,115.932425 73.1354231,120.027365 C71.743511,121.737474 70.4251154,123.535911 69.1410275,125.358883 C62.0270824,120.491082 50.0267418,122.934796 42.1139176,123.010856 C36.3428736,123.059926 30.7237637,123.165428 25.0213352,124.129665 C21.6616319,124.701337 18.4171044,125.479106 15.1186648,126.337841 C10.3744011,127.576873 11.5212582,124.882898 13.4253352,122.77041 C24.1611923,122.031898 34.1275769,117.149376 44.9026429,116.288187 M180.217082,17.8427992 C188.066192,19.1014594 195.606533,22.644355 202.916522,25.6229389 C207.158423,27.3551302 212.027665,28.2972852 208.962027,33.8864237 C207.006489,37.4464939 205.073005,40.9992036 202.99739,44.4979356 C195.626137,56.9324193 189.409093,70.424374 183.635599,83.6758828 C182.564709,86.1367722 181.562434,88.5731262 180.611621,91.0757255 C178.634027,96.3091024 177.670962,97.8720002 172.260148,96.0784707 C165.719632,93.9070977 158.926709,93.2888085 152.123984,92.4276199 C136.903621,90.5015998 122.869324,94.8149034 108.66839,99.8323697 C103.784445,101.559654 98.0305549,103.228053 93.7886538,106.466711 C98.530467,96.1815189 105.953181,86.5587791 111.224313,76.8010952 C118.450984,63.4391776 123.74172,48.7499009 131.76972,35.8934102 C141.292555,20.6496361 163.43572,15.1488246 180.217082,17.8427992 M219.999302,63.1741965 C218.609841,62.6515949 217.700687,62.5117437 216.232808,62.3571714 C215.556456,62.2884726 214.936467,62.5411861 214.409599,62.9386577 C214.394896,62.9092154 214.377742,62.8724125 214.363038,62.8429701 C214.081225,62.2639373 213.5225,61.1402212 212.792236,60.6961325 C214.289522,56.9520476 214.730621,53.3698956 211.040093,53.0092269 C213.159819,49.4589707 215.144764,45.8252947 216.396995,42.0566745 C217.394368,39.0584623 214.603192,37.1815128 212.270269,36.0013655 C212.294775,35.9547485 212.31928,35.9105849 212.343786,35.8639679 C215.360412,30.1276177 215.860324,26.7760974 209.385973,23.9618999 C198.429566,19.2020541 186.909533,14.4986395 174.936148,13.4558898 C163.678324,12.4793853 152.310225,16.2897155 142.456566,21.3587059 C137.307962,24.0036099 133.477753,28.0715606 130.336148,32.7111834 C130.247929,21.415137 119.208203,12.4008724 110.263698,6.85344387 C98.0035989,-0.750041755 75.7158516,-3.09070819 63.9507637,6.80191976 C58.064544,11.7506873 54.2612912,18.1887467 50.5683132,24.8476238 C44.9369505,35.0027793 39.2859835,44.9935484 32.5371703,54.4666229 C25.7614011,63.9715934 18.4710165,73.1625121 11.6021264,82.6135049 C7.73025824,87.9450228 3.54226923,94.5744576 3.4712033,101.368279 C3.4565,102.815861 4.9978956,103.52493 6.19131319,102.931177 C12.1167418,99.9795814 17.9098407,97.0647892 24.3841923,95.4945308 C28.579533,94.4787699 33.1056978,94.4125247 37.5951044,94.7363904 C26.1583901,100.310808 19.2870495,110.993472 10.9747857,120.486175 C10.6366099,120.871379 10.5508407,121.391527 10.6586648,121.850337 C8.63206044,123.678216 7.14457692,125.793157 6.91667582,128.744753 C6.90932418,128.837987 6.94363187,128.92386 6.96078571,129.012187 C5.97811538,129.080886 5.02975275,129.63293 4.40731319,130.840066 C3.81673077,131.929433 3.17468681,132.962368 2.5497967,134.007572 C1.34902747,135.484596 0.483983516,137.435151 0.0673901099,138.848384 C-0.153159341,139.601617 0.187467033,140.487341 0.829510989,140.943698 C0.939785714,141.279831 1.17258791,141.566894 1.60143407,141.667489 C3.30946703,142.06496 5.12042308,142.163101 6.96568681,142.131205 C24.8007857,144.496407 43.9910385,141.498195 61.610489,139.491209 C62.8553681,139.439684 64.0904451,139.383253 65.3426758,139.329276 C69.0650604,139.164889 72.8021484,138.595671 75.0247967,135.401176 C75.1326209,135.246604 75.1620275,135.082217 75.2330934,134.922738 C75.8236758,134.358426 76.404456,133.73523 76.970533,132.999171 C78.656511,130.793449 79.5999725,127.586687 80.8767088,125.120891 C81.1144121,124.664534 81.3619176,124.269516 81.6069725,123.869591 C86.5987418,118.005657 92.8353901,114.735103 97.5404451,124.3971 C99.7214341,128.88215 101.512786,135.033147 107.433313,135.455154 C114.873181,135.980209 123.16094,134.765712 130.573852,134.115527 C141.344016,133.168465 152.119082,132.577164 162.938258,132.295009 C169.765489,132.115901 177.756731,134.333891 184.294797,131.774861 C189.766874,129.63293 192.822709,122.934796 195.545269,118.182311 C200.061632,110.321205 204.411357,102.261363 209.202181,94.5597364 C214.468412,86.0901551 220.945214,77.802135 222.569929,67.7034106 C222.905654,65.5688406 222.035709,63.9446045 219.999302,63.1741965" id="Fill-1"></path>
                    </g>
                    <path d="M75.8151605,17.8634374 C83.740975,17.8463539 91.0776921,17.9830221 98.2008613,21.8756276 C104.975481,25.5705522 107.898877,30.8737696 112.410381,36.5162171 C113.313664,37.646171 114.850226,36.5894323 114.960682,35.4643595 C115.63569,28.5186822 107.464418,22.781055 102.361362,19.3521454 C94.0452702,13.758508 85.5401766,13.773151 75.8151605,14.1319052 C73.4023158,14.2197634 73.3875884,17.8707589 75.8151605,17.8634374" id="Fill-4"></path>
                    <path d="M68.2022439,27.7863669 C81.699882,28.1042868 100.110379,31.4284576 104.768749,47.4261883 C105.447388,49.7635356 109.235646,49.4430723 108.988427,46.8259555 C108.285551,39.3866292 102.017839,33.9616436 96.6517458,29.7879908 C88.6171489,23.5364133 77.8098283,22.9565274 68.2022439,23.0023078 C65.2622843,23.017568 65.2695554,27.7100661 68.2022439,27.7863669" id="Fill-6"></path>
                    <path d="M86.5424927,93.1250806 C88.7904188,95.7265483 92.5518001,91.9439403 90.3137658,89.3671311 C82.8182059,80.7218746 71.3560086,76.9417325 60.925038,73.0432298 C55.9345926,71.1765843 48.8693288,69.2113049 43.4807359,70.3234015 C40.713487,70.8954778 35.4930558,71.2752181 33.5468315,73.5832501 C32.7777391,74.4906815 32.7431176,76.0219719 33.9400331,76.6359676 C35.7057308,77.5532624 37.2612264,76.8504962 39.1382076,76.4263707 C45.3033118,75.0134408 50.4371892,75.4942808 56.6072394,77.1537953 C66.9541291,79.9352697 79.4376614,84.899018 86.5424927,93.1250806" id="Fill-8"></path>
                    <path d="M44.2304947,61.8024897 C52.576203,63.753343 60.1700239,62.6262381 68.3730911,66.2221219 C76.9194638,69.9733834 84.124044,76.0503777 90.1198019,83.2150159 C92.063588,85.543215 95.3540019,82.1717657 93.4029629,79.8657634 C81.1068238,65.3169852 63.8182492,55.9499298 44.6850119,58.3841804 C42.9201315,58.6110811 42.1972558,61.3289576 44.2304947,61.8024897" id="Fill-10"></path>
                    <path d="M54.1218847,50.0699979 C70.2169108,50.3279506 88.4336092,59.3362609 95.5699223,74.7207618 C96.9057,77.6133384 101.073618,75.0889079 99.7402737,72.2088532 C95.3898721,62.827388 87.3825054,56.2909161 78.6014096,51.5300604 C72.4748373,48.2092321 59.8567262,43.2855908 53.5379382,47.8435904 C52.6230887,48.5072552 52.9126288,50.044954 54.1218847,50.0699979" id="Fill-12"></path>
                    <path d="M65.7744889,40.1336674 C70.2195523,40.0722455 74.6215294,41.1729258 78.8056817,42.6077412 C87.8250672,45.7009477 94.5106149,53.0420922 98.4553992,61.6878377 C99.8102219,64.6532867 104.094909,62.0686535 102.737692,59.113032 C98.4697613,49.8407832 91.6812853,43.0131257 82.5733337,38.7922132 C77.6615028,36.5146895 65.5016094,32.3502852 61.2600088,37.3721391 C60.9679798,37.7210154 60.8626579,38.3376912 61.2600088,38.6693695 C62.9954266,40.1238399 63.4215016,40.1656068 65.7744889,40.1336674" id="Fill-14"></path>
                    <path d="M141.129157,35.9387212 C149.421526,33.50419 156.228621,29.1613798 165.172339,28.6523414 C174.486142,28.1285483 182.985758,31.3573761 191.549523,34.3157004 C193.172962,36.7895776 196.703572,35.5083748 196.935492,32.7369438 C196.955229,32.5279184 196.974967,32.318893 196.992238,32.1049493 C197.103263,30.7819414 196.005345,29.687632 194.845746,29.2966315 C184.073808,25.6940171 174.199943,22.3938748 162.601483,23.0947247 C154.869176,23.5594988 143.818441,26.8694776 139.25406,33.5140265 C138.420136,34.728833 139.794384,36.3346399 141.129157,35.9387212" id="Fill-16"></path>
                    <path d="M138.922438,48.895533 C146.581935,48.2355725 153.529492,44.1095971 161.267548,43.4740795 C167.321496,42.977887 182.677315,41.3597615 186.033255,47.75649 C187.388397,50.3450019 191.942361,48.5093339 190.825351,45.7472769 C187.594614,37.7519773 175.302594,38.0575146 168.15864,38.0012957 C157.39361,37.9255225 148.361786,41.1837721 138.38971,44.9626572 C136.415916,45.7106124 136.50184,49.108187 138.922438,48.895533" id="Fill-18"></path>
                    <path d="M127.199294,62.4343284 C131.633516,62.8685882 136.018661,60.9045496 140.389081,60.0755082 C145.569294,59.0959563 150.759322,58.6320879 156.00579,58.2693822 C163.647279,57.7388944 175.097242,56.1869091 181.030806,62.1382422 C183.688395,64.8030182 187.793793,60.6800176 185.143566,58.005372 C178.667686,51.4816056 168.164934,51.772757 159.652307,52.182343 C150.177745,52.6338745 132.7206,52.2588319 126.330608,60.3222467 C125.638604,61.1932337 126.082763,62.3232961 127.199294,62.4343284" id="Fill-20"></path>
                    <path d="M122.571881,73.929866 C130.565196,76.1848022 139.958622,70.7552146 148.227568,70.5077785 C158.269826,70.2019849 168.202319,71.1637175 177.568913,74.7888893 C180.998453,76.1147731 182.464422,70.8135721 179.088545,69.5016941 C169.231668,65.6641008 158.791818,64.7303798 148.227568,65.0618508 C140.285477,65.3069525 128.082073,67.2187463 122.223073,72.6810141 C121.798649,73.0778456 122.015739,73.7711334 122.571881,73.929866" id="Fill-22"></path>
                    <path d="M116.022436,88.9695689 C122.718817,89.3059944 129.483852,86.767927 136.030661,85.5526756 C141.564799,84.5182244 147.236248,84.5708624 152.858658,84.5250902 C157.586091,84.4861838 162.411604,84.5594193 167.001726,85.7311871 C168.975577,86.2369697 170.221187,89.0611132 172.589808,87.5849604 C173.916334,86.7587726 174.409183,85.2551565 173.624547,83.9140316 C170.211379,78.1375825 158.709102,79.0530261 152.858658,79.0530261 C140.522704,79.0438716 126.038809,79.9524494 115.002409,85.4496882 C113.131542,86.3857293 114.114789,88.8734473 116.022436,88.9695689" id="Fill-24"></path>
                </g>
                <path d="M93.1921633,65.6742493 C93.2305439,65.6752334 93.2699087,65.6762175 93.3073052,65.6732652 C93.3693047,65.7736453 93.4244154,65.8789461 93.4864149,65.9803103 C93.4667325,65.9596438 93.4480342,65.9389773 93.4283519,65.9173267 C93.3653682,65.8484384 93.2836864,65.7647883 93.1921633,65.6742493 M49.7324799,26.0772334 C50.8356774,25.0606384 53.8657801,23.2833193 54.1521588,23.1140508 C56.6360754,21.644761 58.9536759,20.0672181 61.3608312,18.4896752 C64.3663309,16.5204529 67.5883368,21.1044796 69.548702,23.0914161 C72.3022673,25.8872984 74.9072305,28.8288304 77.5987962,31.6867122 C78.0406657,32.1541688 78.6882161,32.9867336 79.4263054,33.6962834 C75.589225,34.2995484 71.9292861,37.0521295 69.0625472,39.3549682 C67.9987145,40.2101677 66.5540276,41.4914908 65.1565785,42.9843995 C63.9805562,43.7569329 63.0220242,44.9673994 62.2544113,46.3668168 C59.7360505,43.1516997 57.5591791,39.7112193 55.4374183,36.2185807 C53.4731166,32.9837812 51.8798278,29.2018115 49.7324799,26.0772334 M37.1524856,20.3978821 C37.7685441,16.025441 42.7826309,12.2503601 45.9662562,9.67885693 C47.8016383,8.19578946 49.724607,6.85345101 51.7420511,5.63314333 C52.9987712,4.87340339 59.7616376,1.41127242 60.8156292,3.97982325 C61.4021642,5.40876418 61.4562907,7.2756381 61.8007324,8.79019739 C62.3134584,11.0585919 61.7761294,13.4992073 62.425648,15.6800152 C60.5607423,15.9368703 58.8631369,17.3943506 56.7718838,18.8852911 C55.8940496,19.513159 50.2019047,22.2490101 48.2966502,24.7959103 C45.8343842,24.0342022 43.5030061,23.1455426 41.1460408,22.0728528 C40.3498885,21.7116811 37.1928344,20.1262652 37.1524856,20.3978821 M96.17306,36.9281305 C98.1009493,37.4556184 100.01014,38.0510104 101.92622,38.6227836 C102.773547,38.8757022 103.797031,39.0420184 104.808705,39.2545881 C98.8902128,41.4058724 93.2000362,45.6533304 88.4250904,49.4992679 C84.3793768,52.7586703 80.1279823,55.7582653 76.0625863,58.9901124 C72.5335352,61.7968201 68.6196936,64.0553734 65.4518142,67.2970617 C64.7914703,67.9741356 63.921509,68.9710483 63.2050703,70.0781822 C63.0545001,69.4670443 62.9167235,68.8500016 62.8429145,68.2113083 C62.4600922,64.9066364 62.4876475,61.3706965 62.5270123,58.0453581 C62.549647,56.0249616 62.7681215,54.0291681 63.2090068,52.1061993 C64.2413478,49.120382 66.201713,46.4819587 68.3224896,44.1919136 C69.7524147,42.6468466 71.3457035,41.3793012 73.0078806,40.2239454 C75.7801441,38.3659285 78.919484,36.8759722 81.992888,35.9203926 C86.6133271,34.4825946 91.6628422,35.6960134 96.17306,36.9281305 M98.2072342,71.0741108 C98.2210119,71.0987137 98.2367578,71.1213485 98.2515195,71.1459515 L98.1875518,71.076079 C98.1934565,71.0750949 98.2003454,71.0750949 98.2072342,71.0741108 M65.5433373,73.3080611 C65.5512103,73.3247911 65.5610515,73.3425053 65.5699085,73.3602194 C65.5187343,73.3661241 65.4695284,73.3799018 65.4183542,73.3858065 C65.4518142,73.38187 65.4951155,73.3513624 65.5433373,73.3080611 M108.218678,41.7483459 C108.322994,41.7217747 108.403692,41.7198064 108.464708,41.7394888 C108.403692,42.1114858 108.328899,42.4451022 108.31709,42.4884034 C108.254106,42.7383697 108.173408,42.980463 108.082869,43.220588 C107.229638,44.6780684 105.596,46.7250361 105.24959,47.0478272 C103.79211,48.4167369 102.331677,49.7846624 100.861403,51.1417626 C100.717722,51.268714 100.571088,51.392713 100.429375,51.5206485 C97.9602203,53.73098 95.4674466,55.9334385 92.8496898,57.9597397 C92.0525534,56.8870499 91.1638938,56.0721993 90.1541876,55.9226132 C89.0441013,55.7592494 88.1692194,56.003311 87.4517966,56.499307 C87.0079589,56.7217179 86.5857718,57.0336836 86.215743,57.4401248 C85.0859743,58.6830673 85.091879,59.8403913 85.8693331,61.2319357 C86.0622204,61.5783456 86.2954567,61.9129461 86.5552641,62.2347531 C85.9884115,62.5624647 85.4195907,62.887224 84.8350239,63.1903327 C79.2914811,66.0649446 74.2685372,69.7770418 68.5744241,72.3839733 C68.3313467,72.4961629 68.0863011,72.604416 67.8392872,72.7067643 C67.6109715,72.596543 67.4348142,72.4380998 67.2901487,72.2363554 C67.2458633,72.1458165 67.2035462,72.0503569 67.1661497,71.9411197 C67.0559284,71.6222651 67.0372301,71.2856964 67.0746266,70.9432229 C67.1799274,70.7631291 67.2616093,70.6302731 67.3049105,70.5741783 C69.3302276,67.9633103 72.2845531,66.1141505 74.9436429,64.2266101 C84.6076924,57.3732047 93.2610516,49.169588 103.740936,43.5089349 C105.166924,42.7383697 106.643103,42.1311682 108.218678,41.7483459 M103.851157,74.0717375 C101.399717,70.7818274 99.2356386,67.3580771 96.594263,64.2138166 C96.0411881,63.5554409 95.4487484,62.4099263 94.7903727,61.1787933 C95.7164288,60.4111804 96.6021359,59.6081392 97.4169866,58.7647491 C97.9425061,58.2776102 98.4611369,57.7865348 98.9748471,57.2944752 C102.706627,54.400181 106.535834,51.3376023 109.385843,47.5851562 C110.564818,46.0341845 111.747729,44.186993 111.92487,42.3151985 C112.05379,41.510189 112.030171,40.6943543 111.748713,39.9257573 C111.501699,39.2467151 111.005703,38.7704015 110.4172,38.4161186 C110.264661,38.2685008 110.102282,38.1277717 109.930061,37.9909792 C109.816887,37.8413931 109.676158,37.700664 109.491144,37.5815856 C109.170321,37.3768889 108.837689,37.2184457 108.496199,37.0855896 C106.908815,36.2825484 104.98191,35.8209966 103.237067,35.7206164 C101.158607,35.1232561 99.0939255,34.4717693 97.0134977,33.8881867 C92.7473414,32.6954343 88.3945827,32.089217 84.0221416,32.6294983 C83.3716388,32.2614378 82.6837396,31.9455356 82.0046974,31.6365222 C81.9230155,31.5735385 81.8236195,31.494809 81.6878111,31.3737624 C81.1524503,30.8974487 80.6436607,30.3886592 80.1309347,29.8857743 C78.6862478,28.4656904 77.2730528,27.0150989 75.8391913,25.5832056 C72.7746444,22.5294841 69.6963199,19.4039218 66.1928559,16.8461963 C65.5344802,16.3639779 64.9194058,16.0480757 64.3318867,15.8591248 C64.3515691,15.7803953 64.3712515,15.7016658 64.3682991,15.6189998 C64.2570937,12.6745155 64.0031909,9.69066636 63.3989418,6.79341975 C63.3517041,6.41945449 63.3103711,6.04450511 63.2975775,5.6675875 C63.2464033,4.07725104 63.6617016,2.01158506 62.0162545,0.989085325 C56.8368357,-2.23095235 49.1656273,3.18170267 45.2655634,6.23247186 C40.915757,9.6306351 34.8624404,14.1949795 34.0318439,20.1115035 C33.7710523,21.9714885 35.1547238,22.7824027 36.6230295,23.5047461 C40.2111277,25.2673034 43.9330661,26.7602121 47.7612894,27.9106473 C47.9197326,27.9588691 48.0673504,27.9736309 48.2100477,27.9765833 C48.9274705,31.4091907 51.485196,34.7542115 53.1611509,37.5500938 C55.5683062,41.559395 58.070921,45.4820937 61.0163895,49.1174296 C60.9868659,49.1971433 60.9701359,49.2768569 60.9435647,49.3565706 C60.3343949,51.1053502 59.9417314,52.855114 59.7242411,54.2004048 C59.0934208,58.0985005 59.6041786,62.0005327 59.6120515,65.911422 C59.6169721,68.5400041 59.7626218,72.1281023 61.2230545,74.4486551 C61.3313076,74.620876 61.4769572,74.7566844 61.6422892,74.8629693 C61.871589,75.2871246 62.1254917,75.6847087 62.4207274,76.0301345 C64.6212177,78.6006536 70.1263799,76.2997832 72.4607104,75.3048388 C77.8310483,73.0197142 82.7545962,69.6313922 87.5728432,66.373958 C88.0737599,66.035421 88.5884542,65.6899952 89.1120055,65.3357123 C90.5015817,66.8709381 91.8704913,68.1561977 92.3133449,68.6541619 C96.9534665,73.8749137 101.77565,79.1232208 107.338875,83.3775677 C108.039568,84.2681955 108.796356,85.123395 109.702729,85.9018332 C110.486088,86.5739865 111.4397,85.5751056 110.815768,84.7868262 C108.119282,81.3768536 106.413803,77.5072973 103.851157,74.0717375" id="Fill-1"></path>
            </g>
        </g>
    </g>
</svg>