<?xml version="1.0" encoding="UTF-8"?>
<svg width="198px" height="284px" viewBox="0 0 198 284" version="1.1" xmlns="http://www.w3.org/2000/svg" xmlns:xlink="http://www.w3.org/1999/xlink">
    <!-- Generator: Sketch 46.2 (44496) - http://www.bohemiancoding.com/sketch -->
    <title>pricing-img1</title>
    <desc>Created with Sketch.</desc>
    <defs>
        <polygon id="path-1" points="0 0.263513181 0 146 144.633235 146 144.633235 0.263513181"></polygon>
    </defs>
    <g id="Page-1" stroke="none" stroke-width="1" fill="none" fill-rule="evenodd">
        <g id="pricing" transform="translate(0.000000, -189.000000)">
            <g id="pricing-img1" transform="translate(-49.000000, 189.000000)">
                <g id="Page-1" transform="translate(102.000000, 138.000000)">
                    <g id="Group-3">
                        <mask id="mask-2" fill="white">
                            <use xlink:href="#path-1"></use>
                        </mask>
                        <g id="Clip-2"></g>
                        <path d="M139.091311,135.100179 C138.354126,138.793453 116.376269,137.633021 113.013244,137.675417 C103.283622,137.802604 93.744084,138.541501 84.0607647,139.351865 C68.0498403,140.689148 51.6453445,140.365729 35.5856807,140.387532 C27.2719412,140.397223 19.0227815,141.249982 10.6980756,141.144599 C4.28395798,141.065864 7.46177311,116.131118 7.49710924,112.537172 C7.65551261,96.6230263 7.6847563,80.6519493 6.77454622,64.7559734 C15.1199664,65.7589352 24.6022353,63.8050978 32.7880336,63.4683545 C46.4472773,62.9099422 60.1138319,62.5998477 73.7572353,61.7482992 C86.3527395,60.96095 98.8702605,60.3686211 111.492571,60.1517972 C117.46316,60.0512587 123.447151,60.0742736 129.412866,59.8622949 C131.445303,59.7920391 133.365639,59.9131698 135.255513,59.6054979 C136.030471,67.9610905 136.807866,76.3191058 137.797277,84.6625854 C138.820807,93.2943559 139.224126,101.883731 139.024294,110.571221 C138.841521,118.500434 140.641227,127.341761 139.091311,135.100179 M75.3242101,36.8135537 C87.7113529,36.3253972 100.081437,35.6809821 112.478328,35.4447773 C118.056563,35.3381824 123.638454,35.4496226 129.222782,35.3466615 C130.286521,35.3284919 131.597613,35.4241851 132.83316,35.3078997 C133.174336,38.2768121 133.46921,41.2457244 133.770176,44.2170594 C124.457277,43.7107333 114.861689,45.2648396 105.496395,44.9196172 C92.9813109,44.4568981 80.4382017,45.3435745 67.9645462,46.2520544 C55.5554706,47.1556891 43.1342101,47.6559587 30.6910168,47.7213693 C24.0137059,47.7589198 17.3400504,47.8497678 10.666395,48.0762821 C9.02265546,48.1344248 7.29605882,47.7843572 5.69131092,47.9987585 C5.49878992,44.8324032 5.32576471,41.6648365 5.20757143,38.4924246 C28.5550084,38.8933671 52.0035798,37.7377806 75.3242101,36.8135537 M17.4058487,23.5097738 C17.6532017,24.1444985 17.9651345,24.7513631 18.3647983,25.3073528 C20.138916,27.7844747 23.5238739,27.1134108 25.3625714,25.1256568 C25.4880756,24.9912017 25.5770252,24.8252528 25.6891261,24.6774734 C26.3129916,25.7288874 26.5871513,26.683397 25.4697983,27.9831289 C24.2025714,29.4585003 21.9008487,29.8873029 20.0658067,29.5905327 C16.314084,28.9848795 15.5671513,25.8948364 17.4058487,23.5097738 M22.7647563,8.92322027 C23.9722773,10.6626565 23.6055126,14.8198606 23.7066471,16.8330521 C23.7919412,18.5191908 23.8175294,22.4716841 21.8837899,23.2650899 C20.2303025,23.9422103 19.7331597,17.0522986 19.6332437,15.8506825 C19.5711008,15.1069402 19.2067731,13.0767905 19.0910168,11.1677713 C19.6247143,9.34838887 20.9784538,6.35040515 22.7647563,8.92322027 M48.2104286,22.5807017 C48.8099244,23.5291547 49.5861008,24.2971231 50.5974454,24.5793575 C52.5762689,25.130502 54.0871933,24.2668404 55.1643361,22.898064 C56.0574874,23.9882399 56.9957227,24.845845 56.6362689,26.7342719 C56.243916,28.8031835 53.8032857,29.3397923 52.0255126,29.4027802 C49.6835798,29.4851491 47.8960588,28.1890511 47.1686218,25.9856844 C46.7397143,24.6871638 47.3562689,23.5243095 48.2104286,22.5807017 M50.3951765,7.67920844 C50.9191261,6.53936897 52.0949664,8.01231774 52.324042,8.38176624 C53.1136218,9.65242682 53.343916,11.3094942 53.4791681,12.7618508 C53.6558487,14.6684473 53.4231176,16.7191893 53.0295462,18.5797561 C52.9844622,18.7917348 52.1985378,21.3088298 51.6355966,20.7952358 C51.0312269,20.2440914 50.7753445,19.1745077 50.5267731,18.4356107 C50.3598403,17.938975 50.2416471,17.4241697 50.1368571,16.9057305 C49.711605,13.7672352 49.0938319,10.5063979 50.3951765,7.67920844 M77.4212269,20.9187891 C77.5211429,21.0144823 77.5991261,21.1186547 77.7075714,21.210714 C79.5036218,22.6836628 81.6006387,22.3335952 83.1797983,21.1259225 C84.7455546,21.8781439 85.2536639,22.9913346 84.4250924,24.6362889 C83.5806807,26.3139485 81.571395,26.8881078 79.8350504,26.8856852 C78.0901765,26.8856852 76.394042,25.8657651 76.1966471,24.0633409 C76.0479916,22.7260585 76.6828235,21.811522 77.4212269,20.9187891 M78.5337059,6.60962475 C78.5763529,6.51635414 78.6043782,6.42308354 78.6506807,6.32860163 C79.0808067,5.47705312 80.2310588,4.60733501 81.0961849,5.95551921 C81.6055126,6.748925 81.6676555,8.28607302 81.7748824,9.14488937 C82.099,11.7261836 82.3731597,14.1124576 81.6554706,16.6586239 C80.7294202,19.9461099 79.4024874,16.9723523 79.2099664,15.4206686 C79.0674034,14.2481239 79.0271933,13.0622548 78.8931597,11.8860761 C78.7457227,10.577865 78.3253445,8.36480795 78.5337059,6.60962475 M106.749,21.0750477 C106.846479,21.2337288 106.932992,21.3996778 107.042655,21.5498798 C108.775345,23.9676477 112.027487,23.380164 113.891773,21.5026389 C114.08795,21.5668381 114.298748,21.6152904 114.53879,21.6189243 C116.297067,21.6661653 115.958328,24.5587653 115.469714,25.4103138 C114.616773,26.9002209 112.497824,27.0383098 111.007613,27.0237742 C109.440639,27.0104498 107.793244,26.5089689 106.62837,25.4527095 C105.231983,24.1917394 105.886311,22.431711 106.749,21.0750477 M108.180723,7.43573582 C108.393958,5.55457674 109.657529,2.59535482 111.443832,5.16574733 C112.651353,6.90397224 112.284588,11.0623877 112.385723,13.0767905 C112.471017,14.7617179 112.496605,18.7154225 110.562866,19.5088283 C108.909378,20.1883713 108.413454,13.2936143 108.312319,12.0932095 C108.248958,11.3518899 107.966269,9.33869842 108.180723,7.43573582 M134.818076,54.9346998 C131.312487,56.0975541 125.33337,55.2387378 122.006899,55.2484282 C116.563916,55.2653865 111.120933,55.453139 105.67795,55.5561001 C94.0279916,55.7717127 82.4706387,56.5578506 70.8487059,57.310072 C49.3972353,58.6945954 27.9201765,58.7902886 6.57836975,61.4612196 C6.56009244,61.1814077 6.54790756,60.897962 6.52841176,60.6157276 C6.32736134,57.657717 6.12265546,54.702129 5.92647899,51.746541 C8.68513445,51.1433103 14.0708487,52.1595965 16.3884118,52.1196234 C22.1079916,52.0263528 27.8312269,52.0760164 33.5520252,52.1026651 C46.0013109,52.1644417 58.4286639,51.5079136 70.8426134,50.6539425 C91.9553445,49.1991633 113.230134,50.873189 134.262445,49.0332143 C134.452529,51.0015874 134.634084,52.9687493 134.818076,54.9346998 M144.51358,127.396269 C143.939672,116.051172 144.654924,104.715765 143.864126,93.3839926 C142.309336,71.1104876 139.845555,48.6601319 137.041815,26.4992784 C136.318034,20.7710097 137.644966,11.9248379 132.342109,8.36480795 C131.469672,7.77732427 130.44005,7.54717602 129.333664,7.5059916 C124.863034,6.18930137 118.271017,6.48486017 115.687824,6.92819837 C115.369798,4.20033601 114.560723,1.4276553 111.709462,0.567627643 C107.097487,-0.824163591 105.099168,2.76857166 104.706815,7.12321873 C100.972151,8.14313885 96.4247563,7.30006949 92.6072353,7.26373029 C90.2823613,7.24192677 87.9574874,7.54475341 85.6277395,7.53990818 C85.6216471,7.53990818 85.6179916,7.5423308 85.6118992,7.5423308 C85.5948403,7.41998883 85.579,7.29037903 85.5619412,7.17045968 C85.1269412,3.83573273 83.3503866,1.12482866 79.7022353,1.23021233 C76.6060588,1.32227163 75.0195882,4.57099581 74.8209748,7.87786271 C68.8698824,7.91662452 62.7006807,7.80518432 56.7885798,8.61191449 C56.7776134,8.56830745 56.7678655,8.52591172 56.7568992,8.48230469 C55.9892521,5.72173704 53.3232017,2.38458748 50.0174454,3.34151966 C47.1637479,4.16641942 46.2596303,6.66534485 46.0195882,9.29266877 C42.5956387,8.97409515 38.891437,9.65000421 35.4260588,9.67907556 C33.231563,9.69845647 30.8043361,9.5749032 28.5525714,9.94798562 C27.9957227,9.92012557 27.4352185,9.88499768 26.9076134,9.9637326 C26.5274454,7.48297678 25.6294202,5.10881592 23.0303866,4.32388928 C18.4098824,2.92967543 16.4213109,6.53936897 16.0362689,10.9061291 C13.1143361,10.1006102 8.70097479,10.9424683 5.9350084,11.7903829 C5.26971429,11.9926711 4.41433613,12.450545 3.61257143,13.0477191 C2.40626891,13.6279349 1.40223529,14.5073435 0.741815126,15.8313016 C-0.455957983,18.2321112 0.142319328,21.8829891 0.199588235,24.4037181 C0.319,29.8279488 0.507865546,35.2606587 0.69307563,40.6848895 C1.48387395,63.7251515 2.89853782,86.5401105 2.80105882,109.626402 C2.76206723,119.078227 1.54601681,128.791695 2.204,138.20718 C2.63656303,144.372731 7.37282353,145.866272 12.7000504,145.945007 C34.6145462,146.269637 56.771521,145.075289 78.7042941,144.513242 C89.1759748,144.245544 99.544084,142.808934 110.045008,142.64783 C119.551647,142.504896 131.016395,143.79736 140.151395,140.756981 C145.236143,139.065997 144.718286,131.425075 144.51358,127.396269" id="Fill-1" fill="#231F20" mask="url(#mask-2)"></path>
                    </g>
                    <path d="M109.978099,74.3264579 C109.929302,73.4894036 109.901927,72.3647272 109.647227,71.5620892 C109.273508,70.3821008 108.33921,70.0219585 107.52274,69.5315258 C106.503939,68.9230943 105.144743,68.8665532 103.920039,69.2119456 C103.064294,69.1615503 102.196646,69.2439036 101.46468,69.4626932 C99.521102,70.0502291 99.2913956,72.2749989 99.0950144,74.0302317 C98.8879216,75.8862551 98.8581669,79.2443055 100.744616,80.2878578 C102.6025,81.315431 105.166167,81.0831208 107.128788,80.5164805 C109.682933,79.7839044 110.112591,76.6360394 109.978099,74.3264579" id="Fill-4" fill="#231F20"></path>
                    <path d="M126.886335,68.3025031 C125.702572,67.1915361 123.667562,66.8138538 121.806672,67.0834609 C120.639836,67.0300043 119.370223,67.271721 118.550415,67.4878714 C115.857625,68.2037246 115.919292,71.2309934 116.047463,73.4320095 C116.210699,76.2756665 117.879334,77.7341012 120.784935,77.9223613 C123.579294,78.1001625 126.158423,78.2186966 127.356697,75.3471492 C128.119674,73.5145185 128.464283,69.7830176 126.886335,68.3025031" id="Fill-6" fill="#231F20"></path>
                    <path d="M112.976884,92.767183 C112.84679,91.1304624 112.850437,89.4546595 111.751326,88.1294132 C111.139763,87.3939548 110.215732,87.2139392 109.223614,87.2530215 C108.073437,86.9735237 106.867333,87.1061667 105.668524,87.0185276 C103.904353,86.8918061 101.848383,87.3892175 101.407037,89.3160949 C101.255058,89.9887847 101.321928,90.689898 101.223446,91.3696937 C101.072683,92.3988617 100.918273,93.4209238 101.049582,94.4595664 C101.330439,96.6908121 102.864818,97.9580271 105.157875,97.9509212 C106.84788,97.946184 108.665547,98.177125 110.30084,97.6761606 C112.49663,97.0011022 113.136157,94.7852525 112.976884,92.767183" id="Fill-8" fill="#231F20"></path>
                    <path d="M127.301857,84.6889069 C126.11108,84.0520222 124.761378,83.9932859 123.433878,84.0140164 C122.368139,84.0278367 121.21242,83.8942406 120.18875,84.2420511 C117.64944,85.1058189 117.874974,87.6660266 118.182309,89.7793785 C118.184646,89.8024123 118.190489,89.8277495 118.195163,89.8473282 C118.169455,90.8101414 118.274626,91.7545275 118.565601,92.571076 C119.43502,95.0092045 122.305036,94.9953843 124.473909,94.999991 C127.216551,95.0045978 128.407327,93.2379047 128.740371,90.7871076 C129.006805,88.8131102 129.561878,85.8993335 127.301857,84.6889069" id="Fill-10" fill="#231F20"></path>
                    <path d="M112.971243,105.725618 C113.12366,103.283041 112.755515,100.324771 109.764634,100.02395 C108.666062,99.9136098 107.537007,100.209785 106.45954,100.397944 C106.146499,100.456017 105.598972,100.500153 105.030341,100.630238 C103.784043,100.787037 102.597539,101.61749 102.234084,102.835874 C101.905802,103.93695 102.021873,105.117006 102.012494,106.249442 C102.004287,107.44692 102.230567,108.793066 103.085272,109.703661 C103.997426,110.675813 105.243724,110.882555 106.522851,110.946436 C107.587422,110.997541 108.791513,111.040516 109.849049,110.934822 C111.345076,110.784992 112.245506,109.983576 112.79655,108.640914 C113.152971,107.769809 112.913794,106.643181 112.971243,105.725618" id="Fill-12" fill="#231F20"></path>
                    <path d="M128.730716,102.442997 C128.418538,101.269266 127.41933,100.530378 126.288866,100.160934 C125.156037,99.7880479 123.927426,100.189618 122.774495,100.11963 C121.43473,100.039316 120.258148,99.8557411 119.153699,100.809182 C118.265647,101.576754 117.965293,102.702296 118.003133,103.81866 C118.037425,104.784722 118.342509,105.587861 118.431196,106.329044 C118.538803,107.230854 118.716177,108.06153 119.244751,108.783208 C119.914043,110.503073 121.622746,110.968894 123.482809,110.998725 C125.649137,111.031998 127.693669,110.421612 128.474115,108.272641 C129.057084,106.66292 129.174151,104.110085 128.730716,102.442997" id="Fill-14" fill="#231F20"></path>
                    <path d="M35.7457503,81.6127744 C34.8195581,81.6421892 33.2518689,81.6151275 32.7148018,80.77151 C32.6327498,80.6432613 32.5929671,80.4997169 32.5407522,80.3597023 C32.6004263,79.6631589 32.6203177,78.9572028 32.7620438,78.2888977 C32.8304204,77.9688642 32.9746329,76.8287451 33.0865219,76.7910941 C33.5452667,76.6487263 34.1382784,76.739324 34.6156715,76.7310878 C35.1141991,76.7193219 35.6114835,76.6863773 36.1100111,76.6793177 C36.338762,76.6793177 36.5662696,76.6887305 36.792534,76.7028496 C36.8646403,76.7310878 36.9093959,76.7416772 36.9603675,76.7581495 C37.0734997,77.8182602 37.0983639,78.9807346 37.10458,80.0231965 C37.1058232,80.4903041 37.0734997,80.9644713 37.0498787,81.4386385 C36.975286,81.451581 36.8758292,81.489232 36.7477784,81.5468851 C36.4145979,81.5939489 36.0814173,81.6151275 35.7457503,81.6127744 M40.839186,76.8593365 C40.8590774,75.9545361 40.6837846,74.8214765 39.9266691,74.1802331 C38.3254132,72.8224441 36.3300595,72.990697 34.3210304,73.0248182 C32.0248196,73.0612926 30.1438413,73.4942791 29.3245652,75.7368663 C28.8906845,76.9311087 28.9080895,78.5477482 29.2798096,80.0149604 C29.3195924,81.5174703 29.9051448,83.13058 31.3211622,83.9306636 C33.146196,84.9543 35.6413206,85.2143271 37.7050509,84.8331108 C40.5196808,84.3165863 40.7434588,82.3646176 40.9759392,80.0231965 C41.0791257,78.9901474 40.815565,77.9076814 40.839186,76.8593365" id="Fill-16" fill="#231F20"></path>
                    <path d="M50.4770669,80.127828 C50.3638002,80.108401 50.2886995,80.0197655 50.2283727,79.9007754 C50.2517647,79.280327 50.2431466,78.6671637 50.1754328,78.0540004 C50.1409603,77.7407407 50.1421915,77.4238385 50.1323422,77.1093646 C50.1323422,76.9612341 50.1187995,76.8155319 50.1126437,76.6661872 C50.1114125,76.6103347 50.1040256,76.5471971 50.1040256,76.4889162 C50.1015632,76.4767743 50.1101813,76.4646325 50.1089502,76.4537048 C50.1754328,76.4342779 50.2419154,76.4172793 50.3354835,76.3978523 C51.2933257,76.1962977 52.3004142,76.3225729 53.2693367,76.2351516 C53.7704187,76.1890126 54.2653448,76.1744423 54.7676579,76.1914409 C54.8550702,76.6054779 54.8107485,77.1385051 54.8132108,77.5270442 C54.8205978,78.2531267 54.7812007,78.9743524 54.722105,79.6955782 C54.7171804,79.7975697 54.6900949,79.8959187 54.6777833,79.996696 C53.2951911,79.9918393 51.8485786,80.3585231 50.4770669,80.127828 M58.951138,76.4585616 C58.8304844,73.8298515 57.4503546,72.3983277 54.837834,72.0789971 C53.0144867,71.8568012 50.6481981,72.1360637 48.8679414,72.5100327 C46.6284622,72.9774938 45.9217766,74.8412674 46.0067266,76.888383 C46.071978,78.4595381 46.2271041,80.3609515 47.0790665,81.751193 C47.7488173,83.1353637 49.1375653,83.7715965 50.8895053,83.958581 C52.0184786,84.0799995 53.1843867,83.8966576 54.3170535,83.8881583 C55.3401471,83.8772306 56.1674863,83.9330831 57.1204038,83.4814064 C59.2429229,82.4772755 59.0373192,78.3138359 58.951138,76.4585616" id="Fill-18" fill="#231F20"></path>
                    <path d="M68.8959013,81.008078 C68.394639,81.0298743 67.8681938,81.123114 67.3705291,81.0226088 C67.470062,81.0431942 67.2518091,78.9192662 67.2374188,78.7255213 C67.1786584,77.9202692 67.1534753,77.0980644 67.0467472,76.2952342 C67.1342883,76.2928124 67.2446139,76.2891796 67.3837202,76.2891796 C68.963056,76.2770706 70.5351968,76.1208638 72.1133334,76.2044163 C71.817133,76.1886745 71.9742272,76.6524513 71.961036,77.180406 C71.9466457,77.6877754 71.9406498,78.1939338 71.9586377,78.7049359 C71.9814223,79.2898032 71.9958126,79.8698269 71.9862191,80.4546942 C71.9910158,80.6435955 71.9586377,80.8240204 71.9250603,81.0056562 C71.9190643,81.008078 71.9178651,81.0104998 71.91067,81.0104998 C70.9884913,81.2454154 69.8468606,80.9729617 68.8959013,81.008078 M75.9531462,78.3404534 C75.889589,76.3908957 76.2901192,74.0998627 74.4121845,72.8320447 C72.3927452,71.4697761 69.2796427,72.189054 66.989186,72.1951085 C64.8941976,72.1999521 63.3448415,73.3878503 63.1109991,75.542051 C62.9059373,77.4419616 62.8879494,80.0587282 63.9240513,81.878719 C63.9516327,82.0240276 63.9708198,82.1826562 63.9996004,82.326754 C64.4804764,84.6420051 66.9879868,84.9750041 68.8959013,84.9289897 C70.7438562,84.8841862 72.7177262,85.3709701 74.3798063,84.2872098 C76.2685337,83.0545081 76.0167034,80.2960656 75.9531462,78.3404534" id="Fill-20" fill="#231F20"></path>
                    <path d="M85.1639782,78.159777 C84.8581153,78.1645108 84.5048317,78.1739783 84.2025253,78.0662846 C84.1918557,77.3680507 84.1041275,76.6615327 84.0235125,75.9881512 C83.9784629,75.6129984 83.9713498,75.2354787 83.9594947,74.8567755 C83.9630512,74.6733412 83.9583092,74.48754 83.9511961,74.3052891 C83.9962457,74.2910877 84.0424808,74.2804367 84.1076841,74.2638684 C84.9553275,74.059132 85.8871426,74.1064699 86.7537542,74.1088368 C87.1615715,74.1112037 87.5670177,74.0685996 87.9760205,74.0449307 C87.9677219,74.3502601 87.9487537,74.6567729 87.9285999,74.9597355 C87.8823648,75.6343004 87.7934511,76.3088654 87.7199492,76.9810635 C87.6867548,77.2591736 87.6606734,77.5420175 87.6393342,77.8224945 C87.627479,77.9088862 87.6132528,77.979893 87.5990266,78.035515 C86.8414824,78.2248666 85.8942556,78.1479425 85.1639782,78.159777 M88.7323793,70.0484291 C87.0276083,69.8969479 85.0821777,70.1265366 83.3975604,70.3821613 C81.312239,70.7005086 80.1788864,71.9786317 80.0271404,74.0366465 C79.9216296,75.4709847 80.1184251,77.3479321 80.7111828,78.889964 C81.2422936,81.022536 83.0051549,81.853316 85.1639782,81.9621932 C86.7822066,82.0403007 88.980152,82.1065738 90.2664361,80.9728312 C91.9143023,79.5195579 91.7910087,76.4650804 91.9723926,74.4626876 C92.1810433,72.1431309 91.2172193,70.2768344 88.7323793,70.0484291" id="Fill-22" fill="#231F20"></path>
                    <path d="M38.744844,115.613046 C37.8187112,115.642457 36.2523657,115.615399 35.7153329,114.771887 C35.6320431,114.642478 35.5935061,114.500128 35.5412945,114.36013 C35.6009648,113.663674 35.6196118,112.957807 35.7625719,112.289585 C35.829701,111.968415 35.9739042,110.829616 36.0870292,110.791969 C36.5445015,110.647266 37.1374752,110.740206 37.6148376,110.729618 C38.1133333,110.717853 38.6105858,110.687266 39.1090815,110.681383 C39.3378177,110.681383 39.5653107,110.687266 39.7915606,110.701383 C39.8649054,110.731971 39.908415,110.740206 39.9606265,110.757852 C40.0737514,111.816654 40.0986141,112.981336 40.1035866,114.024843 C40.1060729,114.488363 40.0737514,114.962471 40.0488888,115.438932 C39.9743009,115.451873 39.8760936,115.487166 39.7468079,115.544812 C39.4148918,115.59187 39.0817326,115.615399 38.744844,115.613046 M43.8391963,110.860203 C43.8590864,109.955516 43.6838049,108.822598 42.9267379,108.180259 C41.3255847,106.821464 39.3291158,106.992048 37.3214586,107.023812 C35.025395,107.061459 33.1432942,107.495567 32.3240706,109.737874 C31.8902178,110.93079 31.9088647,112.548403 32.2793179,114.013079 C32.3203412,115.517753 32.9058561,117.131838 34.3217827,117.928292 C36.1454564,118.955329 38.6416641,119.214147 40.7052622,118.832979 C43.5197116,118.316519 43.7422321,116.365971 43.9759408,114.024843 C44.0791207,112.990747 43.8155768,111.906064 43.8391963,110.860203" id="Fill-24" fill="#231F20"></path>
                    <path d="M51.4779315,114.130087 C51.3634383,114.109443 51.2883407,114.018363 51.2280164,113.899353 C51.2514074,113.281227 51.2427897,112.667959 51.1750787,112.054691 C51.1406076,111.740164 51.1418387,111.424422 51.133221,111.10868 C51.1319899,110.961738 51.1196788,110.814797 51.1122921,110.667855 C51.1122921,110.60835 51.1036744,110.547631 51.1036744,110.490554 C51.1024432,110.474767 51.111061,110.465052 51.1098299,110.451694 C51.1763098,110.434692 51.2427897,110.415262 51.3363539,110.397046 C52.2929256,110.196671 53.3012037,110.321754 54.2700864,110.235532 C54.7711478,110.189385 55.2648224,110.174812 55.7671149,110.189385 C55.8557547,110.603493 55.8102037,111.13904 55.813897,111.525216 C55.8212837,112.251423 55.7806571,112.973986 55.7227949,113.697764 C55.7178705,113.798558 55.6907861,113.896924 55.678475,113.997719 C54.2947086,113.990432 52.8493868,114.357179 51.4779315,114.130087 M59.951654,110.45898 C59.8310053,107.831035 58.4509323,106.396838 55.8385192,106.078667 C54.0152469,105.857648 51.6490556,106.134529 49.8688721,106.509777 C47.629485,106.977318 46.9228285,108.84141 47.0065439,110.888875 C47.0717927,112.459084 47.2269124,114.362036 48.0800709,115.750087 C48.7497941,117.136922 50.138485,117.773264 51.8903529,117.959066 C53.0192798,118.079291 54.1851399,117.897132 55.316529,117.889846 C56.3408116,117.88013 57.1681168,117.932349 58.1209951,117.483024 C60.2434268,116.478722 60.0366005,112.314571 59.951654,110.45898" id="Fill-26" fill="#231F20"></path>
                    <path d="M70.8959114,114.009585 C70.3946483,114.028963 69.8682021,114.125852 69.3705366,114.024119 C69.4700697,114.043497 69.2518163,111.919207 69.2386252,111.72664 C69.1798647,110.921251 69.1534824,110.097695 69.0467542,109.295939 C69.1330961,109.291095 69.2446212,109.289884 69.3849269,109.289884 C70.9630663,109.27535 72.5364088,109.119117 74.113349,109.205106 C73.8171481,109.189361 73.9754417,109.653217 73.9610514,110.17884 C73.946661,110.689929 73.9406651,111.19254 73.9598522,111.703629 C73.9814377,112.291018 73.995828,112.871141 73.9862345,113.456107 C73.9910312,113.642619 73.958653,113.825496 73.9250756,114.007163 C73.9190796,114.009585 73.9178804,114.009585 73.9106852,114.012008 C72.988505,114.244541 71.8468723,113.972041 70.8959114,114.009585 M77.9531684,111.341507 C77.8908103,109.391617 78.2901419,107.097772 76.412204,105.83216 C74.3927612,104.470871 71.2796535,105.187849 68.9879937,105.195116 C66.8942008,105.197538 65.3436429,106.385638 65.1109993,108.543839 C64.9059371,110.44044 64.8879492,113.061285 65.9240529,114.880375 C65.9516343,115.024497 65.9696222,115.181941 65.9996021,115.326064 C66.4804789,117.644131 68.9879937,117.977187 70.8959114,117.928742 C72.7438694,117.883931 74.7177428,118.370798 76.3786266,117.289275 C78.2685564,116.056364 78.0167256,113.29503 77.9531684,111.341507" id="Fill-28" fill="#231F20"></path>
                    <path d="M88.1647294,111.157114 C87.858847,111.164214 87.505541,111.171314 87.2020298,111.065997 C87.1925451,110.367829 87.1048114,109.662562 87.0241912,108.988061 C86.9791388,108.61176 86.9720252,108.233093 86.9589837,107.854425 C86.9625405,107.672192 86.9577982,107.488775 86.9518702,107.306541 C86.9969226,107.291158 87.0431607,107.280508 87.1083682,107.263941 C87.9548799,107.060408 88.8867541,107.106558 89.7534209,107.108924 C90.1624496,107.111291 90.5679216,107.067508 90.9769504,107.042658 C90.9674657,107.347958 90.9496818,107.657992 90.9283412,107.959742 C90.8821031,108.634243 90.7931838,109.307561 90.7196772,109.978512 C90.6876663,110.260146 90.6615833,110.539413 90.6402426,110.82223 C90.6283867,110.908613 90.6141597,110.977247 90.5999326,111.032864 C89.8411546,111.223381 88.8950532,111.14528 88.1647294,111.157114 M91.7321716,103.048901 C90.0284779,102.896251 88.0829237,103.127002 86.3970138,103.382602 C84.3115599,103.698552 83.1793208,104.977738 83.0275652,107.036741 C82.9208621,108.468576 83.1188557,110.346529 83.7104654,111.887232 C84.24161,114.021968 86.0045833,114.853853 88.1647294,114.961536 C89.781875,115.04082 91.9811457,115.107087 93.2675115,113.972268 C94.9154825,112.517949 94.792181,109.464945 94.9723908,107.462742 C95.1810548,105.142221 94.2171696,103.274918 91.7321716,103.048901" id="Fill-30" fill="#231F20"></path>
                    <path d="M22.0853767,100.158788 C21.6342288,100.496037 20.1529194,100.237925 19.5678746,100.298801 C18.6438656,100.392549 17.6800495,100.797978 17.5425338,99.6863956 C17.3977805,98.5127205 17.5521841,97.3232179 17.525646,96.1410204 C18.5087625,95.8670817 19.3881392,95.7611588 20.4279508,95.7611588 C20.9828387,95.7611588 21.5365203,95.7769863 22.0902019,95.7903789 C22.0926144,95.8001189 22.0914081,95.8025539 22.0938207,95.814729 C22.11674,96.6742877 22.1227714,97.5399339 22.138453,98.4031451 C22.1444844,98.7172614 22.0696951,100.169745 22.0853767,100.158788 M25.783825,94.8614224 C25.5027623,92.8647139 23.9768206,92.1049906 22.138453,92.0343753 C21.3411032,92.0063727 20.4653454,91.9747176 19.595619,92.0319403 C18.5316818,92.0648129 17.4786011,92.2206536 16.7427715,92.3484917 C14.262664,92.7819235 14.0913725,94.5606986 14.0443277,96.7278579 C13.9972828,98.9181498 13.7584398,101.082874 15.1734039,102.906697 C16.3157491,104.379878 18.7029733,103.976884 20.2711346,103.863656 C22.0009373,103.738253 23.9321883,104.006104 25.0021569,102.267507 C26.2325605,100.268363 26.0998699,97.1052845 25.783825,94.8614224" id="Fill-32" fill="#231F20"></path>
                    <path d="M38.5689306,96.9468715 C37.5291102,96.9686798 36.5168042,97.1431459 35.4678123,97.0849905 C35.3268002,97.0728748 35.1892275,97.0377393 35.0528012,97.0013922 C35.0344582,96.9638335 35.0161152,96.9299095 34.9851613,96.8741773 C34.9565003,96.790579 34.9404502,96.6997112 34.9175214,96.6112666 C34.9415966,96.1157344 34.9278393,95.6226253 34.8579065,95.1719213 C34.8063168,94.8435858 34.7765093,94.5116155 34.7375304,94.1869147 C34.7295053,93.9349082 34.7146016,93.690171 34.6985515,93.4539148 C34.953061,93.4357413 35.2190349,93.4442222 35.4529086,93.4442222 C36.6360339,93.4514917 37.7755946,93.2225049 38.9541343,93.1619264 C38.9954061,93.1691958 39.0137491,93.1667727 39.0492887,93.171619 C39.0768033,93.3085264 39.1169286,93.4442222 39.1157822,93.5871875 C39.1639327,94.2850519 39.0894141,94.9974552 39.0458494,95.6928964 C39.0206277,96.1145228 39.0309457,96.5216104 39.0561674,96.9396021 C38.8910801,96.9468715 38.7237,96.9444484 38.5689306,96.9468715 M41.0578504,89.4860226 C39.3278735,88.456188 36.9226438,89.3769813 35.0516548,89.4157516 C32.7702405,89.4605796 31.080389,90.5485696 31.0024311,93.103771 C30.9772094,93.8973495 31.1514682,94.778161 31.3750239,95.5959708 C31.3841954,96.3568369 31.438078,97.1177029 31.6020188,97.8628185 C32.0949878,100.111493 33.9109477,100.745144 35.8484301,100.917187 C37.3479728,101.05046 39.6156298,101.095288 41.0108464,100.477387 C43.1042446,99.5505357 42.823367,97.3018616 42.9540611,95.3064055 C43.0939267,93.1873694 43.0297261,90.6563994 41.0578504,89.4860226" id="Fill-34" fill="#231F20"></path>
                    <path d="M54.3419879,96.2035348 C53.7372839,96.2196076 53.1301464,96.2219037 52.5290925,96.2838987 C52.4086384,96.2965273 52.3417194,96.2988235 52.2796673,96.2988235 C52.2407326,96.1507242 52.213965,95.9831079 52.1944977,95.883227 C52.0752603,95.2770531 51.9694066,94.6421778 51.8939707,94.0004141 C51.8988375,93.7834314 51.9170882,93.5664487 51.9146548,93.3471699 C51.9146548,93.309284 51.9170882,93.287471 51.9183049,93.2576215 C52.5741107,93.1210027 53.7640515,93.1175586 54.2434346,93.0463791 C54.546395,93.0004568 54.8493553,92.9981607 55.1535324,92.9797918 C55.2338352,93.6617374 55.3652397,94.2943166 55.5732968,94.9533011 C55.6828006,95.3011623 55.7716203,95.6513195 55.8531397,96.0026249 C55.8713904,96.0806927 55.8786906,96.1438358 55.8835574,96.2012386 C55.3993075,96.2529012 54.6790162,96.1954984 54.3419879,96.2035348 M59.9424966,95.4825552 C59.8378596,94.7397626 59.6614369,94.0245233 59.4594633,93.2989515 C59.2599232,92.577972 59.2879075,91.8259949 59.0530827,91.1119037 C58.4435119,89.2577922 56.5831648,88.8777855 54.7654025,89.030477 C53.7141664,89.1188774 52.6848312,89.3438965 51.6408954,89.4644424 C50.8098836,89.5631753 49.9630545,89.6400951 49.2719642,90.1303153 C47.8325982,91.1543818 47.8094807,92.7191829 48.254796,94.241506 C48.2681798,94.2851322 48.2876471,94.3494233 48.3022476,94.4010859 C48.3387489,94.7328742 48.3728167,95.0577743 48.3886339,95.3757859 C48.4543362,96.7442694 48.6112915,98.032389 49.6381934,99.0713802 C50.666312,100.111519 52.2675002,99.958828 53.62413,99.9680124 C55.0768798,99.9771969 57.0430805,100.182699 58.3388749,99.4215375 C59.8050085,98.560495 60.1566372,97.0071744 59.9424966,95.4825552" id="Fill-36" fill="#231F20"></path>
                    <path d="M69.2763371,96.0981888 C69.226747,95.3528675 69.131109,94.6063612 69.0649888,93.8918481 C69.022483,93.4415745 68.9941458,92.9415338 69.0083144,92.460452 C69.2279277,92.4533424 69.447541,92.4509725 69.6659736,92.4343835 C70.2834884,92.3905411 70.8974611,92.3016713 71.5126145,92.2424248 C71.8278658,92.2128015 72.1431172,92.1902878 72.4595493,92.1831782 C72.6779819,92.1725139 72.8243907,92.1855481 72.9247516,92.1973974 C73.0239318,93.0078899 72.8480051,94.0150809 72.8716194,94.7686967 C72.8834266,95.1111416 72.8834266,95.4559564 72.8361979,95.7936616 C72.6035967,95.8244698 72.373357,95.8576479 72.1419365,95.8849013 C71.2445918,95.9998395 70.2067418,96.179949 69.2763371,96.0981888 M75.8718205,88.9672767 C74.2695879,87.3498465 71.2091703,88.2136609 69.2503613,88.3712567 C67.1451435,88.5454415 65.3575385,88.9613521 65.055275,91.4117885 C64.8911554,92.7543148 65.1119494,94.2615464 65.4614415,95.5590454 C65.5039473,95.7142713 65.5464531,95.8742369 65.5877782,96.0306477 C65.5948625,96.1669147 65.5877782,96.3008119 65.6007661,96.4335241 C65.8132951,98.5474402 66.9774817,99.7335557 69.0886032,99.9219596 C70.7215343,100.067706 73.0014982,100.062966 74.5411528,99.4302135 C76.6629006,98.5592895 76.9450919,96.435894 76.9474534,94.3918888 C76.9498148,92.4841506 77.3559813,90.4697687 75.8718205,88.9672767" id="Fill-38" fill="#231F20"></path>
                    <path d="M87.4265254,94.684957 C87.1947898,94.7181806 86.9593952,94.7403297 86.7240007,94.7587872 C86.665457,94.6135878 86.6239885,94.4646969 86.5764217,94.3170366 C86.5959363,93.8248353 86.5520285,93.3240205 86.4910455,92.8022871 C86.4446983,92.4036041 86.3629811,92.0172261 86.3007784,91.6283871 C86.4507966,91.608699 86.5995953,91.5717839 86.7532725,91.5717839 C87.8887768,91.4905707 89.0315991,91.581628 90.1707623,91.5213333 C90.308584,91.5090283 90.4427467,91.4721132 90.5805684,91.4499641 C90.6305745,91.8129626 90.6293548,92.2165676 90.6513087,92.559878 C90.6830199,93.0274692 90.6805806,93.4938299 90.6732626,93.9638821 C90.6769216,94.090624 90.6500891,94.2124438 90.6342335,94.3391856 C90.6098402,94.3465686 90.596424,94.3490296 90.5671521,94.3601042 C89.5804465,94.670191 88.4486012,94.5779032 87.4265254,94.684957 M94.9798852,92.559878 C94.9030465,90.6562896 94.7420513,88.4475363 92.9186583,87.368385 C91.8258421,86.7236014 90.880605,87.1050574 89.7365631,87.1825791 C88.5791049,87.2601008 87.420427,87.1973451 86.2629689,87.2945548 C83.9285379,87.4938964 82.1734459,88.502909 82.0087917,91.0205185 C81.9697626,91.6160821 82.0624568,92.3273129 82.2515042,93.0373132 C82.3600541,93.892513 82.5539801,94.7280246 82.7259523,95.4441775 C83.2699211,97.7021508 84.6505772,99.0397078 87.0045227,98.9991012 C88.8315747,98.9658776 91.3404171,99.0397078 92.9479302,98.0577663 C94.948174,96.8358766 95.0677008,94.7206416 94.9798852,92.559878" id="Fill-40" fill="#231F20"></path>
                    <path d="M22.5684078,130.94561 C21.528631,130.967419 20.5175141,131.14431 19.4685662,131.084943 C19.3264136,131.07525 19.1899931,131.036479 19.0535726,131.001343 C19.0340839,130.962572 19.016888,130.928648 18.9859355,130.875338 C18.9561293,130.789316 18.9412262,130.698447 18.9182984,130.610001 C18.9423726,130.115673 18.9274695,129.621346 18.8586861,129.173059 C18.8070985,128.842296 18.7772923,128.511533 18.738315,128.185616 C18.7314366,127.936029 18.7142408,127.688865 18.6981913,127.456241 C18.9538365,127.436855 19.2197993,127.444125 19.4536631,127.446548 C20.6355923,127.451394 21.7762515,127.223616 22.9535952,127.160613 C22.9960117,127.171518 23.014354,127.166671 23.0498921,127.173941 C23.0762591,127.309639 23.1175292,127.444125 23.1152364,127.588303 C23.1633848,128.286177 23.0900158,128.99859 23.0464529,129.694041 C23.0200859,130.11325 23.0315498,130.520343 23.0567704,130.940764 C22.8916901,130.94561 22.724317,130.943187 22.5684078,130.94561 M25.057223,123.484659 C23.3273188,122.457234 20.9221901,123.376828 19.0512798,123.414387 C16.7699614,123.460428 15.0813272,124.547221 15.0022262,127.103669 C14.978152,127.899681 15.1524035,128.780505 15.3759498,129.598326 C15.3851209,130.355567 15.4378549,131.118867 15.6017888,131.86157 C16.0958834,134.111486 17.9106206,134.747569 19.8480216,134.917191 C21.3475012,135.049254 23.6150629,135.097718 25.0113673,134.476174 C27.1046776,133.551733 26.8226654,131.303028 26.9545003,129.305122 C27.0932137,127.187268 27.0301622,124.655052 25.057223,123.484659" id="Fill-42" fill="#231F20"></path>
                    <path d="M38.3416449,130.203989 C37.736914,130.220062 37.1309664,130.220062 36.5298858,130.283205 C36.4094263,130.296982 36.3425044,130.296982 36.2792327,130.299278 C36.2415131,130.148882 36.2135275,129.983561 36.1952761,129.88368 C36.0760334,129.276356 35.9701751,128.64033 35.893519,128.002008 C35.8996029,127.783876 35.9166375,127.56804 35.9154208,127.345317 C35.9154208,127.309727 35.9166375,127.287914 35.9178543,127.256916 C36.5736892,127.119149 37.7636828,127.115704 38.2443039,127.044525 C38.546061,126.99975 38.8502516,126.997454 39.1532254,126.981381 C39.2347485,127.661033 39.3649421,128.292467 39.5730085,128.951454 C39.6837338,129.299317 39.7725575,129.651772 39.8552973,130.004226 C39.872332,130.081146 39.8796326,130.14429 39.8844996,130.199397 C39.4002282,130.251059 38.6786881,130.194804 38.3416449,130.203989 M43.9424022,129.48071 C43.8389774,128.737915 43.6625468,128.024969 43.461781,127.297098 C43.2597985,126.57956 43.287784,125.826432 43.0541656,125.112338 C42.4433509,123.258219 40.5829212,122.879359 38.7650782,123.029755 C37.7150123,123.118155 36.6856313,123.342027 35.6404325,123.466018 C34.8106005,123.563603 33.9637339,123.640523 33.2713961,124.131893 C31.833183,125.154816 31.8088477,126.717327 32.2553995,128.240804 C32.2675672,128.285579 32.2870354,128.347574 32.3028533,128.399237 C32.3381394,128.731026 32.3734255,129.058224 32.3880266,129.376237 C32.4537318,130.74243 32.6119109,132.031702 33.6388584,133.071846 C34.6670226,134.109693 36.2670651,133.960445 37.6249719,133.967334 C39.0765694,133.978814 41.0440742,134.180873 42.3387093,133.419708 C43.8061248,132.560959 44.1565523,131.005336 43.9424022,129.48071" id="Fill-44" fill="#231F20"></path>
                    <path d="M53.2763559,130.099735 C53.2267656,129.350798 53.1311271,128.607786 53.0650067,127.892029 C53.0236814,127.441719 52.9941634,126.939267 53.0071513,126.459331 C53.2279463,126.454591 53.4475606,126.449851 53.6659941,126.43326 C54.2835117,126.390599 54.897487,126.301722 55.5126431,126.240101 C55.8278959,126.210475 56.1431486,126.191515 56.4595821,126.182034 C56.6780156,126.173739 56.8244251,126.184404 56.9236058,126.198625 C57.0239671,127.007999 56.8480396,128.014087 56.8728347,128.766579 C56.8834612,129.111422 56.8834612,129.456265 56.8362323,129.793998 C56.6036301,129.825994 56.3733894,129.855619 56.1419679,129.882875 C55.2446193,130.001378 54.2067647,130.181502 53.2763559,130.099735 M59.8706875,122.96824 C58.2696287,121.349493 55.2091976,122.213378 53.25038,122.372171 C51.1451529,122.544 49.35754,122.95876 49.0552752,125.410582 C48.8911549,126.752033 49.1119499,128.260572 49.4614435,129.558178 C49.5039495,129.714601 49.5452748,129.87458 49.5877808,130.031003 C49.5948651,130.166097 49.5877808,130.29882 49.6007687,130.432728 C49.8121179,132.545632 50.9774904,133.733029 53.0886211,133.923818 C54.7203787,134.066022 57.0015334,134.063652 58.5411947,133.430847 C60.6629519,132.557482 60.9451444,130.437468 60.9475059,128.38974 C60.9498673,126.481846 61.3560357,124.46967 59.8706875,122.96824" id="Fill-46" fill="#231F20"></path>
                    <path d="M70.427011,129.685182 C70.1952549,129.717173 69.9598395,129.741781 69.724424,129.759007 C69.6658751,129.613817 69.624403,129.463705 69.5756122,129.314824 C69.5963483,128.823885 69.5512168,128.321872 69.4914481,127.802633 C69.4450969,127.405206 69.3621526,127.018852 69.2999444,126.626347 C69.4511958,126.60666 69.6000076,126.570978 69.7536985,126.570978 C70.8893035,126.48977 72.0322272,126.580821 73.1714915,126.5193 C73.3093254,126.506996 73.4435,126.471314 73.5801141,126.450397 C73.6313444,126.810911 73.6289049,127.21572 73.6520805,127.559009 C73.6837945,128.02657 73.681355,128.494131 73.6728166,128.961692 C73.6776957,129.089656 73.649641,129.212699 73.633784,129.336971 C73.6106084,129.348045 73.5971909,129.348045 73.5679164,129.36158 C72.5811232,129.667956 71.4491775,129.575674 70.427011,129.685182 M77.9798212,127.559009 C77.9041956,125.655543 77.743186,123.445701 75.9196312,122.36908 C74.8254984,121.723107 73.8813971,122.105769 72.7360339,122.180825 C71.5796928,122.259572 70.4209122,122.19559 69.2633513,122.292793 C66.9287133,122.493353 65.1734656,123.504761 65.0087967,126.022209 C64.9697641,126.614043 65.0624666,127.325228 65.250311,128.038874 C65.3588705,128.890328 65.5540335,129.727016 65.726021,130.445584 C66.270038,132.700951 67.6508166,134.040883 70.0037512,133.999048 C71.8309653,133.965827 74.34125,134.038422 75.9489057,133.056544 C77.949327,131.833502 78.0676446,129.719633 77.9798212,127.559009" id="Fill-48" fill="#231F20"></path>
                    <path d="M20.3282768,116.63637 C20.0398762,116.689471 19.7514755,116.751217 19.4607109,116.787029 C19.181766,116.824076 19.0068345,116.815432 18.8945473,116.805553 C18.869726,116.200449 19.0115623,115.494083 19.0399296,114.980362 C19.0753887,114.372788 19.0848445,113.746691 19.0730248,113.120594 C19.8684905,113.008217 20.6651383,112.906955 21.4676958,112.885962 C21.7690982,112.878552 22.1851516,112.881022 22.5302868,112.96623 C22.5291048,113.202097 22.5255589,113.437964 22.5184671,113.676301 C22.5019195,114.538266 22.7454053,115.444686 22.8801499,116.294302 C22.8848778,116.322704 22.8813318,116.349872 22.8848778,116.37951 C22.7808644,116.386919 22.676851,116.394329 22.5716557,116.399269 C21.812831,116.446195 21.0788277,116.501766 20.3282768,116.63637 M26.6695454,112.519195 C26.487522,109.403527 24.1472216,108.867578 21.6615389,109.04417 C19.9642301,108.889806 17.9288779,109.184949 17.0861334,109.244224 C15.9869013,109.324493 15.2800833,110.0889 15.1902536,111.226248 C15.0507812,112.963761 15.1110616,114.723501 15.0129581,116.467188 C14.9207645,118.08862 15.3013588,119.748333 16.7740933,120.549787 C18.0896258,121.266032 19.6793753,120.96842 21.0717359,120.737493 C22.1981532,120.552257 23.5503268,120.699211 24.7689378,120.270698 C27.9862599,119.148169 26.8243835,115.166833 26.6695454,112.519195" id="Fill-50" fill="#231F20"></path>
                </g>
                <g id="Page-1" fill="#11BAA1">
                    <path d="M28.8725262,60.0200941 L28.8725262,60.0200941 C28.958292,60.1064242 29.0434703,60.1064242 29.1292361,60.1064242 L29.1292361,59.8468427 C29.0434703,59.7611039 28.958292,59.7611039 28.8725262,59.7611039 L28.8725262,60.0200941 Z M30.071485,56.3114489 L30.071485,56.3114489 C30.1566634,56.2251189 30.4997265,55.4499222 29.9863066,55.5356609 C29.9863066,55.7940598 29.7278344,56.2251189 30.071485,56.3114489 L30.071485,56.3114489 Z M30.1566634,55.1909319 L30.1566634,55.1909319 C30.4145482,55.2766707 30.8427897,54.2424838 30.3276075,54.3288138 C30.3276075,54.6729515 30.071485,54.7592816 30.1566634,55.1909319 L30.1566634,55.1909319 Z M38.6380781,53.8102421 L38.6380781,53.8102421 C39.1520854,53.9834936 39.2384386,53.3797744 38.8953755,53.2940356 C38.8090222,53.4661045 38.6380781,53.5524345 38.6380781,53.8102421 L38.6380781,53.8102421 Z M69.5648713,55.2766707 L69.5648713,55.2766707 C66.8244779,57.0878283 62.9685417,57.6052174 60.3990925,59.5884438 C56.6306845,60.192163 54.487127,62.6933698 50.8033099,63.2959064 C43.4350882,67.2635418 35.1252051,70.0231475 28.0154557,74.2479992 C22.5323192,77.3535165 16.1921121,79.3361516 11.3956894,83.217457 C12.5940608,83.3031957 13.7084287,81.8373584 15.0783317,81.5783682 C17.0497701,79.6808806 20.4757024,79.5088118 22.6186724,77.6982455 C23.2172706,77.6982455 23.474568,77.2665952 23.9891628,77.2665952 C24.3310511,76.9218662 24.6747017,76.5771372 25.1023558,76.4050684 C27.7581583,75.5417677 30.071485,74.0759304 32.5557559,72.8690833 C33.5837705,72.437433 34.6981384,72.1784428 35.7255657,71.6616449 C36.1543946,71.4026547 36.4111046,70.9715957 36.9251119,70.7989355 C38.5523123,70.0231475 40.608929,69.9368174 41.8930662,68.4709802 C42.2367168,68.4709802 42.4934268,68.4709802 42.7507242,68.5567189 C46.0068872,66.3150936 50.8033099,65.8840346 53.5448782,63.1244288 C54.231592,63.2101676 54.3161829,62.5207097 55.0869002,62.8654386 C55.773614,62.0896506 56.7998663,61.7443303 57.8290558,61.5722615 C58.0851784,61.3138626 58.0851784,60.7095521 58.5145948,60.623222 C61.5986388,59.9337641 63.8256123,58.1226065 66.9096562,57.3468185 C67.7673142,56.397779 69.2235704,56.3114489 70.1664067,55.4499222 C69.9937002,55.3630008 69.9079345,55.1909319 69.5648713,55.2766707 L69.5648713,55.2766707 Z M30.8427897,53.8102421 L30.8427897,53.8102421 C31.0989122,53.0350454 31.2698564,52.0860059 31.0143213,51.396548 C30.7570239,51.9139371 30.071485,53.3797744 30.8427897,53.8102421 L30.8427897,53.8102421 Z M39.1520854,51.6549469 L39.1520854,51.6549469 C39.3230296,52.172336 39.4945611,51.1375578 39.1520854,51.6549469 L39.1520854,51.6549469 Z M70.8507708,55.1040106 L70.8507708,55.1040106 C71.7930196,55.0182718 72.4785586,54.6729515 72.9925659,54.0692323 C72.1354954,54.1561537 71.5363097,54.6729515 70.8507708,55.1040106 L70.8507708,55.1040106 Z M31.0989122,50.9654889 L31.0989122,50.9654889 C31.6986854,51.051819 32.0417485,49.3269915 31.6129196,49.1543314 C31.2698564,49.5853904 31.0989122,50.1885183 31.0989122,50.9654889 L31.0989122,50.9654889 Z M31.8708044,47.6879028 L31.8708044,47.6879028 C32.3848117,47.5158339 33.0697632,45.6183463 32.3848117,45.5326075 C32.3848117,46.3089869 31.7832763,47.1705137 31.8708044,47.6879028 L31.8708044,47.6879028 Z M32.898819,44.152509 L32.898819,44.152509 C33.0697632,43.9798489 33.1549416,43.5487898 32.8130533,43.4630511 C32.898819,43.6345286 32.6409342,44.152509 32.898819,44.152509 L32.898819,44.152509 Z M51.7461462,44.9288884 L51.7461462,44.9288884 C51.9170904,45.3605387 52.1738003,44.4114992 51.7461462,44.9288884 L51.7461462,44.9288884 Z M39.1520854,41.8239624 L39.1520854,41.8239624 L39.4945611,41.8239624 L39.4945611,41.5661547 L39.2384386,41.5661547 C39.2384386,41.6518935 39.2384386,41.7376323 39.1520854,41.8239624 L39.1520854,41.8239624 Z M54.231592,53.9834936 L54.231592,53.9834936 C54.4025361,54.3288138 54.231592,54.9319417 54.4025361,55.2766707 C53.7158223,55.4499222 53.9731197,56.8288381 53.3733466,57.2604884 C53.8885288,58.3815967 52.945105,59.1573847 52.8605141,60.1064242 C54.7455993,60.3648231 56.029149,58.4679268 57.9142342,58.2089366 C58.2567099,52.6033951 60.1423826,47.257435 60.3133267,40.6171153 L59.8844977,40.6171153 C58.1727065,45.2736173 56.1166771,49.4996517 54.231592,53.9834936 L54.231592,53.9834936 Z M114.88622,42.3413515 L114.88622,42.3413515 C115.656349,42.3413515 115.571171,41.3059819 115.742703,40.6171153 L115.314461,40.6171153 C115.314461,41.3059819 114.971398,41.7376323 114.88622,42.3413515 L114.88622,42.3413515 Z M61.5122855,56.5704392 L61.5122855,56.5704392 C63.5683149,55.8809812 65.5391658,55.1040106 67.3384852,54.0692323 C68.3659125,48.2910307 70.5934734,41.9972138 69.7364029,36.2184208 C66.2241173,41.7376323 63.6546681,49.4996517 61.5122855,56.5704392 L61.5122855,56.5704392 Z M35.7255657,34.5805147 L35.7255657,34.5805147 C35.7255657,35.0115738 36.4962829,35.0115738 36.4111046,35.6152929 C36.3259262,36.2184208 35.6397999,36.4780023 36.1543946,37.0817215 C34.9548484,37.6848494 35.2979116,39.496007 35.0400267,40.7034454 C34.6111978,42.4276815 34.440841,44.5835681 33.7553021,45.8767452 C33.7553021,48.722681 32.5557559,50.4480998 32.4699901,52.4313262 C34.0977779,49.2400701 35.6397999,45.8767452 36.9251119,42.3413515 C38.3813681,40.6171153 38.4665465,37.2537904 39.7512711,35.356894 C39.3230296,35.0973125 38.7238439,35.0115738 38.7238439,34.4084459 C38.7238439,33.8035441 39.4093828,34.2351944 39.3230296,33.6320665 C38.3813681,33.5457365 36.4111046,33.7178053 35.7255657,34.5805147 L35.7255657,34.5805147 Z M71.7930196,49.0680013 L71.7930196,49.0680013 C71.5363097,49.8443806 71.2790123,51.3096266 71.7930196,52.0860059 C73.8484615,51.6549469 75.7335467,50.8791589 77.2755687,49.8443806 C75.8198999,48.6369423 76.3333198,47.7742329 76.7615614,45.7904152 C77.534041,42.6866718 77.8747544,39.8401447 78.1326392,37.0817215 C77.8747544,36.9090614 77.8747544,36.391081 77.3619219,36.391081 C75.4768368,40.2723863 73.1629226,44.497238 71.7930196,49.0680013 L71.7930196,49.0680013 Z M77.7043977,35.9606132 L77.7043977,35.9606132 C77.6186319,36.1326821 77.7043977,36.3047509 77.789576,36.391081 C78.1326392,36.4780023 78.218405,36.2184208 78.218405,35.8742832 C77.9611076,35.8742832 77.789576,35.8742832 77.7043977,35.9606132 L77.7043977,35.9606132 Z M43.0074341,32.8550959 L43.0074341,32.8550959 C44.0360362,34.4084459 43.0931999,36.8233226 42.7507242,38.8059577 C42.1503636,42.2550214 40.9514048,45.8767452 41.2081147,48.8953412 C40.608929,49.3269915 40.865639,49.8443806 40.7798732,50.7064987 C42.57978,48.2910307 43.8645046,45.2736173 45.234995,42.2550214 C45.9211214,41.3934946 46.5208945,40.2723863 46.777017,38.8916965 C46.9491361,38.5475588 47.2910244,38.37549 47.3773776,37.9438396 C47.3773776,37.2537904 47.4631434,37.0817215 47.3773776,36.3047509 C47.9765633,35.8742832 48.5751615,35.1842339 48.1480949,34.3209332 C49.0891689,32.9420173 50.9742541,33.5457365 51.1463731,34.9252437 C51.2321389,36.4780023 49.5179979,38.1159085 50.4602467,39.3233468 C48.6621022,40.6171153 48.8330464,44.3245779 48.6621022,46.9978535 C48.9182247,46.1363267 49.5179979,45.3605387 49.861061,44.4114992 C50.3750684,43.2034696 50.6323658,41.7376323 51.1463731,40.5307852 C51.659793,39.4096769 52.6026293,38.5475588 53.1166366,37.5121893 C53.3733466,36.9090614 53.3733466,36.1326821 53.7158223,35.4426328 C54.231592,34.3209332 55.1738408,33.1998249 55.0011344,31.9935691 C55.344785,31.6482488 55.5151417,31.3898499 55.344785,30.7855394 C55.773614,30.5271405 56.3722122,30.0097514 56.2876213,29.5786924 C51.659793,30.4414018 47.2052586,31.4755887 43.0074341,32.8550959 L43.0074341,32.8550959 Z M87.899366,31.3029286 L87.899366,31.3029286 C84.3007272,35.8742832 81.8170438,41.7376323 79.2470071,47.5158339 C79.8461928,48.2052919 78.8181781,48.3785433 79.1606539,48.9822625 C81.731278,47.8605629 84.6437904,46.9121148 87.2995928,45.7040851 C87.2995928,45.1009572 86.6998197,45.1009572 86.5288756,44.6693068 C86.100634,42.945662 87.5568902,41.1339131 87.1286487,39.5817457 C87.3853586,39.496007 87.5568902,39.4096769 87.642656,39.0649479 C87.8141876,35.9606132 88.2418417,34.0631256 88.3281949,31.3898499 C88.1560759,31.3898499 87.9851318,31.3029286 87.899366,31.3029286 L87.899366,31.3029286 Z M59.7135536,33.3730763 L59.7135536,33.3730763 C60.5688618,31.8203177 62.7975976,30.6134706 62.1978245,28.2849239 C60.3990925,28.8029043 58.0851784,28.8029043 56.7152754,29.7507612 C57.2298702,30.0097514 58.0851784,30.0097514 58.4282415,30.4414018 C58.0851784,31.045121 58.6003606,31.3898499 58.5145948,31.9935691 C58.2567099,32.5972883 57.8290558,33.1140861 57.3138736,33.4599977 C55.9439707,37.9438396 54.487127,43.1177308 53.9731197,48.1189618 C56.1166771,44.0667703 58.8570705,38.0301697 59.7135536,33.3730763 L59.7135536,33.3730763 Z M62.8827759,28.371254 L62.8827759,28.371254 C63.0537201,28.371254 63.2258391,28.4575841 63.3967833,28.4575841 C63.3967833,28.371254 63.4837239,28.2849239 63.4837239,28.1985939 C63.3116049,28.1122638 63.0537201,28.1122638 62.8827759,28.1122638 L62.8827759,28.371254 Z M90.297871,44.0667703 L90.297871,44.0667703 C91.839893,43.8941101 93.6392124,42.8593319 95.180647,42.2550214 C95.3521786,41.4792334 94.2389856,41.6518935 94.2389856,40.9618443 C94.2389856,41.0481743 94.7529929,40.2723863 94.8399336,39.8401447 C95.4379444,37.9438396 95.2670002,37.1674603 94.6678145,35.8742832 C94.8399336,35.4426328 95.4379444,35.6152929 95.5242976,35.1842339 C95.7810076,32.9420173 96.6380781,30.7855394 96.2098365,28.8892344 C93.8970973,33.5457365 91.6683615,38.2879773 90.297871,44.0667703 L90.297871,44.0667703 Z M139.044564,31.4755887 L139.044564,31.4755887 C139.130917,31.4755887 139.217271,31.4755887 139.388215,31.5625101 L139.388215,31.2171898 L139.130917,31.2171898 C139.130917,31.3029286 139.044564,31.3898499 139.044564,31.4755887 L139.044564,31.4755887 Z M63.9107906,27.9407863 L63.9107906,27.9407863 C63.7398465,28.7165743 64.8536269,28.4575841 65.0245711,28.9755645 C63.8256123,35.7879531 61.8547613,42.6003417 61.2555756,49.6717205 C62.8827759,46.481647 63.5683149,43.3761297 65.1109243,40.3587164 C66.7387121,37.1674603 69.3093362,34.3209332 69.9937002,30.2687416 C70.5934734,29.6650224 71.3641907,29.7507612 71.1944214,28.4575841 C71.7930196,28.1122638 72.307027,27.595466 73.3350416,27.681796 C74.1057589,28.026525 74.1915247,29.7507612 73.3350416,30.1818203 C73.42022,32.4246282 72.3927928,35.1842339 71.9633763,37.8575096 C71.7078413,39.496007 71.4499564,41.6518935 72.3927928,42.8593319 C74.7049446,37.9438396 77.2755687,33.4599977 79.0754755,27.9407863 C80.3602001,27.681796 81.0457391,26.0432986 80.87362,24.5774613 C75.3053052,25.8706385 69.5648713,26.9054167 63.9107906,27.9407863 L63.9107906,27.9407863 Z M119.684405,27.5091359 L119.684405,27.5091359 C119.855349,27.5091359 119.941115,27.5091359 120.111471,27.595466 L120.111471,27.1638156 L119.855349,27.1638156 C119.855349,27.3358845 119.684405,27.3358845 119.684405,27.5091359 L119.684405,27.5091359 Z M83.1017684,24.4042099 L83.1017684,24.4042099 C83.4436567,24.5774613 83.4436567,25.0079291 83.6151883,25.3532494 C81.8170438,29.7507612 80.7026759,34.4941846 79.6746612,39.3233468 C81.6449247,37.6848494 82.2452853,34.8395049 83.5300099,32.4246282 C84.2155488,31.1308597 85.4150951,29.3197022 86.100634,28.1122638 C86.3585188,27.595466 86.5288756,26.9054167 86.7849981,26.4743577 C87.0422955,26.0432986 87.642656,25.9569685 87.8141876,25.5259095 C88.2418417,24.6632001 88.7564365,23.370023 89.9559827,23.1967715 C90.5551684,23.1110328 90.3842243,23.7141606 90.898819,23.7141606 C91.0697632,23.1110328 92.0971904,22.9389639 91.7541273,22.2483234 C88.8422023,22.8526338 85.6718051,23.2836929 83.1017684,24.4042099 L83.1017684,24.4042099 Z M93.3825025,22.0762545 L93.3825025,22.0762545 C93.8101566,22.6799737 93.2967367,23.5420918 93.4682683,24.2321411 C91.9262463,27.1638156 90.98341,31.7345789 90.297871,35.2699727 C90.2121053,35.701623 89.6992728,36.2184208 90.0411611,36.6506625 C92.525432,31.6482488 95.180647,26.5606877 97.1520854,21.7321168 C98.1795126,21.5594567 98.7804606,21.7321168 99.2932931,22.5073136 C99.0371706,25.5259095 98.1795126,29.2333721 97.7512711,32.0793079 C99.6363563,30.5271405 100.064598,27.1638156 101.778151,25.3532494 C102.205805,22.8526338 103.749002,21.4725353 103.578058,19.6619691 C100.407661,20.7830774 96.7238439,21.2135451 93.3825025,22.0762545 L93.3825025,22.0762545 Z M105.975976,23.5420918 L105.975976,23.5420918 C106.746693,22.4209835 108.460247,20.4383484 107.861061,19.0582499 C107.005165,20.1787669 105.975976,21.9035944 105.975976,23.5420918 L105.975976,23.5420918 Z M97.4939737,17.7644814 L97.4939737,17.7644814 C95.6100634,18.7129296 93.3825025,18.3682006 91.3258857,18.7129296 C90.4699901,18.8855897 89.6992728,19.3172401 88.7564365,19.4893089 C88.5849049,19.4893089 88.3281949,19.2297274 88.1560759,19.2297274 C86.6998197,19.3172401 85.5002735,20.1787669 84.1303705,20.4383484 C83.6151883,20.5234959 83.0160026,20.3508357 82.5025827,20.4383484 C80.9599733,20.5234959 79.5894829,21.2135451 77.9611076,21.5594567 C76.848502,21.8178556 75.5626025,21.8178556 74.3624689,22.0762545 C72.3927928,22.5073136 69.6512245,23.370023 67.9376709,23.801082 C64.2538538,24.8352689 60.2269735,25.2669193 56.2006806,25.8706385 C55.1738408,26.5606877 54.3161829,26.6470178 52.6878076,26.7327566 C47.1200802,28.9755645 40.3516317,29.7507612 35.0400267,32.251968 C39.8382118,31.3029286 44.6358093,30.0960815 49.4334069,29.1476333 C52.945105,28.4575841 56.2876213,27.5091359 59.8844977,26.7327566 C61.7695829,26.3016975 63.7398465,25.8706385 65.6249316,25.4395794 C71.7078413,24.1464023 77.2755687,23.456353 83.1881216,21.9905157 C86.6998197,21.2135451 90.297871,20.265097 93.9822756,19.6619691 C94.4105171,19.6619691 94.2389856,19.0582499 94.7529929,19.1439886 C96.2956023,18.8855897 98.7804606,18.7992597 99.2932931,17.7644814 L99.0371706,17.7644814 C98.5225758,18.1098017 98.2652784,17.7644814 97.4939737,17.7644814 L97.4939737,17.7644814 Z M99.5511779,18.1098017 L99.5511779,18.1098017 C99.8942411,17.9371416 100.407661,18.0228803 100.578605,17.5918213 C100.150364,17.6781514 99.5511779,17.5918213 99.5511779,18.1098017 L99.5511779,18.1098017 Z M101.092612,17.7644814 L101.092612,17.7644814 C101.264144,17.7644814 101.350497,17.8508115 101.521441,17.8508115 L101.521441,17.5918213 C101.350497,17.5060825 101.264144,17.5060825 101.092612,17.5060825 L101.092612,17.7644814 Z M124.566593,19.0582499 L124.566593,19.0582499 C124.995422,19.3172401 124.995422,18.4545307 124.652946,18.6265995 C124.566593,18.7992597 124.566593,18.9719198 124.566593,19.0582499 L124.566593,19.0582499 Z M147.442563,23.1967715 L147.442563,23.1967715 C146.241842,24.4911313 144.614641,25.5259095 143.500273,26.7327566 C143.243564,26.9917468 143.243564,27.4233971 142.986854,27.681796 C142.044017,28.6296529 140.416229,29.1476333 139.986813,30.6134706 C141.016003,30.1818203 142.471671,28.8892344 143.157798,27.595466 C145.470537,26.4743577 146.499727,23.801082 148.725525,22.5936436 C149.24012,21.4725353 150.440254,21.2135451 150.954261,20.0930281 C149.411064,20.6967473 148.383637,22.0762545 147.442563,23.1967715 L147.442563,23.1967715 Z M113.258432,31.2171898 L113.258432,31.2171898 C113.087488,31.8203177 113.429376,31.9935691 113.429376,32.4246282 C113.172666,32.5972883 112.74325,33.0277561 113.087488,33.4599977 C114.799866,33.4599977 115.485405,32.251968 117.198959,32.1662293 C118.226973,26.4743577 119.084044,22.2483234 120.369943,16.901772 C120.369943,16.8160333 120.28359,16.7291119 120.111471,16.7291119 C117.37049,21.6446042 115.400814,25.7843084 113.258432,31.2171898 L113.258432,31.2171898 Z M113.686086,14.6595554 L113.686086,14.6595554 C109.317317,20.6967473 106.490571,28.6296529 103.063463,35.7879531 C103.234995,36.1326821 103.320173,36.4780023 103.234995,36.9948002 C102.7204,37.6848494 102.205805,38.2879773 101.178378,38.2022385 C100.064598,37.4264505 100.493427,36.391081 100.235542,35.1842339 C101.863917,33.9767955 101.691798,30.1818203 102.205805,28.7165743 C101.778151,29.4060322 101.092612,29.6650224 101.436263,30.6134706 C100.150364,32.0793079 99.4654121,34.4084459 98.9519922,36.9090614 C97.9228027,37.8575096 97.066907,39.6686671 97.3230296,41.3934946 C102.035449,38.9786179 107.261875,37.3401204 111.458525,34.4084459 C110.944518,33.1998249 109.831325,32.4246282 109.574615,30.9587909 C109.659206,30.5271405 110.002269,30.4414018 110.174388,30.1818203 C111.030871,24.6632001 112.659246,19.7477078 114.029149,14.6595554 L113.686086,14.6595554 Z M151.553447,19.6619691 L151.553447,19.6619691 C151.895922,18.9719198 153.695829,18.3682006 153.180647,17.5918213 C152.838171,18.4545307 151.296149,18.6265995 151.553447,19.6619691 L151.553447,19.6619691 Z M133.819312,23.801082 L133.819312,23.801082 C133.56319,24.4042099 132.962829,25.0079291 132.706119,25.6116483 C132.192112,26.8190866 132.105759,28.371254 131.678105,29.5786924 C130.821034,31.7345789 130.906213,34.5805147 129.535722,36.6506625 C128.593473,36.6506625 127.9937,36.391081 127.052039,36.2184208 C127.052039,34.8395049 127.052039,33.7178053 127.73699,32.9420173 C128.935949,26.9917468 131.077744,21.2135451 132.363056,14.9185456 C130.821034,16.6433731 129.706666,18.8855897 128.935949,21.5594567 C127.650637,23.1110328 127.137217,25.1811805 126.451678,27.3358845 C126.279559,28.026525 125.680961,28.6296529 125.422489,29.3197022 C124.995422,30.7855394 124.738712,32.3388894 124.224705,33.8910568 C123.624344,35.9606132 122.59633,37.9438396 122.33962,39.8401447 C122.253854,40.4450464 122.425973,41.0481743 122.253854,41.6518935 C122.082322,42.7730018 120.883951,43.7208587 121.054895,45.0152184 C118.054854,46.3089869 118.997691,41.2202432 119.768995,40.3587164 C119.941115,39.7544059 119.768995,39.4096769 119.768995,38.8916965 C120.625479,37.9438396 120.369943,35.5295542 121.139486,34.1488644 C121.568315,30.7855394 123.196103,26.8190866 123.368222,23.5420918 C123.967407,22.5073136 124.823303,20.4383484 124.395649,19.2297274 C123.967407,20.265097 123.196103,21.6446042 123.368222,23.0247027 C122.082322,24.1464023 122.167501,27.1638156 121.139486,28.6296529 C120.969129,29.0613033 121.483137,28.8892344 121.311017,29.3197022 C119.855349,32.1662293 118.741568,35.701623 118.484858,39.2370168 C117.37049,40.4450464 117.456844,42.1692826 117.112606,43.9798489 C116.51342,44.2388391 116.170944,44.6693068 115.400814,44.6693068 C114.971398,44.497238 115.314461,43.6345286 114.544331,43.7208587 C113.429376,46.6531246 112.229242,50.7922375 112.144064,53.8102421 C112.915956,53.8102421 113.943971,52.7754639 114.372212,51.7406857 C117.540847,50.8791589 118.997691,48.0332231 121.568315,46.481647 C121.653493,45.9636666 122.167501,45.9636666 122.082322,45.3605387 C123.538578,44.9288884 123.967407,43.2903909 125.338485,42.7730018 C125.422489,42.4276815 125.595195,42.2550214 125.680961,41.9972138 C129.965139,38.5475588 133.905666,34.5805147 137.50313,30.3544804 C136.046286,31.5625101 133.990257,30.1818203 135.105212,28.1122638 C134.419673,26.9917468 134.933093,25.6979783 135.276156,24.6632001 C136.217818,21.7321168 136.560881,18.0228803 137.589483,15.2632746 C137.589483,15.1775358 137.50313,15.0917971 137.332185,15.0917971 C135.875342,17.7644814 135.018859,20.8694074 133.819312,23.801082 L133.819312,23.801082 Z M158.492252,13.5396297 L158.492252,13.5396297 L158.750724,13.5396297 L158.750724,13.2800482 L158.492252,13.2800482 L158.492252,13.5396297 Z M159.264144,12.8495805 L159.264144,12.8495805 C159.34991,13.3663783 159.607795,12.4173388 159.264144,12.8495805 L159.264144,12.8495805 Z M155.324792,12.8495805 L155.324792,12.8495805 C154.638078,12.4173388 154.295015,12.0726098 153.267588,11.8142109 C152.411105,13.1943094 151.211558,15.4365261 149.497417,13.7111073 C148.46999,15.6085949 147.527154,21.0414763 144.69982,17.6781514 C145.129236,16.901772 145.385359,15.8669938 145.642069,14.8328069 C144.100047,16.3849742 144.014281,18.9719198 143.328742,21.2998752 C143.328742,21.7321168 143.843337,21.7321168 143.756983,22.1625846 C143.41392,23.1110328 142.558025,23.370023 142.214961,24.3184711 C139.731278,24.1464023 140.929649,21.2998752 140.674114,20.0072893 C139.473393,21.9905157 139.044564,24.3184711 138.017137,26.5606877 C138.102903,28.026525 137.332185,28.4575841 137.674661,30.0097514 C138.275022,30.1818203 138.959386,29.3197022 139.217271,28.6296529 C141.358478,27.0780769 142.814735,24.8352689 144.870764,23.2836929 C147.86963,19.7477078 151.725566,17.3334224 154.80961,14.0564275 C155.666093,13.9695062 156.008568,13.2800482 156.351632,12.5905903 C155.922803,12.5905903 155.751859,12.8495805 155.324792,12.8495805 L155.324792,12.8495805 Z M160.292746,11.9868711 L160.292746,11.9868711 C160.635809,12.0726098 160.720988,11.8142109 160.891344,11.6421421 C160.46369,11.555812 160.292746,11.6421421 160.292746,11.9868711 L160.292746,11.9868711 Z M94.6678145,5.9502705 L94.6678145,5.9502705 C95.3521786,6.20926071 97.2372638,6.46765962 97.6660927,5.51921145 C96.7238439,5.77761036 95.2670002,5.34714262 94.6678145,5.9502705 L94.6678145,5.9502705 Z M146.241842,10.3483737 L146.241842,10.3483737 C146.670083,10.4347037 146.755849,9.83098453 146.413373,9.74406316 C146.327608,10.0036447 146.156076,10.0036447 146.241842,10.3483737 L146.241842,10.3483737 Z M103.920534,7.32918641 L103.920534,7.32918641 C99.4654121,6.98564004 94.6678145,8.36514725 90.3842243,8.19189581 C92.0971904,10.2620436 95.6952418,10.7794327 97.8370369,12.5042602 C98.1795126,12.5042602 98.43681,12.5905903 98.7804606,12.5905903 C101.178378,13.9695062 103.578058,15.6943337 106.575162,15.2632746 C107.432232,15.9539152 108.375068,16.6433731 109.574615,17.1613536 C111.373347,13.7111073 113.772439,10.0893834 114.971398,6.38073825 C111.030871,6.38073825 107.089756,6.46765962 103.920534,7.32918641 L103.920534,7.32918641 Z M161.748415,10.7794327 L161.748415,10.7794327 C161.834181,10.6067726 162.005712,10.4347037 161.834181,10.3483737 C161.748415,10.5204425 161.491705,10.6067726 161.748415,10.7794327 L161.748415,10.7794327 Z M149.069176,10.3483737 L149.069176,10.3483737 C149.411064,10.0036447 150.3539,9.22667405 149.754715,8.88253637 C149.411064,9.14093528 149.24012,9.65832439 149.069176,10.3483737 L149.069176,10.3483737 Z M162.520895,9.74406316 L162.520895,9.74406316 C162.86337,9.65832439 163.205259,9.65832439 163.119493,9.22667405 C162.775842,9.22667405 162.606073,9.39992549 162.520895,9.74406316 L162.520895,9.74406316 Z M118.826747,6.46765962 L118.826747,6.46765962 C118.313327,6.72605853 118.9131,7.24344765 118.826747,7.58876792 C116.085178,12.0726098 114.88622,17.2470923 113.857617,23.2836929 C115.314461,21.5594567 115.742703,19.575639 117.027427,17.4197525 C118.484858,14.9185456 121.311017,12.3321914 121.568315,9.39992549 C121.996556,8.19189581 124.224705,8.45147732 124.566593,9.65832439 C124.481415,10.0893834 124.224705,10.4347037 124.052586,10.8657628 C124.652946,11.2974131 123.795876,11.7278809 124.052586,12.3321914 C122.59633,13.7980286 121.8262,17.2470923 121.653493,19.2297274 C120.711244,21.2998752 120.883951,24.0600722 119.941115,26.3016975 C120.711244,25.3532494 121.226427,23.9731508 121.653493,22.8526338 C123.538578,17.2470923 125.422489,11.2104917 127.907934,6.20926071 C125.422489,5.9502705 121.740434,5.69187159 118.826747,6.46765962 L118.826747,6.46765962 Z M114.457978,4.39810315 L114.457978,4.39810315 C114.457978,4.22544301 114.457978,4.05278287 114.201268,4.13852164 C111.71641,4.57076329 108.5466,4.57076329 105.975976,4.74283213 C103.063463,5.00123104 100.150364,4.91549227 97.8370369,5.86453173 C103.063463,5.26022125 109.145786,5.26022125 114.457978,4.39810315 L114.457978,4.39810315 Z M130.821034,5.86453173 L130.821034,5.86453173 C130.650678,6.03660057 130.735268,6.55458099 130.392205,6.55458099 C130.735268,7.76201937 129.535722,8.36514725 129.193834,9.31359542 C128.336763,11.3831519 127.907934,14.4880779 127.137217,17.0750235 C126.538031,19.0582499 125.765552,21.127215 125.595195,23.1967715 C126.10979,23.0247027 126.10979,22.1625846 126.62321,22.0762545 C126.708388,20.7830774 127.566046,20.4383484 127.566046,19.2297274 C128.679239,18.1098017 129.108656,15.6943337 130.478559,14.5738167 C130.650678,13.3663783 131.849049,12.676329 131.763283,11.6421421 C132.27729,11.2104917 132.877651,10.7794327 132.877651,9.65832439 C133.734134,9.48566426 133.734134,8.36514725 134.247554,7.84775813 C134.247554,7.50243785 134.077197,7.32918641 134.247554,6.89871867 C134.933093,6.64031976 135.4471,6.12233934 136.217818,5.9502705 C136.818178,6.38073825 137.247007,6.89871867 137.332185,7.76201937 C134.59003,11.469482 133.734134,16.7291119 132.620354,21.2998752 C133.56319,20.4383484 133.56319,18.4545307 134.504851,17.5918213 C135.189803,15.7806637 135.704398,13.7111073 136.647234,11.9868711 C137.332185,10.7794327 138.3602,9.83098453 138.789029,8.70928493 C139.217271,7.32918641 139.130917,6.12233934 140.245285,5.51921145 C136.989122,5.51921145 133.734134,5.43169878 130.821034,5.86453173 L130.821034,5.86453173 Z M159.264144,8.96886644 L159.264144,8.96886644 C158.407661,9.9167233 157.635769,10.0893834 157.550003,11.469482 C159.34991,10.6067726 160.377337,8.795615 161.920534,7.58876792 C160.550044,6.55458099 160.206393,8.10615704 159.264144,8.96886644 L159.264144,8.96886644 Z M121.396783,3.88012273 L121.396783,3.88012273 C120.454534,3.88012273 119.255576,3.70805389 118.997691,4.39810315 C120.883951,4.39810315 123.024571,4.48443322 125.080013,3.9670441 C124.224705,3.9670441 122.767861,3.88012273 121.396783,3.88012273 L121.396783,3.88012273 Z M142.044017,5.51921145 L142.044017,5.51921145 C141.958839,6.20926071 141.958839,6.72605853 142.214961,7.15770888 C140.245285,10.4347037 139.473393,15.2632746 138.3602,19.2297274 C138.959386,18.7129296 139.473393,17.9371416 139.816456,17.2470923 C140.929649,14.9185456 142.214961,12.676329 143.41392,10.3483737 C143.586627,10.0036447 143.586627,9.83098453 143.672392,9.22667405 C143.756983,8.96886644 144.1864,9.05519651 144.1864,8.62295486 C144.270991,8.10615704 144.270991,8.10615704 144.270991,7.50243785 C144.44311,7.07137881 144.69982,6.72605853 144.870764,6.29440818 C144.69982,5.26022125 143.157798,5.26022125 142.044017,5.51921145 L142.044017,5.51921145 Z M125.680961,3.88012273 L125.680961,3.88012273 C125.765552,4.57076329 126.880507,4.39810315 127.052039,3.88012273 C126.538031,3.88012273 125.937671,3.70805389 125.680961,3.88012273 L125.680961,3.88012273 Z M127.137217,4.05278287 L127.137217,4.05278287 C127.393927,4.05278287 127.822756,4.22544301 127.73699,3.79438396 C127.393927,3.70805389 127.222396,3.79438396 127.137217,4.05278287 L127.137217,4.05278287 Z M127.9937,3.9670441 L127.9937,3.9670441 C129.449956,3.88012273 131.934815,4.39810315 133.134948,3.62231512 C131.420807,3.70805389 129.449956,3.53539375 127.9937,3.9670441 L127.9937,3.9670441 Z M146.927381,5.34714262 L146.927381,5.34714262 C147.355035,6.29440818 145.985132,7.67450669 146.927381,8.19189581 C147.355035,7.07137881 148.812466,6.98564004 149.754715,7.76201937 C149.84048,8.01982697 149.411064,8.62295486 149.926246,8.53721609 C150.440254,8.88253637 151.039439,8.01982697 150.782142,7.24344765 C151.553447,7.07137881 151.725566,6.12233934 152.924524,6.38073825 C153.952539,7.32918641 155.580914,7.76201937 155.922803,9.22667405 C157.379059,7.50243785 159.264144,6.29440818 160.635809,4.57076329 C156.522576,4.31236438 151.211558,4.8285709 146.927381,5.34714262 L146.927381,5.34714262 Z M140.329876,3.36391622 L140.329876,3.36391622 C138.959386,3.36391622 137.50313,3.27699484 136.046286,3.27699484 C135.105212,3.36391622 133.905666,3.10433471 133.392246,3.88012273 C134.59003,3.62231512 135.532279,3.88012273 136.475115,3.44965498 C141.446006,4.13852164 145.213827,3.62231512 149.583183,3.36391622 C147.013146,2.58694559 143.500273,3.44965498 140.329876,3.36391622 L140.329876,3.36391622 Z M174,2.15588654 C173.570584,2.75960573 173.570584,3.19066477 173.143517,3.88012273 C172.628922,3.79438396 172.114915,3.79438396 171.773614,3.88012273 C170.915956,4.65709336 169.802763,5.08756111 168.860514,5.86453173 C168.003444,6.46765962 167.145786,7.84775813 166.202949,8.96886644 C165.689529,9.57199432 164.9194,9.9167233 164.404805,10.4347037 C162.606073,12.5905903 160.292746,14.4011565 157.979419,16.2123141 C156.779873,17.1613536 155.751859,18.4545307 154.638078,19.4035702 C154.037718,20.0072893 153.180647,20.1787669 152.581461,20.7830774 C151.981688,21.2998752 151.725566,22.0762545 151.211558,22.6799737 C149.84048,24.1464023 147.86963,25.1811805 146.584905,26.6470178 C146.071485,27.0780769 145.813013,27.8538649 145.299005,28.2849239 C144.955355,28.6296529 144.44311,28.7165743 144.100047,29.0613033 C143.41392,29.6650224 142.986854,30.6998007 142.301315,31.3898499 C141.446006,32.0793079 140.501995,32.6830271 139.731278,33.4599977 C135.961695,37.1674603 131.763283,40.8761055 127.9937,44.841967 C125.765552,47.0847749 123.110337,48.6369423 121.054895,51.1375578 C118.997691,52.3455874 117.37049,54.0692323 115.656349,55.621991 C115.314461,55.621991 115.056576,55.7940598 114.799866,55.8809812 C114.285859,56.3114489 113.943971,57.3468185 113.001134,58.0368677 C112.829603,58.1226065 112.487127,58.0368677 112.400774,58.1226065 C111.973707,58.4679268 111.71641,59.2437148 111.288168,59.5884438 C111.201228,59.6747739 110.859927,59.502705 110.774161,59.502705 C109.745559,59.9337641 109.060607,62.0896506 107.517998,60.7095521 C107.005165,59.2437148 108.5466,57.9505377 107.947414,56.7430993 C108.718719,55.7940598 108.889076,54.5872128 109.488849,53.7245034 C110.174388,50.3617697 111.116049,46.0499967 111.887354,42.6866718 C112.829603,41.0481743 113.087488,38.9786179 113.686086,37.2537904 C111.973707,37.0817215 110.687808,38.7196276 108.889076,38.8916965 C106.575162,40.3587164 103.920534,41.3059819 101.264144,42.2550214 C94.7529929,45.7904152 87.642656,48.4642821 81.4733932,52.2586661 C80.4453785,52.4313262 79.5037171,52.7754639 78.9885349,53.5524345 C77.534041,54.0692323 76.1629631,54.6729515 75.2201268,55.7940598 C73.7638706,55.8809812 72.6500901,56.4841091 71.8787854,57.4325573 C69.9079345,57.9505377 68.2813215,58.9853159 66.3092957,59.6747739 C65.882229,60.192163 65.0245711,60.2790844 64.5963295,60.7958822 C60.8267466,61.5722615 57.4002269,63.641818 54.3161829,65.5387143 C50.0320052,66.4871625 47.0343144,69.0746993 42.8359025,70.1952164 C35.9822756,73.1274822 29.6432435,76.749206 22.7038508,79.6808806 C22.0177244,80.2851911 20.7335872,80.2851911 20.2189924,81.0609791 C18.848502,81.1473092 18.164138,82.1820874 16.9634169,82.4410776 C16.6209411,82.4410776 16.7067069,82.9578755 16.4494095,83.1305356 C14.5643243,83.7342548 12.7655924,84.5112254 11.4808678,85.9764714 C10.6237973,86.0628015 10.2813215,85.8901413 9.33848522,85.8038112 C9.25271943,84.3385653 10.2813215,84.2510526 10.6237973,83.3031957 C9.76672676,82.6137378 8.82389045,81.233048 10.1097899,80.4572599 C10.5380315,80.4572599 10.794154,80.2851911 11.3087488,80.4572599 C12.7655924,79.5088118 14.3939676,78.8193538 15.6792797,77.7845756 C17.56319,77.5255854 18.848502,76.5771372 20.3047582,75.8013492 C21.8467802,75.6280977 22.8742075,74.6796496 24.0749286,73.9038615 C25.7873073,73.3864724 27.41627,72.437433 29.1292361,71.5747236 C36.0680414,68.2989113 43.0074341,64.8492563 50.2910649,61.7443303 C50.0320052,60.5374833 51.0606073,59.9337641 51.0606073,58.5536656 C51.1463731,58.0368677 50.4602467,58.1226065 50.3750684,57.6915475 C50.3750684,53.7245034 51.4882614,49.5853904 51.659793,45.4462775 C51.1463731,45.5326075 51.1463731,46.3089869 51.0606073,46.9121148 C49.4334069,50.7064987 47.8907975,54.5872128 46.5208945,58.7257344 C46.2630097,59.3300449 46.8633703,59.3300449 46.6900764,59.8468427 C45.9211214,60.4511532 44.4648652,60.8822122 43.9502704,59.7611039 C44.8925193,55.4499222 45.3201734,51.396548 45.7490024,46.8251934 C44.2063929,49.4996517 43.1783783,52.0860059 41.9794195,55.3630008 C41.3796463,57.1741583 40.0949217,58.7257344 39.4945611,60.4511532 C39.3230296,60.9685423 39.066907,61.5722615 38.8953755,62.0896506 C38.4665465,63.5554879 38.210424,65.5387143 37.5242976,66.6598226 C36.7541678,66.5734925 36.4962829,67.522532 35.7255657,67.0914729 C35.3830899,66.0561034 35.8119189,64.9355864 35.8970973,63.4691578 C36.0680414,62.8654386 35.4688557,62.9517687 35.5534466,62.4343796 C36.8399336,55.8809812 38.1240707,48.722681 39.2384386,42.3413515 C38.2961898,42.6866718 38.4665465,44.497238 37.6964166,45.0152184 C36.668402,48.9822625 34.440841,52.4313262 32.9839974,55.96672 C32.0417485,58.2089366 31.3567971,60.4511532 30.4145482,62.5207097 C30.2418417,63.0380988 29.8147751,63.3828278 29.6432435,63.9008082 C29.2995928,64.9355864 29.8147751,66.3150936 28.529463,67.0051429 C28.1012215,68.9020392 26.9010878,74.7653883 25.1023558,71.6616449 C24.9302368,71.2299946 25.4460064,70.7989355 25.1023558,70.2809551 C25.9588389,68.9020392 26.2155488,66.6598226 26.6443778,64.417606 C26.8147345,63.9865469 26.9010878,63.2959064 26.987441,62.7796999 C27.6723925,57.3468185 29.2138271,52.0860059 30.6706707,46.3089869 C27.7581583,50.1027795 26.3882553,55.621991 23.9022221,59.8468427 C23.474568,62.1753894 22.2750218,64.072877 21.4179513,66.0561034 C20.9045314,68.9020392 18.9336804,71.8343051 18.5060263,75.3696988 C18.164138,75.6280977 17.9914315,76.1454869 17.6489558,76.4050684 C17.1349484,76.4050684 16.7067069,76.5771372 16.1075212,76.4050684 C14.9925659,73.6448713 17.3070675,70.1952164 17.7341341,67.0914729 C18.6769704,61.2275325 19.9616951,53.8102421 21.9319586,48.0332231 C21.3321855,47.946893 21.5906577,48.8096024 21.0754755,48.8096024 C20.6478214,50.9654889 19.2761561,52.4313262 18.3344947,54.4145526 C16.4494095,58.2089366 15.5059858,62.5207097 13.7084287,66.0561034 C13.6220755,67.6082708 13.0228898,68.4709802 12.4231167,69.4194283 C12.6792392,70.8858569 11.3087488,72.3511029 11.4808678,73.8169402 C11.0520388,75.1112999 9.08177527,75.0243785 8.91024369,73.5585413 C8.82389045,72.6958319 9.42425102,72.2647728 9.59578261,71.4889848 C10.0240241,69.9368174 10.1949683,66.4014237 10.1949683,65.193394 C11.6518119,60.8822122 12.6792392,54.1561537 13.0228898,49.1543314 C10.6237973,52.6897251 8.1395264,56.7430993 6.6832702,60.7958822 C6.16867543,62.4343796 2.99769077,62.3474582 4.02746774,59.9337641 C4.62724087,58.5536656 6.76786112,56.1393801 6.93998015,55.4499222 C7.1109243,53.8102421 7.45340004,52.517065 8.39623635,50.8791589 C8.91024369,49.9307107 9.93825835,49.2400701 10.2813215,48.3785433 C10.3664999,48.1189618 10.2813215,47.7742329 10.3664999,47.5158339 C10.6237973,47.0847749 11.2235704,46.8251934 11.4808678,46.3947256 C11.6518119,46.0499967 11.5660461,45.6183463 11.6518119,45.2736173 C11.9948751,44.497238 12.8519456,44.2388391 13.1938339,43.6345286 C13.6220755,43.0314007 13.4505439,42.3413515 13.9651387,41.9102924 C14.5643243,41.3059819 15.9354022,41.2202432 16.6209411,41.0481743 C18.0771973,42.1692826 17.8204874,44.152509 16.3636437,45.1878786 C15.8502238,50.1027795 13.4505439,54.6729515 13.4505439,59.6747739 C14.8222092,58.3815967 15.1646849,55.7077298 16.7067069,54.5008827 C16.8776511,53.2071142 17.7341341,52.0860059 18.4196731,50.7922375 C18.6769704,50.1885183 18.9336804,49.4127303 19.2761561,48.8096024 C19.534041,48.2052919 20.1326392,47.7742329 20.3899366,47.1705137 C20.9902972,45.7040851 21.1618288,43.9798489 22.3607876,42.945662 C22.1046651,42.1692826 22.8742075,41.3059819 22.7896165,40.1854649 C23.7318654,39.7544059 24.6747017,38.4612287 26.2155488,39.151278 C26.0451921,41.9102924 24.2452853,44.9288884 24.5889359,47.602164 C24.3310511,47.5158339 24.2452853,47.6879028 24.160107,47.8605629 C23.6460996,51.6549469 21.9319586,56.05305 21.5906577,59.502705 C22.2750218,58.9853159 22.6186724,57.8642076 23.0469139,56.9157594 C23.5609213,55.8809812 24.160107,54.9319417 24.3310511,53.8102421 C26.5591995,50.9654889 27.7581583,46.9121148 29.9005408,43.8941101 C30.6706707,40.3587164 32.6409342,37.9438396 33.5837705,35.0973125 C32.1269269,34.9252437 30.4145482,35.7879531 29.0434703,36.3047509 C28.7855855,36.3047509 28.529463,36.3047509 28.1863998,36.2184208 C21.0754755,38.6332976 13.5368971,41.0481743 6.42479794,43.4630511 C5.22642656,43.8941101 3.94052707,44.497238 2.82733405,45.3605387 C1.71414103,45.4462775 0.599185691,45.5326075 0,44.6693068 C0.085178358,43.9798489 0.257884822,43.8941101 0.172706464,43.2903909 C0.771304718,43.0314007 1.4562562,42.7730018 1.88508518,42.3413515 C3.77017036,42.6003417 4.88277594,41.0481743 6.33961958,40.3587164 C6.93998015,40.0997262 7.71069743,40.1854649 8.30988312,40.0128048 C8.73929953,39.8401447 9.16695363,39.3233468 9.59578261,39.151278 C10.9656856,38.5475588 12.5940608,38.37549 13.9651387,37.8575096 C18.0771973,36.5637411 22.2750218,34.8395049 25.8730731,33.1140861 C27.9302773,32.9420173 28.958292,31.6482488 31.0989122,31.6482488 C37.4385318,28.6296529 44.9788725,27.3358845 52.0034436,25.0079291 C54.6586586,24.1464023 57.9142342,23.6284219 60.9988656,23.1110328 C61.5122855,23.1967715 61.3407539,22.5936436 61.7695829,22.5936436 C63.0537201,22.5073136 64.6826828,22.5073136 66.0531732,22.1625846 C66.3974112,22.0762545 66.4808273,21.7321168 66.8244779,21.6446042 C67.1663662,21.5594567 67.7673142,21.7321168 68.1943809,21.6446042 C69.8227561,21.2135451 71.3641907,21.127215 72.8210343,20.7830774 C73.3350416,20.6967473 73.9348148,20.1787669 74.5340004,20.0072893 C75.9056657,19.575639 77.534041,19.8346292 78.475115,18.9719198 C80.6174975,18.8855897 82.415642,18.5408608 83.9582515,17.7644814 C86.1858124,17.7644814 88.3281949,17.4197525 90.5551684,16.9886934 C92.9548484,16.4713043 96.2098365,16.2123141 99.0371706,15.6943337 C96.2956023,13.9695062 92.8679077,12.9353192 90.2121053,11.3831519 C89.0989122,10.7794327 88.2418417,10.4347037 87.2138271,9.74406316 C86.6998197,9.48566426 86.2709907,8.795615 85.7575708,8.62295486 C84.5580246,8.10615704 83.2727125,8.70928493 82.2452853,7.76201937 C81.9022221,6.46765962 80.3602001,6.20926071 79.5894829,5.26022125 C79.7598396,4.65709336 80.1034902,4.31236438 80.3602001,3.88012273 C84.9856787,4.31236438 89.184678,3.62231512 93.7249782,3.19066477 C98.1795126,2.8453445 102.7204,3.01800464 107.261875,2.67327566 C111.373347,2.32795538 115.485405,1.9832264 119.511698,1.81174886 C122.253854,1.63790612 124.995422,1.89748763 127.73699,1.72482749 C133.990257,1.37950721 140.245285,1.63790612 146.499727,1.20684707 C151.296149,0.863300699 155.751859,1.63790612 160.550044,1.20684707 C161.062876,1.1211083 161.748415,0.689457955 162.348188,0.689457955 C164.489983,0.517389118 166.975429,1.20684707 168.772399,0 C170.316183,0.863300699 171.344785,-0.344728978 173.056576,0.344728978 C173.315049,0.949039467 173.74329,1.46642858 174,2.15588654 L174,2.15588654 Z" id="Fill-1"></path>
                </g>
            </g>
        </g>
    </g>
</svg>