<svg xmlns="http://www.w3.org/2000/svg" viewBox="0 0 165.07 27.57"><defs><style>.cls-1{fill:#11baa1;}.cls-2{fill:#f6921e;}.cls-3{fill:#f7ce5b;fill-rule:evenodd;}</style></defs><title>logo-vert</title><g id="Layer_2" data-name="Layer 2"><g id="content_and_layout" data-name="content and layout"><path class="cls-1" d="M17.48,17.21v10H9.93l-.06-1a1.56,1.56,0,0,1,.57-1.28,6,6,0,0,0,2-4.25c0-4.39-1.66-7.42-3.71-7.42S5,16.39,5,20.67a6,6,0,0,0,2,4.24,1.58,1.58,0,0,1,.53,1.3l-.06,1H0V9.07H5.38v2.46h.08a4.5,4.5,0,0,1,.74-1,6.06,6.06,0,0,1,1.16-.93,6.67,6.67,0,0,1,1.53-.67,6.6,6.6,0,0,1,1.87-.26,7.84,7.84,0,0,1,3.44.65,5,5,0,0,1,2,1.81,7.22,7.22,0,0,1,1,2.73A20.15,20.15,0,0,1,17.48,17.21Z"/><path class="cls-2" d="M8.73,23.3a2.19,2.19,0,0,0,.28,0,.85.85,0,0,0,.25-.05,2.41,2.41,0,0,0,.5-.21,3.36,3.36,0,0,0,.43-.31,3.75,3.75,0,0,0,.34-.36,2.78,2.78,0,0,0,.39-.69,1.06,1.06,0,0,0,.07-.22l0-.08,0,.08a1.47,1.47,0,0,1,0,.25,1.93,1.93,0,0,1,0,.4,2.09,2.09,0,0,1-.15.49,2.44,2.44,0,0,1-.78,1,2.35,2.35,0,0,1-.64.36,3.49,3.49,0,0,1-.38.1l-.35,0H8.53l-.19,0A2.37,2.37,0,0,1,8,24a2.51,2.51,0,0,1-1.12-.85,2.23,2.23,0,0,1-.3-.54,2,2,0,0,1-.15-.5,3,3,0,0,1,0-.39,1.31,1.31,0,0,1,0-.25l0-.08a.73.73,0,0,1,0,.08c0,.05,0,.14.08.23a2.61,2.61,0,0,0,.39.68,3.75,3.75,0,0,0,.34.36,2.78,2.78,0,0,0,.43.31,2,2,0,0,0,.5.21,1.1,1.1,0,0,0,.26.06h.28Z"/><path class="cls-3" d="M12.43,20.67a6,6,0,0,1-2,4.25,1.56,1.56,0,0,0-.57,1.28l.06,1H7.46l.06-1A1.58,1.58,0,0,0,7,24.91a6,6,0,0,1-2-4.24c0-4.28,1.66-7.42,3.7-7.42S12.43,16.28,12.43,20.67ZM11,22.08a1.93,1.93,0,0,0,0-.4,1.47,1.47,0,0,0,0-.25l0-.08,0,.08a1.06,1.06,0,0,1-.07.22,2.78,2.78,0,0,1-.39.69,3.75,3.75,0,0,1-.34.36,3.36,3.36,0,0,1-.43.31,2.41,2.41,0,0,1-.5.21.85.85,0,0,1-.25.05,2.19,2.19,0,0,1-.28,0H8.45a1.1,1.1,0,0,1-.26-.06,2,2,0,0,1-.5-.21,2.78,2.78,0,0,1-.43-.31,3.75,3.75,0,0,1-.34-.36,2.61,2.61,0,0,1-.39-.68c0-.09-.06-.18-.08-.23a.73.73,0,0,0,0-.08l0,.08a1.31,1.31,0,0,0,0,.25,3,3,0,0,0,0,.39,2,2,0,0,0,.15.5,2.44,2.44,0,0,0,.78,1A2.21,2.21,0,0,0,8,24a2.37,2.37,0,0,0,.36.09l.19,0h.21l.35,0a3.49,3.49,0,0,0,.38-.1,2.35,2.35,0,0,0,.64-.36,2.44,2.44,0,0,0,.78-1A2.09,2.09,0,0,0,11,22.08Z"/><path class="cls-1" d="M39.06,27.12H33.68V24.66H33.6a6.24,6.24,0,0,1-.76,1,5.11,5.11,0,0,1-1.14.94,7.14,7.14,0,0,1-1.53.67,6.6,6.6,0,0,1-1.87.26,8,8,0,0,1-3.46-.65,4.91,4.91,0,0,1-2.05-1.82,7,7,0,0,1-1-2.72,22.58,22.58,0,0,1-.24-3.4V9h5.6v8.89c0,.52,0,1.06.05,1.62A5.09,5.09,0,0,0,27.57,21a2.41,2.41,0,0,0,2.52,1.61,3.5,3.5,0,0,0,1.76-.39,2.73,2.73,0,0,0,1-1.05,4.28,4.28,0,0,0,.46-1.48A11.77,11.77,0,0,0,33.46,18V9h5.6Z"/><path class="cls-1" d="M55.38,13.45H50.45V19.5a11.19,11.19,0,0,0,.08,1.36,2.81,2.81,0,0,0,.33,1.07,1.73,1.73,0,0,0,.81.69,3.6,3.6,0,0,0,1.44.24,10,10,0,0,0,1.17-.09,2,2,0,0,0,1.1-.43V27a9,9,0,0,1-1.94.45,19.07,19.07,0,0,1-2,.11,10.63,10.63,0,0,1-2.61-.3,6.11,6.11,0,0,1-2.1-.95,4.58,4.58,0,0,1-1.4-1.7,5.93,5.93,0,0,1-.5-2.54V13.45H41.26V9h3.59V3.59h5.6V9h4.93Z"/><path class="cls-1" d="M58.22,9h5.61v2.91h.07A6.92,6.92,0,0,1,66,9.36a5.39,5.39,0,0,1,3.1-.84c.33,0,.65,0,1,0a5.63,5.63,0,0,1,.9.15v5.12a8.75,8.75,0,0,0-1.18-.28,7.82,7.82,0,0,0-1.21-.09,5.93,5.93,0,0,0-2.54.45,3.39,3.39,0,0,0-1.44,1.25A4.69,4.69,0,0,0,64,17.07a18.73,18.73,0,0,0-.15,2.47v7.58H58.22Z"/><path class="cls-1" d="M73.05,3.25A3.13,3.13,0,0,1,74,1,3.25,3.25,0,0,1,78.6,1a3.12,3.12,0,0,1,1,2.3,3.12,3.12,0,0,1-1,2.3,3.25,3.25,0,0,1-4.59,0A3.13,3.13,0,0,1,73.05,3.25ZM73.5,9h5.61V27.12H73.5Z"/><path class="cls-1" d="M95.51,13.45H90.57V19.5a11.19,11.19,0,0,0,.08,1.36A2.65,2.65,0,0,0,91,21.93a1.66,1.66,0,0,0,.8.69,3.6,3.6,0,0,0,1.44.24,9.85,9.85,0,0,0,1.17-.09,2,2,0,0,0,1.11-.43V27a9.07,9.07,0,0,1-2,.45,19.07,19.07,0,0,1-2,.11,10.75,10.75,0,0,1-2.61-.3,6,6,0,0,1-2.09-.95,4.4,4.4,0,0,1-1.4-1.7A5.78,5.78,0,0,1,85,22.08V13.45H81.38V9H85V3.59h5.6V9h4.94Z"/><path class="cls-1" d="M98,3.25a3.16,3.16,0,0,1,1-2.3,3.26,3.26,0,0,1,4.6,0,3.16,3.16,0,0,1,1,2.3,3.16,3.16,0,0,1-1,2.3,3.26,3.26,0,0,1-4.6,0A3.16,3.16,0,0,1,98,3.25ZM98.42,9H104V27.12h-5.6Z"/><path class="cls-1" d="M107.39,18a9.56,9.56,0,0,1,.78-3.92,9.05,9.05,0,0,1,2.15-3,9.6,9.6,0,0,1,3.21-1.92,11.92,11.92,0,0,1,7.88,0,9.55,9.55,0,0,1,3.22,1.92,9,9,0,0,1,2.14,3,9.4,9.4,0,0,1,.79,3.92,9.42,9.42,0,0,1-.79,3.93,8.89,8.89,0,0,1-2.14,3,9.41,9.41,0,0,1-3.22,1.93,11.92,11.92,0,0,1-7.88,0A9.46,9.46,0,0,1,110.32,25a8.91,8.91,0,0,1-2.15-3A9.57,9.57,0,0,1,107.39,18Zm5.6,0a4.69,4.69,0,0,0,1.18,3.33,4.94,4.94,0,0,0,6.61,0A4.74,4.74,0,0,0,122,18a4.71,4.71,0,0,0-1.18-3.32,4.94,4.94,0,0,0-6.61,0A4.67,4.67,0,0,0,113,18Z"/><path class="cls-1" d="M130.85,9h5.38v2.46h.07a4.06,4.06,0,0,1,.75-1,5.48,5.48,0,0,1,1.16-.94,6.31,6.31,0,0,1,1.53-.67,6.48,6.48,0,0,1,1.86-.26,7.81,7.81,0,0,1,3.44.65,5.06,5.06,0,0,1,2,1.81,7.57,7.57,0,0,1,1,2.73,21.25,21.25,0,0,1,.26,3.4v10h-5.6V18.23q0-.78-.06-1.62a5.09,5.09,0,0,0-.34-1.55,2.57,2.57,0,0,0-.86-1.16,2.65,2.65,0,0,0-1.66-.45,3.44,3.44,0,0,0-1.75.39,2.6,2.6,0,0,0-1,1.05,4.3,4.3,0,0,0-.47,1.47,13.56,13.56,0,0,0-.11,1.72v9h-5.6Z"/><path class="cls-1" d="M152.29,9h5.6v2.91H158a6.83,6.83,0,0,1,2.13-2.52,5.37,5.37,0,0,1,3.1-.84l1,0a6,6,0,0,1,.9.15v5.12a9.13,9.13,0,0,0-1.18-.28,8,8,0,0,0-1.22-.09,6,6,0,0,0-2.54.45,3.3,3.3,0,0,0-1.43,1.25,4.7,4.7,0,0,0-.66,1.92,18.73,18.73,0,0,0-.15,2.47v7.58h-5.6Z"/></g></g></svg>