<svg xmlns="http://www.w3.org/2000/svg" xmlns:xlink="http://www.w3.org/1999/xlink" viewBox="0 0 400 400"><defs><style>.cls-1{fill:url(#linear-gradient);}.cls-2{fill:#f7ce5b;}.cls-3{fill:#fff;}.cls-4{fill:#f6921e;}</style><linearGradient id="linear-gradient" x1="200" y1="410.42" x2="200" y2="-10.42" gradientUnits="userSpaceOnUse"><stop offset="0.13" stop-color="#11baa1"/><stop offset="1" stop-color="#11baa1"/></linearGradient></defs><title>logo-teal-sq</title><g id="options"><rect class="cls-1" x="-10.42" y="-10.42" width="420.84" height="420.84"/><path class="cls-2" d="M240,229.84c0,17-9.69,36.43-21.61,46.3a16.73,16.73,0,0,0-6.17,13.9l.66,11.1H186.07l.63-11A17,17,0,0,0,180.87,276c-11.76-9.91-21.36-29.29-21.36-46.15,0-46.49,18-80.62,40.26-80.62S240,182.21,240,229.84Z"/><path class="cls-3" d="M295.06,192.28V301.15H212.93l-.66-11.1a16.73,16.73,0,0,1,6.17-13.9c11.92-9.88,21.61-29.32,21.61-46.3,0-47.62-18-80.62-40.26-80.62s-40.26,34.13-40.26,80.62c0,16.86,9.59,36.24,21.36,46.15a17,17,0,0,1,5.82,14.12l-.63,11H104.94V103.73h58.51v26.8h.79a49.11,49.11,0,0,1,8.15-11.36A58.14,58.14,0,0,1,185,109a72.52,72.52,0,0,1,16.64-7.33,69.89,69.89,0,0,1,20.32-2.83q23.17,0,37.37,7.11a54.39,54.39,0,0,1,22.14,19.69q7.93,12.6,10.76,29.66A226,226,0,0,1,295.06,192.28Z"/><path class="cls-4" d="M174.83,237.26l.28.9a20,20,0,0,0,.82,2.46,29.08,29.08,0,0,0,4.22,7.41,29.82,29.82,0,0,0,3.71,3.92,26.28,26.28,0,0,0,4.68,3.38,24.3,24.3,0,0,0,5.42,2.32,20.42,20.42,0,0,0,2.89.6,7.46,7.46,0,0,0,1.47.16l.74,0,.37,0h.15a22.78,22.78,0,0,0,3.29-.26,21.07,21.07,0,0,0,2.76-.58,24.38,24.38,0,0,0,5.42-2.32,26.2,26.2,0,0,0,4.67-3.38,30,30,0,0,0,3.71-3.92,28.83,28.83,0,0,0,4.23-7.43,21.58,21.58,0,0,0,.82-2.43l.28-.9.18.92a13.77,13.77,0,0,1,.29,2.7,19.8,19.8,0,0,1-.28,4.29,23.78,23.78,0,0,1-1.58,5.41,27.16,27.16,0,0,1-8.49,11.17,24.9,24.9,0,0,1-7,3.87,21.39,21.39,0,0,1-4.11,1.08,28.4,28.4,0,0,1-3.79.38h-.48l-.26,0-.52,0-1-.07a12.66,12.66,0,0,1-2.06-.27,22,22,0,0,1-4-1.06,24.94,24.94,0,0,1-7-3.88,27.2,27.2,0,0,1-8.49-11.16,23.87,23.87,0,0,1-1.58-5.41,20.27,20.27,0,0,1-.29-4.32,13.16,13.16,0,0,1,.3-2.67Z"/></g></svg>